G04 EAGLE Gerber RS-274X export*
G75*
%MOMM*%
%FSLAX34Y34*%
%LPD*%
%INSoldermask Top*%
%IPPOS*%
%AMOC8*
5,1,8,0,0,1.08239X$1,22.5*%
G01*
%ADD10C,0.225369*%
%ADD11C,0.231750*%
%ADD12C,0.230578*%
%ADD13C,0.777000*%
%ADD14C,0.229969*%
%ADD15C,0.225938*%
%ADD16C,6.127000*%
%ADD17C,0.762000*%
%ADD18C,0.227100*%
%ADD19C,2.006600*%
%ADD20C,0.229050*%
%ADD21C,0.225400*%
%ADD22C,0.428259*%
%ADD23C,0.225588*%
%ADD24C,1.227000*%
%ADD25C,1.727000*%
%ADD26C,0.228959*%
%ADD27C,0.736600*%
%ADD28C,0.223409*%
%ADD29C,0.222700*%
%ADD30C,0.231559*%
%ADD31C,1.127000*%
%ADD32C,1.270000*%
%ADD33C,1.627000*%

G36*
X381441Y412531D02*
X381441Y412531D01*
X381450Y412535D01*
X381476Y412536D01*
X385310Y413370D01*
X385319Y413375D01*
X385344Y413380D01*
X389020Y414752D01*
X389028Y414757D01*
X389053Y414766D01*
X392496Y416647D01*
X392503Y416654D01*
X392526Y416666D01*
X395667Y419017D01*
X395673Y419025D01*
X395694Y419041D01*
X398469Y421815D01*
X398473Y421824D01*
X398492Y421842D01*
X400843Y424983D01*
X400847Y424992D01*
X400863Y425013D01*
X402743Y428457D01*
X402745Y428466D01*
X402758Y428489D01*
X404129Y432165D01*
X404130Y432175D01*
X404139Y432199D01*
X404973Y436033D01*
X404972Y436043D01*
X404978Y436069D01*
X405258Y439982D01*
X405256Y439992D01*
X405258Y440018D01*
X404978Y443931D01*
X404977Y443936D01*
X404977Y443939D01*
X404974Y443945D01*
X404973Y443967D01*
X404139Y447801D01*
X404134Y447809D01*
X404129Y447835D01*
X402758Y451511D01*
X402752Y451519D01*
X402743Y451543D01*
X400863Y454987D01*
X400856Y454994D01*
X400843Y455017D01*
X398492Y458158D01*
X398484Y458164D01*
X398469Y458185D01*
X395694Y460959D01*
X395686Y460964D01*
X395667Y460983D01*
X392526Y463334D01*
X392517Y463337D01*
X392496Y463353D01*
X389053Y465234D01*
X389043Y465236D01*
X389020Y465248D01*
X385344Y466620D01*
X385335Y466620D01*
X385310Y466630D01*
X381476Y467464D01*
X381466Y467463D01*
X381441Y467469D01*
X377527Y467749D01*
X377515Y467746D01*
X377482Y467749D01*
X373569Y467469D01*
X373559Y467465D01*
X373533Y467464D01*
X369699Y466630D01*
X369691Y466625D01*
X369665Y466620D01*
X365989Y465248D01*
X365981Y465243D01*
X365957Y465234D01*
X362513Y463353D01*
X362506Y463346D01*
X362483Y463334D01*
X359342Y460983D01*
X359336Y460975D01*
X359315Y460959D01*
X356541Y458185D01*
X356536Y458176D01*
X356517Y458158D01*
X354166Y455017D01*
X354163Y455008D01*
X354147Y454987D01*
X352266Y451543D01*
X352264Y451534D01*
X352252Y451511D01*
X350880Y447835D01*
X350880Y447825D01*
X350870Y447801D01*
X350036Y443967D01*
X350037Y443957D01*
X350031Y443931D01*
X349751Y440018D01*
X349753Y440008D01*
X349751Y439982D01*
X350031Y436069D01*
X350035Y436059D01*
X350036Y436033D01*
X350870Y432199D01*
X350875Y432191D01*
X350880Y432165D01*
X352252Y428489D01*
X352257Y428481D01*
X352266Y428457D01*
X354147Y425013D01*
X354154Y425006D01*
X354166Y424983D01*
X356517Y421842D01*
X356525Y421836D01*
X356541Y421815D01*
X359315Y419041D01*
X359324Y419036D01*
X359342Y419017D01*
X362483Y416666D01*
X362492Y416663D01*
X362513Y416647D01*
X365957Y414766D01*
X365966Y414764D01*
X365989Y414752D01*
X369665Y413380D01*
X369675Y413380D01*
X369699Y413370D01*
X373533Y412536D01*
X373543Y412537D01*
X373569Y412531D01*
X377482Y412251D01*
X377494Y412254D01*
X377527Y412251D01*
X381441Y412531D01*
G37*
%LPC*%
G36*
X374802Y422962D02*
X374802Y422962D01*
X372169Y423594D01*
X369669Y424630D01*
X367361Y426044D01*
X365302Y427802D01*
X363544Y429861D01*
X362130Y432169D01*
X361094Y434669D01*
X360462Y437302D01*
X360250Y440000D01*
X360462Y442698D01*
X361094Y445331D01*
X362130Y447831D01*
X363544Y450139D01*
X365302Y452198D01*
X367361Y453956D01*
X369669Y455370D01*
X372169Y456406D01*
X374802Y457038D01*
X377505Y457250D01*
X380208Y457038D01*
X382840Y456406D01*
X385341Y455370D01*
X387649Y453956D01*
X389707Y452198D01*
X391465Y450139D01*
X392879Y447831D01*
X393915Y445331D01*
X394547Y442698D01*
X394759Y440000D01*
X394547Y437302D01*
X393915Y434669D01*
X392879Y432169D01*
X391465Y429861D01*
X389707Y427802D01*
X387649Y426044D01*
X385341Y424630D01*
X382840Y423594D01*
X380208Y422962D01*
X377505Y422750D01*
X374802Y422962D01*
G37*
%LPD*%
G36*
X1431Y412531D02*
X1431Y412531D01*
X1441Y412535D01*
X1467Y412536D01*
X5301Y413370D01*
X5309Y413375D01*
X5335Y413380D01*
X9011Y414752D01*
X9019Y414757D01*
X9043Y414766D01*
X12487Y416647D01*
X12494Y416654D01*
X12517Y416666D01*
X15658Y419017D01*
X15664Y419025D01*
X15685Y419041D01*
X18459Y421815D01*
X18464Y421824D01*
X18483Y421842D01*
X20834Y424983D01*
X20837Y424992D01*
X20853Y425013D01*
X22734Y428457D01*
X22736Y428466D01*
X22748Y428489D01*
X24120Y432165D01*
X24120Y432175D01*
X24130Y432199D01*
X24964Y436033D01*
X24963Y436043D01*
X24969Y436069D01*
X25249Y439982D01*
X25247Y439992D01*
X25249Y440018D01*
X24969Y443931D01*
X24967Y443936D01*
X24968Y443939D01*
X24965Y443945D01*
X24964Y443967D01*
X24130Y447801D01*
X24125Y447809D01*
X24120Y447835D01*
X22748Y451511D01*
X22743Y451519D01*
X22734Y451543D01*
X20853Y454987D01*
X20846Y454994D01*
X20834Y455017D01*
X18483Y458158D01*
X18475Y458164D01*
X18459Y458185D01*
X15685Y460959D01*
X15676Y460964D01*
X15658Y460983D01*
X12517Y463334D01*
X12508Y463337D01*
X12487Y463353D01*
X9043Y465234D01*
X9034Y465236D01*
X9011Y465248D01*
X5335Y466620D01*
X5325Y466620D01*
X5301Y466630D01*
X1467Y467464D01*
X1457Y467463D01*
X1431Y467469D01*
X-2482Y467749D01*
X-2508Y467743D01*
X-2533Y467747D01*
X-2575Y467729D01*
X-2619Y467719D01*
X-2637Y467701D01*
X-2661Y467690D01*
X-2686Y467652D01*
X-2718Y467621D01*
X-2724Y467595D01*
X-2738Y467574D01*
X-2749Y467500D01*
X-2749Y457500D01*
X-2747Y457493D01*
X-2749Y457486D01*
X-2728Y457427D01*
X-2710Y457366D01*
X-2705Y457361D01*
X-2702Y457354D01*
X-2652Y457316D01*
X-2605Y457274D01*
X-2598Y457273D01*
X-2592Y457268D01*
X-2520Y457252D01*
X198Y457038D01*
X2831Y456406D01*
X5331Y455370D01*
X7639Y453956D01*
X9698Y452198D01*
X11456Y450139D01*
X12870Y447831D01*
X13906Y445331D01*
X14538Y442698D01*
X14750Y440000D01*
X14538Y437302D01*
X13906Y434669D01*
X12870Y432169D01*
X11456Y429861D01*
X9698Y427802D01*
X7639Y426044D01*
X5331Y424630D01*
X2831Y423594D01*
X198Y422962D01*
X-2520Y422748D01*
X-2526Y422746D01*
X-2533Y422747D01*
X-2591Y422721D01*
X-2650Y422699D01*
X-2655Y422693D01*
X-2661Y422690D01*
X-2696Y422637D01*
X-2734Y422587D01*
X-2734Y422580D01*
X-2738Y422574D01*
X-2749Y422500D01*
X-2749Y412500D01*
X-2742Y412475D01*
X-2744Y412449D01*
X-2723Y412409D01*
X-2710Y412366D01*
X-2690Y412349D01*
X-2678Y412326D01*
X-2639Y412304D01*
X-2605Y412274D01*
X-2579Y412270D01*
X-2556Y412257D01*
X-2482Y412251D01*
X1431Y412531D01*
G37*
G36*
X757517Y412257D02*
X757517Y412257D01*
X757543Y412253D01*
X757584Y412271D01*
X757628Y412281D01*
X757647Y412299D01*
X757671Y412310D01*
X757695Y412348D01*
X757728Y412379D01*
X757733Y412405D01*
X757748Y412427D01*
X757759Y412500D01*
X757759Y422500D01*
X757757Y422507D01*
X757758Y422514D01*
X757737Y422573D01*
X757719Y422634D01*
X757714Y422639D01*
X757712Y422646D01*
X757662Y422685D01*
X757614Y422726D01*
X757607Y422727D01*
X757601Y422732D01*
X757529Y422748D01*
X754811Y422962D01*
X752179Y423594D01*
X749678Y424630D01*
X747370Y426044D01*
X745312Y427802D01*
X743554Y429861D01*
X742140Y432169D01*
X741104Y434669D01*
X740472Y437302D01*
X740259Y440000D01*
X740472Y442698D01*
X741104Y445331D01*
X742140Y447831D01*
X743554Y450139D01*
X745312Y452198D01*
X747370Y453956D01*
X749678Y455370D01*
X752179Y456406D01*
X754811Y457038D01*
X757529Y457252D01*
X757536Y457254D01*
X757543Y457253D01*
X757601Y457279D01*
X757660Y457301D01*
X757664Y457307D01*
X757671Y457310D01*
X757705Y457363D01*
X757743Y457413D01*
X757744Y457421D01*
X757748Y457427D01*
X757759Y457500D01*
X757759Y467500D01*
X757751Y467525D01*
X757753Y467551D01*
X757732Y467591D01*
X757719Y467634D01*
X757700Y467651D01*
X757688Y467674D01*
X757648Y467696D01*
X757614Y467726D01*
X757588Y467730D01*
X757566Y467743D01*
X757492Y467749D01*
X753578Y467469D01*
X753569Y467465D01*
X753543Y467464D01*
X749709Y466630D01*
X749700Y466625D01*
X749675Y466620D01*
X745998Y465248D01*
X745991Y465243D01*
X745966Y465234D01*
X742522Y463353D01*
X742516Y463346D01*
X742492Y463334D01*
X739351Y460983D01*
X739346Y460975D01*
X739325Y460959D01*
X736550Y458185D01*
X736545Y458176D01*
X736527Y458158D01*
X734175Y455017D01*
X734172Y455008D01*
X734156Y454987D01*
X732276Y451543D01*
X732274Y451534D01*
X732261Y451511D01*
X730890Y447835D01*
X730889Y447825D01*
X730880Y447801D01*
X730046Y443967D01*
X730046Y443957D01*
X730041Y443931D01*
X729761Y440018D01*
X729763Y440008D01*
X729761Y439982D01*
X730041Y436069D01*
X730044Y436059D01*
X730046Y436033D01*
X730880Y432199D01*
X730884Y432191D01*
X730890Y432165D01*
X732261Y428489D01*
X732267Y428481D01*
X732276Y428457D01*
X734156Y425013D01*
X734163Y425006D01*
X734175Y424983D01*
X736527Y421842D01*
X736535Y421836D01*
X736550Y421815D01*
X739325Y419041D01*
X739333Y419036D01*
X739351Y419017D01*
X742492Y416666D01*
X742502Y416663D01*
X742522Y416647D01*
X745966Y414766D01*
X745975Y414764D01*
X745998Y414752D01*
X749675Y413380D01*
X749684Y413380D01*
X749709Y413370D01*
X753543Y412536D01*
X753552Y412537D01*
X753578Y412531D01*
X757492Y412251D01*
X757517Y412257D01*
G37*
G36*
X637943Y586668D02*
X637943Y586668D01*
X637949Y586673D01*
X637953Y586669D01*
X639049Y586956D01*
X639053Y586962D01*
X639058Y586959D01*
X640077Y587454D01*
X640081Y587460D01*
X640086Y587459D01*
X640989Y588143D01*
X640991Y588150D01*
X640996Y588150D01*
X641748Y588997D01*
X641749Y589004D01*
X641754Y589005D01*
X642326Y589982D01*
X642326Y589985D01*
X642326Y589986D01*
X642326Y589987D01*
X642325Y589989D01*
X642330Y589991D01*
X642701Y591062D01*
X642699Y591067D01*
X642703Y591069D01*
X642702Y591070D01*
X642703Y591071D01*
X642858Y592193D01*
X642856Y592198D01*
X642859Y592200D01*
X642859Y604200D01*
X642855Y604205D01*
X642858Y604208D01*
X642653Y605475D01*
X642647Y605481D01*
X642650Y605486D01*
X642169Y606675D01*
X642162Y606679D01*
X642164Y606685D01*
X641429Y607738D01*
X641422Y607740D01*
X641422Y607746D01*
X640472Y608609D01*
X640464Y608610D01*
X640463Y608615D01*
X639345Y609245D01*
X639337Y609244D01*
X639335Y609250D01*
X638104Y609615D01*
X638097Y609612D01*
X638093Y609617D01*
X636813Y609699D01*
X636812Y609699D01*
X636806Y609699D01*
X635525Y609617D01*
X635519Y609611D01*
X635515Y609615D01*
X634284Y609250D01*
X634279Y609243D01*
X634274Y609245D01*
X633156Y608615D01*
X633153Y608608D01*
X633147Y608609D01*
X632197Y607746D01*
X632195Y607738D01*
X632189Y607738D01*
X631455Y606685D01*
X631456Y606677D01*
X631450Y606675D01*
X630968Y605486D01*
X630970Y605480D01*
X630966Y605477D01*
X630967Y605476D01*
X630966Y605475D01*
X630761Y604208D01*
X630764Y604203D01*
X630760Y604200D01*
X630760Y592200D01*
X630763Y592196D01*
X630761Y592193D01*
X630916Y591071D01*
X630921Y591066D01*
X630918Y591062D01*
X631289Y589991D01*
X631295Y589987D01*
X631293Y589982D01*
X631865Y589005D01*
X631872Y589002D01*
X631871Y588997D01*
X632623Y588150D01*
X632630Y588148D01*
X632630Y588143D01*
X633533Y587459D01*
X633541Y587459D01*
X633542Y587454D01*
X634561Y586959D01*
X634568Y586961D01*
X634570Y586956D01*
X635666Y586669D01*
X635673Y586672D01*
X635676Y586668D01*
X636807Y586601D01*
X636810Y586603D01*
X636812Y586601D01*
X637943Y586668D01*
G37*
G36*
X724343Y586668D02*
X724343Y586668D01*
X724349Y586673D01*
X724353Y586669D01*
X725449Y586956D01*
X725453Y586962D01*
X725458Y586959D01*
X726477Y587454D01*
X726481Y587460D01*
X726486Y587459D01*
X727389Y588143D01*
X727391Y588150D01*
X727396Y588150D01*
X728148Y588997D01*
X728149Y589004D01*
X728154Y589005D01*
X728726Y589982D01*
X728726Y589985D01*
X728726Y589986D01*
X728726Y589987D01*
X728725Y589989D01*
X728730Y589991D01*
X729101Y591062D01*
X729099Y591067D01*
X729103Y591069D01*
X729102Y591070D01*
X729103Y591071D01*
X729258Y592193D01*
X729256Y592198D01*
X729259Y592200D01*
X729259Y604200D01*
X729255Y604205D01*
X729258Y604208D01*
X729053Y605475D01*
X729047Y605481D01*
X729050Y605486D01*
X728569Y606675D01*
X728562Y606679D01*
X728564Y606685D01*
X727829Y607738D01*
X727822Y607740D01*
X727822Y607746D01*
X726872Y608609D01*
X726864Y608610D01*
X726863Y608615D01*
X725745Y609245D01*
X725737Y609244D01*
X725735Y609250D01*
X724504Y609615D01*
X724497Y609612D01*
X724493Y609617D01*
X723213Y609699D01*
X723212Y609699D01*
X723206Y609699D01*
X721925Y609617D01*
X721919Y609611D01*
X721915Y609615D01*
X720684Y609250D01*
X720679Y609243D01*
X720674Y609245D01*
X719556Y608615D01*
X719553Y608608D01*
X719547Y608609D01*
X718597Y607746D01*
X718595Y607738D01*
X718589Y607738D01*
X717855Y606685D01*
X717856Y606677D01*
X717850Y606675D01*
X717368Y605486D01*
X717370Y605480D01*
X717366Y605477D01*
X717367Y605476D01*
X717366Y605475D01*
X717161Y604208D01*
X717164Y604203D01*
X717160Y604200D01*
X717160Y592200D01*
X717163Y592196D01*
X717161Y592193D01*
X717316Y591071D01*
X717321Y591066D01*
X717318Y591062D01*
X717689Y589991D01*
X717695Y589987D01*
X717693Y589982D01*
X718265Y589005D01*
X718272Y589002D01*
X718271Y588997D01*
X719023Y588150D01*
X719030Y588148D01*
X719030Y588143D01*
X719933Y587459D01*
X719941Y587459D01*
X719942Y587454D01*
X720961Y586959D01*
X720968Y586961D01*
X720970Y586956D01*
X722066Y586669D01*
X722073Y586672D01*
X722076Y586668D01*
X723207Y586601D01*
X723210Y586603D01*
X723212Y586601D01*
X724343Y586668D01*
G37*
G36*
X344334Y586668D02*
X344334Y586668D01*
X344339Y586673D01*
X344343Y586669D01*
X345440Y586956D01*
X345444Y586962D01*
X345449Y586959D01*
X346468Y587454D01*
X346471Y587460D01*
X346476Y587459D01*
X347379Y588143D01*
X347381Y588150D01*
X347386Y588150D01*
X348139Y588997D01*
X348139Y589004D01*
X348144Y589005D01*
X348717Y589982D01*
X348716Y589985D01*
X348717Y589986D01*
X348716Y589987D01*
X348716Y589989D01*
X348721Y589991D01*
X349092Y591062D01*
X349090Y591067D01*
X349093Y591069D01*
X349092Y591070D01*
X349094Y591071D01*
X349249Y592193D01*
X349246Y592198D01*
X349249Y592200D01*
X349249Y604200D01*
X349246Y604205D01*
X349249Y604208D01*
X349044Y605475D01*
X349038Y605481D01*
X349041Y605486D01*
X348559Y606675D01*
X348552Y606679D01*
X348554Y606685D01*
X347820Y607738D01*
X347812Y607740D01*
X347813Y607746D01*
X346863Y608609D01*
X346854Y608610D01*
X346854Y608615D01*
X345735Y609245D01*
X345727Y609244D01*
X345725Y609250D01*
X344495Y609615D01*
X344487Y609612D01*
X344484Y609617D01*
X343203Y609699D01*
X343197Y609699D01*
X341916Y609617D01*
X341910Y609611D01*
X341905Y609615D01*
X340675Y609250D01*
X340670Y609243D01*
X340665Y609245D01*
X339546Y608615D01*
X339543Y608608D01*
X339537Y608609D01*
X338587Y607746D01*
X338586Y607738D01*
X338580Y607738D01*
X337846Y606685D01*
X337846Y606677D01*
X337841Y606675D01*
X337359Y605486D01*
X337361Y605480D01*
X337357Y605477D01*
X337358Y605476D01*
X337356Y605475D01*
X337151Y604208D01*
X337154Y604203D01*
X337151Y604200D01*
X337151Y592200D01*
X337154Y592196D01*
X337151Y592193D01*
X337306Y591071D01*
X337311Y591066D01*
X337308Y591062D01*
X337679Y589991D01*
X337685Y589987D01*
X337683Y589982D01*
X338256Y589005D01*
X338262Y589002D01*
X338261Y588997D01*
X339014Y588150D01*
X339021Y588148D01*
X339021Y588143D01*
X339924Y587459D01*
X339931Y587459D01*
X339932Y587454D01*
X340951Y586959D01*
X340958Y586961D01*
X340960Y586956D01*
X342057Y586669D01*
X342063Y586672D01*
X342066Y586668D01*
X343197Y586601D01*
X343201Y586603D01*
X343203Y586601D01*
X344334Y586668D01*
G37*
G36*
X257934Y586668D02*
X257934Y586668D01*
X257939Y586673D01*
X257943Y586669D01*
X259040Y586956D01*
X259044Y586962D01*
X259049Y586959D01*
X260068Y587454D01*
X260071Y587460D01*
X260076Y587459D01*
X260979Y588143D01*
X260981Y588150D01*
X260986Y588150D01*
X261739Y588997D01*
X261739Y589004D01*
X261744Y589005D01*
X262317Y589982D01*
X262316Y589985D01*
X262317Y589986D01*
X262316Y589987D01*
X262316Y589989D01*
X262321Y589991D01*
X262692Y591062D01*
X262690Y591067D01*
X262693Y591069D01*
X262692Y591070D01*
X262694Y591071D01*
X262849Y592193D01*
X262846Y592198D01*
X262849Y592200D01*
X262849Y604200D01*
X262846Y604205D01*
X262849Y604208D01*
X262644Y605475D01*
X262638Y605481D01*
X262641Y605486D01*
X262159Y606675D01*
X262152Y606679D01*
X262154Y606685D01*
X261420Y607738D01*
X261412Y607740D01*
X261413Y607746D01*
X260463Y608609D01*
X260454Y608610D01*
X260454Y608615D01*
X259335Y609245D01*
X259327Y609244D01*
X259325Y609250D01*
X258095Y609615D01*
X258087Y609612D01*
X258084Y609617D01*
X256803Y609699D01*
X256797Y609699D01*
X255516Y609617D01*
X255510Y609611D01*
X255505Y609615D01*
X254275Y609250D01*
X254270Y609243D01*
X254265Y609245D01*
X253146Y608615D01*
X253143Y608608D01*
X253137Y608609D01*
X252187Y607746D01*
X252186Y607738D01*
X252180Y607738D01*
X251446Y606685D01*
X251446Y606677D01*
X251441Y606675D01*
X250959Y605486D01*
X250961Y605480D01*
X250957Y605477D01*
X250958Y605476D01*
X250956Y605475D01*
X250751Y604208D01*
X250754Y604203D01*
X250751Y604200D01*
X250751Y592200D01*
X250754Y592196D01*
X250751Y592193D01*
X250906Y591071D01*
X250911Y591066D01*
X250908Y591062D01*
X251279Y589991D01*
X251285Y589987D01*
X251283Y589982D01*
X251856Y589005D01*
X251862Y589002D01*
X251861Y588997D01*
X252614Y588150D01*
X252621Y588148D01*
X252621Y588143D01*
X253524Y587459D01*
X253531Y587459D01*
X253532Y587454D01*
X254551Y586959D01*
X254558Y586961D01*
X254560Y586956D01*
X255657Y586669D01*
X255663Y586672D01*
X255666Y586668D01*
X256797Y586601D01*
X256801Y586603D01*
X256803Y586601D01*
X257934Y586668D01*
G37*
G36*
X408537Y452102D02*
X408537Y452102D01*
X408550Y452103D01*
X408748Y452399D01*
X409044Y452695D01*
X409045Y452700D01*
X409049Y452700D01*
X409347Y453098D01*
X409844Y453595D01*
X409845Y453599D01*
X409847Y453598D01*
X410346Y454197D01*
X410944Y454795D01*
X410945Y454801D01*
X410949Y454801D01*
X411447Y455498D01*
X412744Y456795D01*
X412745Y456799D01*
X412747Y456798D01*
X413244Y457395D01*
X414238Y458190D01*
X414727Y458483D01*
X415314Y458581D01*
X417209Y458581D01*
X417211Y458582D01*
X417215Y458582D01*
X417216Y458582D01*
X417218Y458581D01*
X418418Y458781D01*
X418420Y458784D01*
X418422Y458783D01*
X419522Y459083D01*
X419525Y459086D01*
X419528Y459084D01*
X420528Y459484D01*
X420531Y459489D01*
X420535Y459488D01*
X421535Y460088D01*
X421537Y460094D01*
X421542Y460093D01*
X422342Y460793D01*
X422342Y460795D01*
X422344Y460795D01*
X423144Y461595D01*
X423145Y461600D01*
X423148Y461600D01*
X423848Y462500D01*
X423848Y462506D01*
X423852Y462506D01*
X424852Y464306D01*
X424851Y464315D01*
X424857Y464317D01*
X425357Y466117D01*
X425354Y466124D01*
X425359Y466127D01*
X425459Y467927D01*
X425454Y467935D01*
X425458Y467939D01*
X425158Y469539D01*
X425153Y469543D01*
X425156Y469547D01*
X424656Y470947D01*
X424650Y470950D01*
X424652Y470955D01*
X423952Y472155D01*
X423945Y472158D01*
X423946Y472163D01*
X423146Y473063D01*
X423133Y473065D01*
X423131Y473074D01*
X422331Y473474D01*
X422326Y473473D01*
X422323Y473477D01*
X422314Y473471D01*
X422273Y473463D01*
X422277Y473443D01*
X422260Y473430D01*
X422260Y472638D01*
X422068Y472062D01*
X421788Y471875D01*
X421501Y471779D01*
X420821Y471779D01*
X420034Y472173D01*
X419738Y472370D01*
X419339Y472669D01*
X419337Y472669D01*
X419337Y472671D01*
X419041Y472868D01*
X418750Y473159D01*
X418553Y473552D01*
X418549Y473554D01*
X418550Y473557D01*
X418355Y473850D01*
X418257Y474242D01*
X418255Y474244D01*
X418256Y474246D01*
X418161Y474530D01*
X418255Y474811D01*
X418353Y475008D01*
X418353Y475013D01*
X418356Y475014D01*
X418454Y475308D01*
X418646Y475596D01*
X419035Y475888D01*
X419426Y476083D01*
X419919Y476182D01*
X419920Y476183D01*
X419921Y476182D01*
X420315Y476281D01*
X420601Y476281D01*
X420894Y476183D01*
X420905Y476187D01*
X420909Y476181D01*
X421209Y476181D01*
X421220Y476189D01*
X421234Y476187D01*
X421235Y476200D01*
X421257Y476217D01*
X421241Y476238D01*
X421244Y476265D01*
X421144Y476365D01*
X421139Y476366D01*
X421139Y476369D01*
X420739Y476669D01*
X420732Y476669D01*
X420731Y476674D01*
X420131Y476974D01*
X420128Y476973D01*
X420127Y476976D01*
X419327Y477276D01*
X419325Y477276D01*
X419325Y477277D01*
X418425Y477577D01*
X418414Y477573D01*
X418409Y477579D01*
X417409Y477579D01*
X417404Y477575D01*
X417401Y477578D01*
X416301Y477378D01*
X416293Y477370D01*
X416286Y477373D01*
X415186Y476773D01*
X415182Y476766D01*
X415177Y476767D01*
X414277Y475967D01*
X414275Y475959D01*
X414269Y475959D01*
X413769Y475259D01*
X413770Y475248D01*
X413763Y475246D01*
X413463Y474346D01*
X413466Y474335D01*
X413460Y474330D01*
X413460Y473530D01*
X413465Y473524D01*
X413461Y473519D01*
X413661Y472619D01*
X413669Y472613D01*
X413666Y472606D01*
X414166Y471706D01*
X414173Y471703D01*
X414172Y471698D01*
X414872Y470898D01*
X414873Y470898D01*
X414873Y470897D01*
X415673Y469997D01*
X416367Y469203D01*
X416660Y468520D01*
X416660Y467838D01*
X416466Y467254D01*
X416076Y466767D01*
X415489Y466376D01*
X414703Y466179D01*
X413914Y466179D01*
X413424Y466277D01*
X412932Y466474D01*
X412641Y466668D01*
X412350Y466959D01*
X412155Y467349D01*
X412059Y467638D01*
X412059Y467922D01*
X412154Y468208D01*
X412348Y468499D01*
X412736Y468887D01*
X413025Y468983D01*
X413028Y468988D01*
X413031Y468986D01*
X413431Y469186D01*
X413437Y469196D01*
X413444Y469195D01*
X413544Y469295D01*
X413544Y469297D01*
X413546Y469297D01*
X413545Y469301D01*
X413552Y469354D01*
X413535Y469357D01*
X413531Y469374D01*
X413331Y469474D01*
X413316Y469471D01*
X413309Y469479D01*
X413115Y469479D01*
X412721Y469578D01*
X412713Y469574D01*
X412709Y469579D01*
X411909Y469579D01*
X411905Y469576D01*
X411901Y469579D01*
X411301Y469479D01*
X411296Y469473D01*
X411291Y469476D01*
X410291Y469076D01*
X410286Y469068D01*
X410280Y469069D01*
X409882Y468771D01*
X409384Y468472D01*
X409378Y468457D01*
X409367Y468455D01*
X409067Y467955D01*
X409068Y467952D01*
X409065Y467952D01*
X408765Y467352D01*
X408766Y467347D01*
X408763Y467346D01*
X408563Y466746D01*
X408565Y466738D01*
X408560Y466735D01*
X408360Y464935D01*
X408363Y464932D01*
X408360Y464930D01*
X408360Y452130D01*
X408396Y452083D01*
X408404Y452088D01*
X408409Y452081D01*
X408509Y452081D01*
X408537Y452102D01*
G37*
G36*
X28528Y452102D02*
X28528Y452102D01*
X28541Y452103D01*
X28738Y452399D01*
X29035Y452695D01*
X29036Y452700D01*
X29039Y452700D01*
X29337Y453098D01*
X29835Y453595D01*
X29835Y453599D01*
X29838Y453598D01*
X30337Y454197D01*
X30935Y454795D01*
X30936Y454801D01*
X30940Y454801D01*
X31438Y455498D01*
X32735Y456795D01*
X32735Y456799D01*
X32738Y456798D01*
X33235Y457395D01*
X34228Y458190D01*
X34717Y458483D01*
X35304Y458581D01*
X37200Y458581D01*
X37201Y458582D01*
X37206Y458582D01*
X37207Y458582D01*
X37208Y458581D01*
X38408Y458781D01*
X38411Y458784D01*
X38413Y458783D01*
X39513Y459083D01*
X39516Y459086D01*
X39518Y459084D01*
X40518Y459484D01*
X40521Y459489D01*
X40525Y459488D01*
X41525Y460088D01*
X41528Y460094D01*
X41532Y460093D01*
X42332Y460793D01*
X42333Y460795D01*
X42335Y460795D01*
X43135Y461595D01*
X43135Y461600D01*
X43139Y461600D01*
X43839Y462500D01*
X43839Y462506D01*
X43843Y462506D01*
X44843Y464306D01*
X44842Y464315D01*
X44847Y464317D01*
X45347Y466117D01*
X45345Y466124D01*
X45349Y466127D01*
X45449Y467927D01*
X45444Y467935D01*
X45448Y467939D01*
X45148Y469539D01*
X45144Y469543D01*
X45146Y469547D01*
X44646Y470947D01*
X44641Y470950D01*
X44643Y470955D01*
X43943Y472155D01*
X43936Y472158D01*
X43937Y472163D01*
X43137Y473063D01*
X43124Y473065D01*
X43122Y473074D01*
X42322Y473474D01*
X42317Y473473D01*
X42313Y473477D01*
X42305Y473471D01*
X42264Y473463D01*
X42267Y473443D01*
X42251Y473430D01*
X42251Y472638D01*
X42059Y472062D01*
X41778Y471875D01*
X41492Y471779D01*
X40812Y471779D01*
X40025Y472173D01*
X39729Y472370D01*
X39330Y472669D01*
X39327Y472669D01*
X39327Y472671D01*
X39031Y472868D01*
X38741Y473159D01*
X38544Y473552D01*
X38540Y473554D01*
X38541Y473557D01*
X38346Y473850D01*
X38248Y474242D01*
X38246Y474244D01*
X38247Y474246D01*
X38152Y474530D01*
X38246Y474811D01*
X38344Y475008D01*
X38343Y475013D01*
X38347Y475014D01*
X38445Y475308D01*
X38636Y475596D01*
X39026Y475888D01*
X39416Y476083D01*
X39910Y476182D01*
X39911Y476183D01*
X39912Y476182D01*
X40306Y476281D01*
X40592Y476281D01*
X40884Y476183D01*
X40895Y476187D01*
X40900Y476181D01*
X41200Y476181D01*
X41211Y476189D01*
X41224Y476187D01*
X41226Y476200D01*
X41247Y476217D01*
X41231Y476238D01*
X41235Y476265D01*
X41135Y476365D01*
X41130Y476366D01*
X41130Y476369D01*
X40730Y476669D01*
X40723Y476669D01*
X40722Y476674D01*
X40122Y476974D01*
X40118Y476973D01*
X40117Y476976D01*
X39317Y477276D01*
X39316Y477276D01*
X39316Y477277D01*
X38416Y477577D01*
X38405Y477573D01*
X38400Y477579D01*
X37400Y477579D01*
X37395Y477575D01*
X37391Y477578D01*
X36291Y477378D01*
X36283Y477370D01*
X36276Y477373D01*
X35176Y476773D01*
X35173Y476766D01*
X35167Y476767D01*
X34267Y475967D01*
X34266Y475959D01*
X34260Y475959D01*
X33760Y475259D01*
X33760Y475248D01*
X33753Y475246D01*
X33453Y474346D01*
X33457Y474335D01*
X33451Y474330D01*
X33451Y473530D01*
X33456Y473524D01*
X33452Y473519D01*
X33652Y472619D01*
X33660Y472613D01*
X33657Y472606D01*
X34157Y471706D01*
X34164Y471703D01*
X34163Y471698D01*
X34863Y470898D01*
X34863Y470897D01*
X35663Y469997D01*
X36358Y469203D01*
X36651Y468520D01*
X36651Y467838D01*
X36456Y467254D01*
X36066Y466767D01*
X35480Y466376D01*
X34694Y466179D01*
X33905Y466179D01*
X33414Y466277D01*
X32923Y466474D01*
X32631Y466668D01*
X32341Y466959D01*
X32146Y467349D01*
X32049Y467638D01*
X32049Y467922D01*
X32145Y468208D01*
X32338Y468499D01*
X32727Y468887D01*
X33016Y468983D01*
X33019Y468988D01*
X33022Y468986D01*
X33422Y469186D01*
X33427Y469196D01*
X33435Y469195D01*
X33535Y469295D01*
X33535Y469297D01*
X33536Y469297D01*
X33536Y469301D01*
X33543Y469354D01*
X33525Y469357D01*
X33522Y469374D01*
X33322Y469474D01*
X33306Y469471D01*
X33300Y469479D01*
X33106Y469479D01*
X32712Y469578D01*
X32704Y469574D01*
X32700Y469579D01*
X31900Y469579D01*
X31895Y469576D01*
X31892Y469579D01*
X31292Y469479D01*
X31286Y469473D01*
X31282Y469476D01*
X30282Y469076D01*
X30277Y469068D01*
X30270Y469069D01*
X29872Y468771D01*
X29375Y468472D01*
X29368Y468457D01*
X29358Y468455D01*
X29058Y467955D01*
X29058Y467952D01*
X29056Y467952D01*
X28756Y467352D01*
X28757Y467347D01*
X28753Y467346D01*
X28553Y466746D01*
X28556Y466738D01*
X28551Y466735D01*
X28351Y464935D01*
X28353Y464932D01*
X28351Y464930D01*
X28351Y452130D01*
X28387Y452083D01*
X28394Y452088D01*
X28400Y452081D01*
X28500Y452081D01*
X28528Y452102D01*
G37*
G36*
X636811Y630905D02*
X636811Y630905D01*
X636815Y630901D01*
X638155Y631058D01*
X638161Y631063D01*
X638166Y631060D01*
X639438Y631511D01*
X639442Y631518D01*
X639447Y631516D01*
X640587Y632238D01*
X640590Y632246D01*
X640595Y632245D01*
X641546Y633203D01*
X641547Y633211D01*
X641552Y633212D01*
X642265Y634357D01*
X642265Y634366D01*
X642270Y634367D01*
X642710Y635643D01*
X642708Y635650D01*
X642713Y635653D01*
X642858Y636995D01*
X642856Y636998D01*
X642859Y637000D01*
X642859Y643000D01*
X642856Y643004D01*
X642858Y643006D01*
X642703Y644335D01*
X642697Y644341D01*
X642700Y644345D01*
X642253Y645606D01*
X642246Y645611D01*
X642248Y645616D01*
X641532Y646746D01*
X641524Y646749D01*
X641525Y646755D01*
X640575Y647697D01*
X640567Y647698D01*
X640566Y647704D01*
X639430Y648411D01*
X639422Y648410D01*
X639420Y648416D01*
X638156Y648852D01*
X638148Y648850D01*
X638145Y648855D01*
X636815Y648999D01*
X636808Y648995D01*
X636805Y648999D01*
X635639Y648889D01*
X635633Y648884D01*
X635629Y648887D01*
X634507Y648552D01*
X634503Y648546D01*
X634498Y648548D01*
X633463Y648000D01*
X633460Y647994D01*
X633455Y647995D01*
X632546Y647256D01*
X632544Y647249D01*
X632539Y647249D01*
X631792Y646347D01*
X631792Y646340D01*
X631787Y646339D01*
X631230Y645308D01*
X631232Y645301D01*
X631227Y645299D01*
X630882Y644180D01*
X630885Y644173D01*
X630880Y644170D01*
X630760Y643005D01*
X630762Y643002D01*
X630760Y643000D01*
X630760Y637000D01*
X630762Y636997D01*
X630760Y636995D01*
X630871Y635819D01*
X630876Y635814D01*
X630873Y635810D01*
X631211Y634678D01*
X631217Y634674D01*
X631215Y634669D01*
X631767Y633625D01*
X631774Y633622D01*
X631773Y633617D01*
X632518Y632701D01*
X632525Y632700D01*
X632525Y632694D01*
X633435Y631941D01*
X633442Y631941D01*
X633443Y631936D01*
X634482Y631375D01*
X634489Y631376D01*
X634491Y631371D01*
X635620Y631024D01*
X635627Y631026D01*
X635629Y631022D01*
X636804Y630901D01*
X636811Y630905D01*
G37*
G36*
X256802Y630905D02*
X256802Y630905D01*
X256806Y630901D01*
X258146Y631058D01*
X258152Y631063D01*
X258157Y631060D01*
X259428Y631511D01*
X259433Y631518D01*
X259438Y631516D01*
X260577Y632238D01*
X260580Y632246D01*
X260586Y632245D01*
X261536Y633203D01*
X261537Y633211D01*
X261543Y633212D01*
X262256Y634357D01*
X262255Y634366D01*
X262261Y634367D01*
X262701Y635643D01*
X262699Y635650D01*
X262703Y635653D01*
X262849Y636995D01*
X262847Y636998D01*
X262849Y637000D01*
X262849Y643000D01*
X262847Y643004D01*
X262849Y643006D01*
X262694Y644335D01*
X262688Y644341D01*
X262691Y644345D01*
X262244Y645606D01*
X262237Y645611D01*
X262239Y645616D01*
X261522Y646746D01*
X261515Y646749D01*
X261516Y646755D01*
X260566Y647697D01*
X260557Y647698D01*
X260557Y647704D01*
X259421Y648411D01*
X259413Y648410D01*
X259411Y648416D01*
X258146Y648852D01*
X258138Y648850D01*
X258136Y648855D01*
X256805Y648999D01*
X256799Y648995D01*
X256795Y648999D01*
X255629Y648889D01*
X255624Y648884D01*
X255620Y648887D01*
X254497Y648552D01*
X254493Y648546D01*
X254489Y648548D01*
X253453Y648000D01*
X253450Y647994D01*
X253445Y647995D01*
X252537Y647256D01*
X252535Y647249D01*
X252530Y647249D01*
X251783Y646347D01*
X251783Y646340D01*
X251778Y646339D01*
X251221Y645308D01*
X251222Y645301D01*
X251217Y645299D01*
X250873Y644180D01*
X250875Y644173D01*
X250871Y644170D01*
X250751Y643005D01*
X250753Y643002D01*
X250751Y643000D01*
X250751Y637000D01*
X250753Y636997D01*
X250751Y636995D01*
X250862Y635819D01*
X250867Y635814D01*
X250864Y635810D01*
X251202Y634678D01*
X251208Y634674D01*
X251206Y634669D01*
X251758Y633625D01*
X251765Y633622D01*
X251763Y633617D01*
X252509Y632701D01*
X252516Y632700D01*
X252516Y632694D01*
X253426Y631941D01*
X253433Y631941D01*
X253434Y631936D01*
X254473Y631375D01*
X254480Y631376D01*
X254482Y631371D01*
X255611Y631024D01*
X255617Y631026D01*
X255620Y631022D01*
X256795Y630901D01*
X256802Y630905D01*
G37*
G36*
X343202Y630905D02*
X343202Y630905D01*
X343206Y630901D01*
X344546Y631058D01*
X344552Y631063D01*
X344557Y631060D01*
X345828Y631511D01*
X345833Y631518D01*
X345838Y631516D01*
X346977Y632238D01*
X346980Y632246D01*
X346986Y632245D01*
X347936Y633203D01*
X347937Y633211D01*
X347943Y633212D01*
X348656Y634357D01*
X348655Y634366D01*
X348661Y634367D01*
X349101Y635643D01*
X349099Y635650D01*
X349103Y635653D01*
X349249Y636995D01*
X349247Y636998D01*
X349249Y637000D01*
X349249Y643000D01*
X349247Y643004D01*
X349249Y643006D01*
X349094Y644335D01*
X349088Y644341D01*
X349091Y644345D01*
X348644Y645606D01*
X348637Y645611D01*
X348639Y645616D01*
X347922Y646746D01*
X347915Y646749D01*
X347916Y646755D01*
X346966Y647697D01*
X346957Y647698D01*
X346957Y647704D01*
X345821Y648411D01*
X345813Y648410D01*
X345811Y648416D01*
X344546Y648852D01*
X344538Y648850D01*
X344536Y648855D01*
X343205Y648999D01*
X343199Y648995D01*
X343195Y648999D01*
X342029Y648889D01*
X342024Y648884D01*
X342020Y648887D01*
X340897Y648552D01*
X340893Y648546D01*
X340889Y648548D01*
X339853Y648000D01*
X339850Y647994D01*
X339845Y647995D01*
X338937Y647256D01*
X338935Y647249D01*
X338930Y647249D01*
X338183Y646347D01*
X338183Y646340D01*
X338178Y646339D01*
X337621Y645308D01*
X337622Y645301D01*
X337617Y645299D01*
X337273Y644180D01*
X337275Y644173D01*
X337271Y644170D01*
X337151Y643005D01*
X337153Y643002D01*
X337151Y643000D01*
X337151Y637000D01*
X337153Y636997D01*
X337151Y636995D01*
X337262Y635819D01*
X337267Y635814D01*
X337264Y635810D01*
X337602Y634678D01*
X337608Y634674D01*
X337606Y634669D01*
X338158Y633625D01*
X338165Y633622D01*
X338163Y633617D01*
X338909Y632701D01*
X338916Y632700D01*
X338916Y632694D01*
X339826Y631941D01*
X339833Y631941D01*
X339834Y631936D01*
X340873Y631375D01*
X340880Y631376D01*
X340882Y631371D01*
X342011Y631024D01*
X342017Y631026D01*
X342020Y631022D01*
X343195Y630901D01*
X343202Y630905D01*
G37*
G36*
X723211Y630905D02*
X723211Y630905D01*
X723215Y630901D01*
X724555Y631058D01*
X724561Y631063D01*
X724566Y631060D01*
X725838Y631511D01*
X725842Y631518D01*
X725847Y631516D01*
X726987Y632238D01*
X726990Y632246D01*
X726995Y632245D01*
X727946Y633203D01*
X727947Y633211D01*
X727952Y633212D01*
X728665Y634357D01*
X728665Y634366D01*
X728670Y634367D01*
X729110Y635643D01*
X729108Y635650D01*
X729113Y635653D01*
X729258Y636995D01*
X729256Y636998D01*
X729259Y637000D01*
X729259Y643000D01*
X729256Y643004D01*
X729258Y643006D01*
X729103Y644335D01*
X729097Y644341D01*
X729100Y644345D01*
X728653Y645606D01*
X728646Y645611D01*
X728648Y645616D01*
X727932Y646746D01*
X727924Y646749D01*
X727925Y646755D01*
X726975Y647697D01*
X726967Y647698D01*
X726966Y647704D01*
X725830Y648411D01*
X725822Y648410D01*
X725820Y648416D01*
X724556Y648852D01*
X724548Y648850D01*
X724545Y648855D01*
X723215Y648999D01*
X723208Y648995D01*
X723205Y648999D01*
X722039Y648889D01*
X722033Y648884D01*
X722029Y648887D01*
X720907Y648552D01*
X720903Y648546D01*
X720898Y648548D01*
X719863Y648000D01*
X719860Y647994D01*
X719855Y647995D01*
X718946Y647256D01*
X718944Y647249D01*
X718939Y647249D01*
X718192Y646347D01*
X718192Y646340D01*
X718187Y646339D01*
X717630Y645308D01*
X717632Y645301D01*
X717627Y645299D01*
X717282Y644180D01*
X717285Y644173D01*
X717280Y644170D01*
X717160Y643005D01*
X717162Y643002D01*
X717160Y643000D01*
X717160Y637000D01*
X717162Y636997D01*
X717160Y636995D01*
X717271Y635819D01*
X717276Y635814D01*
X717273Y635810D01*
X717611Y634678D01*
X717617Y634674D01*
X717615Y634669D01*
X718167Y633625D01*
X718174Y633622D01*
X718173Y633617D01*
X718918Y632701D01*
X718925Y632700D01*
X718925Y632694D01*
X719835Y631941D01*
X719842Y631941D01*
X719843Y631936D01*
X720882Y631375D01*
X720889Y631376D01*
X720891Y631371D01*
X722020Y631024D01*
X722027Y631026D01*
X722029Y631022D01*
X723204Y630901D01*
X723211Y630905D01*
G37*
D10*
X323458Y53492D02*
X318442Y53492D01*
X318442Y64508D01*
X323458Y64508D01*
X323458Y53492D01*
X323458Y55633D02*
X318442Y55633D01*
X318442Y57774D02*
X323458Y57774D01*
X323458Y59915D02*
X318442Y59915D01*
X318442Y62056D02*
X323458Y62056D01*
X323458Y64197D02*
X318442Y64197D01*
X331142Y53492D02*
X336158Y53492D01*
X331142Y53492D02*
X331142Y64508D01*
X336158Y64508D01*
X336158Y53492D01*
X336158Y55633D02*
X331142Y55633D01*
X331142Y57774D02*
X336158Y57774D01*
X336158Y59915D02*
X331142Y59915D01*
X331142Y62056D02*
X336158Y62056D01*
X336158Y64197D02*
X331142Y64197D01*
X343842Y53492D02*
X348858Y53492D01*
X343842Y53492D02*
X343842Y64508D01*
X348858Y64508D01*
X348858Y53492D01*
X348858Y55633D02*
X343842Y55633D01*
X343842Y57774D02*
X348858Y57774D01*
X348858Y59915D02*
X343842Y59915D01*
X343842Y62056D02*
X348858Y62056D01*
X348858Y64197D02*
X343842Y64197D01*
X356542Y53492D02*
X361558Y53492D01*
X356542Y53492D02*
X356542Y64508D01*
X361558Y64508D01*
X361558Y53492D01*
X361558Y55633D02*
X356542Y55633D01*
X356542Y57774D02*
X361558Y57774D01*
X361558Y59915D02*
X356542Y59915D01*
X356542Y62056D02*
X361558Y62056D01*
X361558Y64197D02*
X356542Y64197D01*
X356542Y109492D02*
X361558Y109492D01*
X356542Y109492D02*
X356542Y120508D01*
X361558Y120508D01*
X361558Y109492D01*
X361558Y111633D02*
X356542Y111633D01*
X356542Y113774D02*
X361558Y113774D01*
X361558Y115915D02*
X356542Y115915D01*
X356542Y118056D02*
X361558Y118056D01*
X361558Y120197D02*
X356542Y120197D01*
X348858Y109492D02*
X343842Y109492D01*
X343842Y120508D01*
X348858Y120508D01*
X348858Y109492D01*
X348858Y111633D02*
X343842Y111633D01*
X343842Y113774D02*
X348858Y113774D01*
X348858Y115915D02*
X343842Y115915D01*
X343842Y118056D02*
X348858Y118056D01*
X348858Y120197D02*
X343842Y120197D01*
X336158Y109492D02*
X331142Y109492D01*
X331142Y120508D01*
X336158Y120508D01*
X336158Y109492D01*
X336158Y111633D02*
X331142Y111633D01*
X331142Y113774D02*
X336158Y113774D01*
X336158Y115915D02*
X331142Y115915D01*
X331142Y118056D02*
X336158Y118056D01*
X336158Y120197D02*
X331142Y120197D01*
X323458Y109492D02*
X318442Y109492D01*
X318442Y120508D01*
X323458Y120508D01*
X323458Y109492D01*
X323458Y111633D02*
X318442Y111633D01*
X318442Y113774D02*
X323458Y113774D01*
X323458Y115915D02*
X318442Y115915D01*
X318442Y118056D02*
X323458Y118056D01*
X323458Y120197D02*
X318442Y120197D01*
X318492Y132492D02*
X323508Y132492D01*
X318492Y132492D02*
X318492Y137508D01*
X323508Y137508D01*
X323508Y132492D01*
X323508Y134633D02*
X318492Y134633D01*
X318492Y136774D02*
X323508Y136774D01*
X328492Y132492D02*
X333508Y132492D01*
X328492Y132492D02*
X328492Y137508D01*
X333508Y137508D01*
X333508Y132492D01*
X333508Y134633D02*
X328492Y134633D01*
X328492Y136774D02*
X333508Y136774D01*
X302492Y113508D02*
X302492Y108492D01*
X302492Y113508D02*
X307508Y113508D01*
X307508Y108492D01*
X302492Y108492D01*
X302492Y110633D02*
X307508Y110633D01*
X307508Y112774D02*
X302492Y112774D01*
X302492Y103508D02*
X302492Y98492D01*
X302492Y103508D02*
X307508Y103508D01*
X307508Y98492D01*
X302492Y98492D01*
X302492Y100633D02*
X307508Y100633D01*
X307508Y102774D02*
X302492Y102774D01*
X283492Y93008D02*
X283492Y87992D01*
X283492Y93008D02*
X288508Y93008D01*
X288508Y87992D01*
X283492Y87992D01*
X283492Y90133D02*
X288508Y90133D01*
X288508Y92274D02*
X283492Y92274D01*
X283492Y83008D02*
X283492Y77992D01*
X283492Y83008D02*
X288508Y83008D01*
X288508Y77992D01*
X283492Y77992D01*
X283492Y80133D02*
X288508Y80133D01*
X288508Y82274D02*
X283492Y82274D01*
X274508Y83008D02*
X274508Y77992D01*
X269492Y77992D01*
X269492Y83008D01*
X274508Y83008D01*
X274508Y80133D02*
X269492Y80133D01*
X269492Y82274D02*
X274508Y82274D01*
X274508Y87992D02*
X274508Y93008D01*
X274508Y87992D02*
X269492Y87992D01*
X269492Y93008D01*
X274508Y93008D01*
X274508Y90133D02*
X269492Y90133D01*
X269492Y92274D02*
X274508Y92274D01*
D11*
X199024Y93976D02*
X199024Y87024D01*
X199024Y93976D02*
X206976Y93976D01*
X206976Y87024D01*
X199024Y87024D01*
X199024Y89226D02*
X206976Y89226D01*
X206976Y91428D02*
X199024Y91428D01*
X199024Y93630D02*
X206976Y93630D01*
X199024Y74976D02*
X199024Y68024D01*
X199024Y74976D02*
X206976Y74976D01*
X206976Y68024D01*
X199024Y68024D01*
X199024Y70226D02*
X206976Y70226D01*
X206976Y72428D02*
X199024Y72428D01*
X199024Y74630D02*
X206976Y74630D01*
X220024Y77524D02*
X220024Y84476D01*
X227976Y84476D01*
X227976Y77524D01*
X220024Y77524D01*
X220024Y79726D02*
X227976Y79726D01*
X227976Y81928D02*
X220024Y81928D01*
X220024Y84130D02*
X227976Y84130D01*
X129024Y87024D02*
X129024Y93976D01*
X136976Y93976D01*
X136976Y87024D01*
X129024Y87024D01*
X129024Y89226D02*
X136976Y89226D01*
X136976Y91428D02*
X129024Y91428D01*
X129024Y93630D02*
X136976Y93630D01*
X129024Y74976D02*
X129024Y68024D01*
X129024Y74976D02*
X136976Y74976D01*
X136976Y68024D01*
X129024Y68024D01*
X129024Y70226D02*
X136976Y70226D01*
X136976Y72428D02*
X129024Y72428D01*
X129024Y74630D02*
X136976Y74630D01*
X150024Y77524D02*
X150024Y84476D01*
X157976Y84476D01*
X157976Y77524D01*
X150024Y77524D01*
X150024Y79726D02*
X157976Y79726D01*
X157976Y81928D02*
X150024Y81928D01*
X150024Y84130D02*
X157976Y84130D01*
X234024Y77024D02*
X240976Y77024D01*
X234024Y77024D02*
X234024Y84976D01*
X240976Y84976D01*
X240976Y77024D01*
X240976Y79226D02*
X234024Y79226D01*
X234024Y81428D02*
X240976Y81428D01*
X240976Y83630D02*
X234024Y83630D01*
X253024Y77024D02*
X259976Y77024D01*
X253024Y77024D02*
X253024Y84976D01*
X259976Y84976D01*
X259976Y77024D01*
X259976Y79226D02*
X253024Y79226D01*
X253024Y81428D02*
X259976Y81428D01*
X259976Y83630D02*
X253024Y83630D01*
X250476Y98024D02*
X243524Y98024D01*
X243524Y105976D01*
X250476Y105976D01*
X250476Y98024D01*
X250476Y100226D02*
X243524Y100226D01*
X243524Y102428D02*
X250476Y102428D01*
X250476Y104630D02*
X243524Y104630D01*
X170976Y77024D02*
X164024Y77024D01*
X164024Y84976D01*
X170976Y84976D01*
X170976Y77024D01*
X170976Y79226D02*
X164024Y79226D01*
X164024Y81428D02*
X170976Y81428D01*
X170976Y83630D02*
X164024Y83630D01*
X183024Y77024D02*
X189976Y77024D01*
X183024Y77024D02*
X183024Y84976D01*
X189976Y84976D01*
X189976Y77024D01*
X189976Y79226D02*
X183024Y79226D01*
X183024Y81428D02*
X189976Y81428D01*
X189976Y83630D02*
X183024Y83630D01*
X180476Y98024D02*
X173524Y98024D01*
X173524Y105976D01*
X180476Y105976D01*
X180476Y98024D01*
X180476Y100226D02*
X173524Y100226D01*
X173524Y102428D02*
X180476Y102428D01*
X180476Y104630D02*
X173524Y104630D01*
D10*
X234992Y66992D02*
X240008Y66992D01*
X234992Y66992D02*
X234992Y72008D01*
X240008Y72008D01*
X240008Y66992D01*
X240008Y69133D02*
X234992Y69133D01*
X234992Y71274D02*
X240008Y71274D01*
X244992Y66992D02*
X250008Y66992D01*
X244992Y66992D02*
X244992Y72008D01*
X250008Y72008D01*
X250008Y66992D01*
X250008Y69133D02*
X244992Y69133D01*
X244992Y71274D02*
X250008Y71274D01*
X170008Y66992D02*
X164992Y66992D01*
X164992Y72008D01*
X170008Y72008D01*
X170008Y66992D01*
X170008Y69133D02*
X164992Y69133D01*
X164992Y71274D02*
X170008Y71274D01*
X174992Y66992D02*
X180008Y66992D01*
X174992Y66992D02*
X174992Y72008D01*
X180008Y72008D01*
X180008Y66992D01*
X180008Y69133D02*
X174992Y69133D01*
X174992Y71274D02*
X180008Y71274D01*
D12*
X291518Y596882D02*
X293482Y596882D01*
X293482Y587918D01*
X291518Y587918D01*
X291518Y596882D01*
X291518Y590109D02*
X293482Y590109D01*
X293482Y592300D02*
X291518Y592300D01*
X291518Y594491D02*
X293482Y594491D01*
X293482Y596682D02*
X291518Y596682D01*
X296518Y596882D02*
X298482Y596882D01*
X298482Y587918D01*
X296518Y587918D01*
X296518Y596882D01*
X296518Y590109D02*
X298482Y590109D01*
X298482Y592300D02*
X296518Y592300D01*
X296518Y594491D02*
X298482Y594491D01*
X298482Y596682D02*
X296518Y596682D01*
D10*
X270258Y596908D02*
X265242Y596908D01*
X270258Y596908D02*
X270258Y587892D01*
X265242Y587892D01*
X265242Y596908D01*
X265242Y590033D02*
X270258Y590033D01*
X270258Y592174D02*
X265242Y592174D01*
X265242Y594315D02*
X270258Y594315D01*
X270258Y596456D02*
X265242Y596456D01*
X272992Y596908D02*
X278008Y596908D01*
X278008Y587892D01*
X272992Y587892D01*
X272992Y596908D01*
X272992Y590033D02*
X278008Y590033D01*
X278008Y592174D02*
X272992Y592174D01*
X272992Y594315D02*
X278008Y594315D01*
X278008Y596456D02*
X272992Y596456D01*
D12*
X281518Y596882D02*
X283482Y596882D01*
X283482Y587918D01*
X281518Y587918D01*
X281518Y596882D01*
X281518Y590109D02*
X283482Y590109D01*
X283482Y592300D02*
X281518Y592300D01*
X281518Y594491D02*
X283482Y594491D01*
X283482Y596682D02*
X281518Y596682D01*
X286518Y596882D02*
X288482Y596882D01*
X288482Y587918D01*
X286518Y587918D01*
X286518Y596882D01*
X286518Y590109D02*
X288482Y590109D01*
X288482Y592300D02*
X286518Y592300D01*
X286518Y594491D02*
X288482Y594491D01*
X288482Y596682D02*
X286518Y596682D01*
X306518Y587918D02*
X308482Y587918D01*
X306518Y587918D02*
X306518Y596882D01*
X308482Y596882D01*
X308482Y587918D01*
X308482Y590109D02*
X306518Y590109D01*
X306518Y592300D02*
X308482Y592300D01*
X308482Y594491D02*
X306518Y594491D01*
X306518Y596682D02*
X308482Y596682D01*
X303482Y587918D02*
X301518Y587918D01*
X301518Y596882D01*
X303482Y596882D01*
X303482Y587918D01*
X303482Y590109D02*
X301518Y590109D01*
X301518Y592300D02*
X303482Y592300D01*
X303482Y594491D02*
X301518Y594491D01*
X301518Y596682D02*
X303482Y596682D01*
D10*
X329742Y587892D02*
X334758Y587892D01*
X329742Y587892D02*
X329742Y596908D01*
X334758Y596908D01*
X334758Y587892D01*
X334758Y590033D02*
X329742Y590033D01*
X329742Y592174D02*
X334758Y592174D01*
X334758Y594315D02*
X329742Y594315D01*
X329742Y596456D02*
X334758Y596456D01*
X327008Y587892D02*
X321992Y587892D01*
X321992Y596908D01*
X327008Y596908D01*
X327008Y587892D01*
X327008Y590033D02*
X321992Y590033D01*
X321992Y592174D02*
X327008Y592174D01*
X327008Y594315D02*
X321992Y594315D01*
X321992Y596456D02*
X327008Y596456D01*
D12*
X318482Y587918D02*
X316518Y587918D01*
X316518Y596882D01*
X318482Y596882D01*
X318482Y587918D01*
X318482Y590109D02*
X316518Y590109D01*
X316518Y592300D02*
X318482Y592300D01*
X318482Y594491D02*
X316518Y594491D01*
X316518Y596682D02*
X318482Y596682D01*
X313482Y587918D02*
X311518Y587918D01*
X311518Y596882D01*
X313482Y596882D01*
X313482Y587918D01*
X313482Y590109D02*
X311518Y590109D01*
X311518Y592300D02*
X313482Y592300D01*
X313482Y594491D02*
X311518Y594491D01*
X311518Y596682D02*
X313482Y596682D01*
D13*
X328900Y603450D03*
X271100Y603450D03*
D14*
X304265Y572585D02*
X304265Y567515D01*
X304265Y572585D02*
X305735Y572585D01*
X305735Y567515D01*
X304265Y567515D01*
X304265Y569700D02*
X305735Y569700D01*
X305735Y571885D02*
X304265Y571885D01*
X299265Y572585D02*
X299265Y568015D01*
X299265Y572585D02*
X300735Y572585D01*
X300735Y568015D01*
X299265Y568015D01*
X299265Y570200D02*
X300735Y570200D01*
X300735Y572385D02*
X299265Y572385D01*
X294265Y572585D02*
X294265Y568015D01*
X294265Y572585D02*
X295735Y572585D01*
X295735Y568015D01*
X294265Y568015D01*
X294265Y570200D02*
X295735Y570200D01*
X295735Y572385D02*
X294265Y572385D01*
X295735Y563985D02*
X295735Y559415D01*
X294265Y559415D01*
X294265Y563985D01*
X295735Y563985D01*
X295735Y561600D02*
X294265Y561600D01*
X294265Y563785D02*
X295735Y563785D01*
X300735Y563985D02*
X300735Y559415D01*
X299265Y559415D01*
X299265Y563985D01*
X300735Y563985D01*
X300735Y561600D02*
X299265Y561600D01*
X299265Y563785D02*
X300735Y563785D01*
X305735Y563985D02*
X305735Y559415D01*
X304265Y559415D01*
X304265Y563985D01*
X305735Y563985D01*
X305735Y561600D02*
X304265Y561600D01*
X304265Y563785D02*
X305735Y563785D01*
D10*
X270508Y570492D02*
X265492Y570492D01*
X265492Y575508D01*
X270508Y575508D01*
X270508Y570492D01*
X270508Y572633D02*
X265492Y572633D01*
X265492Y574774D02*
X270508Y574774D01*
X275492Y570492D02*
X280508Y570492D01*
X275492Y570492D02*
X275492Y575508D01*
X280508Y575508D01*
X280508Y570492D01*
X280508Y572633D02*
X275492Y572633D01*
X275492Y574774D02*
X280508Y574774D01*
X329492Y575508D02*
X334508Y575508D01*
X334508Y570492D01*
X329492Y570492D01*
X329492Y575508D01*
X329492Y572633D02*
X334508Y572633D01*
X334508Y574774D02*
X329492Y574774D01*
X324508Y575508D02*
X319492Y575508D01*
X324508Y575508D02*
X324508Y570492D01*
X319492Y570492D01*
X319492Y575508D01*
X319492Y572633D02*
X324508Y572633D01*
X324508Y574774D02*
X319492Y574774D01*
D15*
X187494Y583494D02*
X187494Y591506D01*
X196506Y591506D01*
X196506Y583494D01*
X187494Y583494D01*
X187494Y585640D02*
X196506Y585640D01*
X196506Y587786D02*
X187494Y587786D01*
X187494Y589932D02*
X196506Y589932D01*
X171494Y591506D02*
X171494Y583494D01*
X171494Y591506D02*
X180506Y591506D01*
X180506Y583494D01*
X171494Y583494D01*
X171494Y585640D02*
X180506Y585640D01*
X180506Y587786D02*
X171494Y587786D01*
X171494Y589932D02*
X180506Y589932D01*
X171494Y624494D02*
X171494Y632506D01*
X180506Y632506D01*
X180506Y624494D01*
X171494Y624494D01*
X171494Y626640D02*
X180506Y626640D01*
X180506Y628786D02*
X171494Y628786D01*
X171494Y630932D02*
X180506Y630932D01*
X187494Y632506D02*
X187494Y624494D01*
X187494Y632506D02*
X196506Y632506D01*
X196506Y624494D01*
X187494Y624494D01*
X187494Y626640D02*
X196506Y626640D01*
X196506Y628786D02*
X187494Y628786D01*
X187494Y630932D02*
X196506Y630932D01*
D16*
X200000Y510300D03*
D17*
X370000Y45000D03*
X5000Y645000D03*
D18*
X248850Y543350D02*
X254150Y543350D01*
X248850Y543350D02*
X248850Y550650D01*
X254150Y550650D01*
X254150Y543350D01*
X254150Y545507D02*
X248850Y545507D01*
X248850Y547664D02*
X254150Y547664D01*
X254150Y549821D02*
X248850Y549821D01*
X271850Y543350D02*
X277150Y543350D01*
X271850Y543350D02*
X271850Y550650D01*
X277150Y550650D01*
X277150Y543350D01*
X277150Y545507D02*
X271850Y545507D01*
X271850Y547664D02*
X277150Y547664D01*
X277150Y549821D02*
X271850Y549821D01*
X134150Y102050D02*
X128850Y102050D01*
X128850Y109350D01*
X134150Y109350D01*
X134150Y102050D01*
X134150Y104207D02*
X128850Y104207D01*
X128850Y106364D02*
X134150Y106364D01*
X134150Y108521D02*
X128850Y108521D01*
X151850Y102050D02*
X157150Y102050D01*
X151850Y102050D02*
X151850Y109350D01*
X157150Y109350D01*
X157150Y102050D01*
X157150Y104207D02*
X151850Y104207D01*
X151850Y106364D02*
X157150Y106364D01*
X157150Y108521D02*
X151850Y108521D01*
D19*
X97000Y94700D03*
X97000Y69300D03*
D20*
X83490Y78510D02*
X54510Y78510D01*
X54510Y91490D01*
X83490Y91490D01*
X83490Y78510D01*
X83490Y80686D02*
X54510Y80686D01*
X54510Y82862D02*
X83490Y82862D01*
X83490Y85038D02*
X54510Y85038D01*
X54510Y87214D02*
X83490Y87214D01*
X83490Y89390D02*
X54510Y89390D01*
X35490Y78510D02*
X6510Y78510D01*
X6510Y91490D01*
X35490Y91490D01*
X35490Y78510D01*
X35490Y80686D02*
X6510Y80686D01*
X6510Y82862D02*
X35490Y82862D01*
X35490Y85038D02*
X6510Y85038D01*
X6510Y87214D02*
X35490Y87214D01*
X35490Y89390D02*
X6510Y89390D01*
X54510Y153510D02*
X83490Y153510D01*
X54510Y153510D02*
X54510Y166490D01*
X83490Y166490D01*
X83490Y153510D01*
X83490Y155686D02*
X54510Y155686D01*
X54510Y157862D02*
X83490Y157862D01*
X83490Y160038D02*
X54510Y160038D01*
X54510Y162214D02*
X83490Y162214D01*
X83490Y164390D02*
X54510Y164390D01*
X35490Y153510D02*
X6510Y153510D01*
X6510Y166490D01*
X35490Y166490D01*
X35490Y153510D01*
X35490Y155686D02*
X6510Y155686D01*
X6510Y157862D02*
X35490Y157862D01*
X35490Y160038D02*
X6510Y160038D01*
X6510Y162214D02*
X35490Y162214D01*
X35490Y164390D02*
X6510Y164390D01*
D10*
X318492Y176492D02*
X323508Y176492D01*
X318492Y176492D02*
X318492Y181508D01*
X323508Y181508D01*
X323508Y176492D01*
X323508Y178633D02*
X318492Y178633D01*
X318492Y180774D02*
X323508Y180774D01*
X328492Y176492D02*
X333508Y176492D01*
X328492Y176492D02*
X328492Y181508D01*
X333508Y181508D01*
X333508Y176492D01*
X333508Y178633D02*
X328492Y178633D01*
X328492Y180774D02*
X333508Y180774D01*
D21*
X125508Y644008D02*
X116492Y644008D01*
X125508Y644008D02*
X125508Y621992D01*
X116492Y621992D01*
X116492Y644008D01*
X116492Y624133D02*
X125508Y624133D01*
X125508Y626274D02*
X116492Y626274D01*
X116492Y628415D02*
X125508Y628415D01*
X125508Y630556D02*
X116492Y630556D01*
X116492Y632697D02*
X125508Y632697D01*
X125508Y634838D02*
X116492Y634838D01*
X116492Y636979D02*
X125508Y636979D01*
X125508Y639120D02*
X116492Y639120D01*
X116492Y641261D02*
X125508Y641261D01*
X125508Y643402D02*
X116492Y643402D01*
X116492Y572008D02*
X125508Y572008D01*
X125508Y549992D01*
X116492Y549992D01*
X116492Y572008D01*
X116492Y552133D02*
X125508Y552133D01*
X125508Y554274D02*
X116492Y554274D01*
X116492Y556415D02*
X125508Y556415D01*
X125508Y558556D02*
X116492Y558556D01*
X116492Y560697D02*
X125508Y560697D01*
X125508Y562838D02*
X116492Y562838D01*
X116492Y564979D02*
X125508Y564979D01*
X125508Y567120D02*
X116492Y567120D01*
X116492Y569261D02*
X125508Y569261D01*
X125508Y571402D02*
X116492Y571402D01*
X23508Y572008D02*
X14492Y572008D01*
X23508Y572008D02*
X23508Y549992D01*
X14492Y549992D01*
X14492Y572008D01*
X14492Y552133D02*
X23508Y552133D01*
X23508Y554274D02*
X14492Y554274D01*
X14492Y556415D02*
X23508Y556415D01*
X23508Y558556D02*
X14492Y558556D01*
X14492Y560697D02*
X23508Y560697D01*
X23508Y562838D02*
X14492Y562838D01*
X14492Y564979D02*
X23508Y564979D01*
X23508Y567120D02*
X14492Y567120D01*
X14492Y569261D02*
X23508Y569261D01*
X23508Y571402D02*
X14492Y571402D01*
X14492Y644008D02*
X23508Y644008D01*
X23508Y621992D01*
X14492Y621992D01*
X14492Y644008D01*
X14492Y624133D02*
X23508Y624133D01*
X23508Y626274D02*
X14492Y626274D01*
X14492Y628415D02*
X23508Y628415D01*
X23508Y630556D02*
X14492Y630556D01*
X14492Y632697D02*
X23508Y632697D01*
X23508Y634838D02*
X14492Y634838D01*
X14492Y636979D02*
X23508Y636979D01*
X23508Y639120D02*
X14492Y639120D01*
X14492Y641261D02*
X23508Y641261D01*
X23508Y643402D02*
X14492Y643402D01*
D11*
X114524Y607976D02*
X123476Y607976D01*
X123476Y601024D01*
X114524Y601024D01*
X114524Y607976D01*
X114524Y603226D02*
X123476Y603226D01*
X123476Y605428D02*
X114524Y605428D01*
X114524Y607630D02*
X123476Y607630D01*
X25476Y607976D02*
X16524Y607976D01*
X25476Y607976D02*
X25476Y601024D01*
X16524Y601024D01*
X16524Y607976D01*
X16524Y603226D02*
X25476Y603226D01*
X25476Y605428D02*
X16524Y605428D01*
X16524Y607630D02*
X25476Y607630D01*
X25476Y595976D02*
X16524Y595976D01*
X25476Y595976D02*
X25476Y589024D01*
X16524Y589024D01*
X16524Y595976D01*
X16524Y591226D02*
X25476Y591226D01*
X25476Y593428D02*
X16524Y593428D01*
X16524Y595630D02*
X25476Y595630D01*
X25476Y583976D02*
X16524Y583976D01*
X25476Y583976D02*
X25476Y577024D01*
X16524Y577024D01*
X16524Y583976D01*
X16524Y579226D02*
X25476Y579226D01*
X25476Y581428D02*
X16524Y581428D01*
X16524Y583630D02*
X25476Y583630D01*
X114524Y595976D02*
X123476Y595976D01*
X123476Y589024D01*
X114524Y589024D01*
X114524Y595976D01*
X114524Y591226D02*
X123476Y591226D01*
X123476Y593428D02*
X114524Y593428D01*
X114524Y595630D02*
X123476Y595630D01*
X123476Y583976D02*
X114524Y583976D01*
X123476Y583976D02*
X123476Y577024D01*
X114524Y577024D01*
X114524Y583976D01*
X114524Y579226D02*
X123476Y579226D01*
X123476Y581428D02*
X114524Y581428D01*
X114524Y583630D02*
X123476Y583630D01*
D21*
X93208Y526258D02*
X83192Y526258D01*
X93208Y526258D02*
X93208Y517242D01*
X83192Y517242D01*
X83192Y526258D01*
X83192Y519383D02*
X93208Y519383D01*
X93208Y521524D02*
X83192Y521524D01*
X83192Y523665D02*
X93208Y523665D01*
X93208Y525806D02*
X83192Y525806D01*
X56808Y526258D02*
X46792Y526258D01*
X56808Y526258D02*
X56808Y517242D01*
X46792Y517242D01*
X46792Y526258D01*
X46792Y519383D02*
X56808Y519383D01*
X56808Y521524D02*
X46792Y521524D01*
X46792Y523665D02*
X56808Y523665D01*
X56808Y525806D02*
X46792Y525806D01*
D10*
X46508Y222508D02*
X41492Y222508D01*
X46508Y222508D02*
X46508Y217492D01*
X41492Y217492D01*
X41492Y222508D01*
X41492Y219633D02*
X46508Y219633D01*
X46508Y221774D02*
X41492Y221774D01*
X36508Y222508D02*
X31492Y222508D01*
X36508Y222508D02*
X36508Y217492D01*
X31492Y217492D01*
X31492Y222508D01*
X31492Y219633D02*
X36508Y219633D01*
X36508Y221774D02*
X31492Y221774D01*
D22*
X151276Y627506D02*
X151276Y634494D01*
X158264Y634494D01*
X158264Y627506D01*
X151276Y627506D01*
X151276Y631575D02*
X158264Y631575D01*
X133736Y634494D02*
X133736Y627506D01*
X133736Y634494D02*
X140724Y634494D01*
X140724Y627506D01*
X133736Y627506D01*
X133736Y631575D02*
X140724Y631575D01*
X151276Y599494D02*
X151276Y592506D01*
X151276Y599494D02*
X158264Y599494D01*
X158264Y592506D01*
X151276Y592506D01*
X151276Y596575D02*
X158264Y596575D01*
X133736Y599494D02*
X133736Y592506D01*
X133736Y599494D02*
X140724Y599494D01*
X140724Y592506D01*
X133736Y592506D01*
X133736Y596575D02*
X140724Y596575D01*
D10*
X138492Y615492D02*
X143508Y615492D01*
X138492Y615492D02*
X138492Y620508D01*
X143508Y620508D01*
X143508Y615492D01*
X143508Y617633D02*
X138492Y617633D01*
X138492Y619774D02*
X143508Y619774D01*
X148492Y615492D02*
X153508Y615492D01*
X148492Y615492D02*
X148492Y620508D01*
X153508Y620508D01*
X153508Y615492D01*
X153508Y617633D02*
X148492Y617633D01*
X148492Y619774D02*
X153508Y619774D01*
X143508Y580492D02*
X138492Y580492D01*
X138492Y585508D01*
X143508Y585508D01*
X143508Y580492D01*
X143508Y582633D02*
X138492Y582633D01*
X138492Y584774D02*
X143508Y584774D01*
X148492Y580492D02*
X153508Y580492D01*
X148492Y580492D02*
X148492Y585508D01*
X153508Y585508D01*
X153508Y580492D01*
X153508Y582633D02*
X148492Y582633D01*
X148492Y584774D02*
X153508Y584774D01*
D22*
X151276Y564494D02*
X151276Y557506D01*
X151276Y564494D02*
X158264Y564494D01*
X158264Y557506D01*
X151276Y557506D01*
X151276Y561575D02*
X158264Y561575D01*
X133736Y564494D02*
X133736Y557506D01*
X133736Y564494D02*
X140724Y564494D01*
X140724Y557506D01*
X133736Y557506D01*
X133736Y561575D02*
X140724Y561575D01*
D10*
X138492Y545492D02*
X143508Y545492D01*
X138492Y545492D02*
X138492Y550508D01*
X143508Y550508D01*
X143508Y545492D01*
X143508Y547633D02*
X138492Y547633D01*
X138492Y549774D02*
X143508Y549774D01*
X148492Y545492D02*
X153508Y545492D01*
X148492Y545492D02*
X148492Y550508D01*
X153508Y550508D01*
X153508Y545492D01*
X153508Y547633D02*
X148492Y547633D01*
X148492Y549774D02*
X153508Y549774D01*
X36508Y202492D02*
X31492Y202492D01*
X31492Y207508D01*
X36508Y207508D01*
X36508Y202492D01*
X36508Y204633D02*
X31492Y204633D01*
X31492Y206774D02*
X36508Y206774D01*
X41492Y202492D02*
X46508Y202492D01*
X41492Y202492D02*
X41492Y207508D01*
X46508Y207508D01*
X46508Y202492D01*
X46508Y204633D02*
X41492Y204633D01*
X41492Y206774D02*
X46508Y206774D01*
D11*
X35476Y499476D02*
X28524Y499476D01*
X35476Y499476D02*
X35476Y488524D01*
X28524Y488524D01*
X28524Y499476D01*
X28524Y490726D02*
X35476Y490726D01*
X35476Y492928D02*
X28524Y492928D01*
X28524Y495130D02*
X35476Y495130D01*
X35476Y497332D02*
X28524Y497332D01*
X17476Y499476D02*
X10524Y499476D01*
X17476Y499476D02*
X17476Y488524D01*
X10524Y488524D01*
X10524Y499476D01*
X10524Y490726D02*
X17476Y490726D01*
X17476Y492928D02*
X10524Y492928D01*
X10524Y495130D02*
X17476Y495130D01*
X17476Y497332D02*
X10524Y497332D01*
D12*
X291518Y131982D02*
X293482Y131982D01*
X293482Y117518D01*
X291518Y117518D01*
X291518Y131982D01*
X291518Y119709D02*
X293482Y119709D01*
X293482Y121900D02*
X291518Y121900D01*
X291518Y124091D02*
X293482Y124091D01*
X293482Y126282D02*
X291518Y126282D01*
X291518Y128473D02*
X293482Y128473D01*
X293482Y130664D02*
X291518Y130664D01*
X290982Y207482D02*
X289018Y207482D01*
X290982Y207482D02*
X290982Y193018D01*
X289018Y193018D01*
X289018Y207482D01*
X289018Y195209D02*
X290982Y195209D01*
X290982Y197400D02*
X289018Y197400D01*
X289018Y199591D02*
X290982Y199591D01*
X290982Y201782D02*
X289018Y201782D01*
X289018Y203973D02*
X290982Y203973D01*
X290982Y206164D02*
X289018Y206164D01*
X288482Y131982D02*
X286518Y131982D01*
X288482Y131982D02*
X288482Y117518D01*
X286518Y117518D01*
X286518Y131982D01*
X286518Y119709D02*
X288482Y119709D01*
X288482Y121900D02*
X286518Y121900D01*
X286518Y124091D02*
X288482Y124091D01*
X288482Y126282D02*
X286518Y126282D01*
X286518Y128473D02*
X288482Y128473D01*
X288482Y130664D02*
X286518Y130664D01*
X285982Y207482D02*
X284018Y207482D01*
X285982Y207482D02*
X285982Y193018D01*
X284018Y193018D01*
X284018Y207482D01*
X284018Y195209D02*
X285982Y195209D01*
X285982Y197400D02*
X284018Y197400D01*
X284018Y199591D02*
X285982Y199591D01*
X285982Y201782D02*
X284018Y201782D01*
X284018Y203973D02*
X285982Y203973D01*
X285982Y206164D02*
X284018Y206164D01*
X283482Y131982D02*
X281518Y131982D01*
X283482Y131982D02*
X283482Y117518D01*
X281518Y117518D01*
X281518Y131982D01*
X281518Y119709D02*
X283482Y119709D01*
X283482Y121900D02*
X281518Y121900D01*
X281518Y124091D02*
X283482Y124091D01*
X283482Y126282D02*
X281518Y126282D01*
X281518Y128473D02*
X283482Y128473D01*
X283482Y130664D02*
X281518Y130664D01*
X280982Y207482D02*
X279018Y207482D01*
X280982Y207482D02*
X280982Y193018D01*
X279018Y193018D01*
X279018Y207482D01*
X279018Y195209D02*
X280982Y195209D01*
X280982Y197400D02*
X279018Y197400D01*
X279018Y199591D02*
X280982Y199591D01*
X280982Y201782D02*
X279018Y201782D01*
X279018Y203973D02*
X280982Y203973D01*
X280982Y206164D02*
X279018Y206164D01*
X278482Y131982D02*
X276518Y131982D01*
X278482Y131982D02*
X278482Y117518D01*
X276518Y117518D01*
X276518Y131982D01*
X276518Y119709D02*
X278482Y119709D01*
X278482Y121900D02*
X276518Y121900D01*
X276518Y124091D02*
X278482Y124091D01*
X278482Y126282D02*
X276518Y126282D01*
X276518Y128473D02*
X278482Y128473D01*
X278482Y130664D02*
X276518Y130664D01*
X275982Y207482D02*
X274018Y207482D01*
X275982Y207482D02*
X275982Y193018D01*
X274018Y193018D01*
X274018Y207482D01*
X274018Y195209D02*
X275982Y195209D01*
X275982Y197400D02*
X274018Y197400D01*
X274018Y199591D02*
X275982Y199591D01*
X275982Y201782D02*
X274018Y201782D01*
X274018Y203973D02*
X275982Y203973D01*
X275982Y206164D02*
X274018Y206164D01*
X273482Y131982D02*
X271518Y131982D01*
X273482Y131982D02*
X273482Y117518D01*
X271518Y117518D01*
X271518Y131982D01*
X271518Y119709D02*
X273482Y119709D01*
X273482Y121900D02*
X271518Y121900D01*
X271518Y124091D02*
X273482Y124091D01*
X273482Y126282D02*
X271518Y126282D01*
X271518Y128473D02*
X273482Y128473D01*
X273482Y130664D02*
X271518Y130664D01*
X270982Y207482D02*
X269018Y207482D01*
X270982Y207482D02*
X270982Y193018D01*
X269018Y193018D01*
X269018Y207482D01*
X269018Y195209D02*
X270982Y195209D01*
X270982Y197400D02*
X269018Y197400D01*
X269018Y199591D02*
X270982Y199591D01*
X270982Y201782D02*
X269018Y201782D01*
X269018Y203973D02*
X270982Y203973D01*
X270982Y206164D02*
X269018Y206164D01*
X268482Y131982D02*
X266518Y131982D01*
X268482Y131982D02*
X268482Y117518D01*
X266518Y117518D01*
X266518Y131982D01*
X266518Y119709D02*
X268482Y119709D01*
X268482Y121900D02*
X266518Y121900D01*
X266518Y124091D02*
X268482Y124091D01*
X268482Y126282D02*
X266518Y126282D01*
X266518Y128473D02*
X268482Y128473D01*
X268482Y130664D02*
X266518Y130664D01*
X265982Y207482D02*
X264018Y207482D01*
X265982Y207482D02*
X265982Y193018D01*
X264018Y193018D01*
X264018Y207482D01*
X264018Y195209D02*
X265982Y195209D01*
X265982Y197400D02*
X264018Y197400D01*
X264018Y199591D02*
X265982Y199591D01*
X265982Y201782D02*
X264018Y201782D01*
X264018Y203973D02*
X265982Y203973D01*
X265982Y206164D02*
X264018Y206164D01*
X263482Y131982D02*
X261518Y131982D01*
X263482Y131982D02*
X263482Y117518D01*
X261518Y117518D01*
X261518Y131982D01*
X261518Y119709D02*
X263482Y119709D01*
X263482Y121900D02*
X261518Y121900D01*
X261518Y124091D02*
X263482Y124091D01*
X263482Y126282D02*
X261518Y126282D01*
X261518Y128473D02*
X263482Y128473D01*
X263482Y130664D02*
X261518Y130664D01*
X260982Y207482D02*
X259018Y207482D01*
X260982Y207482D02*
X260982Y193018D01*
X259018Y193018D01*
X259018Y207482D01*
X259018Y195209D02*
X260982Y195209D01*
X260982Y197400D02*
X259018Y197400D01*
X259018Y199591D02*
X260982Y199591D01*
X260982Y201782D02*
X259018Y201782D01*
X259018Y203973D02*
X260982Y203973D01*
X260982Y206164D02*
X259018Y206164D01*
X258482Y131982D02*
X256518Y131982D01*
X258482Y131982D02*
X258482Y117518D01*
X256518Y117518D01*
X256518Y131982D01*
X256518Y119709D02*
X258482Y119709D01*
X258482Y121900D02*
X256518Y121900D01*
X256518Y124091D02*
X258482Y124091D01*
X258482Y126282D02*
X256518Y126282D01*
X256518Y128473D02*
X258482Y128473D01*
X258482Y130664D02*
X256518Y130664D01*
X255982Y207482D02*
X254018Y207482D01*
X255982Y207482D02*
X255982Y193018D01*
X254018Y193018D01*
X254018Y207482D01*
X254018Y195209D02*
X255982Y195209D01*
X255982Y197400D02*
X254018Y197400D01*
X254018Y199591D02*
X255982Y199591D01*
X255982Y201782D02*
X254018Y201782D01*
X254018Y203973D02*
X255982Y203973D01*
X255982Y206164D02*
X254018Y206164D01*
X253482Y131982D02*
X251518Y131982D01*
X253482Y131982D02*
X253482Y117518D01*
X251518Y117518D01*
X251518Y131982D01*
X251518Y119709D02*
X253482Y119709D01*
X253482Y121900D02*
X251518Y121900D01*
X251518Y124091D02*
X253482Y124091D01*
X253482Y126282D02*
X251518Y126282D01*
X251518Y128473D02*
X253482Y128473D01*
X253482Y130664D02*
X251518Y130664D01*
X250982Y207482D02*
X249018Y207482D01*
X250982Y207482D02*
X250982Y193018D01*
X249018Y193018D01*
X249018Y207482D01*
X249018Y195209D02*
X250982Y195209D01*
X250982Y197400D02*
X249018Y197400D01*
X249018Y199591D02*
X250982Y199591D01*
X250982Y201782D02*
X249018Y201782D01*
X249018Y203973D02*
X250982Y203973D01*
X250982Y206164D02*
X249018Y206164D01*
X248482Y131982D02*
X246518Y131982D01*
X248482Y131982D02*
X248482Y117518D01*
X246518Y117518D01*
X246518Y131982D01*
X246518Y119709D02*
X248482Y119709D01*
X248482Y121900D02*
X246518Y121900D01*
X246518Y124091D02*
X248482Y124091D01*
X248482Y126282D02*
X246518Y126282D01*
X246518Y128473D02*
X248482Y128473D01*
X248482Y130664D02*
X246518Y130664D01*
X245982Y207482D02*
X244018Y207482D01*
X245982Y207482D02*
X245982Y193018D01*
X244018Y193018D01*
X244018Y207482D01*
X244018Y195209D02*
X245982Y195209D01*
X245982Y197400D02*
X244018Y197400D01*
X244018Y199591D02*
X245982Y199591D01*
X245982Y201782D02*
X244018Y201782D01*
X244018Y203973D02*
X245982Y203973D01*
X245982Y206164D02*
X244018Y206164D01*
X243482Y131982D02*
X241518Y131982D01*
X243482Y131982D02*
X243482Y117518D01*
X241518Y117518D01*
X241518Y131982D01*
X241518Y119709D02*
X243482Y119709D01*
X243482Y121900D02*
X241518Y121900D01*
X241518Y124091D02*
X243482Y124091D01*
X243482Y126282D02*
X241518Y126282D01*
X241518Y128473D02*
X243482Y128473D01*
X243482Y130664D02*
X241518Y130664D01*
X240982Y207482D02*
X239018Y207482D01*
X240982Y207482D02*
X240982Y193018D01*
X239018Y193018D01*
X239018Y207482D01*
X239018Y195209D02*
X240982Y195209D01*
X240982Y197400D02*
X239018Y197400D01*
X239018Y199591D02*
X240982Y199591D01*
X240982Y201782D02*
X239018Y201782D01*
X239018Y203973D02*
X240982Y203973D01*
X240982Y206164D02*
X239018Y206164D01*
X238482Y131982D02*
X236518Y131982D01*
X238482Y131982D02*
X238482Y117518D01*
X236518Y117518D01*
X236518Y131982D01*
X236518Y119709D02*
X238482Y119709D01*
X238482Y121900D02*
X236518Y121900D01*
X236518Y124091D02*
X238482Y124091D01*
X238482Y126282D02*
X236518Y126282D01*
X236518Y128473D02*
X238482Y128473D01*
X238482Y130664D02*
X236518Y130664D01*
X215982Y207482D02*
X214018Y207482D01*
X215982Y207482D02*
X215982Y193018D01*
X214018Y193018D01*
X214018Y207482D01*
X214018Y195209D02*
X215982Y195209D01*
X215982Y197400D02*
X214018Y197400D01*
X214018Y199591D02*
X215982Y199591D01*
X215982Y201782D02*
X214018Y201782D01*
X214018Y203973D02*
X215982Y203973D01*
X215982Y206164D02*
X214018Y206164D01*
X213482Y131982D02*
X211518Y131982D01*
X213482Y131982D02*
X213482Y117518D01*
X211518Y117518D01*
X211518Y131982D01*
X211518Y119709D02*
X213482Y119709D01*
X213482Y121900D02*
X211518Y121900D01*
X211518Y124091D02*
X213482Y124091D01*
X213482Y126282D02*
X211518Y126282D01*
X211518Y128473D02*
X213482Y128473D01*
X213482Y130664D02*
X211518Y130664D01*
X210982Y207482D02*
X209018Y207482D01*
X210982Y207482D02*
X210982Y193018D01*
X209018Y193018D01*
X209018Y207482D01*
X209018Y195209D02*
X210982Y195209D01*
X210982Y197400D02*
X209018Y197400D01*
X209018Y199591D02*
X210982Y199591D01*
X210982Y201782D02*
X209018Y201782D01*
X209018Y203973D02*
X210982Y203973D01*
X210982Y206164D02*
X209018Y206164D01*
X208482Y131982D02*
X206518Y131982D01*
X208482Y131982D02*
X208482Y117518D01*
X206518Y117518D01*
X206518Y131982D01*
X206518Y119709D02*
X208482Y119709D01*
X208482Y121900D02*
X206518Y121900D01*
X206518Y124091D02*
X208482Y124091D01*
X208482Y126282D02*
X206518Y126282D01*
X206518Y128473D02*
X208482Y128473D01*
X208482Y130664D02*
X206518Y130664D01*
X205982Y207482D02*
X204018Y207482D01*
X205982Y207482D02*
X205982Y193018D01*
X204018Y193018D01*
X204018Y207482D01*
X204018Y195209D02*
X205982Y195209D01*
X205982Y197400D02*
X204018Y197400D01*
X204018Y199591D02*
X205982Y199591D01*
X205982Y201782D02*
X204018Y201782D01*
X204018Y203973D02*
X205982Y203973D01*
X205982Y206164D02*
X204018Y206164D01*
X203482Y131982D02*
X201518Y131982D01*
X203482Y131982D02*
X203482Y117518D01*
X201518Y117518D01*
X201518Y131982D01*
X201518Y119709D02*
X203482Y119709D01*
X203482Y121900D02*
X201518Y121900D01*
X201518Y124091D02*
X203482Y124091D01*
X203482Y126282D02*
X201518Y126282D01*
X201518Y128473D02*
X203482Y128473D01*
X203482Y130664D02*
X201518Y130664D01*
X200982Y207482D02*
X199018Y207482D01*
X200982Y207482D02*
X200982Y193018D01*
X199018Y193018D01*
X199018Y207482D01*
X199018Y195209D02*
X200982Y195209D01*
X200982Y197400D02*
X199018Y197400D01*
X199018Y199591D02*
X200982Y199591D01*
X200982Y201782D02*
X199018Y201782D01*
X199018Y203973D02*
X200982Y203973D01*
X200982Y206164D02*
X199018Y206164D01*
X198482Y131982D02*
X196518Y131982D01*
X198482Y131982D02*
X198482Y117518D01*
X196518Y117518D01*
X196518Y131982D01*
X196518Y119709D02*
X198482Y119709D01*
X198482Y121900D02*
X196518Y121900D01*
X196518Y124091D02*
X198482Y124091D01*
X198482Y126282D02*
X196518Y126282D01*
X196518Y128473D02*
X198482Y128473D01*
X198482Y130664D02*
X196518Y130664D01*
X195982Y207482D02*
X194018Y207482D01*
X195982Y207482D02*
X195982Y193018D01*
X194018Y193018D01*
X194018Y207482D01*
X194018Y195209D02*
X195982Y195209D01*
X195982Y197400D02*
X194018Y197400D01*
X194018Y199591D02*
X195982Y199591D01*
X195982Y201782D02*
X194018Y201782D01*
X194018Y203973D02*
X195982Y203973D01*
X195982Y206164D02*
X194018Y206164D01*
X193482Y131982D02*
X191518Y131982D01*
X193482Y131982D02*
X193482Y117518D01*
X191518Y117518D01*
X191518Y131982D01*
X191518Y119709D02*
X193482Y119709D01*
X193482Y121900D02*
X191518Y121900D01*
X191518Y124091D02*
X193482Y124091D01*
X193482Y126282D02*
X191518Y126282D01*
X191518Y128473D02*
X193482Y128473D01*
X193482Y130664D02*
X191518Y130664D01*
X190982Y207482D02*
X189018Y207482D01*
X190982Y207482D02*
X190982Y193018D01*
X189018Y193018D01*
X189018Y207482D01*
X189018Y195209D02*
X190982Y195209D01*
X190982Y197400D02*
X189018Y197400D01*
X189018Y199591D02*
X190982Y199591D01*
X190982Y201782D02*
X189018Y201782D01*
X189018Y203973D02*
X190982Y203973D01*
X190982Y206164D02*
X189018Y206164D01*
X188482Y131982D02*
X186518Y131982D01*
X188482Y131982D02*
X188482Y117518D01*
X186518Y117518D01*
X186518Y131982D01*
X186518Y119709D02*
X188482Y119709D01*
X188482Y121900D02*
X186518Y121900D01*
X186518Y124091D02*
X188482Y124091D01*
X188482Y126282D02*
X186518Y126282D01*
X186518Y128473D02*
X188482Y128473D01*
X188482Y130664D02*
X186518Y130664D01*
X185982Y207482D02*
X184018Y207482D01*
X185982Y207482D02*
X185982Y193018D01*
X184018Y193018D01*
X184018Y207482D01*
X184018Y195209D02*
X185982Y195209D01*
X185982Y197400D02*
X184018Y197400D01*
X184018Y199591D02*
X185982Y199591D01*
X185982Y201782D02*
X184018Y201782D01*
X184018Y203973D02*
X185982Y203973D01*
X185982Y206164D02*
X184018Y206164D01*
X183482Y131982D02*
X181518Y131982D01*
X183482Y131982D02*
X183482Y117518D01*
X181518Y117518D01*
X181518Y131982D01*
X181518Y119709D02*
X183482Y119709D01*
X183482Y121900D02*
X181518Y121900D01*
X181518Y124091D02*
X183482Y124091D01*
X183482Y126282D02*
X181518Y126282D01*
X181518Y128473D02*
X183482Y128473D01*
X183482Y130664D02*
X181518Y130664D01*
X180982Y207482D02*
X179018Y207482D01*
X180982Y207482D02*
X180982Y193018D01*
X179018Y193018D01*
X179018Y207482D01*
X179018Y195209D02*
X180982Y195209D01*
X180982Y197400D02*
X179018Y197400D01*
X179018Y199591D02*
X180982Y199591D01*
X180982Y201782D02*
X179018Y201782D01*
X179018Y203973D02*
X180982Y203973D01*
X180982Y206164D02*
X179018Y206164D01*
X178482Y131982D02*
X176518Y131982D01*
X178482Y131982D02*
X178482Y117518D01*
X176518Y117518D01*
X176518Y131982D01*
X176518Y119709D02*
X178482Y119709D01*
X178482Y121900D02*
X176518Y121900D01*
X176518Y124091D02*
X178482Y124091D01*
X178482Y126282D02*
X176518Y126282D01*
X176518Y128473D02*
X178482Y128473D01*
X178482Y130664D02*
X176518Y130664D01*
X175982Y207482D02*
X174018Y207482D01*
X175982Y207482D02*
X175982Y193018D01*
X174018Y193018D01*
X174018Y207482D01*
X174018Y195209D02*
X175982Y195209D01*
X175982Y197400D02*
X174018Y197400D01*
X174018Y199591D02*
X175982Y199591D01*
X175982Y201782D02*
X174018Y201782D01*
X174018Y203973D02*
X175982Y203973D01*
X175982Y206164D02*
X174018Y206164D01*
X173482Y131982D02*
X171518Y131982D01*
X173482Y131982D02*
X173482Y117518D01*
X171518Y117518D01*
X171518Y131982D01*
X171518Y119709D02*
X173482Y119709D01*
X173482Y121900D02*
X171518Y121900D01*
X171518Y124091D02*
X173482Y124091D01*
X173482Y126282D02*
X171518Y126282D01*
X171518Y128473D02*
X173482Y128473D01*
X173482Y130664D02*
X171518Y130664D01*
X170982Y207482D02*
X169018Y207482D01*
X170982Y207482D02*
X170982Y193018D01*
X169018Y193018D01*
X169018Y207482D01*
X169018Y195209D02*
X170982Y195209D01*
X170982Y197400D02*
X169018Y197400D01*
X169018Y199591D02*
X170982Y199591D01*
X170982Y201782D02*
X169018Y201782D01*
X169018Y203973D02*
X170982Y203973D01*
X170982Y206164D02*
X169018Y206164D01*
X168482Y131982D02*
X166518Y131982D01*
X168482Y131982D02*
X168482Y117518D01*
X166518Y117518D01*
X166518Y131982D01*
X166518Y119709D02*
X168482Y119709D01*
X168482Y121900D02*
X166518Y121900D01*
X166518Y124091D02*
X168482Y124091D01*
X168482Y126282D02*
X166518Y126282D01*
X166518Y128473D02*
X168482Y128473D01*
X168482Y130664D02*
X166518Y130664D01*
X165982Y207482D02*
X164018Y207482D01*
X165982Y207482D02*
X165982Y193018D01*
X164018Y193018D01*
X164018Y207482D01*
X164018Y195209D02*
X165982Y195209D01*
X165982Y197400D02*
X164018Y197400D01*
X164018Y199591D02*
X165982Y199591D01*
X165982Y201782D02*
X164018Y201782D01*
X164018Y203973D02*
X165982Y203973D01*
X165982Y206164D02*
X164018Y206164D01*
X163482Y131982D02*
X161518Y131982D01*
X163482Y131982D02*
X163482Y117518D01*
X161518Y117518D01*
X161518Y131982D01*
X161518Y119709D02*
X163482Y119709D01*
X163482Y121900D02*
X161518Y121900D01*
X161518Y124091D02*
X163482Y124091D01*
X163482Y126282D02*
X161518Y126282D01*
X161518Y128473D02*
X163482Y128473D01*
X163482Y130664D02*
X161518Y130664D01*
X160982Y207482D02*
X159018Y207482D01*
X160982Y207482D02*
X160982Y193018D01*
X159018Y193018D01*
X159018Y207482D01*
X159018Y195209D02*
X160982Y195209D01*
X160982Y197400D02*
X159018Y197400D01*
X159018Y199591D02*
X160982Y199591D01*
X160982Y201782D02*
X159018Y201782D01*
X159018Y203973D02*
X160982Y203973D01*
X160982Y206164D02*
X159018Y206164D01*
X158482Y131982D02*
X156518Y131982D01*
X158482Y131982D02*
X158482Y117518D01*
X156518Y117518D01*
X156518Y131982D01*
X156518Y119709D02*
X158482Y119709D01*
X158482Y121900D02*
X156518Y121900D01*
X156518Y124091D02*
X158482Y124091D01*
X158482Y126282D02*
X156518Y126282D01*
X156518Y128473D02*
X158482Y128473D01*
X158482Y130664D02*
X156518Y130664D01*
X155982Y207482D02*
X154018Y207482D01*
X155982Y207482D02*
X155982Y193018D01*
X154018Y193018D01*
X154018Y207482D01*
X154018Y195209D02*
X155982Y195209D01*
X155982Y197400D02*
X154018Y197400D01*
X154018Y199591D02*
X155982Y199591D01*
X155982Y201782D02*
X154018Y201782D01*
X154018Y203973D02*
X155982Y203973D01*
X155982Y206164D02*
X154018Y206164D01*
X153482Y131982D02*
X151518Y131982D01*
X153482Y131982D02*
X153482Y117518D01*
X151518Y117518D01*
X151518Y131982D01*
X151518Y119709D02*
X153482Y119709D01*
X153482Y121900D02*
X151518Y121900D01*
X151518Y124091D02*
X153482Y124091D01*
X153482Y126282D02*
X151518Y126282D01*
X151518Y128473D02*
X153482Y128473D01*
X153482Y130664D02*
X151518Y130664D01*
X150982Y207482D02*
X149018Y207482D01*
X150982Y207482D02*
X150982Y193018D01*
X149018Y193018D01*
X149018Y207482D01*
X149018Y195209D02*
X150982Y195209D01*
X150982Y197400D02*
X149018Y197400D01*
X149018Y199591D02*
X150982Y199591D01*
X150982Y201782D02*
X149018Y201782D01*
X149018Y203973D02*
X150982Y203973D01*
X150982Y206164D02*
X149018Y206164D01*
X148482Y131982D02*
X146518Y131982D01*
X148482Y131982D02*
X148482Y117518D01*
X146518Y117518D01*
X146518Y131982D01*
X146518Y119709D02*
X148482Y119709D01*
X148482Y121900D02*
X146518Y121900D01*
X146518Y124091D02*
X148482Y124091D01*
X148482Y126282D02*
X146518Y126282D01*
X146518Y128473D02*
X148482Y128473D01*
X148482Y130664D02*
X146518Y130664D01*
X145982Y207482D02*
X144018Y207482D01*
X145982Y207482D02*
X145982Y193018D01*
X144018Y193018D01*
X144018Y207482D01*
X144018Y195209D02*
X145982Y195209D01*
X145982Y197400D02*
X144018Y197400D01*
X144018Y199591D02*
X145982Y199591D01*
X145982Y201782D02*
X144018Y201782D01*
X144018Y203973D02*
X145982Y203973D01*
X145982Y206164D02*
X144018Y206164D01*
X143482Y131982D02*
X141518Y131982D01*
X143482Y131982D02*
X143482Y117518D01*
X141518Y117518D01*
X141518Y131982D01*
X141518Y119709D02*
X143482Y119709D01*
X143482Y121900D02*
X141518Y121900D01*
X141518Y124091D02*
X143482Y124091D01*
X143482Y126282D02*
X141518Y126282D01*
X141518Y128473D02*
X143482Y128473D01*
X143482Y130664D02*
X141518Y130664D01*
X140982Y207482D02*
X139018Y207482D01*
X140982Y207482D02*
X140982Y193018D01*
X139018Y193018D01*
X139018Y207482D01*
X139018Y195209D02*
X140982Y195209D01*
X140982Y197400D02*
X139018Y197400D01*
X139018Y199591D02*
X140982Y199591D01*
X140982Y201782D02*
X139018Y201782D01*
X139018Y203973D02*
X140982Y203973D01*
X140982Y206164D02*
X139018Y206164D01*
X138482Y131982D02*
X136518Y131982D01*
X138482Y131982D02*
X138482Y117518D01*
X136518Y117518D01*
X136518Y131982D01*
X136518Y119709D02*
X138482Y119709D01*
X138482Y121900D02*
X136518Y121900D01*
X136518Y124091D02*
X138482Y124091D01*
X138482Y126282D02*
X136518Y126282D01*
X136518Y128473D02*
X138482Y128473D01*
X138482Y130664D02*
X136518Y130664D01*
X135982Y207482D02*
X134018Y207482D01*
X135982Y207482D02*
X135982Y193018D01*
X134018Y193018D01*
X134018Y207482D01*
X134018Y195209D02*
X135982Y195209D01*
X135982Y197400D02*
X134018Y197400D01*
X134018Y199591D02*
X135982Y199591D01*
X135982Y201782D02*
X134018Y201782D01*
X134018Y203973D02*
X135982Y203973D01*
X135982Y206164D02*
X134018Y206164D01*
X133482Y131982D02*
X131518Y131982D01*
X133482Y131982D02*
X133482Y117518D01*
X131518Y117518D01*
X131518Y131982D01*
X131518Y119709D02*
X133482Y119709D01*
X133482Y121900D02*
X131518Y121900D01*
X131518Y124091D02*
X133482Y124091D01*
X133482Y126282D02*
X131518Y126282D01*
X131518Y128473D02*
X133482Y128473D01*
X133482Y130664D02*
X131518Y130664D01*
X130982Y207482D02*
X129018Y207482D01*
X130982Y207482D02*
X130982Y193018D01*
X129018Y193018D01*
X129018Y207482D01*
X129018Y195209D02*
X130982Y195209D01*
X130982Y197400D02*
X129018Y197400D01*
X129018Y199591D02*
X130982Y199591D01*
X130982Y201782D02*
X129018Y201782D01*
X129018Y203973D02*
X130982Y203973D01*
X130982Y206164D02*
X129018Y206164D01*
X128482Y131982D02*
X126518Y131982D01*
X128482Y131982D02*
X128482Y117518D01*
X126518Y117518D01*
X126518Y131982D01*
X126518Y119709D02*
X128482Y119709D01*
X128482Y121900D02*
X126518Y121900D01*
X126518Y124091D02*
X128482Y124091D01*
X128482Y126282D02*
X126518Y126282D01*
X126518Y128473D02*
X128482Y128473D01*
X128482Y130664D02*
X126518Y130664D01*
X125982Y207482D02*
X124018Y207482D01*
X125982Y207482D02*
X125982Y193018D01*
X124018Y193018D01*
X124018Y207482D01*
X124018Y195209D02*
X125982Y195209D01*
X125982Y197400D02*
X124018Y197400D01*
X124018Y199591D02*
X125982Y199591D01*
X125982Y201782D02*
X124018Y201782D01*
X124018Y203973D02*
X125982Y203973D01*
X125982Y206164D02*
X124018Y206164D01*
X123482Y131982D02*
X121518Y131982D01*
X123482Y131982D02*
X123482Y117518D01*
X121518Y117518D01*
X121518Y131982D01*
X121518Y119709D02*
X123482Y119709D01*
X123482Y121900D02*
X121518Y121900D01*
X121518Y124091D02*
X123482Y124091D01*
X123482Y126282D02*
X121518Y126282D01*
X121518Y128473D02*
X123482Y128473D01*
X123482Y130664D02*
X121518Y130664D01*
X120982Y207482D02*
X119018Y207482D01*
X120982Y207482D02*
X120982Y193018D01*
X119018Y193018D01*
X119018Y207482D01*
X119018Y195209D02*
X120982Y195209D01*
X120982Y197400D02*
X119018Y197400D01*
X119018Y199591D02*
X120982Y199591D01*
X120982Y201782D02*
X119018Y201782D01*
X119018Y203973D02*
X120982Y203973D01*
X120982Y206164D02*
X119018Y206164D01*
X118482Y131982D02*
X116518Y131982D01*
X118482Y131982D02*
X118482Y117518D01*
X116518Y117518D01*
X116518Y131982D01*
X116518Y119709D02*
X118482Y119709D01*
X118482Y121900D02*
X116518Y121900D01*
X116518Y124091D02*
X118482Y124091D01*
X118482Y126282D02*
X116518Y126282D01*
X116518Y128473D02*
X118482Y128473D01*
X118482Y130664D02*
X116518Y130664D01*
X115982Y207482D02*
X114018Y207482D01*
X115982Y207482D02*
X115982Y193018D01*
X114018Y193018D01*
X114018Y207482D01*
X114018Y195209D02*
X115982Y195209D01*
X115982Y197400D02*
X114018Y197400D01*
X114018Y199591D02*
X115982Y199591D01*
X115982Y201782D02*
X114018Y201782D01*
X114018Y203973D02*
X115982Y203973D01*
X115982Y206164D02*
X114018Y206164D01*
X113482Y131982D02*
X111518Y131982D01*
X113482Y131982D02*
X113482Y117518D01*
X111518Y117518D01*
X111518Y131982D01*
X111518Y119709D02*
X113482Y119709D01*
X113482Y121900D02*
X111518Y121900D01*
X111518Y124091D02*
X113482Y124091D01*
X113482Y126282D02*
X111518Y126282D01*
X111518Y128473D02*
X113482Y128473D01*
X113482Y130664D02*
X111518Y130664D01*
X110982Y207482D02*
X109018Y207482D01*
X110982Y207482D02*
X110982Y193018D01*
X109018Y193018D01*
X109018Y207482D01*
X109018Y195209D02*
X110982Y195209D01*
X110982Y197400D02*
X109018Y197400D01*
X109018Y199591D02*
X110982Y199591D01*
X110982Y201782D02*
X109018Y201782D01*
X109018Y203973D02*
X110982Y203973D01*
X110982Y206164D02*
X109018Y206164D01*
X108482Y131982D02*
X106518Y131982D01*
X108482Y131982D02*
X108482Y117518D01*
X106518Y117518D01*
X106518Y131982D01*
X106518Y119709D02*
X108482Y119709D01*
X108482Y121900D02*
X106518Y121900D01*
X106518Y124091D02*
X108482Y124091D01*
X108482Y126282D02*
X106518Y126282D01*
X106518Y128473D02*
X108482Y128473D01*
X108482Y130664D02*
X106518Y130664D01*
D23*
X297993Y145757D02*
X309007Y145757D01*
X309007Y119243D01*
X297993Y119243D01*
X297993Y145757D01*
X297993Y121386D02*
X309007Y121386D01*
X309007Y123529D02*
X297993Y123529D01*
X297993Y125672D02*
X309007Y125672D01*
X309007Y127815D02*
X297993Y127815D01*
X297993Y129958D02*
X309007Y129958D01*
X309007Y132101D02*
X297993Y132101D01*
X297993Y134244D02*
X309007Y134244D01*
X309007Y136387D02*
X297993Y136387D01*
X297993Y138530D02*
X309007Y138530D01*
X309007Y140673D02*
X297993Y140673D01*
X297993Y142816D02*
X309007Y142816D01*
X309007Y144959D02*
X297993Y144959D01*
X102007Y145757D02*
X90993Y145757D01*
X102007Y145757D02*
X102007Y119243D01*
X90993Y119243D01*
X90993Y145757D01*
X90993Y121386D02*
X102007Y121386D01*
X102007Y123529D02*
X90993Y123529D01*
X90993Y125672D02*
X102007Y125672D01*
X102007Y127815D02*
X90993Y127815D01*
X90993Y129958D02*
X102007Y129958D01*
X102007Y132101D02*
X90993Y132101D01*
X90993Y134244D02*
X102007Y134244D01*
X102007Y136387D02*
X90993Y136387D01*
X90993Y138530D02*
X102007Y138530D01*
X102007Y140673D02*
X90993Y140673D01*
X90993Y142816D02*
X102007Y142816D01*
X102007Y144959D02*
X90993Y144959D01*
D24*
X300000Y177500D03*
D25*
X100000Y177500D03*
D26*
X278760Y19490D02*
X281240Y19490D01*
X281240Y6010D01*
X278760Y6010D01*
X278760Y19490D01*
X278760Y8185D02*
X281240Y8185D01*
X281240Y10360D02*
X278760Y10360D01*
X278760Y12535D02*
X281240Y12535D01*
X281240Y14710D02*
X278760Y14710D01*
X278760Y16885D02*
X281240Y16885D01*
X281240Y19060D02*
X278760Y19060D01*
X276240Y19490D02*
X273760Y19490D01*
X276240Y19490D02*
X276240Y6010D01*
X273760Y6010D01*
X273760Y19490D01*
X273760Y8185D02*
X276240Y8185D01*
X276240Y10360D02*
X273760Y10360D01*
X273760Y12535D02*
X276240Y12535D01*
X276240Y14710D02*
X273760Y14710D01*
X273760Y16885D02*
X276240Y16885D01*
X276240Y19060D02*
X273760Y19060D01*
X271240Y19490D02*
X268760Y19490D01*
X271240Y19490D02*
X271240Y6010D01*
X268760Y6010D01*
X268760Y19490D01*
X268760Y8185D02*
X271240Y8185D01*
X271240Y10360D02*
X268760Y10360D01*
X268760Y12535D02*
X271240Y12535D01*
X271240Y14710D02*
X268760Y14710D01*
X268760Y16885D02*
X271240Y16885D01*
X271240Y19060D02*
X268760Y19060D01*
X266240Y19490D02*
X263760Y19490D01*
X266240Y19490D02*
X266240Y6010D01*
X263760Y6010D01*
X263760Y19490D01*
X263760Y8185D02*
X266240Y8185D01*
X266240Y10360D02*
X263760Y10360D01*
X263760Y12535D02*
X266240Y12535D01*
X266240Y14710D02*
X263760Y14710D01*
X263760Y16885D02*
X266240Y16885D01*
X266240Y19060D02*
X263760Y19060D01*
X261240Y19490D02*
X258760Y19490D01*
X261240Y19490D02*
X261240Y6010D01*
X258760Y6010D01*
X258760Y19490D01*
X258760Y8185D02*
X261240Y8185D01*
X261240Y10360D02*
X258760Y10360D01*
X258760Y12535D02*
X261240Y12535D01*
X261240Y14710D02*
X258760Y14710D01*
X258760Y16885D02*
X261240Y16885D01*
X261240Y19060D02*
X258760Y19060D01*
X256240Y19490D02*
X253760Y19490D01*
X256240Y19490D02*
X256240Y6010D01*
X253760Y6010D01*
X253760Y19490D01*
X253760Y8185D02*
X256240Y8185D01*
X256240Y10360D02*
X253760Y10360D01*
X253760Y12535D02*
X256240Y12535D01*
X256240Y14710D02*
X253760Y14710D01*
X253760Y16885D02*
X256240Y16885D01*
X256240Y19060D02*
X253760Y19060D01*
X251240Y19490D02*
X248760Y19490D01*
X251240Y19490D02*
X251240Y6010D01*
X248760Y6010D01*
X248760Y19490D01*
X248760Y8185D02*
X251240Y8185D01*
X251240Y10360D02*
X248760Y10360D01*
X248760Y12535D02*
X251240Y12535D01*
X251240Y14710D02*
X248760Y14710D01*
X248760Y16885D02*
X251240Y16885D01*
X251240Y19060D02*
X248760Y19060D01*
X246240Y19490D02*
X243760Y19490D01*
X246240Y19490D02*
X246240Y6010D01*
X243760Y6010D01*
X243760Y19490D01*
X243760Y8185D02*
X246240Y8185D01*
X246240Y10360D02*
X243760Y10360D01*
X243760Y12535D02*
X246240Y12535D01*
X246240Y14710D02*
X243760Y14710D01*
X243760Y16885D02*
X246240Y16885D01*
X246240Y19060D02*
X243760Y19060D01*
X241240Y19490D02*
X238760Y19490D01*
X241240Y19490D02*
X241240Y6010D01*
X238760Y6010D01*
X238760Y19490D01*
X238760Y8185D02*
X241240Y8185D01*
X241240Y10360D02*
X238760Y10360D01*
X238760Y12535D02*
X241240Y12535D01*
X241240Y14710D02*
X238760Y14710D01*
X238760Y16885D02*
X241240Y16885D01*
X241240Y19060D02*
X238760Y19060D01*
X236240Y19490D02*
X233760Y19490D01*
X236240Y19490D02*
X236240Y6010D01*
X233760Y6010D01*
X233760Y19490D01*
X233760Y8185D02*
X236240Y8185D01*
X236240Y10360D02*
X233760Y10360D01*
X233760Y12535D02*
X236240Y12535D01*
X236240Y14710D02*
X233760Y14710D01*
X233760Y16885D02*
X236240Y16885D01*
X236240Y19060D02*
X233760Y19060D01*
X231240Y19490D02*
X228760Y19490D01*
X231240Y19490D02*
X231240Y6010D01*
X228760Y6010D01*
X228760Y19490D01*
X228760Y8185D02*
X231240Y8185D01*
X231240Y10360D02*
X228760Y10360D01*
X228760Y12535D02*
X231240Y12535D01*
X231240Y14710D02*
X228760Y14710D01*
X228760Y16885D02*
X231240Y16885D01*
X231240Y19060D02*
X228760Y19060D01*
X226240Y19490D02*
X223760Y19490D01*
X226240Y19490D02*
X226240Y6010D01*
X223760Y6010D01*
X223760Y19490D01*
X223760Y8185D02*
X226240Y8185D01*
X226240Y10360D02*
X223760Y10360D01*
X223760Y12535D02*
X226240Y12535D01*
X226240Y14710D02*
X223760Y14710D01*
X223760Y16885D02*
X226240Y16885D01*
X226240Y19060D02*
X223760Y19060D01*
X201240Y19490D02*
X198760Y19490D01*
X201240Y19490D02*
X201240Y6010D01*
X198760Y6010D01*
X198760Y19490D01*
X198760Y8185D02*
X201240Y8185D01*
X201240Y10360D02*
X198760Y10360D01*
X198760Y12535D02*
X201240Y12535D01*
X201240Y14710D02*
X198760Y14710D01*
X198760Y16885D02*
X201240Y16885D01*
X201240Y19060D02*
X198760Y19060D01*
X196240Y19490D02*
X193760Y19490D01*
X196240Y19490D02*
X196240Y6010D01*
X193760Y6010D01*
X193760Y19490D01*
X193760Y8185D02*
X196240Y8185D01*
X196240Y10360D02*
X193760Y10360D01*
X193760Y12535D02*
X196240Y12535D01*
X196240Y14710D02*
X193760Y14710D01*
X193760Y16885D02*
X196240Y16885D01*
X196240Y19060D02*
X193760Y19060D01*
X191240Y19490D02*
X188760Y19490D01*
X191240Y19490D02*
X191240Y6010D01*
X188760Y6010D01*
X188760Y19490D01*
X188760Y8185D02*
X191240Y8185D01*
X191240Y10360D02*
X188760Y10360D01*
X188760Y12535D02*
X191240Y12535D01*
X191240Y14710D02*
X188760Y14710D01*
X188760Y16885D02*
X191240Y16885D01*
X191240Y19060D02*
X188760Y19060D01*
X186240Y19490D02*
X183760Y19490D01*
X186240Y19490D02*
X186240Y6010D01*
X183760Y6010D01*
X183760Y19490D01*
X183760Y8185D02*
X186240Y8185D01*
X186240Y10360D02*
X183760Y10360D01*
X183760Y12535D02*
X186240Y12535D01*
X186240Y14710D02*
X183760Y14710D01*
X183760Y16885D02*
X186240Y16885D01*
X186240Y19060D02*
X183760Y19060D01*
X181240Y19490D02*
X178760Y19490D01*
X181240Y19490D02*
X181240Y6010D01*
X178760Y6010D01*
X178760Y19490D01*
X178760Y8185D02*
X181240Y8185D01*
X181240Y10360D02*
X178760Y10360D01*
X178760Y12535D02*
X181240Y12535D01*
X181240Y14710D02*
X178760Y14710D01*
X178760Y16885D02*
X181240Y16885D01*
X181240Y19060D02*
X178760Y19060D01*
X176240Y19490D02*
X173760Y19490D01*
X176240Y19490D02*
X176240Y6010D01*
X173760Y6010D01*
X173760Y19490D01*
X173760Y8185D02*
X176240Y8185D01*
X176240Y10360D02*
X173760Y10360D01*
X173760Y12535D02*
X176240Y12535D01*
X176240Y14710D02*
X173760Y14710D01*
X173760Y16885D02*
X176240Y16885D01*
X176240Y19060D02*
X173760Y19060D01*
X171240Y19490D02*
X168760Y19490D01*
X171240Y19490D02*
X171240Y6010D01*
X168760Y6010D01*
X168760Y19490D01*
X168760Y8185D02*
X171240Y8185D01*
X171240Y10360D02*
X168760Y10360D01*
X168760Y12535D02*
X171240Y12535D01*
X171240Y14710D02*
X168760Y14710D01*
X168760Y16885D02*
X171240Y16885D01*
X171240Y19060D02*
X168760Y19060D01*
X166240Y19490D02*
X163760Y19490D01*
X166240Y19490D02*
X166240Y6010D01*
X163760Y6010D01*
X163760Y19490D01*
X163760Y8185D02*
X166240Y8185D01*
X166240Y10360D02*
X163760Y10360D01*
X163760Y12535D02*
X166240Y12535D01*
X166240Y14710D02*
X163760Y14710D01*
X163760Y16885D02*
X166240Y16885D01*
X166240Y19060D02*
X163760Y19060D01*
X161240Y19490D02*
X158760Y19490D01*
X161240Y19490D02*
X161240Y6010D01*
X158760Y6010D01*
X158760Y19490D01*
X158760Y8185D02*
X161240Y8185D01*
X161240Y10360D02*
X158760Y10360D01*
X158760Y12535D02*
X161240Y12535D01*
X161240Y14710D02*
X158760Y14710D01*
X158760Y16885D02*
X161240Y16885D01*
X161240Y19060D02*
X158760Y19060D01*
X156240Y19490D02*
X153760Y19490D01*
X156240Y19490D02*
X156240Y6010D01*
X153760Y6010D01*
X153760Y19490D01*
X153760Y8185D02*
X156240Y8185D01*
X156240Y10360D02*
X153760Y10360D01*
X153760Y12535D02*
X156240Y12535D01*
X156240Y14710D02*
X153760Y14710D01*
X153760Y16885D02*
X156240Y16885D01*
X156240Y19060D02*
X153760Y19060D01*
X151240Y19490D02*
X148760Y19490D01*
X151240Y19490D02*
X151240Y6010D01*
X148760Y6010D01*
X148760Y19490D01*
X148760Y8185D02*
X151240Y8185D01*
X151240Y10360D02*
X148760Y10360D01*
X148760Y12535D02*
X151240Y12535D01*
X151240Y14710D02*
X148760Y14710D01*
X148760Y16885D02*
X151240Y16885D01*
X151240Y19060D02*
X148760Y19060D01*
X146240Y19490D02*
X143760Y19490D01*
X146240Y19490D02*
X146240Y6010D01*
X143760Y6010D01*
X143760Y19490D01*
X143760Y8185D02*
X146240Y8185D01*
X146240Y10360D02*
X143760Y10360D01*
X143760Y12535D02*
X146240Y12535D01*
X146240Y14710D02*
X143760Y14710D01*
X143760Y16885D02*
X146240Y16885D01*
X146240Y19060D02*
X143760Y19060D01*
X141240Y19490D02*
X138760Y19490D01*
X141240Y19490D02*
X141240Y6010D01*
X138760Y6010D01*
X138760Y19490D01*
X138760Y8185D02*
X141240Y8185D01*
X141240Y10360D02*
X138760Y10360D01*
X138760Y12535D02*
X141240Y12535D01*
X141240Y14710D02*
X138760Y14710D01*
X138760Y16885D02*
X141240Y16885D01*
X141240Y19060D02*
X138760Y19060D01*
X136240Y19490D02*
X133760Y19490D01*
X136240Y19490D02*
X136240Y6010D01*
X133760Y6010D01*
X133760Y19490D01*
X133760Y8185D02*
X136240Y8185D01*
X136240Y10360D02*
X133760Y10360D01*
X133760Y12535D02*
X136240Y12535D01*
X136240Y14710D02*
X133760Y14710D01*
X133760Y16885D02*
X136240Y16885D01*
X136240Y19060D02*
X133760Y19060D01*
X131240Y19490D02*
X128760Y19490D01*
X131240Y19490D02*
X131240Y6010D01*
X128760Y6010D01*
X128760Y19490D01*
X128760Y8185D02*
X131240Y8185D01*
X131240Y10360D02*
X128760Y10360D01*
X128760Y12535D02*
X131240Y12535D01*
X131240Y14710D02*
X128760Y14710D01*
X128760Y16885D02*
X131240Y16885D01*
X131240Y19060D02*
X128760Y19060D01*
X126240Y19490D02*
X123760Y19490D01*
X126240Y19490D02*
X126240Y6010D01*
X123760Y6010D01*
X123760Y19490D01*
X123760Y8185D02*
X126240Y8185D01*
X126240Y10360D02*
X123760Y10360D01*
X123760Y12535D02*
X126240Y12535D01*
X126240Y14710D02*
X123760Y14710D01*
X123760Y16885D02*
X126240Y16885D01*
X126240Y19060D02*
X123760Y19060D01*
X121240Y19490D02*
X118760Y19490D01*
X121240Y19490D02*
X121240Y6010D01*
X118760Y6010D01*
X118760Y19490D01*
X118760Y8185D02*
X121240Y8185D01*
X121240Y10360D02*
X118760Y10360D01*
X118760Y12535D02*
X121240Y12535D01*
X121240Y14710D02*
X118760Y14710D01*
X118760Y16885D02*
X121240Y16885D01*
X121240Y19060D02*
X118760Y19060D01*
X116240Y19490D02*
X113760Y19490D01*
X116240Y19490D02*
X116240Y6010D01*
X113760Y6010D01*
X113760Y19490D01*
X113760Y8185D02*
X116240Y8185D01*
X116240Y10360D02*
X113760Y10360D01*
X113760Y12535D02*
X116240Y12535D01*
X116240Y14710D02*
X113760Y14710D01*
X113760Y16885D02*
X116240Y16885D01*
X116240Y19060D02*
X113760Y19060D01*
X111240Y19490D02*
X108760Y19490D01*
X111240Y19490D02*
X111240Y6010D01*
X108760Y6010D01*
X108760Y19490D01*
X108760Y8185D02*
X111240Y8185D01*
X111240Y10360D02*
X108760Y10360D01*
X108760Y12535D02*
X111240Y12535D01*
X111240Y14710D02*
X108760Y14710D01*
X108760Y16885D02*
X111240Y16885D01*
X111240Y19060D02*
X108760Y19060D01*
X106240Y19490D02*
X103760Y19490D01*
X106240Y19490D02*
X106240Y6010D01*
X103760Y6010D01*
X103760Y19490D01*
X103760Y8185D02*
X106240Y8185D01*
X106240Y10360D02*
X103760Y10360D01*
X103760Y12535D02*
X106240Y12535D01*
X106240Y14710D02*
X103760Y14710D01*
X103760Y16885D02*
X106240Y16885D01*
X106240Y19060D02*
X103760Y19060D01*
X101240Y19490D02*
X98760Y19490D01*
X101240Y19490D02*
X101240Y6010D01*
X98760Y6010D01*
X98760Y19490D01*
X98760Y8185D02*
X101240Y8185D01*
X101240Y10360D02*
X98760Y10360D01*
X98760Y12535D02*
X101240Y12535D01*
X101240Y14710D02*
X98760Y14710D01*
X98760Y16885D02*
X101240Y16885D01*
X101240Y19060D02*
X98760Y19060D01*
X96240Y19490D02*
X93760Y19490D01*
X96240Y19490D02*
X96240Y6010D01*
X93760Y6010D01*
X93760Y19490D01*
X93760Y8185D02*
X96240Y8185D01*
X96240Y10360D02*
X93760Y10360D01*
X93760Y12535D02*
X96240Y12535D01*
X96240Y14710D02*
X93760Y14710D01*
X93760Y16885D02*
X96240Y16885D01*
X96240Y19060D02*
X93760Y19060D01*
D27*
X367500Y461000D03*
X367500Y419000D03*
X354500Y440000D03*
X7500Y419000D03*
X7500Y461000D03*
X20500Y440000D03*
D28*
X360232Y197519D02*
X364768Y197519D01*
X364768Y186483D01*
X360232Y186483D01*
X360232Y197519D01*
X360232Y188605D02*
X364768Y188605D01*
X364768Y190727D02*
X360232Y190727D01*
X360232Y192849D02*
X364768Y192849D01*
X364768Y194971D02*
X360232Y194971D01*
X360232Y197093D02*
X364768Y197093D01*
X355268Y197519D02*
X350732Y197519D01*
X355268Y197519D02*
X355268Y186483D01*
X350732Y186483D01*
X350732Y197519D01*
X350732Y188605D02*
X355268Y188605D01*
X355268Y190727D02*
X350732Y190727D01*
X350732Y192849D02*
X355268Y192849D01*
X355268Y194971D02*
X350732Y194971D01*
X350732Y197093D02*
X355268Y197093D01*
X345768Y197519D02*
X341232Y197519D01*
X345768Y197519D02*
X345768Y186483D01*
X341232Y186483D01*
X341232Y197519D01*
X341232Y188605D02*
X345768Y188605D01*
X345768Y190727D02*
X341232Y190727D01*
X341232Y192849D02*
X345768Y192849D01*
X345768Y194971D02*
X341232Y194971D01*
X341232Y197093D02*
X345768Y197093D01*
X345768Y171517D02*
X341232Y171517D01*
X345768Y171517D02*
X345768Y160481D01*
X341232Y160481D01*
X341232Y171517D01*
X341232Y162603D02*
X345768Y162603D01*
X345768Y164725D02*
X341232Y164725D01*
X341232Y166847D02*
X345768Y166847D01*
X345768Y168969D02*
X341232Y168969D01*
X341232Y171091D02*
X345768Y171091D01*
X360232Y171517D02*
X364768Y171517D01*
X364768Y160481D01*
X360232Y160481D01*
X360232Y171517D01*
X360232Y162603D02*
X364768Y162603D01*
X364768Y164725D02*
X360232Y164725D01*
X360232Y166847D02*
X364768Y166847D01*
X364768Y168969D02*
X360232Y168969D01*
X360232Y171091D02*
X364768Y171091D01*
D10*
X359508Y224492D02*
X354492Y224492D01*
X354492Y229508D01*
X359508Y229508D01*
X359508Y224492D01*
X359508Y226633D02*
X354492Y226633D01*
X354492Y228774D02*
X359508Y228774D01*
X364492Y224492D02*
X369508Y224492D01*
X364492Y224492D02*
X364492Y229508D01*
X369508Y229508D01*
X369508Y224492D01*
X369508Y226633D02*
X364492Y226633D01*
X364492Y228774D02*
X369508Y228774D01*
D18*
X323650Y145350D02*
X318350Y145350D01*
X318350Y152650D01*
X323650Y152650D01*
X323650Y145350D01*
X323650Y147507D02*
X318350Y147507D01*
X318350Y149664D02*
X323650Y149664D01*
X323650Y151821D02*
X318350Y151821D01*
X341350Y145350D02*
X346650Y145350D01*
X341350Y145350D02*
X341350Y152650D01*
X346650Y152650D01*
X346650Y145350D01*
X346650Y147507D02*
X341350Y147507D01*
X341350Y149664D02*
X346650Y149664D01*
X346650Y151821D02*
X341350Y151821D01*
D10*
X364492Y215508D02*
X369508Y215508D01*
X369508Y210492D01*
X364492Y210492D01*
X364492Y215508D01*
X364492Y212633D02*
X369508Y212633D01*
X369508Y214774D02*
X364492Y214774D01*
X359508Y215508D02*
X354492Y215508D01*
X359508Y215508D02*
X359508Y210492D01*
X354492Y210492D01*
X354492Y215508D01*
X354492Y212633D02*
X359508Y212633D01*
X359508Y214774D02*
X354492Y214774D01*
X359992Y151508D02*
X359992Y146492D01*
X359992Y151508D02*
X365008Y151508D01*
X365008Y146492D01*
X359992Y146492D01*
X359992Y148633D02*
X365008Y148633D01*
X365008Y150774D02*
X359992Y150774D01*
X359992Y141508D02*
X359992Y136492D01*
X359992Y141508D02*
X365008Y141508D01*
X365008Y136492D01*
X359992Y136492D01*
X359992Y138633D02*
X365008Y138633D01*
X365008Y140774D02*
X359992Y140774D01*
D18*
X288150Y109650D02*
X282850Y109650D01*
X288150Y109650D02*
X288150Y102350D01*
X282850Y102350D01*
X282850Y109650D01*
X282850Y104507D02*
X288150Y104507D01*
X288150Y106664D02*
X282850Y106664D01*
X282850Y108821D02*
X288150Y108821D01*
X265150Y109650D02*
X259850Y109650D01*
X265150Y109650D02*
X265150Y102350D01*
X259850Y102350D01*
X259850Y109650D01*
X259850Y104507D02*
X265150Y104507D01*
X265150Y106664D02*
X259850Y106664D01*
X259850Y108821D02*
X265150Y108821D01*
D10*
X230008Y57492D02*
X224992Y57492D01*
X224992Y62508D01*
X230008Y62508D01*
X230008Y57492D01*
X230008Y59633D02*
X224992Y59633D01*
X224992Y61774D02*
X230008Y61774D01*
X234992Y57492D02*
X240008Y57492D01*
X234992Y57492D02*
X234992Y62508D01*
X240008Y62508D01*
X240008Y57492D01*
X240008Y59633D02*
X234992Y59633D01*
X234992Y61774D02*
X240008Y61774D01*
X160008Y57492D02*
X154992Y57492D01*
X154992Y62508D01*
X160008Y62508D01*
X160008Y57492D01*
X160008Y59633D02*
X154992Y59633D01*
X154992Y61774D02*
X160008Y61774D01*
X164992Y57492D02*
X170008Y57492D01*
X164992Y57492D02*
X164992Y62508D01*
X170008Y62508D01*
X170008Y57492D01*
X170008Y59633D02*
X164992Y59633D01*
X164992Y61774D02*
X170008Y61774D01*
D21*
X102008Y55508D02*
X91992Y55508D01*
X102008Y55508D02*
X102008Y46492D01*
X91992Y46492D01*
X91992Y55508D01*
X91992Y48633D02*
X102008Y48633D01*
X102008Y50774D02*
X91992Y50774D01*
X91992Y52915D02*
X102008Y52915D01*
X102008Y55056D02*
X91992Y55056D01*
X85008Y55508D02*
X74992Y55508D01*
X85008Y55508D02*
X85008Y46492D01*
X74992Y46492D01*
X74992Y55508D01*
X74992Y48633D02*
X85008Y48633D01*
X85008Y50774D02*
X74992Y50774D01*
X74992Y52915D02*
X85008Y52915D01*
X85008Y55056D02*
X74992Y55056D01*
D19*
X19000Y240000D03*
X19000Y265400D03*
X19000Y290800D03*
X19000Y316200D03*
D10*
X189492Y642508D02*
X194508Y642508D01*
X194508Y637492D01*
X189492Y637492D01*
X189492Y642508D01*
X189492Y639633D02*
X194508Y639633D01*
X194508Y641774D02*
X189492Y641774D01*
X184508Y642508D02*
X179492Y642508D01*
X184508Y642508D02*
X184508Y637492D01*
X179492Y637492D01*
X179492Y642508D01*
X179492Y639633D02*
X184508Y639633D01*
X184508Y641774D02*
X179492Y641774D01*
D29*
X170478Y550978D02*
X190522Y550978D01*
X170478Y550978D02*
X170478Y573022D01*
X190522Y573022D01*
X190522Y550978D01*
X190522Y553094D02*
X170478Y553094D01*
X170478Y555210D02*
X190522Y555210D01*
X190522Y557326D02*
X170478Y557326D01*
X170478Y559442D02*
X190522Y559442D01*
X190522Y561558D02*
X170478Y561558D01*
X170478Y563674D02*
X190522Y563674D01*
X190522Y565790D02*
X170478Y565790D01*
X170478Y567906D02*
X190522Y567906D01*
X190522Y570022D02*
X170478Y570022D01*
X170478Y572138D02*
X190522Y572138D01*
X209478Y550978D02*
X229522Y550978D01*
X209478Y550978D02*
X209478Y573022D01*
X229522Y573022D01*
X229522Y550978D01*
X229522Y553094D02*
X209478Y553094D01*
X209478Y555210D02*
X229522Y555210D01*
X229522Y557326D02*
X209478Y557326D01*
X209478Y559442D02*
X229522Y559442D01*
X229522Y561558D02*
X209478Y561558D01*
X209478Y563674D02*
X229522Y563674D01*
X229522Y565790D02*
X209478Y565790D01*
X209478Y567906D02*
X229522Y567906D01*
X229522Y570022D02*
X209478Y570022D01*
X209478Y572138D02*
X229522Y572138D01*
D30*
X223827Y606477D02*
X217873Y606477D01*
X223827Y606477D02*
X223827Y600523D01*
X217873Y600523D01*
X217873Y606477D01*
X217873Y602723D02*
X223827Y602723D01*
X223827Y604923D02*
X217873Y604923D01*
X217873Y617477D02*
X223827Y617477D01*
X223827Y611523D01*
X217873Y611523D01*
X217873Y617477D01*
X217873Y613723D02*
X223827Y613723D01*
X223827Y615923D02*
X217873Y615923D01*
X236173Y617477D02*
X242127Y617477D01*
X242127Y611523D01*
X236173Y611523D01*
X236173Y617477D01*
X236173Y613723D02*
X242127Y613723D01*
X242127Y615923D02*
X236173Y615923D01*
X236173Y606477D02*
X242127Y606477D01*
X242127Y600523D01*
X236173Y600523D01*
X236173Y606477D01*
X236173Y602723D02*
X242127Y602723D01*
X242127Y604923D02*
X236173Y604923D01*
D10*
X236492Y631508D02*
X241508Y631508D01*
X241508Y626492D01*
X236492Y626492D01*
X236492Y631508D01*
X236492Y628633D02*
X241508Y628633D01*
X241508Y630774D02*
X236492Y630774D01*
X231508Y631508D02*
X226492Y631508D01*
X231508Y631508D02*
X231508Y626492D01*
X226492Y626492D01*
X226492Y631508D01*
X226492Y628633D02*
X231508Y628633D01*
X231508Y630774D02*
X226492Y630774D01*
D11*
X37976Y340976D02*
X37976Y334024D01*
X30024Y334024D01*
X30024Y340976D01*
X37976Y340976D01*
X37976Y336226D02*
X30024Y336226D01*
X30024Y338428D02*
X37976Y338428D01*
X37976Y340630D02*
X30024Y340630D01*
X37976Y353024D02*
X37976Y359976D01*
X37976Y353024D02*
X30024Y353024D01*
X30024Y359976D01*
X37976Y359976D01*
X37976Y355226D02*
X30024Y355226D01*
X30024Y357428D02*
X37976Y357428D01*
X37976Y359630D02*
X30024Y359630D01*
X16976Y350476D02*
X16976Y343524D01*
X9024Y343524D01*
X9024Y350476D01*
X16976Y350476D01*
X16976Y345726D02*
X9024Y345726D01*
X9024Y347928D02*
X16976Y347928D01*
X16976Y350130D02*
X9024Y350130D01*
X37976Y380024D02*
X37976Y386976D01*
X37976Y380024D02*
X30024Y380024D01*
X30024Y386976D01*
X37976Y386976D01*
X37976Y382226D02*
X30024Y382226D01*
X30024Y384428D02*
X37976Y384428D01*
X37976Y386630D02*
X30024Y386630D01*
X37976Y399024D02*
X37976Y405976D01*
X37976Y399024D02*
X30024Y399024D01*
X30024Y405976D01*
X37976Y405976D01*
X37976Y401226D02*
X30024Y401226D01*
X30024Y403428D02*
X37976Y403428D01*
X37976Y405630D02*
X30024Y405630D01*
X16976Y396476D02*
X16976Y389524D01*
X9024Y389524D01*
X9024Y396476D01*
X16976Y396476D01*
X16976Y391726D02*
X9024Y391726D01*
X9024Y393928D02*
X16976Y393928D01*
X16976Y396130D02*
X9024Y396130D01*
D10*
X31492Y367492D02*
X36508Y367492D01*
X31492Y367492D02*
X31492Y372508D01*
X36508Y372508D01*
X36508Y367492D01*
X36508Y369633D02*
X31492Y369633D01*
X31492Y371774D02*
X36508Y371774D01*
X41492Y367492D02*
X46508Y367492D01*
X41492Y367492D02*
X41492Y372508D01*
X46508Y372508D01*
X46508Y367492D01*
X46508Y369633D02*
X41492Y369633D01*
X41492Y371774D02*
X46508Y371774D01*
X14508Y367492D02*
X9492Y367492D01*
X9492Y372508D01*
X14508Y372508D01*
X14508Y367492D01*
X14508Y369633D02*
X9492Y369633D01*
X9492Y371774D02*
X14508Y371774D01*
X19492Y367492D02*
X24508Y367492D01*
X19492Y367492D02*
X19492Y372508D01*
X24508Y372508D01*
X24508Y367492D01*
X24508Y369633D02*
X19492Y369633D01*
X19492Y371774D02*
X24508Y371774D01*
X698451Y53492D02*
X703467Y53492D01*
X698451Y53492D02*
X698451Y64508D01*
X703467Y64508D01*
X703467Y53492D01*
X703467Y55633D02*
X698451Y55633D01*
X698451Y57774D02*
X703467Y57774D01*
X703467Y59915D02*
X698451Y59915D01*
X698451Y62056D02*
X703467Y62056D01*
X703467Y64197D02*
X698451Y64197D01*
X711151Y53492D02*
X716167Y53492D01*
X711151Y53492D02*
X711151Y64508D01*
X716167Y64508D01*
X716167Y53492D01*
X716167Y55633D02*
X711151Y55633D01*
X711151Y57774D02*
X716167Y57774D01*
X716167Y59915D02*
X711151Y59915D01*
X711151Y62056D02*
X716167Y62056D01*
X716167Y64197D02*
X711151Y64197D01*
X723851Y53492D02*
X728867Y53492D01*
X723851Y53492D02*
X723851Y64508D01*
X728867Y64508D01*
X728867Y53492D01*
X728867Y55633D02*
X723851Y55633D01*
X723851Y57774D02*
X728867Y57774D01*
X728867Y59915D02*
X723851Y59915D01*
X723851Y62056D02*
X728867Y62056D01*
X728867Y64197D02*
X723851Y64197D01*
X736551Y53492D02*
X741567Y53492D01*
X736551Y53492D02*
X736551Y64508D01*
X741567Y64508D01*
X741567Y53492D01*
X741567Y55633D02*
X736551Y55633D01*
X736551Y57774D02*
X741567Y57774D01*
X741567Y59915D02*
X736551Y59915D01*
X736551Y62056D02*
X741567Y62056D01*
X741567Y64197D02*
X736551Y64197D01*
X736551Y109492D02*
X741567Y109492D01*
X736551Y109492D02*
X736551Y120508D01*
X741567Y120508D01*
X741567Y109492D01*
X741567Y111633D02*
X736551Y111633D01*
X736551Y113774D02*
X741567Y113774D01*
X741567Y115915D02*
X736551Y115915D01*
X736551Y118056D02*
X741567Y118056D01*
X741567Y120197D02*
X736551Y120197D01*
X728867Y109492D02*
X723851Y109492D01*
X723851Y120508D01*
X728867Y120508D01*
X728867Y109492D01*
X728867Y111633D02*
X723851Y111633D01*
X723851Y113774D02*
X728867Y113774D01*
X728867Y115915D02*
X723851Y115915D01*
X723851Y118056D02*
X728867Y118056D01*
X728867Y120197D02*
X723851Y120197D01*
X716167Y109492D02*
X711151Y109492D01*
X711151Y120508D01*
X716167Y120508D01*
X716167Y109492D01*
X716167Y111633D02*
X711151Y111633D01*
X711151Y113774D02*
X716167Y113774D01*
X716167Y115915D02*
X711151Y115915D01*
X711151Y118056D02*
X716167Y118056D01*
X716167Y120197D02*
X711151Y120197D01*
X703467Y109492D02*
X698451Y109492D01*
X698451Y120508D01*
X703467Y120508D01*
X703467Y109492D01*
X703467Y111633D02*
X698451Y111633D01*
X698451Y113774D02*
X703467Y113774D01*
X703467Y115915D02*
X698451Y115915D01*
X698451Y118056D02*
X703467Y118056D01*
X703467Y120197D02*
X698451Y120197D01*
X698501Y132492D02*
X703517Y132492D01*
X698501Y132492D02*
X698501Y137508D01*
X703517Y137508D01*
X703517Y132492D01*
X703517Y134633D02*
X698501Y134633D01*
X698501Y136774D02*
X703517Y136774D01*
X708501Y132492D02*
X713517Y132492D01*
X708501Y132492D02*
X708501Y137508D01*
X713517Y137508D01*
X713517Y132492D01*
X713517Y134633D02*
X708501Y134633D01*
X708501Y136774D02*
X713517Y136774D01*
X682501Y113508D02*
X682501Y108492D01*
X682501Y113508D02*
X687517Y113508D01*
X687517Y108492D01*
X682501Y108492D01*
X682501Y110633D02*
X687517Y110633D01*
X687517Y112774D02*
X682501Y112774D01*
X682501Y103508D02*
X682501Y98492D01*
X682501Y103508D02*
X687517Y103508D01*
X687517Y98492D01*
X682501Y98492D01*
X682501Y100633D02*
X687517Y100633D01*
X687517Y102774D02*
X682501Y102774D01*
X663501Y93008D02*
X663501Y87992D01*
X663501Y93008D02*
X668517Y93008D01*
X668517Y87992D01*
X663501Y87992D01*
X663501Y90133D02*
X668517Y90133D01*
X668517Y92274D02*
X663501Y92274D01*
X663501Y83008D02*
X663501Y77992D01*
X663501Y83008D02*
X668517Y83008D01*
X668517Y77992D01*
X663501Y77992D01*
X663501Y80133D02*
X668517Y80133D01*
X668517Y82274D02*
X663501Y82274D01*
X654517Y83008D02*
X654517Y77992D01*
X649501Y77992D01*
X649501Y83008D01*
X654517Y83008D01*
X654517Y80133D02*
X649501Y80133D01*
X649501Y82274D02*
X654517Y82274D01*
X654517Y87992D02*
X654517Y93008D01*
X654517Y87992D02*
X649501Y87992D01*
X649501Y93008D01*
X654517Y93008D01*
X654517Y90133D02*
X649501Y90133D01*
X649501Y92274D02*
X654517Y92274D01*
D11*
X579033Y93976D02*
X579033Y87024D01*
X579033Y93976D02*
X586985Y93976D01*
X586985Y87024D01*
X579033Y87024D01*
X579033Y89226D02*
X586985Y89226D01*
X586985Y91428D02*
X579033Y91428D01*
X579033Y93630D02*
X586985Y93630D01*
X579033Y74976D02*
X579033Y68024D01*
X579033Y74976D02*
X586985Y74976D01*
X586985Y68024D01*
X579033Y68024D01*
X579033Y70226D02*
X586985Y70226D01*
X586985Y72428D02*
X579033Y72428D01*
X579033Y74630D02*
X586985Y74630D01*
X600033Y77524D02*
X600033Y84476D01*
X607985Y84476D01*
X607985Y77524D01*
X600033Y77524D01*
X600033Y79726D02*
X607985Y79726D01*
X607985Y81928D02*
X600033Y81928D01*
X600033Y84130D02*
X607985Y84130D01*
X509033Y87024D02*
X509033Y93976D01*
X516985Y93976D01*
X516985Y87024D01*
X509033Y87024D01*
X509033Y89226D02*
X516985Y89226D01*
X516985Y91428D02*
X509033Y91428D01*
X509033Y93630D02*
X516985Y93630D01*
X509033Y74976D02*
X509033Y68024D01*
X509033Y74976D02*
X516985Y74976D01*
X516985Y68024D01*
X509033Y68024D01*
X509033Y70226D02*
X516985Y70226D01*
X516985Y72428D02*
X509033Y72428D01*
X509033Y74630D02*
X516985Y74630D01*
X530033Y77524D02*
X530033Y84476D01*
X537985Y84476D01*
X537985Y77524D01*
X530033Y77524D01*
X530033Y79726D02*
X537985Y79726D01*
X537985Y81928D02*
X530033Y81928D01*
X530033Y84130D02*
X537985Y84130D01*
X614033Y77024D02*
X620985Y77024D01*
X614033Y77024D02*
X614033Y84976D01*
X620985Y84976D01*
X620985Y77024D01*
X620985Y79226D02*
X614033Y79226D01*
X614033Y81428D02*
X620985Y81428D01*
X620985Y83630D02*
X614033Y83630D01*
X633033Y77024D02*
X639985Y77024D01*
X633033Y77024D02*
X633033Y84976D01*
X639985Y84976D01*
X639985Y77024D01*
X639985Y79226D02*
X633033Y79226D01*
X633033Y81428D02*
X639985Y81428D01*
X639985Y83630D02*
X633033Y83630D01*
X630485Y98024D02*
X623533Y98024D01*
X623533Y105976D01*
X630485Y105976D01*
X630485Y98024D01*
X630485Y100226D02*
X623533Y100226D01*
X623533Y102428D02*
X630485Y102428D01*
X630485Y104630D02*
X623533Y104630D01*
X550985Y77024D02*
X544033Y77024D01*
X544033Y84976D01*
X550985Y84976D01*
X550985Y77024D01*
X550985Y79226D02*
X544033Y79226D01*
X544033Y81428D02*
X550985Y81428D01*
X550985Y83630D02*
X544033Y83630D01*
X563033Y77024D02*
X569985Y77024D01*
X563033Y77024D02*
X563033Y84976D01*
X569985Y84976D01*
X569985Y77024D01*
X569985Y79226D02*
X563033Y79226D01*
X563033Y81428D02*
X569985Y81428D01*
X569985Y83630D02*
X563033Y83630D01*
X560485Y98024D02*
X553533Y98024D01*
X553533Y105976D01*
X560485Y105976D01*
X560485Y98024D01*
X560485Y100226D02*
X553533Y100226D01*
X553533Y102428D02*
X560485Y102428D01*
X560485Y104630D02*
X553533Y104630D01*
D10*
X615001Y66992D02*
X620017Y66992D01*
X615001Y66992D02*
X615001Y72008D01*
X620017Y72008D01*
X620017Y66992D01*
X620017Y69133D02*
X615001Y69133D01*
X615001Y71274D02*
X620017Y71274D01*
X625001Y66992D02*
X630017Y66992D01*
X625001Y66992D02*
X625001Y72008D01*
X630017Y72008D01*
X630017Y66992D01*
X630017Y69133D02*
X625001Y69133D01*
X625001Y71274D02*
X630017Y71274D01*
X550017Y66992D02*
X545001Y66992D01*
X545001Y72008D01*
X550017Y72008D01*
X550017Y66992D01*
X550017Y69133D02*
X545001Y69133D01*
X545001Y71274D02*
X550017Y71274D01*
X555001Y66992D02*
X560017Y66992D01*
X555001Y66992D02*
X555001Y72008D01*
X560017Y72008D01*
X560017Y66992D01*
X560017Y69133D02*
X555001Y69133D01*
X555001Y71274D02*
X560017Y71274D01*
D12*
X671527Y596882D02*
X673491Y596882D01*
X673491Y587918D01*
X671527Y587918D01*
X671527Y596882D01*
X671527Y590109D02*
X673491Y590109D01*
X673491Y592300D02*
X671527Y592300D01*
X671527Y594491D02*
X673491Y594491D01*
X673491Y596682D02*
X671527Y596682D01*
X676527Y596882D02*
X678491Y596882D01*
X678491Y587918D01*
X676527Y587918D01*
X676527Y596882D01*
X676527Y590109D02*
X678491Y590109D01*
X678491Y592300D02*
X676527Y592300D01*
X676527Y594491D02*
X678491Y594491D01*
X678491Y596682D02*
X676527Y596682D01*
D10*
X650267Y596908D02*
X645251Y596908D01*
X650267Y596908D02*
X650267Y587892D01*
X645251Y587892D01*
X645251Y596908D01*
X645251Y590033D02*
X650267Y590033D01*
X650267Y592174D02*
X645251Y592174D01*
X645251Y594315D02*
X650267Y594315D01*
X650267Y596456D02*
X645251Y596456D01*
X653001Y596908D02*
X658017Y596908D01*
X658017Y587892D01*
X653001Y587892D01*
X653001Y596908D01*
X653001Y590033D02*
X658017Y590033D01*
X658017Y592174D02*
X653001Y592174D01*
X653001Y594315D02*
X658017Y594315D01*
X658017Y596456D02*
X653001Y596456D01*
D12*
X661527Y596882D02*
X663491Y596882D01*
X663491Y587918D01*
X661527Y587918D01*
X661527Y596882D01*
X661527Y590109D02*
X663491Y590109D01*
X663491Y592300D02*
X661527Y592300D01*
X661527Y594491D02*
X663491Y594491D01*
X663491Y596682D02*
X661527Y596682D01*
X666527Y596882D02*
X668491Y596882D01*
X668491Y587918D01*
X666527Y587918D01*
X666527Y596882D01*
X666527Y590109D02*
X668491Y590109D01*
X668491Y592300D02*
X666527Y592300D01*
X666527Y594491D02*
X668491Y594491D01*
X668491Y596682D02*
X666527Y596682D01*
X686527Y587918D02*
X688491Y587918D01*
X686527Y587918D02*
X686527Y596882D01*
X688491Y596882D01*
X688491Y587918D01*
X688491Y590109D02*
X686527Y590109D01*
X686527Y592300D02*
X688491Y592300D01*
X688491Y594491D02*
X686527Y594491D01*
X686527Y596682D02*
X688491Y596682D01*
X683491Y587918D02*
X681527Y587918D01*
X681527Y596882D01*
X683491Y596882D01*
X683491Y587918D01*
X683491Y590109D02*
X681527Y590109D01*
X681527Y592300D02*
X683491Y592300D01*
X683491Y594491D02*
X681527Y594491D01*
X681527Y596682D02*
X683491Y596682D01*
D10*
X709751Y587892D02*
X714767Y587892D01*
X709751Y587892D02*
X709751Y596908D01*
X714767Y596908D01*
X714767Y587892D01*
X714767Y590033D02*
X709751Y590033D01*
X709751Y592174D02*
X714767Y592174D01*
X714767Y594315D02*
X709751Y594315D01*
X709751Y596456D02*
X714767Y596456D01*
X707017Y587892D02*
X702001Y587892D01*
X702001Y596908D01*
X707017Y596908D01*
X707017Y587892D01*
X707017Y590033D02*
X702001Y590033D01*
X702001Y592174D02*
X707017Y592174D01*
X707017Y594315D02*
X702001Y594315D01*
X702001Y596456D02*
X707017Y596456D01*
D12*
X698491Y587918D02*
X696527Y587918D01*
X696527Y596882D01*
X698491Y596882D01*
X698491Y587918D01*
X698491Y590109D02*
X696527Y590109D01*
X696527Y592300D02*
X698491Y592300D01*
X698491Y594491D02*
X696527Y594491D01*
X696527Y596682D02*
X698491Y596682D01*
X693491Y587918D02*
X691527Y587918D01*
X691527Y596882D01*
X693491Y596882D01*
X693491Y587918D01*
X693491Y590109D02*
X691527Y590109D01*
X691527Y592300D02*
X693491Y592300D01*
X693491Y594491D02*
X691527Y594491D01*
X691527Y596682D02*
X693491Y596682D01*
D13*
X708909Y603450D03*
X651109Y603450D03*
D14*
X684274Y572585D02*
X684274Y567515D01*
X684274Y572585D02*
X685744Y572585D01*
X685744Y567515D01*
X684274Y567515D01*
X684274Y569700D02*
X685744Y569700D01*
X685744Y571885D02*
X684274Y571885D01*
X679274Y572585D02*
X679274Y568015D01*
X679274Y572585D02*
X680744Y572585D01*
X680744Y568015D01*
X679274Y568015D01*
X679274Y570200D02*
X680744Y570200D01*
X680744Y572385D02*
X679274Y572385D01*
X674274Y572585D02*
X674274Y568015D01*
X674274Y572585D02*
X675744Y572585D01*
X675744Y568015D01*
X674274Y568015D01*
X674274Y570200D02*
X675744Y570200D01*
X675744Y572385D02*
X674274Y572385D01*
X675744Y563985D02*
X675744Y559415D01*
X674274Y559415D01*
X674274Y563985D01*
X675744Y563985D01*
X675744Y561600D02*
X674274Y561600D01*
X674274Y563785D02*
X675744Y563785D01*
X680744Y563985D02*
X680744Y559415D01*
X679274Y559415D01*
X679274Y563985D01*
X680744Y563985D01*
X680744Y561600D02*
X679274Y561600D01*
X679274Y563785D02*
X680744Y563785D01*
X685744Y563985D02*
X685744Y559415D01*
X684274Y559415D01*
X684274Y563985D01*
X685744Y563985D01*
X685744Y561600D02*
X684274Y561600D01*
X684274Y563785D02*
X685744Y563785D01*
D10*
X650517Y570492D02*
X645501Y570492D01*
X645501Y575508D01*
X650517Y575508D01*
X650517Y570492D01*
X650517Y572633D02*
X645501Y572633D01*
X645501Y574774D02*
X650517Y574774D01*
X655501Y570492D02*
X660517Y570492D01*
X655501Y570492D02*
X655501Y575508D01*
X660517Y575508D01*
X660517Y570492D01*
X660517Y572633D02*
X655501Y572633D01*
X655501Y574774D02*
X660517Y574774D01*
X709501Y575508D02*
X714517Y575508D01*
X714517Y570492D01*
X709501Y570492D01*
X709501Y575508D01*
X709501Y572633D02*
X714517Y572633D01*
X714517Y574774D02*
X709501Y574774D01*
X704517Y575508D02*
X699501Y575508D01*
X704517Y575508D02*
X704517Y570492D01*
X699501Y570492D01*
X699501Y575508D01*
X699501Y572633D02*
X704517Y572633D01*
X704517Y574774D02*
X699501Y574774D01*
D15*
X567503Y583494D02*
X567503Y591506D01*
X576515Y591506D01*
X576515Y583494D01*
X567503Y583494D01*
X567503Y585640D02*
X576515Y585640D01*
X576515Y587786D02*
X567503Y587786D01*
X567503Y589932D02*
X576515Y589932D01*
X551503Y591506D02*
X551503Y583494D01*
X551503Y591506D02*
X560515Y591506D01*
X560515Y583494D01*
X551503Y583494D01*
X551503Y585640D02*
X560515Y585640D01*
X560515Y587786D02*
X551503Y587786D01*
X551503Y589932D02*
X560515Y589932D01*
X551503Y624494D02*
X551503Y632506D01*
X560515Y632506D01*
X560515Y624494D01*
X551503Y624494D01*
X551503Y626640D02*
X560515Y626640D01*
X560515Y628786D02*
X551503Y628786D01*
X551503Y630932D02*
X560515Y630932D01*
X567503Y632506D02*
X567503Y624494D01*
X567503Y632506D02*
X576515Y632506D01*
X576515Y624494D01*
X567503Y624494D01*
X567503Y626640D02*
X576515Y626640D01*
X576515Y628786D02*
X567503Y628786D01*
X567503Y630932D02*
X576515Y630932D01*
D16*
X580009Y510300D03*
D17*
X750009Y45000D03*
X385009Y645000D03*
D18*
X628859Y543350D02*
X634159Y543350D01*
X628859Y543350D02*
X628859Y550650D01*
X634159Y550650D01*
X634159Y543350D01*
X634159Y545507D02*
X628859Y545507D01*
X628859Y547664D02*
X634159Y547664D01*
X634159Y549821D02*
X628859Y549821D01*
X651859Y543350D02*
X657159Y543350D01*
X651859Y543350D02*
X651859Y550650D01*
X657159Y550650D01*
X657159Y543350D01*
X657159Y545507D02*
X651859Y545507D01*
X651859Y547664D02*
X657159Y547664D01*
X657159Y549821D02*
X651859Y549821D01*
X514159Y102050D02*
X508859Y102050D01*
X508859Y109350D01*
X514159Y109350D01*
X514159Y102050D01*
X514159Y104207D02*
X508859Y104207D01*
X508859Y106364D02*
X514159Y106364D01*
X514159Y108521D02*
X508859Y108521D01*
X531859Y102050D02*
X537159Y102050D01*
X531859Y102050D02*
X531859Y109350D01*
X537159Y109350D01*
X537159Y102050D01*
X537159Y104207D02*
X531859Y104207D01*
X531859Y106364D02*
X537159Y106364D01*
X537159Y108521D02*
X531859Y108521D01*
D19*
X477009Y94700D03*
X477009Y69300D03*
D20*
X463499Y78510D02*
X434519Y78510D01*
X434519Y91490D01*
X463499Y91490D01*
X463499Y78510D01*
X463499Y80686D02*
X434519Y80686D01*
X434519Y82862D02*
X463499Y82862D01*
X463499Y85038D02*
X434519Y85038D01*
X434519Y87214D02*
X463499Y87214D01*
X463499Y89390D02*
X434519Y89390D01*
X415499Y78510D02*
X386519Y78510D01*
X386519Y91490D01*
X415499Y91490D01*
X415499Y78510D01*
X415499Y80686D02*
X386519Y80686D01*
X386519Y82862D02*
X415499Y82862D01*
X415499Y85038D02*
X386519Y85038D01*
X386519Y87214D02*
X415499Y87214D01*
X415499Y89390D02*
X386519Y89390D01*
X434519Y153510D02*
X463499Y153510D01*
X434519Y153510D02*
X434519Y166490D01*
X463499Y166490D01*
X463499Y153510D01*
X463499Y155686D02*
X434519Y155686D01*
X434519Y157862D02*
X463499Y157862D01*
X463499Y160038D02*
X434519Y160038D01*
X434519Y162214D02*
X463499Y162214D01*
X463499Y164390D02*
X434519Y164390D01*
X415499Y153510D02*
X386519Y153510D01*
X386519Y166490D01*
X415499Y166490D01*
X415499Y153510D01*
X415499Y155686D02*
X386519Y155686D01*
X386519Y157862D02*
X415499Y157862D01*
X415499Y160038D02*
X386519Y160038D01*
X386519Y162214D02*
X415499Y162214D01*
X415499Y164390D02*
X386519Y164390D01*
D10*
X698501Y176492D02*
X703517Y176492D01*
X698501Y176492D02*
X698501Y181508D01*
X703517Y181508D01*
X703517Y176492D01*
X703517Y178633D02*
X698501Y178633D01*
X698501Y180774D02*
X703517Y180774D01*
X708501Y176492D02*
X713517Y176492D01*
X708501Y176492D02*
X708501Y181508D01*
X713517Y181508D01*
X713517Y176492D01*
X713517Y178633D02*
X708501Y178633D01*
X708501Y180774D02*
X713517Y180774D01*
D21*
X505517Y644008D02*
X496501Y644008D01*
X505517Y644008D02*
X505517Y621992D01*
X496501Y621992D01*
X496501Y644008D01*
X496501Y624133D02*
X505517Y624133D01*
X505517Y626274D02*
X496501Y626274D01*
X496501Y628415D02*
X505517Y628415D01*
X505517Y630556D02*
X496501Y630556D01*
X496501Y632697D02*
X505517Y632697D01*
X505517Y634838D02*
X496501Y634838D01*
X496501Y636979D02*
X505517Y636979D01*
X505517Y639120D02*
X496501Y639120D01*
X496501Y641261D02*
X505517Y641261D01*
X505517Y643402D02*
X496501Y643402D01*
X496501Y572008D02*
X505517Y572008D01*
X505517Y549992D01*
X496501Y549992D01*
X496501Y572008D01*
X496501Y552133D02*
X505517Y552133D01*
X505517Y554274D02*
X496501Y554274D01*
X496501Y556415D02*
X505517Y556415D01*
X505517Y558556D02*
X496501Y558556D01*
X496501Y560697D02*
X505517Y560697D01*
X505517Y562838D02*
X496501Y562838D01*
X496501Y564979D02*
X505517Y564979D01*
X505517Y567120D02*
X496501Y567120D01*
X496501Y569261D02*
X505517Y569261D01*
X505517Y571402D02*
X496501Y571402D01*
X403517Y572008D02*
X394501Y572008D01*
X403517Y572008D02*
X403517Y549992D01*
X394501Y549992D01*
X394501Y572008D01*
X394501Y552133D02*
X403517Y552133D01*
X403517Y554274D02*
X394501Y554274D01*
X394501Y556415D02*
X403517Y556415D01*
X403517Y558556D02*
X394501Y558556D01*
X394501Y560697D02*
X403517Y560697D01*
X403517Y562838D02*
X394501Y562838D01*
X394501Y564979D02*
X403517Y564979D01*
X403517Y567120D02*
X394501Y567120D01*
X394501Y569261D02*
X403517Y569261D01*
X403517Y571402D02*
X394501Y571402D01*
X394501Y644008D02*
X403517Y644008D01*
X403517Y621992D01*
X394501Y621992D01*
X394501Y644008D01*
X394501Y624133D02*
X403517Y624133D01*
X403517Y626274D02*
X394501Y626274D01*
X394501Y628415D02*
X403517Y628415D01*
X403517Y630556D02*
X394501Y630556D01*
X394501Y632697D02*
X403517Y632697D01*
X403517Y634838D02*
X394501Y634838D01*
X394501Y636979D02*
X403517Y636979D01*
X403517Y639120D02*
X394501Y639120D01*
X394501Y641261D02*
X403517Y641261D01*
X403517Y643402D02*
X394501Y643402D01*
D11*
X494533Y607976D02*
X503485Y607976D01*
X503485Y601024D01*
X494533Y601024D01*
X494533Y607976D01*
X494533Y603226D02*
X503485Y603226D01*
X503485Y605428D02*
X494533Y605428D01*
X494533Y607630D02*
X503485Y607630D01*
X405485Y607976D02*
X396533Y607976D01*
X405485Y607976D02*
X405485Y601024D01*
X396533Y601024D01*
X396533Y607976D01*
X396533Y603226D02*
X405485Y603226D01*
X405485Y605428D02*
X396533Y605428D01*
X396533Y607630D02*
X405485Y607630D01*
X405485Y595976D02*
X396533Y595976D01*
X405485Y595976D02*
X405485Y589024D01*
X396533Y589024D01*
X396533Y595976D01*
X396533Y591226D02*
X405485Y591226D01*
X405485Y593428D02*
X396533Y593428D01*
X396533Y595630D02*
X405485Y595630D01*
X405485Y583976D02*
X396533Y583976D01*
X405485Y583976D02*
X405485Y577024D01*
X396533Y577024D01*
X396533Y583976D01*
X396533Y579226D02*
X405485Y579226D01*
X405485Y581428D02*
X396533Y581428D01*
X396533Y583630D02*
X405485Y583630D01*
X494533Y595976D02*
X503485Y595976D01*
X503485Y589024D01*
X494533Y589024D01*
X494533Y595976D01*
X494533Y591226D02*
X503485Y591226D01*
X503485Y593428D02*
X494533Y593428D01*
X494533Y595630D02*
X503485Y595630D01*
X503485Y583976D02*
X494533Y583976D01*
X503485Y583976D02*
X503485Y577024D01*
X494533Y577024D01*
X494533Y583976D01*
X494533Y579226D02*
X503485Y579226D01*
X503485Y581428D02*
X494533Y581428D01*
X494533Y583630D02*
X503485Y583630D01*
D21*
X473217Y526258D02*
X463201Y526258D01*
X473217Y526258D02*
X473217Y517242D01*
X463201Y517242D01*
X463201Y526258D01*
X463201Y519383D02*
X473217Y519383D01*
X473217Y521524D02*
X463201Y521524D01*
X463201Y523665D02*
X473217Y523665D01*
X473217Y525806D02*
X463201Y525806D01*
X436817Y526258D02*
X426801Y526258D01*
X436817Y526258D02*
X436817Y517242D01*
X426801Y517242D01*
X426801Y526258D01*
X426801Y519383D02*
X436817Y519383D01*
X436817Y521524D02*
X426801Y521524D01*
X426801Y523665D02*
X436817Y523665D01*
X436817Y525806D02*
X426801Y525806D01*
D10*
X426517Y222508D02*
X421501Y222508D01*
X426517Y222508D02*
X426517Y217492D01*
X421501Y217492D01*
X421501Y222508D01*
X421501Y219633D02*
X426517Y219633D01*
X426517Y221774D02*
X421501Y221774D01*
X416517Y222508D02*
X411501Y222508D01*
X416517Y222508D02*
X416517Y217492D01*
X411501Y217492D01*
X411501Y222508D01*
X411501Y219633D02*
X416517Y219633D01*
X416517Y221774D02*
X411501Y221774D01*
D22*
X531285Y627506D02*
X531285Y634494D01*
X538273Y634494D01*
X538273Y627506D01*
X531285Y627506D01*
X531285Y631575D02*
X538273Y631575D01*
X513745Y634494D02*
X513745Y627506D01*
X513745Y634494D02*
X520733Y634494D01*
X520733Y627506D01*
X513745Y627506D01*
X513745Y631575D02*
X520733Y631575D01*
X531285Y599494D02*
X531285Y592506D01*
X531285Y599494D02*
X538273Y599494D01*
X538273Y592506D01*
X531285Y592506D01*
X531285Y596575D02*
X538273Y596575D01*
X513745Y599494D02*
X513745Y592506D01*
X513745Y599494D02*
X520733Y599494D01*
X520733Y592506D01*
X513745Y592506D01*
X513745Y596575D02*
X520733Y596575D01*
D10*
X518501Y615492D02*
X523517Y615492D01*
X518501Y615492D02*
X518501Y620508D01*
X523517Y620508D01*
X523517Y615492D01*
X523517Y617633D02*
X518501Y617633D01*
X518501Y619774D02*
X523517Y619774D01*
X528501Y615492D02*
X533517Y615492D01*
X528501Y615492D02*
X528501Y620508D01*
X533517Y620508D01*
X533517Y615492D01*
X533517Y617633D02*
X528501Y617633D01*
X528501Y619774D02*
X533517Y619774D01*
X523517Y580492D02*
X518501Y580492D01*
X518501Y585508D01*
X523517Y585508D01*
X523517Y580492D01*
X523517Y582633D02*
X518501Y582633D01*
X518501Y584774D02*
X523517Y584774D01*
X528501Y580492D02*
X533517Y580492D01*
X528501Y580492D02*
X528501Y585508D01*
X533517Y585508D01*
X533517Y580492D01*
X533517Y582633D02*
X528501Y582633D01*
X528501Y584774D02*
X533517Y584774D01*
D22*
X531285Y564494D02*
X531285Y557506D01*
X531285Y564494D02*
X538273Y564494D01*
X538273Y557506D01*
X531285Y557506D01*
X531285Y561575D02*
X538273Y561575D01*
X513745Y564494D02*
X513745Y557506D01*
X513745Y564494D02*
X520733Y564494D01*
X520733Y557506D01*
X513745Y557506D01*
X513745Y561575D02*
X520733Y561575D01*
D10*
X518501Y545492D02*
X523517Y545492D01*
X518501Y545492D02*
X518501Y550508D01*
X523517Y550508D01*
X523517Y545492D01*
X523517Y547633D02*
X518501Y547633D01*
X518501Y549774D02*
X523517Y549774D01*
X528501Y545492D02*
X533517Y545492D01*
X528501Y545492D02*
X528501Y550508D01*
X533517Y550508D01*
X533517Y545492D01*
X533517Y547633D02*
X528501Y547633D01*
X528501Y549774D02*
X533517Y549774D01*
X416517Y202492D02*
X411501Y202492D01*
X411501Y207508D01*
X416517Y207508D01*
X416517Y202492D01*
X416517Y204633D02*
X411501Y204633D01*
X411501Y206774D02*
X416517Y206774D01*
X421501Y202492D02*
X426517Y202492D01*
X421501Y202492D02*
X421501Y207508D01*
X426517Y207508D01*
X426517Y202492D01*
X426517Y204633D02*
X421501Y204633D01*
X421501Y206774D02*
X426517Y206774D01*
D11*
X415485Y499476D02*
X408533Y499476D01*
X415485Y499476D02*
X415485Y488524D01*
X408533Y488524D01*
X408533Y499476D01*
X408533Y490726D02*
X415485Y490726D01*
X415485Y492928D02*
X408533Y492928D01*
X408533Y495130D02*
X415485Y495130D01*
X415485Y497332D02*
X408533Y497332D01*
X397485Y499476D02*
X390533Y499476D01*
X397485Y499476D02*
X397485Y488524D01*
X390533Y488524D01*
X390533Y499476D01*
X390533Y490726D02*
X397485Y490726D01*
X397485Y492928D02*
X390533Y492928D01*
X390533Y495130D02*
X397485Y495130D01*
X397485Y497332D02*
X390533Y497332D01*
D12*
X671527Y131982D02*
X673491Y131982D01*
X673491Y117518D01*
X671527Y117518D01*
X671527Y131982D01*
X671527Y119709D02*
X673491Y119709D01*
X673491Y121900D02*
X671527Y121900D01*
X671527Y124091D02*
X673491Y124091D01*
X673491Y126282D02*
X671527Y126282D01*
X671527Y128473D02*
X673491Y128473D01*
X673491Y130664D02*
X671527Y130664D01*
X670991Y207482D02*
X669027Y207482D01*
X670991Y207482D02*
X670991Y193018D01*
X669027Y193018D01*
X669027Y207482D01*
X669027Y195209D02*
X670991Y195209D01*
X670991Y197400D02*
X669027Y197400D01*
X669027Y199591D02*
X670991Y199591D01*
X670991Y201782D02*
X669027Y201782D01*
X669027Y203973D02*
X670991Y203973D01*
X670991Y206164D02*
X669027Y206164D01*
X668491Y131982D02*
X666527Y131982D01*
X668491Y131982D02*
X668491Y117518D01*
X666527Y117518D01*
X666527Y131982D01*
X666527Y119709D02*
X668491Y119709D01*
X668491Y121900D02*
X666527Y121900D01*
X666527Y124091D02*
X668491Y124091D01*
X668491Y126282D02*
X666527Y126282D01*
X666527Y128473D02*
X668491Y128473D01*
X668491Y130664D02*
X666527Y130664D01*
X665991Y207482D02*
X664027Y207482D01*
X665991Y207482D02*
X665991Y193018D01*
X664027Y193018D01*
X664027Y207482D01*
X664027Y195209D02*
X665991Y195209D01*
X665991Y197400D02*
X664027Y197400D01*
X664027Y199591D02*
X665991Y199591D01*
X665991Y201782D02*
X664027Y201782D01*
X664027Y203973D02*
X665991Y203973D01*
X665991Y206164D02*
X664027Y206164D01*
X663491Y131982D02*
X661527Y131982D01*
X663491Y131982D02*
X663491Y117518D01*
X661527Y117518D01*
X661527Y131982D01*
X661527Y119709D02*
X663491Y119709D01*
X663491Y121900D02*
X661527Y121900D01*
X661527Y124091D02*
X663491Y124091D01*
X663491Y126282D02*
X661527Y126282D01*
X661527Y128473D02*
X663491Y128473D01*
X663491Y130664D02*
X661527Y130664D01*
X660991Y207482D02*
X659027Y207482D01*
X660991Y207482D02*
X660991Y193018D01*
X659027Y193018D01*
X659027Y207482D01*
X659027Y195209D02*
X660991Y195209D01*
X660991Y197400D02*
X659027Y197400D01*
X659027Y199591D02*
X660991Y199591D01*
X660991Y201782D02*
X659027Y201782D01*
X659027Y203973D02*
X660991Y203973D01*
X660991Y206164D02*
X659027Y206164D01*
X658491Y131982D02*
X656527Y131982D01*
X658491Y131982D02*
X658491Y117518D01*
X656527Y117518D01*
X656527Y131982D01*
X656527Y119709D02*
X658491Y119709D01*
X658491Y121900D02*
X656527Y121900D01*
X656527Y124091D02*
X658491Y124091D01*
X658491Y126282D02*
X656527Y126282D01*
X656527Y128473D02*
X658491Y128473D01*
X658491Y130664D02*
X656527Y130664D01*
X655991Y207482D02*
X654027Y207482D01*
X655991Y207482D02*
X655991Y193018D01*
X654027Y193018D01*
X654027Y207482D01*
X654027Y195209D02*
X655991Y195209D01*
X655991Y197400D02*
X654027Y197400D01*
X654027Y199591D02*
X655991Y199591D01*
X655991Y201782D02*
X654027Y201782D01*
X654027Y203973D02*
X655991Y203973D01*
X655991Y206164D02*
X654027Y206164D01*
X653491Y131982D02*
X651527Y131982D01*
X653491Y131982D02*
X653491Y117518D01*
X651527Y117518D01*
X651527Y131982D01*
X651527Y119709D02*
X653491Y119709D01*
X653491Y121900D02*
X651527Y121900D01*
X651527Y124091D02*
X653491Y124091D01*
X653491Y126282D02*
X651527Y126282D01*
X651527Y128473D02*
X653491Y128473D01*
X653491Y130664D02*
X651527Y130664D01*
X650991Y207482D02*
X649027Y207482D01*
X650991Y207482D02*
X650991Y193018D01*
X649027Y193018D01*
X649027Y207482D01*
X649027Y195209D02*
X650991Y195209D01*
X650991Y197400D02*
X649027Y197400D01*
X649027Y199591D02*
X650991Y199591D01*
X650991Y201782D02*
X649027Y201782D01*
X649027Y203973D02*
X650991Y203973D01*
X650991Y206164D02*
X649027Y206164D01*
X648491Y131982D02*
X646527Y131982D01*
X648491Y131982D02*
X648491Y117518D01*
X646527Y117518D01*
X646527Y131982D01*
X646527Y119709D02*
X648491Y119709D01*
X648491Y121900D02*
X646527Y121900D01*
X646527Y124091D02*
X648491Y124091D01*
X648491Y126282D02*
X646527Y126282D01*
X646527Y128473D02*
X648491Y128473D01*
X648491Y130664D02*
X646527Y130664D01*
X645991Y207482D02*
X644027Y207482D01*
X645991Y207482D02*
X645991Y193018D01*
X644027Y193018D01*
X644027Y207482D01*
X644027Y195209D02*
X645991Y195209D01*
X645991Y197400D02*
X644027Y197400D01*
X644027Y199591D02*
X645991Y199591D01*
X645991Y201782D02*
X644027Y201782D01*
X644027Y203973D02*
X645991Y203973D01*
X645991Y206164D02*
X644027Y206164D01*
X643491Y131982D02*
X641527Y131982D01*
X643491Y131982D02*
X643491Y117518D01*
X641527Y117518D01*
X641527Y131982D01*
X641527Y119709D02*
X643491Y119709D01*
X643491Y121900D02*
X641527Y121900D01*
X641527Y124091D02*
X643491Y124091D01*
X643491Y126282D02*
X641527Y126282D01*
X641527Y128473D02*
X643491Y128473D01*
X643491Y130664D02*
X641527Y130664D01*
X640991Y207482D02*
X639027Y207482D01*
X640991Y207482D02*
X640991Y193018D01*
X639027Y193018D01*
X639027Y207482D01*
X639027Y195209D02*
X640991Y195209D01*
X640991Y197400D02*
X639027Y197400D01*
X639027Y199591D02*
X640991Y199591D01*
X640991Y201782D02*
X639027Y201782D01*
X639027Y203973D02*
X640991Y203973D01*
X640991Y206164D02*
X639027Y206164D01*
X638491Y131982D02*
X636527Y131982D01*
X638491Y131982D02*
X638491Y117518D01*
X636527Y117518D01*
X636527Y131982D01*
X636527Y119709D02*
X638491Y119709D01*
X638491Y121900D02*
X636527Y121900D01*
X636527Y124091D02*
X638491Y124091D01*
X638491Y126282D02*
X636527Y126282D01*
X636527Y128473D02*
X638491Y128473D01*
X638491Y130664D02*
X636527Y130664D01*
X635991Y207482D02*
X634027Y207482D01*
X635991Y207482D02*
X635991Y193018D01*
X634027Y193018D01*
X634027Y207482D01*
X634027Y195209D02*
X635991Y195209D01*
X635991Y197400D02*
X634027Y197400D01*
X634027Y199591D02*
X635991Y199591D01*
X635991Y201782D02*
X634027Y201782D01*
X634027Y203973D02*
X635991Y203973D01*
X635991Y206164D02*
X634027Y206164D01*
X633491Y131982D02*
X631527Y131982D01*
X633491Y131982D02*
X633491Y117518D01*
X631527Y117518D01*
X631527Y131982D01*
X631527Y119709D02*
X633491Y119709D01*
X633491Y121900D02*
X631527Y121900D01*
X631527Y124091D02*
X633491Y124091D01*
X633491Y126282D02*
X631527Y126282D01*
X631527Y128473D02*
X633491Y128473D01*
X633491Y130664D02*
X631527Y130664D01*
X630991Y207482D02*
X629027Y207482D01*
X630991Y207482D02*
X630991Y193018D01*
X629027Y193018D01*
X629027Y207482D01*
X629027Y195209D02*
X630991Y195209D01*
X630991Y197400D02*
X629027Y197400D01*
X629027Y199591D02*
X630991Y199591D01*
X630991Y201782D02*
X629027Y201782D01*
X629027Y203973D02*
X630991Y203973D01*
X630991Y206164D02*
X629027Y206164D01*
X628491Y131982D02*
X626527Y131982D01*
X628491Y131982D02*
X628491Y117518D01*
X626527Y117518D01*
X626527Y131982D01*
X626527Y119709D02*
X628491Y119709D01*
X628491Y121900D02*
X626527Y121900D01*
X626527Y124091D02*
X628491Y124091D01*
X628491Y126282D02*
X626527Y126282D01*
X626527Y128473D02*
X628491Y128473D01*
X628491Y130664D02*
X626527Y130664D01*
X625991Y207482D02*
X624027Y207482D01*
X625991Y207482D02*
X625991Y193018D01*
X624027Y193018D01*
X624027Y207482D01*
X624027Y195209D02*
X625991Y195209D01*
X625991Y197400D02*
X624027Y197400D01*
X624027Y199591D02*
X625991Y199591D01*
X625991Y201782D02*
X624027Y201782D01*
X624027Y203973D02*
X625991Y203973D01*
X625991Y206164D02*
X624027Y206164D01*
X623491Y131982D02*
X621527Y131982D01*
X623491Y131982D02*
X623491Y117518D01*
X621527Y117518D01*
X621527Y131982D01*
X621527Y119709D02*
X623491Y119709D01*
X623491Y121900D02*
X621527Y121900D01*
X621527Y124091D02*
X623491Y124091D01*
X623491Y126282D02*
X621527Y126282D01*
X621527Y128473D02*
X623491Y128473D01*
X623491Y130664D02*
X621527Y130664D01*
X620991Y207482D02*
X619027Y207482D01*
X620991Y207482D02*
X620991Y193018D01*
X619027Y193018D01*
X619027Y207482D01*
X619027Y195209D02*
X620991Y195209D01*
X620991Y197400D02*
X619027Y197400D01*
X619027Y199591D02*
X620991Y199591D01*
X620991Y201782D02*
X619027Y201782D01*
X619027Y203973D02*
X620991Y203973D01*
X620991Y206164D02*
X619027Y206164D01*
X618491Y131982D02*
X616527Y131982D01*
X618491Y131982D02*
X618491Y117518D01*
X616527Y117518D01*
X616527Y131982D01*
X616527Y119709D02*
X618491Y119709D01*
X618491Y121900D02*
X616527Y121900D01*
X616527Y124091D02*
X618491Y124091D01*
X618491Y126282D02*
X616527Y126282D01*
X616527Y128473D02*
X618491Y128473D01*
X618491Y130664D02*
X616527Y130664D01*
X595991Y207482D02*
X594027Y207482D01*
X595991Y207482D02*
X595991Y193018D01*
X594027Y193018D01*
X594027Y207482D01*
X594027Y195209D02*
X595991Y195209D01*
X595991Y197400D02*
X594027Y197400D01*
X594027Y199591D02*
X595991Y199591D01*
X595991Y201782D02*
X594027Y201782D01*
X594027Y203973D02*
X595991Y203973D01*
X595991Y206164D02*
X594027Y206164D01*
X593491Y131982D02*
X591527Y131982D01*
X593491Y131982D02*
X593491Y117518D01*
X591527Y117518D01*
X591527Y131982D01*
X591527Y119709D02*
X593491Y119709D01*
X593491Y121900D02*
X591527Y121900D01*
X591527Y124091D02*
X593491Y124091D01*
X593491Y126282D02*
X591527Y126282D01*
X591527Y128473D02*
X593491Y128473D01*
X593491Y130664D02*
X591527Y130664D01*
X590991Y207482D02*
X589027Y207482D01*
X590991Y207482D02*
X590991Y193018D01*
X589027Y193018D01*
X589027Y207482D01*
X589027Y195209D02*
X590991Y195209D01*
X590991Y197400D02*
X589027Y197400D01*
X589027Y199591D02*
X590991Y199591D01*
X590991Y201782D02*
X589027Y201782D01*
X589027Y203973D02*
X590991Y203973D01*
X590991Y206164D02*
X589027Y206164D01*
X588491Y131982D02*
X586527Y131982D01*
X588491Y131982D02*
X588491Y117518D01*
X586527Y117518D01*
X586527Y131982D01*
X586527Y119709D02*
X588491Y119709D01*
X588491Y121900D02*
X586527Y121900D01*
X586527Y124091D02*
X588491Y124091D01*
X588491Y126282D02*
X586527Y126282D01*
X586527Y128473D02*
X588491Y128473D01*
X588491Y130664D02*
X586527Y130664D01*
X585991Y207482D02*
X584027Y207482D01*
X585991Y207482D02*
X585991Y193018D01*
X584027Y193018D01*
X584027Y207482D01*
X584027Y195209D02*
X585991Y195209D01*
X585991Y197400D02*
X584027Y197400D01*
X584027Y199591D02*
X585991Y199591D01*
X585991Y201782D02*
X584027Y201782D01*
X584027Y203973D02*
X585991Y203973D01*
X585991Y206164D02*
X584027Y206164D01*
X583491Y131982D02*
X581527Y131982D01*
X583491Y131982D02*
X583491Y117518D01*
X581527Y117518D01*
X581527Y131982D01*
X581527Y119709D02*
X583491Y119709D01*
X583491Y121900D02*
X581527Y121900D01*
X581527Y124091D02*
X583491Y124091D01*
X583491Y126282D02*
X581527Y126282D01*
X581527Y128473D02*
X583491Y128473D01*
X583491Y130664D02*
X581527Y130664D01*
X580991Y207482D02*
X579027Y207482D01*
X580991Y207482D02*
X580991Y193018D01*
X579027Y193018D01*
X579027Y207482D01*
X579027Y195209D02*
X580991Y195209D01*
X580991Y197400D02*
X579027Y197400D01*
X579027Y199591D02*
X580991Y199591D01*
X580991Y201782D02*
X579027Y201782D01*
X579027Y203973D02*
X580991Y203973D01*
X580991Y206164D02*
X579027Y206164D01*
X578491Y131982D02*
X576527Y131982D01*
X578491Y131982D02*
X578491Y117518D01*
X576527Y117518D01*
X576527Y131982D01*
X576527Y119709D02*
X578491Y119709D01*
X578491Y121900D02*
X576527Y121900D01*
X576527Y124091D02*
X578491Y124091D01*
X578491Y126282D02*
X576527Y126282D01*
X576527Y128473D02*
X578491Y128473D01*
X578491Y130664D02*
X576527Y130664D01*
X575991Y207482D02*
X574027Y207482D01*
X575991Y207482D02*
X575991Y193018D01*
X574027Y193018D01*
X574027Y207482D01*
X574027Y195209D02*
X575991Y195209D01*
X575991Y197400D02*
X574027Y197400D01*
X574027Y199591D02*
X575991Y199591D01*
X575991Y201782D02*
X574027Y201782D01*
X574027Y203973D02*
X575991Y203973D01*
X575991Y206164D02*
X574027Y206164D01*
X573491Y131982D02*
X571527Y131982D01*
X573491Y131982D02*
X573491Y117518D01*
X571527Y117518D01*
X571527Y131982D01*
X571527Y119709D02*
X573491Y119709D01*
X573491Y121900D02*
X571527Y121900D01*
X571527Y124091D02*
X573491Y124091D01*
X573491Y126282D02*
X571527Y126282D01*
X571527Y128473D02*
X573491Y128473D01*
X573491Y130664D02*
X571527Y130664D01*
X570991Y207482D02*
X569027Y207482D01*
X570991Y207482D02*
X570991Y193018D01*
X569027Y193018D01*
X569027Y207482D01*
X569027Y195209D02*
X570991Y195209D01*
X570991Y197400D02*
X569027Y197400D01*
X569027Y199591D02*
X570991Y199591D01*
X570991Y201782D02*
X569027Y201782D01*
X569027Y203973D02*
X570991Y203973D01*
X570991Y206164D02*
X569027Y206164D01*
X568491Y131982D02*
X566527Y131982D01*
X568491Y131982D02*
X568491Y117518D01*
X566527Y117518D01*
X566527Y131982D01*
X566527Y119709D02*
X568491Y119709D01*
X568491Y121900D02*
X566527Y121900D01*
X566527Y124091D02*
X568491Y124091D01*
X568491Y126282D02*
X566527Y126282D01*
X566527Y128473D02*
X568491Y128473D01*
X568491Y130664D02*
X566527Y130664D01*
X565991Y207482D02*
X564027Y207482D01*
X565991Y207482D02*
X565991Y193018D01*
X564027Y193018D01*
X564027Y207482D01*
X564027Y195209D02*
X565991Y195209D01*
X565991Y197400D02*
X564027Y197400D01*
X564027Y199591D02*
X565991Y199591D01*
X565991Y201782D02*
X564027Y201782D01*
X564027Y203973D02*
X565991Y203973D01*
X565991Y206164D02*
X564027Y206164D01*
X563491Y131982D02*
X561527Y131982D01*
X563491Y131982D02*
X563491Y117518D01*
X561527Y117518D01*
X561527Y131982D01*
X561527Y119709D02*
X563491Y119709D01*
X563491Y121900D02*
X561527Y121900D01*
X561527Y124091D02*
X563491Y124091D01*
X563491Y126282D02*
X561527Y126282D01*
X561527Y128473D02*
X563491Y128473D01*
X563491Y130664D02*
X561527Y130664D01*
X560991Y207482D02*
X559027Y207482D01*
X560991Y207482D02*
X560991Y193018D01*
X559027Y193018D01*
X559027Y207482D01*
X559027Y195209D02*
X560991Y195209D01*
X560991Y197400D02*
X559027Y197400D01*
X559027Y199591D02*
X560991Y199591D01*
X560991Y201782D02*
X559027Y201782D01*
X559027Y203973D02*
X560991Y203973D01*
X560991Y206164D02*
X559027Y206164D01*
X558491Y131982D02*
X556527Y131982D01*
X558491Y131982D02*
X558491Y117518D01*
X556527Y117518D01*
X556527Y131982D01*
X556527Y119709D02*
X558491Y119709D01*
X558491Y121900D02*
X556527Y121900D01*
X556527Y124091D02*
X558491Y124091D01*
X558491Y126282D02*
X556527Y126282D01*
X556527Y128473D02*
X558491Y128473D01*
X558491Y130664D02*
X556527Y130664D01*
X555991Y207482D02*
X554027Y207482D01*
X555991Y207482D02*
X555991Y193018D01*
X554027Y193018D01*
X554027Y207482D01*
X554027Y195209D02*
X555991Y195209D01*
X555991Y197400D02*
X554027Y197400D01*
X554027Y199591D02*
X555991Y199591D01*
X555991Y201782D02*
X554027Y201782D01*
X554027Y203973D02*
X555991Y203973D01*
X555991Y206164D02*
X554027Y206164D01*
X553491Y131982D02*
X551527Y131982D01*
X553491Y131982D02*
X553491Y117518D01*
X551527Y117518D01*
X551527Y131982D01*
X551527Y119709D02*
X553491Y119709D01*
X553491Y121900D02*
X551527Y121900D01*
X551527Y124091D02*
X553491Y124091D01*
X553491Y126282D02*
X551527Y126282D01*
X551527Y128473D02*
X553491Y128473D01*
X553491Y130664D02*
X551527Y130664D01*
X550991Y207482D02*
X549027Y207482D01*
X550991Y207482D02*
X550991Y193018D01*
X549027Y193018D01*
X549027Y207482D01*
X549027Y195209D02*
X550991Y195209D01*
X550991Y197400D02*
X549027Y197400D01*
X549027Y199591D02*
X550991Y199591D01*
X550991Y201782D02*
X549027Y201782D01*
X549027Y203973D02*
X550991Y203973D01*
X550991Y206164D02*
X549027Y206164D01*
X548491Y131982D02*
X546527Y131982D01*
X548491Y131982D02*
X548491Y117518D01*
X546527Y117518D01*
X546527Y131982D01*
X546527Y119709D02*
X548491Y119709D01*
X548491Y121900D02*
X546527Y121900D01*
X546527Y124091D02*
X548491Y124091D01*
X548491Y126282D02*
X546527Y126282D01*
X546527Y128473D02*
X548491Y128473D01*
X548491Y130664D02*
X546527Y130664D01*
X545991Y207482D02*
X544027Y207482D01*
X545991Y207482D02*
X545991Y193018D01*
X544027Y193018D01*
X544027Y207482D01*
X544027Y195209D02*
X545991Y195209D01*
X545991Y197400D02*
X544027Y197400D01*
X544027Y199591D02*
X545991Y199591D01*
X545991Y201782D02*
X544027Y201782D01*
X544027Y203973D02*
X545991Y203973D01*
X545991Y206164D02*
X544027Y206164D01*
X543491Y131982D02*
X541527Y131982D01*
X543491Y131982D02*
X543491Y117518D01*
X541527Y117518D01*
X541527Y131982D01*
X541527Y119709D02*
X543491Y119709D01*
X543491Y121900D02*
X541527Y121900D01*
X541527Y124091D02*
X543491Y124091D01*
X543491Y126282D02*
X541527Y126282D01*
X541527Y128473D02*
X543491Y128473D01*
X543491Y130664D02*
X541527Y130664D01*
X540991Y207482D02*
X539027Y207482D01*
X540991Y207482D02*
X540991Y193018D01*
X539027Y193018D01*
X539027Y207482D01*
X539027Y195209D02*
X540991Y195209D01*
X540991Y197400D02*
X539027Y197400D01*
X539027Y199591D02*
X540991Y199591D01*
X540991Y201782D02*
X539027Y201782D01*
X539027Y203973D02*
X540991Y203973D01*
X540991Y206164D02*
X539027Y206164D01*
X538491Y131982D02*
X536527Y131982D01*
X538491Y131982D02*
X538491Y117518D01*
X536527Y117518D01*
X536527Y131982D01*
X536527Y119709D02*
X538491Y119709D01*
X538491Y121900D02*
X536527Y121900D01*
X536527Y124091D02*
X538491Y124091D01*
X538491Y126282D02*
X536527Y126282D01*
X536527Y128473D02*
X538491Y128473D01*
X538491Y130664D02*
X536527Y130664D01*
X535991Y207482D02*
X534027Y207482D01*
X535991Y207482D02*
X535991Y193018D01*
X534027Y193018D01*
X534027Y207482D01*
X534027Y195209D02*
X535991Y195209D01*
X535991Y197400D02*
X534027Y197400D01*
X534027Y199591D02*
X535991Y199591D01*
X535991Y201782D02*
X534027Y201782D01*
X534027Y203973D02*
X535991Y203973D01*
X535991Y206164D02*
X534027Y206164D01*
X533491Y131982D02*
X531527Y131982D01*
X533491Y131982D02*
X533491Y117518D01*
X531527Y117518D01*
X531527Y131982D01*
X531527Y119709D02*
X533491Y119709D01*
X533491Y121900D02*
X531527Y121900D01*
X531527Y124091D02*
X533491Y124091D01*
X533491Y126282D02*
X531527Y126282D01*
X531527Y128473D02*
X533491Y128473D01*
X533491Y130664D02*
X531527Y130664D01*
X530991Y207482D02*
X529027Y207482D01*
X530991Y207482D02*
X530991Y193018D01*
X529027Y193018D01*
X529027Y207482D01*
X529027Y195209D02*
X530991Y195209D01*
X530991Y197400D02*
X529027Y197400D01*
X529027Y199591D02*
X530991Y199591D01*
X530991Y201782D02*
X529027Y201782D01*
X529027Y203973D02*
X530991Y203973D01*
X530991Y206164D02*
X529027Y206164D01*
X528491Y131982D02*
X526527Y131982D01*
X528491Y131982D02*
X528491Y117518D01*
X526527Y117518D01*
X526527Y131982D01*
X526527Y119709D02*
X528491Y119709D01*
X528491Y121900D02*
X526527Y121900D01*
X526527Y124091D02*
X528491Y124091D01*
X528491Y126282D02*
X526527Y126282D01*
X526527Y128473D02*
X528491Y128473D01*
X528491Y130664D02*
X526527Y130664D01*
X525991Y207482D02*
X524027Y207482D01*
X525991Y207482D02*
X525991Y193018D01*
X524027Y193018D01*
X524027Y207482D01*
X524027Y195209D02*
X525991Y195209D01*
X525991Y197400D02*
X524027Y197400D01*
X524027Y199591D02*
X525991Y199591D01*
X525991Y201782D02*
X524027Y201782D01*
X524027Y203973D02*
X525991Y203973D01*
X525991Y206164D02*
X524027Y206164D01*
X523491Y131982D02*
X521527Y131982D01*
X523491Y131982D02*
X523491Y117518D01*
X521527Y117518D01*
X521527Y131982D01*
X521527Y119709D02*
X523491Y119709D01*
X523491Y121900D02*
X521527Y121900D01*
X521527Y124091D02*
X523491Y124091D01*
X523491Y126282D02*
X521527Y126282D01*
X521527Y128473D02*
X523491Y128473D01*
X523491Y130664D02*
X521527Y130664D01*
X520991Y207482D02*
X519027Y207482D01*
X520991Y207482D02*
X520991Y193018D01*
X519027Y193018D01*
X519027Y207482D01*
X519027Y195209D02*
X520991Y195209D01*
X520991Y197400D02*
X519027Y197400D01*
X519027Y199591D02*
X520991Y199591D01*
X520991Y201782D02*
X519027Y201782D01*
X519027Y203973D02*
X520991Y203973D01*
X520991Y206164D02*
X519027Y206164D01*
X518491Y131982D02*
X516527Y131982D01*
X518491Y131982D02*
X518491Y117518D01*
X516527Y117518D01*
X516527Y131982D01*
X516527Y119709D02*
X518491Y119709D01*
X518491Y121900D02*
X516527Y121900D01*
X516527Y124091D02*
X518491Y124091D01*
X518491Y126282D02*
X516527Y126282D01*
X516527Y128473D02*
X518491Y128473D01*
X518491Y130664D02*
X516527Y130664D01*
X515991Y207482D02*
X514027Y207482D01*
X515991Y207482D02*
X515991Y193018D01*
X514027Y193018D01*
X514027Y207482D01*
X514027Y195209D02*
X515991Y195209D01*
X515991Y197400D02*
X514027Y197400D01*
X514027Y199591D02*
X515991Y199591D01*
X515991Y201782D02*
X514027Y201782D01*
X514027Y203973D02*
X515991Y203973D01*
X515991Y206164D02*
X514027Y206164D01*
X513491Y131982D02*
X511527Y131982D01*
X513491Y131982D02*
X513491Y117518D01*
X511527Y117518D01*
X511527Y131982D01*
X511527Y119709D02*
X513491Y119709D01*
X513491Y121900D02*
X511527Y121900D01*
X511527Y124091D02*
X513491Y124091D01*
X513491Y126282D02*
X511527Y126282D01*
X511527Y128473D02*
X513491Y128473D01*
X513491Y130664D02*
X511527Y130664D01*
X510991Y207482D02*
X509027Y207482D01*
X510991Y207482D02*
X510991Y193018D01*
X509027Y193018D01*
X509027Y207482D01*
X509027Y195209D02*
X510991Y195209D01*
X510991Y197400D02*
X509027Y197400D01*
X509027Y199591D02*
X510991Y199591D01*
X510991Y201782D02*
X509027Y201782D01*
X509027Y203973D02*
X510991Y203973D01*
X510991Y206164D02*
X509027Y206164D01*
X508491Y131982D02*
X506527Y131982D01*
X508491Y131982D02*
X508491Y117518D01*
X506527Y117518D01*
X506527Y131982D01*
X506527Y119709D02*
X508491Y119709D01*
X508491Y121900D02*
X506527Y121900D01*
X506527Y124091D02*
X508491Y124091D01*
X508491Y126282D02*
X506527Y126282D01*
X506527Y128473D02*
X508491Y128473D01*
X508491Y130664D02*
X506527Y130664D01*
X505991Y207482D02*
X504027Y207482D01*
X505991Y207482D02*
X505991Y193018D01*
X504027Y193018D01*
X504027Y207482D01*
X504027Y195209D02*
X505991Y195209D01*
X505991Y197400D02*
X504027Y197400D01*
X504027Y199591D02*
X505991Y199591D01*
X505991Y201782D02*
X504027Y201782D01*
X504027Y203973D02*
X505991Y203973D01*
X505991Y206164D02*
X504027Y206164D01*
X503491Y131982D02*
X501527Y131982D01*
X503491Y131982D02*
X503491Y117518D01*
X501527Y117518D01*
X501527Y131982D01*
X501527Y119709D02*
X503491Y119709D01*
X503491Y121900D02*
X501527Y121900D01*
X501527Y124091D02*
X503491Y124091D01*
X503491Y126282D02*
X501527Y126282D01*
X501527Y128473D02*
X503491Y128473D01*
X503491Y130664D02*
X501527Y130664D01*
X500991Y207482D02*
X499027Y207482D01*
X500991Y207482D02*
X500991Y193018D01*
X499027Y193018D01*
X499027Y207482D01*
X499027Y195209D02*
X500991Y195209D01*
X500991Y197400D02*
X499027Y197400D01*
X499027Y199591D02*
X500991Y199591D01*
X500991Y201782D02*
X499027Y201782D01*
X499027Y203973D02*
X500991Y203973D01*
X500991Y206164D02*
X499027Y206164D01*
X498491Y131982D02*
X496527Y131982D01*
X498491Y131982D02*
X498491Y117518D01*
X496527Y117518D01*
X496527Y131982D01*
X496527Y119709D02*
X498491Y119709D01*
X498491Y121900D02*
X496527Y121900D01*
X496527Y124091D02*
X498491Y124091D01*
X498491Y126282D02*
X496527Y126282D01*
X496527Y128473D02*
X498491Y128473D01*
X498491Y130664D02*
X496527Y130664D01*
X495991Y207482D02*
X494027Y207482D01*
X495991Y207482D02*
X495991Y193018D01*
X494027Y193018D01*
X494027Y207482D01*
X494027Y195209D02*
X495991Y195209D01*
X495991Y197400D02*
X494027Y197400D01*
X494027Y199591D02*
X495991Y199591D01*
X495991Y201782D02*
X494027Y201782D01*
X494027Y203973D02*
X495991Y203973D01*
X495991Y206164D02*
X494027Y206164D01*
X493491Y131982D02*
X491527Y131982D01*
X493491Y131982D02*
X493491Y117518D01*
X491527Y117518D01*
X491527Y131982D01*
X491527Y119709D02*
X493491Y119709D01*
X493491Y121900D02*
X491527Y121900D01*
X491527Y124091D02*
X493491Y124091D01*
X493491Y126282D02*
X491527Y126282D01*
X491527Y128473D02*
X493491Y128473D01*
X493491Y130664D02*
X491527Y130664D01*
X490991Y207482D02*
X489027Y207482D01*
X490991Y207482D02*
X490991Y193018D01*
X489027Y193018D01*
X489027Y207482D01*
X489027Y195209D02*
X490991Y195209D01*
X490991Y197400D02*
X489027Y197400D01*
X489027Y199591D02*
X490991Y199591D01*
X490991Y201782D02*
X489027Y201782D01*
X489027Y203973D02*
X490991Y203973D01*
X490991Y206164D02*
X489027Y206164D01*
X488491Y131982D02*
X486527Y131982D01*
X488491Y131982D02*
X488491Y117518D01*
X486527Y117518D01*
X486527Y131982D01*
X486527Y119709D02*
X488491Y119709D01*
X488491Y121900D02*
X486527Y121900D01*
X486527Y124091D02*
X488491Y124091D01*
X488491Y126282D02*
X486527Y126282D01*
X486527Y128473D02*
X488491Y128473D01*
X488491Y130664D02*
X486527Y130664D01*
D23*
X678002Y145757D02*
X689016Y145757D01*
X689016Y119243D01*
X678002Y119243D01*
X678002Y145757D01*
X678002Y121386D02*
X689016Y121386D01*
X689016Y123529D02*
X678002Y123529D01*
X678002Y125672D02*
X689016Y125672D01*
X689016Y127815D02*
X678002Y127815D01*
X678002Y129958D02*
X689016Y129958D01*
X689016Y132101D02*
X678002Y132101D01*
X678002Y134244D02*
X689016Y134244D01*
X689016Y136387D02*
X678002Y136387D01*
X678002Y138530D02*
X689016Y138530D01*
X689016Y140673D02*
X678002Y140673D01*
X678002Y142816D02*
X689016Y142816D01*
X689016Y144959D02*
X678002Y144959D01*
X482016Y145757D02*
X471002Y145757D01*
X482016Y145757D02*
X482016Y119243D01*
X471002Y119243D01*
X471002Y145757D01*
X471002Y121386D02*
X482016Y121386D01*
X482016Y123529D02*
X471002Y123529D01*
X471002Y125672D02*
X482016Y125672D01*
X482016Y127815D02*
X471002Y127815D01*
X471002Y129958D02*
X482016Y129958D01*
X482016Y132101D02*
X471002Y132101D01*
X471002Y134244D02*
X482016Y134244D01*
X482016Y136387D02*
X471002Y136387D01*
X471002Y138530D02*
X482016Y138530D01*
X482016Y140673D02*
X471002Y140673D01*
X471002Y142816D02*
X482016Y142816D01*
X482016Y144959D02*
X471002Y144959D01*
D24*
X680009Y177500D03*
D25*
X480009Y177500D03*
D26*
X658769Y19490D02*
X661249Y19490D01*
X661249Y6010D01*
X658769Y6010D01*
X658769Y19490D01*
X658769Y8185D02*
X661249Y8185D01*
X661249Y10360D02*
X658769Y10360D01*
X658769Y12535D02*
X661249Y12535D01*
X661249Y14710D02*
X658769Y14710D01*
X658769Y16885D02*
X661249Y16885D01*
X661249Y19060D02*
X658769Y19060D01*
X656249Y19490D02*
X653769Y19490D01*
X656249Y19490D02*
X656249Y6010D01*
X653769Y6010D01*
X653769Y19490D01*
X653769Y8185D02*
X656249Y8185D01*
X656249Y10360D02*
X653769Y10360D01*
X653769Y12535D02*
X656249Y12535D01*
X656249Y14710D02*
X653769Y14710D01*
X653769Y16885D02*
X656249Y16885D01*
X656249Y19060D02*
X653769Y19060D01*
X651249Y19490D02*
X648769Y19490D01*
X651249Y19490D02*
X651249Y6010D01*
X648769Y6010D01*
X648769Y19490D01*
X648769Y8185D02*
X651249Y8185D01*
X651249Y10360D02*
X648769Y10360D01*
X648769Y12535D02*
X651249Y12535D01*
X651249Y14710D02*
X648769Y14710D01*
X648769Y16885D02*
X651249Y16885D01*
X651249Y19060D02*
X648769Y19060D01*
X646249Y19490D02*
X643769Y19490D01*
X646249Y19490D02*
X646249Y6010D01*
X643769Y6010D01*
X643769Y19490D01*
X643769Y8185D02*
X646249Y8185D01*
X646249Y10360D02*
X643769Y10360D01*
X643769Y12535D02*
X646249Y12535D01*
X646249Y14710D02*
X643769Y14710D01*
X643769Y16885D02*
X646249Y16885D01*
X646249Y19060D02*
X643769Y19060D01*
X641249Y19490D02*
X638769Y19490D01*
X641249Y19490D02*
X641249Y6010D01*
X638769Y6010D01*
X638769Y19490D01*
X638769Y8185D02*
X641249Y8185D01*
X641249Y10360D02*
X638769Y10360D01*
X638769Y12535D02*
X641249Y12535D01*
X641249Y14710D02*
X638769Y14710D01*
X638769Y16885D02*
X641249Y16885D01*
X641249Y19060D02*
X638769Y19060D01*
X636249Y19490D02*
X633769Y19490D01*
X636249Y19490D02*
X636249Y6010D01*
X633769Y6010D01*
X633769Y19490D01*
X633769Y8185D02*
X636249Y8185D01*
X636249Y10360D02*
X633769Y10360D01*
X633769Y12535D02*
X636249Y12535D01*
X636249Y14710D02*
X633769Y14710D01*
X633769Y16885D02*
X636249Y16885D01*
X636249Y19060D02*
X633769Y19060D01*
X631249Y19490D02*
X628769Y19490D01*
X631249Y19490D02*
X631249Y6010D01*
X628769Y6010D01*
X628769Y19490D01*
X628769Y8185D02*
X631249Y8185D01*
X631249Y10360D02*
X628769Y10360D01*
X628769Y12535D02*
X631249Y12535D01*
X631249Y14710D02*
X628769Y14710D01*
X628769Y16885D02*
X631249Y16885D01*
X631249Y19060D02*
X628769Y19060D01*
X626249Y19490D02*
X623769Y19490D01*
X626249Y19490D02*
X626249Y6010D01*
X623769Y6010D01*
X623769Y19490D01*
X623769Y8185D02*
X626249Y8185D01*
X626249Y10360D02*
X623769Y10360D01*
X623769Y12535D02*
X626249Y12535D01*
X626249Y14710D02*
X623769Y14710D01*
X623769Y16885D02*
X626249Y16885D01*
X626249Y19060D02*
X623769Y19060D01*
X621249Y19490D02*
X618769Y19490D01*
X621249Y19490D02*
X621249Y6010D01*
X618769Y6010D01*
X618769Y19490D01*
X618769Y8185D02*
X621249Y8185D01*
X621249Y10360D02*
X618769Y10360D01*
X618769Y12535D02*
X621249Y12535D01*
X621249Y14710D02*
X618769Y14710D01*
X618769Y16885D02*
X621249Y16885D01*
X621249Y19060D02*
X618769Y19060D01*
X616249Y19490D02*
X613769Y19490D01*
X616249Y19490D02*
X616249Y6010D01*
X613769Y6010D01*
X613769Y19490D01*
X613769Y8185D02*
X616249Y8185D01*
X616249Y10360D02*
X613769Y10360D01*
X613769Y12535D02*
X616249Y12535D01*
X616249Y14710D02*
X613769Y14710D01*
X613769Y16885D02*
X616249Y16885D01*
X616249Y19060D02*
X613769Y19060D01*
X611249Y19490D02*
X608769Y19490D01*
X611249Y19490D02*
X611249Y6010D01*
X608769Y6010D01*
X608769Y19490D01*
X608769Y8185D02*
X611249Y8185D01*
X611249Y10360D02*
X608769Y10360D01*
X608769Y12535D02*
X611249Y12535D01*
X611249Y14710D02*
X608769Y14710D01*
X608769Y16885D02*
X611249Y16885D01*
X611249Y19060D02*
X608769Y19060D01*
X606249Y19490D02*
X603769Y19490D01*
X606249Y19490D02*
X606249Y6010D01*
X603769Y6010D01*
X603769Y19490D01*
X603769Y8185D02*
X606249Y8185D01*
X606249Y10360D02*
X603769Y10360D01*
X603769Y12535D02*
X606249Y12535D01*
X606249Y14710D02*
X603769Y14710D01*
X603769Y16885D02*
X606249Y16885D01*
X606249Y19060D02*
X603769Y19060D01*
X581249Y19490D02*
X578769Y19490D01*
X581249Y19490D02*
X581249Y6010D01*
X578769Y6010D01*
X578769Y19490D01*
X578769Y8185D02*
X581249Y8185D01*
X581249Y10360D02*
X578769Y10360D01*
X578769Y12535D02*
X581249Y12535D01*
X581249Y14710D02*
X578769Y14710D01*
X578769Y16885D02*
X581249Y16885D01*
X581249Y19060D02*
X578769Y19060D01*
X576249Y19490D02*
X573769Y19490D01*
X576249Y19490D02*
X576249Y6010D01*
X573769Y6010D01*
X573769Y19490D01*
X573769Y8185D02*
X576249Y8185D01*
X576249Y10360D02*
X573769Y10360D01*
X573769Y12535D02*
X576249Y12535D01*
X576249Y14710D02*
X573769Y14710D01*
X573769Y16885D02*
X576249Y16885D01*
X576249Y19060D02*
X573769Y19060D01*
X571249Y19490D02*
X568769Y19490D01*
X571249Y19490D02*
X571249Y6010D01*
X568769Y6010D01*
X568769Y19490D01*
X568769Y8185D02*
X571249Y8185D01*
X571249Y10360D02*
X568769Y10360D01*
X568769Y12535D02*
X571249Y12535D01*
X571249Y14710D02*
X568769Y14710D01*
X568769Y16885D02*
X571249Y16885D01*
X571249Y19060D02*
X568769Y19060D01*
X566249Y19490D02*
X563769Y19490D01*
X566249Y19490D02*
X566249Y6010D01*
X563769Y6010D01*
X563769Y19490D01*
X563769Y8185D02*
X566249Y8185D01*
X566249Y10360D02*
X563769Y10360D01*
X563769Y12535D02*
X566249Y12535D01*
X566249Y14710D02*
X563769Y14710D01*
X563769Y16885D02*
X566249Y16885D01*
X566249Y19060D02*
X563769Y19060D01*
X561249Y19490D02*
X558769Y19490D01*
X561249Y19490D02*
X561249Y6010D01*
X558769Y6010D01*
X558769Y19490D01*
X558769Y8185D02*
X561249Y8185D01*
X561249Y10360D02*
X558769Y10360D01*
X558769Y12535D02*
X561249Y12535D01*
X561249Y14710D02*
X558769Y14710D01*
X558769Y16885D02*
X561249Y16885D01*
X561249Y19060D02*
X558769Y19060D01*
X556249Y19490D02*
X553769Y19490D01*
X556249Y19490D02*
X556249Y6010D01*
X553769Y6010D01*
X553769Y19490D01*
X553769Y8185D02*
X556249Y8185D01*
X556249Y10360D02*
X553769Y10360D01*
X553769Y12535D02*
X556249Y12535D01*
X556249Y14710D02*
X553769Y14710D01*
X553769Y16885D02*
X556249Y16885D01*
X556249Y19060D02*
X553769Y19060D01*
X551249Y19490D02*
X548769Y19490D01*
X551249Y19490D02*
X551249Y6010D01*
X548769Y6010D01*
X548769Y19490D01*
X548769Y8185D02*
X551249Y8185D01*
X551249Y10360D02*
X548769Y10360D01*
X548769Y12535D02*
X551249Y12535D01*
X551249Y14710D02*
X548769Y14710D01*
X548769Y16885D02*
X551249Y16885D01*
X551249Y19060D02*
X548769Y19060D01*
X546249Y19490D02*
X543769Y19490D01*
X546249Y19490D02*
X546249Y6010D01*
X543769Y6010D01*
X543769Y19490D01*
X543769Y8185D02*
X546249Y8185D01*
X546249Y10360D02*
X543769Y10360D01*
X543769Y12535D02*
X546249Y12535D01*
X546249Y14710D02*
X543769Y14710D01*
X543769Y16885D02*
X546249Y16885D01*
X546249Y19060D02*
X543769Y19060D01*
X541249Y19490D02*
X538769Y19490D01*
X541249Y19490D02*
X541249Y6010D01*
X538769Y6010D01*
X538769Y19490D01*
X538769Y8185D02*
X541249Y8185D01*
X541249Y10360D02*
X538769Y10360D01*
X538769Y12535D02*
X541249Y12535D01*
X541249Y14710D02*
X538769Y14710D01*
X538769Y16885D02*
X541249Y16885D01*
X541249Y19060D02*
X538769Y19060D01*
X536249Y19490D02*
X533769Y19490D01*
X536249Y19490D02*
X536249Y6010D01*
X533769Y6010D01*
X533769Y19490D01*
X533769Y8185D02*
X536249Y8185D01*
X536249Y10360D02*
X533769Y10360D01*
X533769Y12535D02*
X536249Y12535D01*
X536249Y14710D02*
X533769Y14710D01*
X533769Y16885D02*
X536249Y16885D01*
X536249Y19060D02*
X533769Y19060D01*
X531249Y19490D02*
X528769Y19490D01*
X531249Y19490D02*
X531249Y6010D01*
X528769Y6010D01*
X528769Y19490D01*
X528769Y8185D02*
X531249Y8185D01*
X531249Y10360D02*
X528769Y10360D01*
X528769Y12535D02*
X531249Y12535D01*
X531249Y14710D02*
X528769Y14710D01*
X528769Y16885D02*
X531249Y16885D01*
X531249Y19060D02*
X528769Y19060D01*
X526249Y19490D02*
X523769Y19490D01*
X526249Y19490D02*
X526249Y6010D01*
X523769Y6010D01*
X523769Y19490D01*
X523769Y8185D02*
X526249Y8185D01*
X526249Y10360D02*
X523769Y10360D01*
X523769Y12535D02*
X526249Y12535D01*
X526249Y14710D02*
X523769Y14710D01*
X523769Y16885D02*
X526249Y16885D01*
X526249Y19060D02*
X523769Y19060D01*
X521249Y19490D02*
X518769Y19490D01*
X521249Y19490D02*
X521249Y6010D01*
X518769Y6010D01*
X518769Y19490D01*
X518769Y8185D02*
X521249Y8185D01*
X521249Y10360D02*
X518769Y10360D01*
X518769Y12535D02*
X521249Y12535D01*
X521249Y14710D02*
X518769Y14710D01*
X518769Y16885D02*
X521249Y16885D01*
X521249Y19060D02*
X518769Y19060D01*
X516249Y19490D02*
X513769Y19490D01*
X516249Y19490D02*
X516249Y6010D01*
X513769Y6010D01*
X513769Y19490D01*
X513769Y8185D02*
X516249Y8185D01*
X516249Y10360D02*
X513769Y10360D01*
X513769Y12535D02*
X516249Y12535D01*
X516249Y14710D02*
X513769Y14710D01*
X513769Y16885D02*
X516249Y16885D01*
X516249Y19060D02*
X513769Y19060D01*
X511249Y19490D02*
X508769Y19490D01*
X511249Y19490D02*
X511249Y6010D01*
X508769Y6010D01*
X508769Y19490D01*
X508769Y8185D02*
X511249Y8185D01*
X511249Y10360D02*
X508769Y10360D01*
X508769Y12535D02*
X511249Y12535D01*
X511249Y14710D02*
X508769Y14710D01*
X508769Y16885D02*
X511249Y16885D01*
X511249Y19060D02*
X508769Y19060D01*
X506249Y19490D02*
X503769Y19490D01*
X506249Y19490D02*
X506249Y6010D01*
X503769Y6010D01*
X503769Y19490D01*
X503769Y8185D02*
X506249Y8185D01*
X506249Y10360D02*
X503769Y10360D01*
X503769Y12535D02*
X506249Y12535D01*
X506249Y14710D02*
X503769Y14710D01*
X503769Y16885D02*
X506249Y16885D01*
X506249Y19060D02*
X503769Y19060D01*
X501249Y19490D02*
X498769Y19490D01*
X501249Y19490D02*
X501249Y6010D01*
X498769Y6010D01*
X498769Y19490D01*
X498769Y8185D02*
X501249Y8185D01*
X501249Y10360D02*
X498769Y10360D01*
X498769Y12535D02*
X501249Y12535D01*
X501249Y14710D02*
X498769Y14710D01*
X498769Y16885D02*
X501249Y16885D01*
X501249Y19060D02*
X498769Y19060D01*
X496249Y19490D02*
X493769Y19490D01*
X496249Y19490D02*
X496249Y6010D01*
X493769Y6010D01*
X493769Y19490D01*
X493769Y8185D02*
X496249Y8185D01*
X496249Y10360D02*
X493769Y10360D01*
X493769Y12535D02*
X496249Y12535D01*
X496249Y14710D02*
X493769Y14710D01*
X493769Y16885D02*
X496249Y16885D01*
X496249Y19060D02*
X493769Y19060D01*
X491249Y19490D02*
X488769Y19490D01*
X491249Y19490D02*
X491249Y6010D01*
X488769Y6010D01*
X488769Y19490D01*
X488769Y8185D02*
X491249Y8185D01*
X491249Y10360D02*
X488769Y10360D01*
X488769Y12535D02*
X491249Y12535D01*
X491249Y14710D02*
X488769Y14710D01*
X488769Y16885D02*
X491249Y16885D01*
X491249Y19060D02*
X488769Y19060D01*
X486249Y19490D02*
X483769Y19490D01*
X486249Y19490D02*
X486249Y6010D01*
X483769Y6010D01*
X483769Y19490D01*
X483769Y8185D02*
X486249Y8185D01*
X486249Y10360D02*
X483769Y10360D01*
X483769Y12535D02*
X486249Y12535D01*
X486249Y14710D02*
X483769Y14710D01*
X483769Y16885D02*
X486249Y16885D01*
X486249Y19060D02*
X483769Y19060D01*
X481249Y19490D02*
X478769Y19490D01*
X481249Y19490D02*
X481249Y6010D01*
X478769Y6010D01*
X478769Y19490D01*
X478769Y8185D02*
X481249Y8185D01*
X481249Y10360D02*
X478769Y10360D01*
X478769Y12535D02*
X481249Y12535D01*
X481249Y14710D02*
X478769Y14710D01*
X478769Y16885D02*
X481249Y16885D01*
X481249Y19060D02*
X478769Y19060D01*
X476249Y19490D02*
X473769Y19490D01*
X476249Y19490D02*
X476249Y6010D01*
X473769Y6010D01*
X473769Y19490D01*
X473769Y8185D02*
X476249Y8185D01*
X476249Y10360D02*
X473769Y10360D01*
X473769Y12535D02*
X476249Y12535D01*
X476249Y14710D02*
X473769Y14710D01*
X473769Y16885D02*
X476249Y16885D01*
X476249Y19060D02*
X473769Y19060D01*
D27*
X747509Y461000D03*
X747509Y419000D03*
X734509Y440000D03*
X387509Y419000D03*
X387509Y461000D03*
X400509Y440000D03*
D28*
X740241Y197519D02*
X744777Y197519D01*
X744777Y186483D01*
X740241Y186483D01*
X740241Y197519D01*
X740241Y188605D02*
X744777Y188605D01*
X744777Y190727D02*
X740241Y190727D01*
X740241Y192849D02*
X744777Y192849D01*
X744777Y194971D02*
X740241Y194971D01*
X740241Y197093D02*
X744777Y197093D01*
X735277Y197519D02*
X730741Y197519D01*
X735277Y197519D02*
X735277Y186483D01*
X730741Y186483D01*
X730741Y197519D01*
X730741Y188605D02*
X735277Y188605D01*
X735277Y190727D02*
X730741Y190727D01*
X730741Y192849D02*
X735277Y192849D01*
X735277Y194971D02*
X730741Y194971D01*
X730741Y197093D02*
X735277Y197093D01*
X725777Y197519D02*
X721241Y197519D01*
X725777Y197519D02*
X725777Y186483D01*
X721241Y186483D01*
X721241Y197519D01*
X721241Y188605D02*
X725777Y188605D01*
X725777Y190727D02*
X721241Y190727D01*
X721241Y192849D02*
X725777Y192849D01*
X725777Y194971D02*
X721241Y194971D01*
X721241Y197093D02*
X725777Y197093D01*
X725777Y171517D02*
X721241Y171517D01*
X725777Y171517D02*
X725777Y160481D01*
X721241Y160481D01*
X721241Y171517D01*
X721241Y162603D02*
X725777Y162603D01*
X725777Y164725D02*
X721241Y164725D01*
X721241Y166847D02*
X725777Y166847D01*
X725777Y168969D02*
X721241Y168969D01*
X721241Y171091D02*
X725777Y171091D01*
X740241Y171517D02*
X744777Y171517D01*
X744777Y160481D01*
X740241Y160481D01*
X740241Y171517D01*
X740241Y162603D02*
X744777Y162603D01*
X744777Y164725D02*
X740241Y164725D01*
X740241Y166847D02*
X744777Y166847D01*
X744777Y168969D02*
X740241Y168969D01*
X740241Y171091D02*
X744777Y171091D01*
D10*
X739517Y224492D02*
X734501Y224492D01*
X734501Y229508D01*
X739517Y229508D01*
X739517Y224492D01*
X739517Y226633D02*
X734501Y226633D01*
X734501Y228774D02*
X739517Y228774D01*
X744501Y224492D02*
X749517Y224492D01*
X744501Y224492D02*
X744501Y229508D01*
X749517Y229508D01*
X749517Y224492D01*
X749517Y226633D02*
X744501Y226633D01*
X744501Y228774D02*
X749517Y228774D01*
D18*
X703659Y145350D02*
X698359Y145350D01*
X698359Y152650D01*
X703659Y152650D01*
X703659Y145350D01*
X703659Y147507D02*
X698359Y147507D01*
X698359Y149664D02*
X703659Y149664D01*
X703659Y151821D02*
X698359Y151821D01*
X721359Y145350D02*
X726659Y145350D01*
X721359Y145350D02*
X721359Y152650D01*
X726659Y152650D01*
X726659Y145350D01*
X726659Y147507D02*
X721359Y147507D01*
X721359Y149664D02*
X726659Y149664D01*
X726659Y151821D02*
X721359Y151821D01*
D10*
X744501Y215508D02*
X749517Y215508D01*
X749517Y210492D01*
X744501Y210492D01*
X744501Y215508D01*
X744501Y212633D02*
X749517Y212633D01*
X749517Y214774D02*
X744501Y214774D01*
X739517Y215508D02*
X734501Y215508D01*
X739517Y215508D02*
X739517Y210492D01*
X734501Y210492D01*
X734501Y215508D01*
X734501Y212633D02*
X739517Y212633D01*
X739517Y214774D02*
X734501Y214774D01*
X740001Y151508D02*
X740001Y146492D01*
X740001Y151508D02*
X745017Y151508D01*
X745017Y146492D01*
X740001Y146492D01*
X740001Y148633D02*
X745017Y148633D01*
X745017Y150774D02*
X740001Y150774D01*
X740001Y141508D02*
X740001Y136492D01*
X740001Y141508D02*
X745017Y141508D01*
X745017Y136492D01*
X740001Y136492D01*
X740001Y138633D02*
X745017Y138633D01*
X745017Y140774D02*
X740001Y140774D01*
D18*
X668159Y109650D02*
X662859Y109650D01*
X668159Y109650D02*
X668159Y102350D01*
X662859Y102350D01*
X662859Y109650D01*
X662859Y104507D02*
X668159Y104507D01*
X668159Y106664D02*
X662859Y106664D01*
X662859Y108821D02*
X668159Y108821D01*
X645159Y109650D02*
X639859Y109650D01*
X645159Y109650D02*
X645159Y102350D01*
X639859Y102350D01*
X639859Y109650D01*
X639859Y104507D02*
X645159Y104507D01*
X645159Y106664D02*
X639859Y106664D01*
X639859Y108821D02*
X645159Y108821D01*
D10*
X610017Y57492D02*
X605001Y57492D01*
X605001Y62508D01*
X610017Y62508D01*
X610017Y57492D01*
X610017Y59633D02*
X605001Y59633D01*
X605001Y61774D02*
X610017Y61774D01*
X615001Y57492D02*
X620017Y57492D01*
X615001Y57492D02*
X615001Y62508D01*
X620017Y62508D01*
X620017Y57492D01*
X620017Y59633D02*
X615001Y59633D01*
X615001Y61774D02*
X620017Y61774D01*
X540017Y57492D02*
X535001Y57492D01*
X535001Y62508D01*
X540017Y62508D01*
X540017Y57492D01*
X540017Y59633D02*
X535001Y59633D01*
X535001Y61774D02*
X540017Y61774D01*
X545001Y57492D02*
X550017Y57492D01*
X545001Y57492D02*
X545001Y62508D01*
X550017Y62508D01*
X550017Y57492D01*
X550017Y59633D02*
X545001Y59633D01*
X545001Y61774D02*
X550017Y61774D01*
D21*
X482017Y55508D02*
X472001Y55508D01*
X482017Y55508D02*
X482017Y46492D01*
X472001Y46492D01*
X472001Y55508D01*
X472001Y48633D02*
X482017Y48633D01*
X482017Y50774D02*
X472001Y50774D01*
X472001Y52915D02*
X482017Y52915D01*
X482017Y55056D02*
X472001Y55056D01*
X465017Y55508D02*
X455001Y55508D01*
X465017Y55508D02*
X465017Y46492D01*
X455001Y46492D01*
X455001Y55508D01*
X455001Y48633D02*
X465017Y48633D01*
X465017Y50774D02*
X455001Y50774D01*
X455001Y52915D02*
X465017Y52915D01*
X465017Y55056D02*
X455001Y55056D01*
D19*
X399009Y240000D03*
X399009Y265400D03*
X399009Y290800D03*
X399009Y316200D03*
D10*
X569501Y642508D02*
X574517Y642508D01*
X574517Y637492D01*
X569501Y637492D01*
X569501Y642508D01*
X569501Y639633D02*
X574517Y639633D01*
X574517Y641774D02*
X569501Y641774D01*
X564517Y642508D02*
X559501Y642508D01*
X564517Y642508D02*
X564517Y637492D01*
X559501Y637492D01*
X559501Y642508D01*
X559501Y639633D02*
X564517Y639633D01*
X564517Y641774D02*
X559501Y641774D01*
D29*
X550487Y550978D02*
X570531Y550978D01*
X550487Y550978D02*
X550487Y573022D01*
X570531Y573022D01*
X570531Y550978D01*
X570531Y553094D02*
X550487Y553094D01*
X550487Y555210D02*
X570531Y555210D01*
X570531Y557326D02*
X550487Y557326D01*
X550487Y559442D02*
X570531Y559442D01*
X570531Y561558D02*
X550487Y561558D01*
X550487Y563674D02*
X570531Y563674D01*
X570531Y565790D02*
X550487Y565790D01*
X550487Y567906D02*
X570531Y567906D01*
X570531Y570022D02*
X550487Y570022D01*
X550487Y572138D02*
X570531Y572138D01*
X589487Y550978D02*
X609531Y550978D01*
X589487Y550978D02*
X589487Y573022D01*
X609531Y573022D01*
X609531Y550978D01*
X609531Y553094D02*
X589487Y553094D01*
X589487Y555210D02*
X609531Y555210D01*
X609531Y557326D02*
X589487Y557326D01*
X589487Y559442D02*
X609531Y559442D01*
X609531Y561558D02*
X589487Y561558D01*
X589487Y563674D02*
X609531Y563674D01*
X609531Y565790D02*
X589487Y565790D01*
X589487Y567906D02*
X609531Y567906D01*
X609531Y570022D02*
X589487Y570022D01*
X589487Y572138D02*
X609531Y572138D01*
D30*
X603836Y606477D02*
X597882Y606477D01*
X603836Y606477D02*
X603836Y600523D01*
X597882Y600523D01*
X597882Y606477D01*
X597882Y602723D02*
X603836Y602723D01*
X603836Y604923D02*
X597882Y604923D01*
X597882Y617477D02*
X603836Y617477D01*
X603836Y611523D01*
X597882Y611523D01*
X597882Y617477D01*
X597882Y613723D02*
X603836Y613723D01*
X603836Y615923D02*
X597882Y615923D01*
X616182Y617477D02*
X622136Y617477D01*
X622136Y611523D01*
X616182Y611523D01*
X616182Y617477D01*
X616182Y613723D02*
X622136Y613723D01*
X622136Y615923D02*
X616182Y615923D01*
X616182Y606477D02*
X622136Y606477D01*
X622136Y600523D01*
X616182Y600523D01*
X616182Y606477D01*
X616182Y602723D02*
X622136Y602723D01*
X622136Y604923D02*
X616182Y604923D01*
D10*
X616501Y631508D02*
X621517Y631508D01*
X621517Y626492D01*
X616501Y626492D01*
X616501Y631508D01*
X616501Y628633D02*
X621517Y628633D01*
X621517Y630774D02*
X616501Y630774D01*
X611517Y631508D02*
X606501Y631508D01*
X611517Y631508D02*
X611517Y626492D01*
X606501Y626492D01*
X606501Y631508D01*
X606501Y628633D02*
X611517Y628633D01*
X611517Y630774D02*
X606501Y630774D01*
D11*
X417985Y340976D02*
X417985Y334024D01*
X410033Y334024D01*
X410033Y340976D01*
X417985Y340976D01*
X417985Y336226D02*
X410033Y336226D01*
X410033Y338428D02*
X417985Y338428D01*
X417985Y340630D02*
X410033Y340630D01*
X417985Y353024D02*
X417985Y359976D01*
X417985Y353024D02*
X410033Y353024D01*
X410033Y359976D01*
X417985Y359976D01*
X417985Y355226D02*
X410033Y355226D01*
X410033Y357428D02*
X417985Y357428D01*
X417985Y359630D02*
X410033Y359630D01*
X396985Y350476D02*
X396985Y343524D01*
X389033Y343524D01*
X389033Y350476D01*
X396985Y350476D01*
X396985Y345726D02*
X389033Y345726D01*
X389033Y347928D02*
X396985Y347928D01*
X396985Y350130D02*
X389033Y350130D01*
X417985Y380024D02*
X417985Y386976D01*
X417985Y380024D02*
X410033Y380024D01*
X410033Y386976D01*
X417985Y386976D01*
X417985Y382226D02*
X410033Y382226D01*
X410033Y384428D02*
X417985Y384428D01*
X417985Y386630D02*
X410033Y386630D01*
X417985Y399024D02*
X417985Y405976D01*
X417985Y399024D02*
X410033Y399024D01*
X410033Y405976D01*
X417985Y405976D01*
X417985Y401226D02*
X410033Y401226D01*
X410033Y403428D02*
X417985Y403428D01*
X417985Y405630D02*
X410033Y405630D01*
X396985Y396476D02*
X396985Y389524D01*
X389033Y389524D01*
X389033Y396476D01*
X396985Y396476D01*
X396985Y391726D02*
X389033Y391726D01*
X389033Y393928D02*
X396985Y393928D01*
X396985Y396130D02*
X389033Y396130D01*
D10*
X411501Y367492D02*
X416517Y367492D01*
X411501Y367492D02*
X411501Y372508D01*
X416517Y372508D01*
X416517Y367492D01*
X416517Y369633D02*
X411501Y369633D01*
X411501Y371774D02*
X416517Y371774D01*
X421501Y367492D02*
X426517Y367492D01*
X421501Y367492D02*
X421501Y372508D01*
X426517Y372508D01*
X426517Y367492D01*
X426517Y369633D02*
X421501Y369633D01*
X421501Y371774D02*
X426517Y371774D01*
X394517Y367492D02*
X389501Y367492D01*
X389501Y372508D01*
X394517Y372508D01*
X394517Y367492D01*
X394517Y369633D02*
X389501Y369633D01*
X389501Y371774D02*
X394517Y371774D01*
X399501Y367492D02*
X404517Y367492D01*
X399501Y367492D02*
X399501Y372508D01*
X404517Y372508D01*
X404517Y367492D01*
X404517Y369633D02*
X399501Y369633D01*
X399501Y371774D02*
X404517Y371774D01*
D31*
X-26264Y623341D03*
X781177Y623341D03*
D32*
X-35319Y63500D02*
X-35316Y63722D01*
X-35308Y63944D01*
X-35294Y64166D01*
X-35275Y64388D01*
X-35251Y64608D01*
X-35221Y64829D01*
X-35186Y65048D01*
X-35145Y65267D01*
X-35099Y65484D01*
X-35048Y65700D01*
X-34991Y65915D01*
X-34929Y66129D01*
X-34862Y66340D01*
X-34790Y66551D01*
X-34712Y66759D01*
X-34630Y66965D01*
X-34542Y67169D01*
X-34450Y67372D01*
X-34352Y67571D01*
X-34250Y67768D01*
X-34143Y67963D01*
X-34031Y68155D01*
X-33914Y68344D01*
X-33793Y68531D01*
X-33667Y68714D01*
X-33537Y68894D01*
X-33402Y69071D01*
X-33264Y69244D01*
X-33121Y69414D01*
X-32973Y69581D01*
X-32822Y69744D01*
X-32667Y69903D01*
X-32508Y70058D01*
X-32345Y70209D01*
X-32178Y70357D01*
X-32008Y70500D01*
X-31835Y70638D01*
X-31658Y70773D01*
X-31478Y70903D01*
X-31295Y71029D01*
X-31108Y71150D01*
X-30919Y71267D01*
X-30727Y71379D01*
X-30532Y71486D01*
X-30335Y71588D01*
X-30136Y71686D01*
X-29933Y71778D01*
X-29729Y71866D01*
X-29523Y71948D01*
X-29315Y72026D01*
X-29104Y72098D01*
X-28893Y72165D01*
X-28679Y72227D01*
X-28464Y72284D01*
X-28248Y72335D01*
X-28031Y72381D01*
X-27812Y72422D01*
X-27593Y72457D01*
X-27372Y72487D01*
X-27152Y72511D01*
X-26930Y72530D01*
X-26708Y72544D01*
X-26486Y72552D01*
X-26264Y72555D01*
X-26042Y72552D01*
X-25820Y72544D01*
X-25598Y72530D01*
X-25376Y72511D01*
X-25156Y72487D01*
X-24935Y72457D01*
X-24716Y72422D01*
X-24497Y72381D01*
X-24280Y72335D01*
X-24064Y72284D01*
X-23849Y72227D01*
X-23635Y72165D01*
X-23424Y72098D01*
X-23213Y72026D01*
X-23005Y71948D01*
X-22799Y71866D01*
X-22595Y71778D01*
X-22392Y71686D01*
X-22193Y71588D01*
X-21996Y71486D01*
X-21801Y71379D01*
X-21609Y71267D01*
X-21420Y71150D01*
X-21233Y71029D01*
X-21050Y70903D01*
X-20870Y70773D01*
X-20693Y70638D01*
X-20520Y70500D01*
X-20350Y70357D01*
X-20183Y70209D01*
X-20020Y70058D01*
X-19861Y69903D01*
X-19706Y69744D01*
X-19555Y69581D01*
X-19407Y69414D01*
X-19264Y69244D01*
X-19126Y69071D01*
X-18991Y68894D01*
X-18861Y68714D01*
X-18735Y68531D01*
X-18614Y68344D01*
X-18497Y68155D01*
X-18385Y67963D01*
X-18278Y67768D01*
X-18176Y67571D01*
X-18078Y67372D01*
X-17986Y67169D01*
X-17898Y66965D01*
X-17816Y66759D01*
X-17738Y66551D01*
X-17666Y66340D01*
X-17599Y66129D01*
X-17537Y65915D01*
X-17480Y65700D01*
X-17429Y65484D01*
X-17383Y65267D01*
X-17342Y65048D01*
X-17307Y64829D01*
X-17277Y64608D01*
X-17253Y64388D01*
X-17234Y64166D01*
X-17220Y63944D01*
X-17212Y63722D01*
X-17209Y63500D01*
X-17212Y63278D01*
X-17220Y63056D01*
X-17234Y62834D01*
X-17253Y62612D01*
X-17277Y62392D01*
X-17307Y62171D01*
X-17342Y61952D01*
X-17383Y61733D01*
X-17429Y61516D01*
X-17480Y61300D01*
X-17537Y61085D01*
X-17599Y60871D01*
X-17666Y60660D01*
X-17738Y60449D01*
X-17816Y60241D01*
X-17898Y60035D01*
X-17986Y59831D01*
X-18078Y59628D01*
X-18176Y59429D01*
X-18278Y59232D01*
X-18385Y59037D01*
X-18497Y58845D01*
X-18614Y58656D01*
X-18735Y58469D01*
X-18861Y58286D01*
X-18991Y58106D01*
X-19126Y57929D01*
X-19264Y57756D01*
X-19407Y57586D01*
X-19555Y57419D01*
X-19706Y57256D01*
X-19861Y57097D01*
X-20020Y56942D01*
X-20183Y56791D01*
X-20350Y56643D01*
X-20520Y56500D01*
X-20693Y56362D01*
X-20870Y56227D01*
X-21050Y56097D01*
X-21233Y55971D01*
X-21420Y55850D01*
X-21609Y55733D01*
X-21801Y55621D01*
X-21996Y55514D01*
X-22193Y55412D01*
X-22392Y55314D01*
X-22595Y55222D01*
X-22799Y55134D01*
X-23005Y55052D01*
X-23213Y54974D01*
X-23424Y54902D01*
X-23635Y54835D01*
X-23849Y54773D01*
X-24064Y54716D01*
X-24280Y54665D01*
X-24497Y54619D01*
X-24716Y54578D01*
X-24935Y54543D01*
X-25156Y54513D01*
X-25376Y54489D01*
X-25598Y54470D01*
X-25820Y54456D01*
X-26042Y54448D01*
X-26264Y54445D01*
X-26486Y54448D01*
X-26708Y54456D01*
X-26930Y54470D01*
X-27152Y54489D01*
X-27372Y54513D01*
X-27593Y54543D01*
X-27812Y54578D01*
X-28031Y54619D01*
X-28248Y54665D01*
X-28464Y54716D01*
X-28679Y54773D01*
X-28893Y54835D01*
X-29104Y54902D01*
X-29315Y54974D01*
X-29523Y55052D01*
X-29729Y55134D01*
X-29933Y55222D01*
X-30136Y55314D01*
X-30335Y55412D01*
X-30532Y55514D01*
X-30727Y55621D01*
X-30919Y55733D01*
X-31108Y55850D01*
X-31295Y55971D01*
X-31478Y56097D01*
X-31658Y56227D01*
X-31835Y56362D01*
X-32008Y56500D01*
X-32178Y56643D01*
X-32345Y56791D01*
X-32508Y56942D01*
X-32667Y57097D01*
X-32822Y57256D01*
X-32973Y57419D01*
X-33121Y57586D01*
X-33264Y57756D01*
X-33402Y57929D01*
X-33537Y58106D01*
X-33667Y58286D01*
X-33793Y58469D01*
X-33914Y58656D01*
X-34031Y58845D01*
X-34143Y59037D01*
X-34250Y59232D01*
X-34352Y59429D01*
X-34450Y59628D01*
X-34542Y59831D01*
X-34630Y60035D01*
X-34712Y60241D01*
X-34790Y60449D01*
X-34862Y60660D01*
X-34929Y60871D01*
X-34991Y61085D01*
X-35048Y61300D01*
X-35099Y61516D01*
X-35145Y61733D01*
X-35186Y61952D01*
X-35221Y62171D01*
X-35251Y62392D01*
X-35275Y62612D01*
X-35294Y62834D01*
X-35308Y63056D01*
X-35316Y63278D01*
X-35319Y63500D01*
D33*
X-26264Y63500D03*
M02*
