M48
;GenerationSoftware,Autodesk,EAGLE,9.6.2*%
;CreationDate,2022-06-27T16:08:28Z*%
FMAT,2
ICI,OFF
METRIC,TZ,000.000
T8C0.300
T7C0.305
T6C0.400
T5C0.650
T4C1.016
T3C1.100
T2C1.600
T1C3.800
%
G90
M71
T1
X20000Y51030
X95999Y51030
X58001Y51030
T2
X48001Y17750
X10000Y17750
X85999Y17750
T3
X30000Y17750
X105999Y17750
X68001Y17750
T4
X77749Y24000
X77749Y26540
X77749Y31620
X77749Y34160
X39751Y24000
X77749Y36700
X47701Y6930
X47701Y9470
X39751Y29080
X9700Y9470
X9700Y6930
X1750Y24000
X1750Y26540
X1750Y29080
X1750Y31620
X1750Y34160
X1750Y36700
X39751Y31620
X39751Y26540
X39751Y34160
X39751Y36700
X77749Y29080
X85699Y9470
X85699Y6930
T5
X32890Y60345
X27110Y60345
X70891Y60345
X65111Y60345
X108889Y60345
X103109Y60345
T6
X25682Y63995
X101681Y59815
X110317Y59815
X25682Y59815
X72319Y63995
X63683Y63995
X63683Y59815
X72319Y59815
X101681Y63995
X34318Y59815
X34318Y63995
X110317Y63995
T7
X750Y41900
X35450Y44000
X36750Y41900
X78049Y44000
X36750Y46100
X2050Y44000
X750Y46100
X74751Y46100
X74751Y41900
X73451Y44000
X38751Y41900
X38751Y46100
X40051Y44000
X112749Y46100
X112749Y41900
X111449Y44000
X76749Y41900
X76749Y46100
T8
X14400Y44900
X19000Y40400
X27700Y34800
X18500Y22100
X20100Y23800
X21400Y24900
X23200Y26700
X25450Y26750
X26500Y26800
X25450Y28250
X25450Y34000
X26600Y32800
X25450Y37100
X29200Y11200
X27900Y8000
X11450Y13800
X19920Y11110
X21240Y11100
X17550Y14800
X23160Y13110
X35950Y4700
X34050Y12400
X36250Y13100
X35250Y17900
X34850Y21300
X33150Y20300
X23750Y11000
X19200Y6500
X4950Y18700
X3000Y27800
X3000Y30300
X3000Y32900
X3000Y35400
X23900Y9450
X16050Y7000
X31400Y10100
X22000Y5800
X28840Y7100
X22200Y12700
X18500Y18700
X27400Y18400
X26250Y2870
X28150Y2970
X3600Y44000
X800Y40300
X34000Y44000
X36700Y40300
X26090Y5300
X20148Y3442
X19732Y2896
X33400Y12500
X25800Y9460
X28600Y60100
X31500Y60100
X29750Y60400
X30920Y60400
X30500Y54850
X27800Y14500
X29500Y54850
X27148Y14500
X30000Y55500
X32450Y58100
X27550Y58400
X26254Y15200
X28500Y55500
X17750Y8200
X17750Y7700
X12750Y13800
X15800Y55900
X27900Y4194
X34700Y12500
X19600Y16800
X27900Y3600
X35900Y12500
X19170Y18000
X17700Y3400
X16000Y18800
X25247Y2828
X14000Y18800
X22500Y10504
X17700Y11254
X24633Y2830
X13500Y18200
X22500Y9950
X18640Y10550
X11600Y51500
X14500Y2900
X15500Y17900
X11600Y26540
X33100Y17500
X29200Y15700
X18650Y15050
X23000Y14254
X23000Y13700
X14000Y3500
X17500Y15600
X17000Y16000
X16500Y16500
X27500Y21300
X27500Y21800
X14500Y46100
X15100Y46100
X12100Y50400
X3300Y59200
X24500Y21200
X23900Y21600
X17000Y60000
X13600Y21500
X26400Y27600
X24800Y49200
X18997Y43397
X9600Y41800
X18700Y60600
X22300Y60600
X15200Y60600
X18300Y17600
X55001Y2890
X47211Y2900
X64251Y7000
X50051Y4200
X68001Y57700
X51351Y6100
X60401Y3300
X67591Y4420
X49601Y52400
X50601Y2900
X52701Y3800
X59241Y8200
X53701Y16500
X67101Y24400
X65901Y6240
X68801Y7500
X61041Y6920
X66501Y14500
X63701Y15200
X60501Y14800
X62501Y17800
X66601Y16700
X48301Y11200
X51501Y13800
X54701Y11000
X47201Y4100
X50301Y8400
X40101Y6800
X40101Y10100
X40101Y14400
X40101Y17800
X41401Y21300
X52101Y22100
X52301Y25200
X53301Y27800
X53801Y30300
X54301Y33000
X54901Y35600
X56701Y38000
X69101Y24400
X67101Y30900
X69101Y30900
X67101Y37200
X69101Y37200
X61001Y45100
X54701Y45600
X58201Y42100
X52401Y47300
X50201Y47300
X52101Y49400
X50201Y49600
X45901Y47100
X69101Y46000
X67101Y46000
X69001Y54300
X67101Y54300
X72101Y57300
X63701Y57300
X60301Y63500
X56701Y63500
X53101Y63500
X56701Y57500
X39401Y48000
X40001Y53100
X41201Y56100
X39901Y61600
X50101Y61500
X49601Y25800
X69001Y19600
X52401Y44900
X57001Y40400
X65701Y34800
X56501Y22100
X58101Y23800
X59401Y24900
X61201Y26700
X63451Y26750
X64501Y26800
X63451Y28250
X63451Y34000
X64601Y32800
X63451Y37100
X67201Y11200
X65901Y8000
X49451Y13800
X57921Y11110
X59241Y11100
X55551Y14800
X61161Y13110
X73951Y4700
X72051Y12400
X74251Y13100
X73251Y17900
X72851Y21300
X71151Y20300
X61751Y11000
X57201Y6500
X42951Y18700
X41001Y27800
X41001Y30300
X41001Y32900
X41001Y35400
X61901Y9450
X54051Y7000
X69401Y10100
X60001Y5800
X66841Y7100
X60201Y12700
X56501Y18700
X65401Y18400
X64251Y2870
X66151Y2970
X41601Y44000
X38801Y40300
X72001Y44000
X74701Y40300
X64091Y5300
X58148Y3442
X57733Y2896
X71401Y12500
X63801Y9460
X66601Y60100
X69501Y60100
X67751Y60400
X68921Y60400
X68501Y54850
X65801Y14500
X67501Y54850
X65149Y14500
X68001Y55500
X70451Y58100
X65551Y58400
X64255Y15200
X66501Y55500
X55751Y8200
X55751Y7700
X50751Y13800
X53801Y55900
X65901Y4194
X72701Y12500
X57601Y16800
X65901Y3600
X73901Y12500
X57171Y18000
X55701Y3400
X54001Y18800
X63248Y2828
X52001Y18800
X60501Y10504
X55701Y11254
X62634Y2830
X51501Y18200
X60501Y9950
X56641Y10550
X49601Y51500
X52501Y2900
X53501Y17900
X49601Y26540
X71101Y17500
X67201Y15700
X56651Y15050
X61001Y14254
X61001Y13700
X52001Y3500
X55501Y15600
X55001Y16000
X54501Y16500
X65501Y21300
X65501Y21800
X52501Y46100
X53101Y46100
X50101Y50400
X41301Y59200
X62501Y21200
X61901Y21600
X55001Y60000
X51601Y21500
X64401Y27600
X62801Y49200
X56998Y43397
X47601Y41800
X56701Y60600
X60301Y60600
X53201Y60600
X56301Y17600
X92999Y2890
X85209Y2900
X102249Y7000
X88049Y4200
X105999Y57700
X89349Y6100
X98399Y3300
X105589Y4420
X87599Y52400
X88599Y2900
X90699Y3800
X97239Y8200
X91699Y16500
X105099Y24400
X103899Y6240
X106799Y7500
X99039Y6920
X104499Y14500
X101699Y15200
X98499Y14800
X100499Y17800
X104599Y16700
X86299Y11200
X89499Y13800
X92699Y11000
X85199Y4100
X88299Y8400
X78099Y6800
X78099Y10100
X78099Y14400
X78099Y17800
X79399Y21300
X90099Y22100
X90299Y25200
X91299Y27800
X91799Y30300
X92299Y33000
X92899Y35600
X94699Y38000
X107099Y24400
X105099Y30900
X107099Y30900
X105099Y37200
X107099Y37200
X98999Y45100
X92699Y45600
X96199Y42100
X90399Y47300
X88199Y47300
X90099Y49400
X88199Y49600
X83899Y47100
X107099Y46000
X105099Y46000
X106999Y54300
X105099Y54300
X110099Y57300
X101699Y57300
X98299Y63500
X94699Y63500
X91099Y63500
X94699Y57500
X77399Y48000
X77999Y53100
X79199Y56100
X77899Y61600
X88099Y61500
X87599Y25800
X106999Y19600
X90399Y44900
X94999Y40400
X103699Y34800
X94499Y22100
X96099Y23800
X97399Y24900
X99199Y26700
X101449Y26750
X102499Y26800
X101449Y28250
X101449Y34000
X102599Y32800
X101449Y37100
X105199Y11200
X103899Y8000
X87449Y13800
X95919Y11110
X97239Y11100
X93549Y14800
X99159Y13110
X111949Y4700
X110049Y12400
X112249Y13100
X111249Y17900
X110849Y21300
X109149Y20300
X99749Y11000
X95199Y6500
X17000Y2890
X78999Y27800
X78999Y30300
X78999Y32900
X78999Y35400
X99899Y9450
X92049Y7000
X107399Y10100
X97999Y5800
X104839Y7100
X98199Y12700
X94499Y18700
X103399Y18400
X102249Y2870
X104149Y2970
X79599Y44000
X76799Y40300
X109999Y44000
X112699Y40300
X102089Y5300
X96147Y3442
X95731Y2896
X109399Y12500
X101799Y9460
X104599Y60100
X107499Y60100
X105749Y60400
X106919Y60400
X106499Y54850
X103799Y14500
X105499Y54850
X103147Y14500
X105999Y55500
X108449Y58100
X103549Y58400
X102253Y15200
X104499Y55500
X93749Y8200
X93749Y7700
X88749Y13800
X91799Y55900
X103899Y4194
X110699Y12500
X95599Y16800
X103899Y3600
X111899Y12500
X95169Y18000
X93699Y3400
X91999Y18800
X101247Y2828
X89999Y18800
X98499Y10504
X93699Y11254
X100633Y2830
X89499Y18200
X98499Y9950
X94639Y10550
X87599Y51500
X90499Y2900
X91499Y17900
X87599Y26540
X109099Y17500
X105199Y15700
X94649Y15050
X98999Y14254
X98999Y13700
X89999Y3500
X93499Y15600
X92999Y16000
X92499Y16500
X103499Y21300
X103499Y21800
X90499Y46100
X91099Y46100
X88099Y50400
X79299Y59200
X100499Y21200
X99899Y21600
X80949Y18700
X89599Y21500
X102399Y27600
X100799Y49200
X94997Y43397
X85599Y41800
X94699Y60600
X98299Y60600
X91199Y60600
X94299Y17600
X9210Y2900
X26250Y7000
X12050Y4200
X30000Y57700
X13350Y6100
X22400Y3300
X29590Y4420
X11600Y52400
X12600Y2900
X14700Y3800
X21240Y8200
X15700Y16500
X29100Y24400
X27900Y6240
X30800Y7500
X23040Y6920
X28500Y14500
X25700Y15200
X22500Y14800
X24500Y17800
X28600Y16700
X10300Y11200
X13500Y13800
X16700Y11000
X9200Y4100
X12300Y8400
X2100Y6800
X2100Y10100
X2100Y14400
X2100Y17800
X3400Y21300
X14100Y22100
X14300Y25200
X15300Y27800
X15800Y30300
X16300Y33000
X16900Y35600
X18700Y38000
X31100Y24400
X29100Y30900
X31100Y30900
X29100Y37200
X31100Y37200
X23000Y45100
X16700Y45600
X20200Y42100
X14400Y47300
X12200Y47300
X14100Y49400
X12200Y49600
X7900Y47100
X31100Y46000
X29100Y46000
X31000Y54300
X29100Y54300
X34100Y57300
X25700Y57300
X22300Y63500
X18700Y63500
X15100Y63500
X18700Y57500
X1400Y48000
X2000Y53100
X3200Y56100
X1900Y61600
X12100Y61500
X11600Y25800
X31000Y19600
X92999Y60000
M30