M48
;GenerationSoftware,Autodesk,EAGLE,9.6.2*%
;CreationDate,2022-08-22T22:13:47Z*%
FMAT,2
ICI,OFF
METRIC,TZ,000.000
T8C0.300
T7C0.305
T6C0.400
T5C0.650
T4C1.016
T3C1.100
T2C1.600
T1C3.800
%
G90
M71
T1
X20000Y51030
X58001Y51030
T2
X10000Y17750
X48001Y17750
T3
X30000Y17750
X68001Y17750
T4
X39901Y31620
X1900Y29080
X1900Y26540
X39901Y29080
X1900Y24000
X39901Y26540
X39901Y24000
X47701Y6930
X47701Y9470
X9700Y9470
X9700Y6930
X1900Y31620
T5
X32890Y60345
X27110Y60345
X65111Y60345
X70891Y60345
T6
X63683Y63995
X63683Y59815
X72319Y59815
X72319Y63995
X34318Y59815
X25682Y59815
X25682Y63995
X34318Y63995
T7
X750Y46100
X750Y41900
X35450Y44000
X36750Y41900
X2050Y44000
X74751Y46100
X74751Y41900
X73451Y44000
X36750Y46100
X38751Y46100
X40051Y44000
X38751Y41900
T8
X29100Y36600
X31100Y36600
X23100Y45300
X17200Y45400
X20700Y41600
X12200Y47300
X14600Y49800
X12200Y49600
X7900Y47100
X31100Y46000
X29100Y46000
X31000Y54300
X29100Y54300
X34100Y57300
X25900Y57300
X17600Y60800
X1400Y48000
X2000Y53100
X3200Y56100
X1900Y61600
X12100Y61500
X11600Y25800
X31000Y19600
X14100Y44950
X19200Y40200
X27700Y34800
X18500Y22100
X20100Y23800
X21400Y24900
X23200Y26700
X25450Y26750
X26500Y26800
X25450Y28250
X25450Y34000
X26600Y32800
X25450Y37100
X29200Y11200
X27900Y8000
X11450Y13800
X19920Y11110
X21240Y11100
X17550Y14800
X23160Y13110
X35950Y4700
X34050Y12400
X36250Y13100
X35250Y17900
X34850Y21300
X33050Y16600
X23750Y11000
X19200Y6500
X4950Y18700
X3000Y27800
X3000Y30300
X3000Y32900
X23900Y9450
X16050Y7000
X31400Y10100
X22000Y5800
X28840Y7100
X22200Y12700
X18500Y18700
X27400Y18400
X26250Y2870
X28150Y2970
X3600Y44000
X800Y40300
X34000Y44000
X36700Y40300
X25000Y48400
X27100Y50700
X12300Y40100
X12300Y35700
X10300Y22800
X35900Y24400
X36600Y26100
X33500Y26700
X34100Y28400
X36600Y34200
X10600Y35700
X10600Y40100
X6100Y45600
X36600Y51200
X36600Y57900
X36600Y64200
X18350Y11350
X25900Y55900
X16700Y64100
X13500Y44900
X26090Y5300
X20148Y3442
X19732Y2896
X33400Y12500
X25800Y9460
X28600Y60100
X31500Y60100
X29750Y60400
X30920Y60400
X30500Y54850
X27800Y14500
X29500Y54850
X27148Y14500
X30000Y55500
X32450Y58100
X27550Y58400
X26254Y15200
X28500Y54700
X17750Y8200
X17750Y7700
X27900Y4194
X34700Y12500
X19600Y16800
X27900Y3600
X35900Y12500
X19170Y18000
X17700Y3400
X16000Y18800
X14000Y18800
X17700Y11354
X22500Y9900
X24500Y2828
X13500Y18200
X18770Y10860
X22500Y10500
X25200Y2828
X11600Y51500
X11600Y31620
X1300Y38400
X23300Y14254
X24700Y13700
X14000Y3500
X17500Y15600
X24200Y47500
X19600Y42900
X17000Y16000
X16500Y16500
X27500Y21300
X27500Y21800
X14500Y46100
X15100Y46100
X12100Y50400
X3300Y59200
X24500Y21200
X23900Y21600
X13600Y21500
X26400Y27600
X16200Y60900
X25150Y53770
X18897Y43597
X9600Y41800
X13300Y58300
X13300Y61800
X13300Y54000
X18300Y17600
X21300Y41300
X23600Y44600
X22700Y63900
X14500Y2900
X10600Y33750
X55001Y2890
X47211Y2900
X64251Y7000
X50051Y4200
X68001Y57700
X51351Y6100
X60401Y3300
X67591Y4420
X49601Y52400
X50601Y2900
X52701Y3800
X59241Y8200
X53701Y16500
X67101Y24400
X65901Y6240
X68801Y7500
X61041Y6920
X66501Y14500
X63601Y15400
X60501Y14800
X62501Y17800
X66601Y16700
X48301Y11200
X51501Y13800
X54701Y11000
X47201Y4100
X50301Y8400
X40101Y6800
X40101Y10100
X40101Y14400
X40101Y17800
X41401Y21300
X51001Y22100
X51701Y25700
X54501Y24000
X54501Y30300
X52001Y28100
X52101Y30200
X59801Y36700
X69101Y24400
X67101Y30900
X69101Y30900
X67101Y36600
X69101Y36600
X61101Y45300
X55201Y45400
X58701Y41600
X50201Y47300
X52601Y49800
X50201Y49600
X45901Y47100
X69101Y46000
X67101Y46000
X69001Y54300
X67101Y54300
X72101Y57300
X63901Y57300
X55601Y60800
X39401Y48000
X40001Y53100
X41201Y56100
X39901Y61600
X50101Y61500
X49601Y25800
X69001Y19600
X52101Y44950
X57201Y40200
X65701Y34800
X56501Y22100
X58101Y23800
X59401Y24900
X61201Y26700
X63451Y26750
X64501Y26800
X63451Y28250
X63451Y34000
X64601Y32800
X63451Y37100
X67201Y11200
X65901Y8000
X49451Y13800
X57921Y11110
X59241Y11100
X55551Y14800
X61161Y13110
X73951Y4700
X72051Y12400
X74251Y13100
X73251Y17900
X72851Y21300
X71051Y16600
X61751Y11000
X57201Y6500
X42951Y18700
X41001Y27800
X41001Y30300
X41001Y32900
X61901Y9450
X54051Y7000
X69401Y10100
X60001Y5800
X66841Y7100
X60201Y12700
X56501Y18700
X65401Y18400
X64251Y2870
X66151Y2970
X41601Y44000
X38801Y40300
X72001Y44000
X74701Y40300
X63001Y48400
X65101Y50700
X50301Y40100
X50301Y35700
X48301Y22800
X73901Y24400
X74601Y26100
X71501Y26700
X72101Y28400
X74601Y34200
X48601Y35700
X48601Y40100
X44101Y45600
X74601Y51200
X74601Y57900
X74601Y64200
X56351Y11350
X63901Y55900
X54701Y64100
X51501Y44900
X64091Y5300
X17000Y2890
X57733Y2896
X71401Y12500
X63801Y9460
X66601Y60100
X69501Y60100
X67751Y60400
X68921Y60400
X68501Y54850
X65801Y14500
X67501Y54850
X65149Y14500
X68001Y55500
X70451Y58100
X65551Y58400
X64255Y15200
X66501Y54700
X55751Y8200
X55751Y7700
X65901Y4194
X72701Y12500
X57601Y16800
X65901Y3600
X73901Y12500
X57171Y18000
X55701Y3400
X54001Y18800
X52001Y18800
X55701Y11354
X60501Y9900
X62501Y2828
X51501Y18200
X56771Y10860
X60501Y10500
X63201Y2828
X49601Y51500
X49601Y31620
X39301Y38400
X61301Y14254
X62701Y13700
X52001Y3500
X55501Y15600
X62201Y47500
X57601Y42900
X55001Y16000
X54501Y16500
X65501Y21300
X65501Y21800
X52501Y46100
X53101Y46100
X50101Y50400
X41301Y59200
X62501Y21200
X61901Y21600
X51601Y21500
X58148Y3442
X54201Y60900
X63151Y53770
X56898Y43597
X47601Y41800
X51301Y58300
X51301Y61800
X51301Y54000
X56301Y17600
X59301Y41300
X61601Y44600
X60701Y63900
X52501Y2900
X48601Y33750
X9210Y2900
X26250Y7000
X12050Y4200
X30000Y57700
X13350Y6100
X22400Y3300
X29590Y4420
X11600Y52400
X12600Y2900
X14700Y3800
X21240Y8200
X15700Y16500
X29100Y24400
X27900Y6240
X30800Y7500
X23040Y6920
X28500Y14500
X25600Y15400
X22500Y14800
X24500Y17800
X28600Y16700
X10300Y11200
X13500Y13800
X16700Y11000
X9200Y4100
X12300Y8400
X2100Y6800
X2100Y10100
X2100Y14400
X2100Y17800
X3400Y21300
X13000Y22100
X13700Y25700
X16500Y24000
X16500Y30300
X14000Y28100
X14100Y30200
X21800Y36700
X31100Y24400
X29100Y30900
X31100Y30900
X64401Y27600
M30