G04 EAGLE Gerber RS-274X export*
G75*
%MOMM*%
%FSLAX34Y34*%
%LPD*%
%INSoldermask Bottom*%
%IPPOS*%
%AMOC8*
5,1,8,0,0,1.08239X$1,22.5*%
G01*
%ADD10C,0.228600*%
%ADD11C,0.777000*%
%ADD12C,0.228344*%
%ADD13C,6.127000*%
%ADD14C,0.762000*%
%ADD15C,2.006600*%
%ADD16C,1.227000*%
%ADD17C,1.727000*%
%ADD18C,0.228959*%
%ADD19C,0.736600*%
%ADD20C,1.127000*%
%ADD21C,1.270000*%
%ADD22C,1.627000*%

G36*
X381441Y412531D02*
X381441Y412531D01*
X381450Y412535D01*
X381476Y412536D01*
X385310Y413370D01*
X385319Y413375D01*
X385344Y413380D01*
X389020Y414752D01*
X389028Y414757D01*
X389053Y414766D01*
X392496Y416647D01*
X392503Y416654D01*
X392526Y416666D01*
X395667Y419017D01*
X395673Y419025D01*
X395694Y419041D01*
X398469Y421815D01*
X398473Y421824D01*
X398492Y421842D01*
X400843Y424983D01*
X400847Y424992D01*
X400863Y425013D01*
X402743Y428457D01*
X402745Y428466D01*
X402758Y428489D01*
X404129Y432165D01*
X404130Y432175D01*
X404139Y432199D01*
X404973Y436033D01*
X404972Y436043D01*
X404978Y436069D01*
X405258Y439982D01*
X405256Y439992D01*
X405258Y440018D01*
X404978Y443931D01*
X404977Y443936D01*
X404977Y443939D01*
X404974Y443945D01*
X404973Y443967D01*
X404139Y447801D01*
X404134Y447809D01*
X404129Y447835D01*
X402758Y451511D01*
X402752Y451519D01*
X402743Y451543D01*
X400863Y454987D01*
X400856Y454994D01*
X400843Y455017D01*
X398492Y458158D01*
X398484Y458164D01*
X398469Y458185D01*
X395694Y460959D01*
X395686Y460964D01*
X395667Y460983D01*
X392526Y463334D01*
X392517Y463337D01*
X392496Y463353D01*
X389053Y465234D01*
X389043Y465236D01*
X389020Y465248D01*
X385344Y466620D01*
X385335Y466620D01*
X385310Y466630D01*
X381476Y467464D01*
X381466Y467463D01*
X381441Y467469D01*
X377527Y467749D01*
X377515Y467746D01*
X377482Y467749D01*
X373569Y467469D01*
X373559Y467465D01*
X373533Y467464D01*
X369699Y466630D01*
X369691Y466625D01*
X369665Y466620D01*
X365989Y465248D01*
X365981Y465243D01*
X365957Y465234D01*
X362513Y463353D01*
X362506Y463346D01*
X362483Y463334D01*
X359342Y460983D01*
X359336Y460975D01*
X359315Y460959D01*
X356541Y458185D01*
X356536Y458176D01*
X356517Y458158D01*
X354166Y455017D01*
X354163Y455008D01*
X354147Y454987D01*
X352266Y451543D01*
X352264Y451534D01*
X352252Y451511D01*
X350880Y447835D01*
X350880Y447825D01*
X350870Y447801D01*
X350036Y443967D01*
X350037Y443957D01*
X350031Y443931D01*
X349751Y440018D01*
X349753Y440008D01*
X349751Y439982D01*
X350031Y436069D01*
X350035Y436059D01*
X350036Y436033D01*
X350870Y432199D01*
X350875Y432191D01*
X350880Y432165D01*
X352252Y428489D01*
X352257Y428481D01*
X352266Y428457D01*
X354147Y425013D01*
X354154Y425006D01*
X354166Y424983D01*
X356517Y421842D01*
X356525Y421836D01*
X356541Y421815D01*
X359315Y419041D01*
X359324Y419036D01*
X359342Y419017D01*
X362483Y416666D01*
X362492Y416663D01*
X362513Y416647D01*
X365957Y414766D01*
X365966Y414764D01*
X365989Y414752D01*
X369665Y413380D01*
X369675Y413380D01*
X369699Y413370D01*
X373533Y412536D01*
X373543Y412537D01*
X373569Y412531D01*
X377482Y412251D01*
X377494Y412254D01*
X377527Y412251D01*
X381441Y412531D01*
G37*
%LPC*%
G36*
X374802Y422962D02*
X374802Y422962D01*
X372169Y423594D01*
X369669Y424630D01*
X367361Y426044D01*
X365302Y427802D01*
X363544Y429861D01*
X362130Y432169D01*
X361094Y434669D01*
X360462Y437302D01*
X360250Y440000D01*
X360462Y442698D01*
X361094Y445331D01*
X362130Y447831D01*
X363544Y450139D01*
X365302Y452198D01*
X367361Y453956D01*
X369669Y455370D01*
X372169Y456406D01*
X374802Y457038D01*
X377505Y457250D01*
X380208Y457038D01*
X382840Y456406D01*
X385341Y455370D01*
X387649Y453956D01*
X389707Y452198D01*
X391465Y450139D01*
X392879Y447831D01*
X393915Y445331D01*
X394547Y442698D01*
X394759Y440000D01*
X394547Y437302D01*
X393915Y434669D01*
X392879Y432169D01*
X391465Y429861D01*
X389707Y427802D01*
X387649Y426044D01*
X385341Y424630D01*
X382840Y423594D01*
X380208Y422962D01*
X377505Y422750D01*
X374802Y422962D01*
G37*
%LPD*%
G36*
X1431Y412531D02*
X1431Y412531D01*
X1441Y412535D01*
X1467Y412536D01*
X5301Y413370D01*
X5309Y413375D01*
X5335Y413380D01*
X9011Y414752D01*
X9019Y414757D01*
X9043Y414766D01*
X12487Y416647D01*
X12494Y416654D01*
X12517Y416666D01*
X15658Y419017D01*
X15664Y419025D01*
X15685Y419041D01*
X18459Y421815D01*
X18464Y421824D01*
X18483Y421842D01*
X20834Y424983D01*
X20837Y424992D01*
X20853Y425013D01*
X22734Y428457D01*
X22736Y428466D01*
X22748Y428489D01*
X24120Y432165D01*
X24120Y432175D01*
X24130Y432199D01*
X24964Y436033D01*
X24963Y436043D01*
X24969Y436069D01*
X25249Y439982D01*
X25247Y439992D01*
X25249Y440018D01*
X24969Y443931D01*
X24967Y443936D01*
X24968Y443939D01*
X24965Y443945D01*
X24964Y443967D01*
X24130Y447801D01*
X24125Y447809D01*
X24120Y447835D01*
X22748Y451511D01*
X22743Y451519D01*
X22734Y451543D01*
X20853Y454987D01*
X20846Y454994D01*
X20834Y455017D01*
X18483Y458158D01*
X18475Y458164D01*
X18459Y458185D01*
X15685Y460959D01*
X15676Y460964D01*
X15658Y460983D01*
X12517Y463334D01*
X12508Y463337D01*
X12487Y463353D01*
X9043Y465234D01*
X9034Y465236D01*
X9011Y465248D01*
X5335Y466620D01*
X5325Y466620D01*
X5301Y466630D01*
X1467Y467464D01*
X1457Y467463D01*
X1431Y467469D01*
X-2482Y467749D01*
X-2508Y467743D01*
X-2533Y467747D01*
X-2575Y467729D01*
X-2619Y467719D01*
X-2637Y467701D01*
X-2661Y467690D01*
X-2686Y467652D01*
X-2718Y467621D01*
X-2724Y467595D01*
X-2738Y467574D01*
X-2749Y467500D01*
X-2749Y457500D01*
X-2747Y457493D01*
X-2749Y457486D01*
X-2728Y457427D01*
X-2710Y457366D01*
X-2705Y457361D01*
X-2702Y457354D01*
X-2652Y457316D01*
X-2605Y457274D01*
X-2598Y457273D01*
X-2592Y457268D01*
X-2520Y457252D01*
X198Y457038D01*
X2831Y456406D01*
X5331Y455370D01*
X7639Y453956D01*
X9698Y452198D01*
X11456Y450139D01*
X12870Y447831D01*
X13906Y445331D01*
X14538Y442698D01*
X14750Y440000D01*
X14538Y437302D01*
X13906Y434669D01*
X12870Y432169D01*
X11456Y429861D01*
X9698Y427802D01*
X7639Y426044D01*
X5331Y424630D01*
X2831Y423594D01*
X198Y422962D01*
X-2520Y422748D01*
X-2526Y422746D01*
X-2533Y422747D01*
X-2591Y422721D01*
X-2650Y422699D01*
X-2655Y422693D01*
X-2661Y422690D01*
X-2696Y422637D01*
X-2734Y422587D01*
X-2734Y422580D01*
X-2738Y422574D01*
X-2749Y422500D01*
X-2749Y412500D01*
X-2742Y412475D01*
X-2744Y412449D01*
X-2723Y412409D01*
X-2710Y412366D01*
X-2690Y412349D01*
X-2678Y412326D01*
X-2639Y412304D01*
X-2605Y412274D01*
X-2579Y412270D01*
X-2556Y412257D01*
X-2482Y412251D01*
X1431Y412531D01*
G37*
G36*
X757517Y412257D02*
X757517Y412257D01*
X757543Y412253D01*
X757584Y412271D01*
X757628Y412281D01*
X757647Y412299D01*
X757671Y412310D01*
X757695Y412348D01*
X757728Y412379D01*
X757733Y412405D01*
X757748Y412427D01*
X757759Y412500D01*
X757759Y422500D01*
X757757Y422507D01*
X757758Y422514D01*
X757737Y422573D01*
X757719Y422634D01*
X757714Y422639D01*
X757712Y422646D01*
X757662Y422685D01*
X757614Y422726D01*
X757607Y422727D01*
X757601Y422732D01*
X757529Y422748D01*
X754811Y422962D01*
X752179Y423594D01*
X749678Y424630D01*
X747370Y426044D01*
X745312Y427802D01*
X743554Y429861D01*
X742140Y432169D01*
X741104Y434669D01*
X740472Y437302D01*
X740259Y440000D01*
X740472Y442698D01*
X741104Y445331D01*
X742140Y447831D01*
X743554Y450139D01*
X745312Y452198D01*
X747370Y453956D01*
X749678Y455370D01*
X752179Y456406D01*
X754811Y457038D01*
X757529Y457252D01*
X757536Y457254D01*
X757543Y457253D01*
X757601Y457279D01*
X757660Y457301D01*
X757664Y457307D01*
X757671Y457310D01*
X757705Y457363D01*
X757743Y457413D01*
X757744Y457421D01*
X757748Y457427D01*
X757759Y457500D01*
X757759Y467500D01*
X757751Y467525D01*
X757753Y467551D01*
X757732Y467591D01*
X757719Y467634D01*
X757700Y467651D01*
X757688Y467674D01*
X757648Y467696D01*
X757614Y467726D01*
X757588Y467730D01*
X757566Y467743D01*
X757492Y467749D01*
X753578Y467469D01*
X753569Y467465D01*
X753543Y467464D01*
X749709Y466630D01*
X749700Y466625D01*
X749675Y466620D01*
X745998Y465248D01*
X745991Y465243D01*
X745966Y465234D01*
X742522Y463353D01*
X742516Y463346D01*
X742492Y463334D01*
X739351Y460983D01*
X739346Y460975D01*
X739325Y460959D01*
X736550Y458185D01*
X736545Y458176D01*
X736527Y458158D01*
X734175Y455017D01*
X734172Y455008D01*
X734156Y454987D01*
X732276Y451543D01*
X732274Y451534D01*
X732261Y451511D01*
X730890Y447835D01*
X730889Y447825D01*
X730880Y447801D01*
X730046Y443967D01*
X730046Y443957D01*
X730041Y443931D01*
X729761Y440018D01*
X729763Y440008D01*
X729761Y439982D01*
X730041Y436069D01*
X730044Y436059D01*
X730046Y436033D01*
X730880Y432199D01*
X730884Y432191D01*
X730890Y432165D01*
X732261Y428489D01*
X732267Y428481D01*
X732276Y428457D01*
X734156Y425013D01*
X734163Y425006D01*
X734175Y424983D01*
X736527Y421842D01*
X736535Y421836D01*
X736550Y421815D01*
X739325Y419041D01*
X739333Y419036D01*
X739351Y419017D01*
X742492Y416666D01*
X742502Y416663D01*
X742522Y416647D01*
X745966Y414766D01*
X745975Y414764D01*
X745998Y414752D01*
X749675Y413380D01*
X749684Y413380D01*
X749709Y413370D01*
X753543Y412536D01*
X753552Y412537D01*
X753578Y412531D01*
X757492Y412251D01*
X757517Y412257D01*
G37*
G36*
X483678Y79472D02*
X483678Y79472D01*
X483744Y79474D01*
X483788Y79492D01*
X483834Y79500D01*
X483891Y79534D01*
X483952Y79559D01*
X483987Y79590D01*
X484027Y79615D01*
X484069Y79666D01*
X484117Y79710D01*
X484139Y79752D01*
X484169Y79789D01*
X484190Y79851D01*
X484220Y79910D01*
X484228Y79964D01*
X484241Y80001D01*
X484240Y80041D01*
X484248Y80095D01*
X484248Y83905D01*
X484236Y83970D01*
X484234Y84036D01*
X484216Y84079D01*
X484208Y84126D01*
X484174Y84183D01*
X484150Y84243D01*
X484118Y84278D01*
X484094Y84319D01*
X484043Y84361D01*
X483998Y84409D01*
X483956Y84431D01*
X483920Y84460D01*
X483857Y84481D01*
X483799Y84512D01*
X483744Y84520D01*
X483707Y84532D01*
X483668Y84531D01*
X483613Y84539D01*
X470405Y84539D01*
X470341Y84528D01*
X470275Y84526D01*
X470231Y84508D01*
X470185Y84500D01*
X470128Y84466D01*
X470067Y84441D01*
X470032Y84410D01*
X469991Y84385D01*
X469950Y84334D01*
X469901Y84290D01*
X469880Y84248D01*
X469850Y84211D01*
X469829Y84149D01*
X469799Y84090D01*
X469791Y84036D01*
X469778Y83999D01*
X469778Y83995D01*
X469778Y83994D01*
X469779Y83959D01*
X469771Y83905D01*
X469771Y80095D01*
X469783Y80030D01*
X469785Y79964D01*
X469802Y79921D01*
X469811Y79874D01*
X469844Y79817D01*
X469869Y79757D01*
X469901Y79722D01*
X469925Y79681D01*
X469976Y79640D01*
X470020Y79591D01*
X470063Y79569D01*
X470099Y79540D01*
X470161Y79519D01*
X470220Y79488D01*
X470274Y79480D01*
X470312Y79468D01*
X470351Y79469D01*
X470405Y79461D01*
X483613Y79461D01*
X483678Y79472D01*
G37*
G36*
X103669Y79472D02*
X103669Y79472D01*
X103735Y79474D01*
X103778Y79492D01*
X103825Y79500D01*
X103882Y79534D01*
X103942Y79559D01*
X103977Y79590D01*
X104018Y79615D01*
X104060Y79666D01*
X104108Y79710D01*
X104130Y79752D01*
X104159Y79789D01*
X104180Y79851D01*
X104211Y79910D01*
X104219Y79964D01*
X104231Y80001D01*
X104230Y80041D01*
X104238Y80095D01*
X104238Y83905D01*
X104227Y83970D01*
X104225Y84036D01*
X104207Y84079D01*
X104199Y84126D01*
X104165Y84183D01*
X104140Y84243D01*
X104109Y84278D01*
X104084Y84319D01*
X104033Y84361D01*
X103989Y84409D01*
X103947Y84431D01*
X103910Y84460D01*
X103848Y84481D01*
X103789Y84512D01*
X103735Y84520D01*
X103698Y84532D01*
X103658Y84531D01*
X103604Y84539D01*
X90396Y84539D01*
X90331Y84528D01*
X90265Y84526D01*
X90222Y84508D01*
X90175Y84500D01*
X90118Y84466D01*
X90058Y84441D01*
X90023Y84410D01*
X89982Y84385D01*
X89941Y84334D01*
X89892Y84290D01*
X89870Y84248D01*
X89841Y84211D01*
X89820Y84149D01*
X89789Y84090D01*
X89781Y84036D01*
X89769Y83999D01*
X89769Y83995D01*
X89769Y83994D01*
X89770Y83959D01*
X89762Y83905D01*
X89762Y80095D01*
X89773Y80030D01*
X89775Y79964D01*
X89793Y79921D01*
X89801Y79874D01*
X89835Y79817D01*
X89860Y79757D01*
X89891Y79722D01*
X89916Y79681D01*
X89967Y79640D01*
X90011Y79591D01*
X90053Y79569D01*
X90090Y79540D01*
X90152Y79519D01*
X90211Y79488D01*
X90265Y79480D01*
X90302Y79468D01*
X90342Y79469D01*
X90396Y79461D01*
X103604Y79461D01*
X103669Y79472D01*
G37*
G36*
X619344Y631472D02*
X619344Y631472D01*
X619410Y631474D01*
X619454Y631492D01*
X619500Y631500D01*
X619557Y631534D01*
X619618Y631559D01*
X619653Y631590D01*
X619693Y631615D01*
X619735Y631666D01*
X619783Y631710D01*
X619805Y631752D01*
X619835Y631789D01*
X619856Y631851D01*
X619886Y631910D01*
X619894Y631964D01*
X619907Y632001D01*
X619906Y632041D01*
X619914Y632095D01*
X619914Y635905D01*
X619902Y635970D01*
X619900Y636036D01*
X619882Y636079D01*
X619874Y636126D01*
X619840Y636183D01*
X619816Y636243D01*
X619784Y636278D01*
X619760Y636319D01*
X619709Y636361D01*
X619664Y636409D01*
X619622Y636431D01*
X619586Y636460D01*
X619523Y636481D01*
X619465Y636512D01*
X619410Y636520D01*
X619373Y636532D01*
X619334Y636531D01*
X619279Y636539D01*
X616739Y636539D01*
X616675Y636528D01*
X616609Y636526D01*
X616565Y636508D01*
X616519Y636500D01*
X616462Y636466D01*
X616401Y636441D01*
X616366Y636410D01*
X616325Y636385D01*
X616284Y636334D01*
X616235Y636290D01*
X616214Y636248D01*
X616184Y636211D01*
X616163Y636149D01*
X616133Y636090D01*
X616125Y636036D01*
X616112Y635999D01*
X616112Y635995D01*
X616112Y635994D01*
X616113Y635959D01*
X616105Y635905D01*
X616105Y632095D01*
X616117Y632030D01*
X616119Y631964D01*
X616136Y631921D01*
X616145Y631874D01*
X616178Y631817D01*
X616203Y631757D01*
X616235Y631722D01*
X616259Y631681D01*
X616310Y631640D01*
X616354Y631591D01*
X616397Y631569D01*
X616433Y631540D01*
X616495Y631519D01*
X616554Y631488D01*
X616608Y631480D01*
X616646Y631468D01*
X616685Y631469D01*
X616739Y631461D01*
X619279Y631461D01*
X619344Y631472D01*
G37*
G36*
X239335Y631472D02*
X239335Y631472D01*
X239401Y631474D01*
X239444Y631492D01*
X239491Y631500D01*
X239548Y631534D01*
X239608Y631559D01*
X239643Y631590D01*
X239684Y631615D01*
X239726Y631666D01*
X239774Y631710D01*
X239796Y631752D01*
X239825Y631789D01*
X239846Y631851D01*
X239877Y631910D01*
X239885Y631964D01*
X239897Y632001D01*
X239896Y632041D01*
X239904Y632095D01*
X239904Y635905D01*
X239893Y635970D01*
X239891Y636036D01*
X239873Y636079D01*
X239865Y636126D01*
X239831Y636183D01*
X239806Y636243D01*
X239775Y636278D01*
X239750Y636319D01*
X239699Y636361D01*
X239655Y636409D01*
X239613Y636431D01*
X239576Y636460D01*
X239514Y636481D01*
X239455Y636512D01*
X239401Y636520D01*
X239364Y636532D01*
X239324Y636531D01*
X239270Y636539D01*
X236730Y636539D01*
X236665Y636528D01*
X236599Y636526D01*
X236556Y636508D01*
X236509Y636500D01*
X236452Y636466D01*
X236392Y636441D01*
X236357Y636410D01*
X236316Y636385D01*
X236275Y636334D01*
X236226Y636290D01*
X236204Y636248D01*
X236175Y636211D01*
X236154Y636149D01*
X236123Y636090D01*
X236115Y636036D01*
X236103Y635999D01*
X236103Y635995D01*
X236103Y635994D01*
X236104Y635959D01*
X236096Y635905D01*
X236096Y632095D01*
X236107Y632030D01*
X236109Y631964D01*
X236127Y631921D01*
X236135Y631874D01*
X236169Y631817D01*
X236194Y631757D01*
X236225Y631722D01*
X236250Y631681D01*
X236301Y631640D01*
X236345Y631591D01*
X236387Y631569D01*
X236424Y631540D01*
X236486Y631519D01*
X236545Y631488D01*
X236599Y631480D01*
X236636Y631468D01*
X236676Y631469D01*
X236730Y631461D01*
X239270Y631461D01*
X239335Y631472D01*
G37*
G36*
X147970Y629107D02*
X147970Y629107D01*
X148036Y629109D01*
X148079Y629127D01*
X148126Y629135D01*
X148183Y629169D01*
X148243Y629194D01*
X148278Y629225D01*
X148319Y629250D01*
X148361Y629301D01*
X148409Y629345D01*
X148431Y629387D01*
X148460Y629424D01*
X148481Y629486D01*
X148512Y629545D01*
X148520Y629599D01*
X148532Y629636D01*
X148531Y629676D01*
X148539Y629730D01*
X148539Y632270D01*
X148528Y632335D01*
X148526Y632401D01*
X148508Y632444D01*
X148500Y632491D01*
X148466Y632548D01*
X148441Y632608D01*
X148410Y632643D01*
X148385Y632684D01*
X148334Y632726D01*
X148290Y632774D01*
X148248Y632796D01*
X148211Y632825D01*
X148149Y632846D01*
X148090Y632877D01*
X148036Y632885D01*
X147999Y632897D01*
X147959Y632896D01*
X147905Y632904D01*
X144095Y632904D01*
X144030Y632893D01*
X143964Y632891D01*
X143921Y632873D01*
X143874Y632865D01*
X143817Y632831D01*
X143757Y632806D01*
X143722Y632775D01*
X143681Y632750D01*
X143640Y632699D01*
X143591Y632655D01*
X143569Y632613D01*
X143540Y632576D01*
X143519Y632514D01*
X143488Y632455D01*
X143480Y632401D01*
X143468Y632364D01*
X143468Y632361D01*
X143469Y632324D01*
X143461Y632270D01*
X143461Y629730D01*
X143472Y629665D01*
X143474Y629599D01*
X143492Y629556D01*
X143500Y629509D01*
X143534Y629452D01*
X143559Y629392D01*
X143590Y629357D01*
X143615Y629316D01*
X143666Y629275D01*
X143710Y629226D01*
X143752Y629204D01*
X143789Y629175D01*
X143851Y629154D01*
X143910Y629123D01*
X143964Y629115D01*
X144001Y629103D01*
X144041Y629104D01*
X144095Y629096D01*
X147905Y629096D01*
X147970Y629107D01*
G37*
G36*
X527979Y629107D02*
X527979Y629107D01*
X528045Y629109D01*
X528089Y629127D01*
X528135Y629135D01*
X528192Y629169D01*
X528253Y629194D01*
X528288Y629225D01*
X528328Y629250D01*
X528370Y629301D01*
X528418Y629345D01*
X528440Y629387D01*
X528470Y629424D01*
X528491Y629486D01*
X528521Y629545D01*
X528529Y629599D01*
X528542Y629636D01*
X528541Y629676D01*
X528549Y629730D01*
X528549Y632270D01*
X528537Y632335D01*
X528535Y632401D01*
X528517Y632444D01*
X528509Y632491D01*
X528475Y632548D01*
X528451Y632608D01*
X528419Y632643D01*
X528395Y632684D01*
X528344Y632726D01*
X528299Y632774D01*
X528257Y632796D01*
X528221Y632825D01*
X528158Y632846D01*
X528100Y632877D01*
X528045Y632885D01*
X528008Y632897D01*
X527969Y632896D01*
X527914Y632904D01*
X524104Y632904D01*
X524040Y632893D01*
X523974Y632891D01*
X523930Y632873D01*
X523884Y632865D01*
X523827Y632831D01*
X523766Y632806D01*
X523731Y632775D01*
X523690Y632750D01*
X523649Y632699D01*
X523600Y632655D01*
X523579Y632613D01*
X523549Y632576D01*
X523528Y632514D01*
X523498Y632455D01*
X523490Y632401D01*
X523477Y632364D01*
X523477Y632361D01*
X523478Y632324D01*
X523470Y632270D01*
X523470Y629730D01*
X523482Y629665D01*
X523484Y629599D01*
X523501Y629556D01*
X523510Y629509D01*
X523543Y629452D01*
X523568Y629392D01*
X523600Y629357D01*
X523624Y629316D01*
X523675Y629275D01*
X523719Y629226D01*
X523762Y629204D01*
X523798Y629175D01*
X523860Y629154D01*
X523919Y629123D01*
X523973Y629115D01*
X524011Y629103D01*
X524050Y629104D01*
X524104Y629096D01*
X527914Y629096D01*
X527979Y629107D01*
G37*
G36*
X350970Y618107D02*
X350970Y618107D01*
X351036Y618109D01*
X351079Y618127D01*
X351126Y618135D01*
X351183Y618169D01*
X351243Y618194D01*
X351278Y618225D01*
X351319Y618250D01*
X351361Y618301D01*
X351409Y618345D01*
X351431Y618387D01*
X351460Y618424D01*
X351481Y618486D01*
X351512Y618545D01*
X351520Y618599D01*
X351532Y618636D01*
X351531Y618676D01*
X351539Y618730D01*
X351539Y621270D01*
X351528Y621335D01*
X351526Y621401D01*
X351508Y621444D01*
X351500Y621491D01*
X351466Y621548D01*
X351441Y621608D01*
X351410Y621643D01*
X351385Y621684D01*
X351334Y621726D01*
X351290Y621774D01*
X351248Y621796D01*
X351211Y621825D01*
X351149Y621846D01*
X351090Y621877D01*
X351036Y621885D01*
X350999Y621897D01*
X350959Y621896D01*
X350905Y621904D01*
X347095Y621904D01*
X347030Y621893D01*
X346964Y621891D01*
X346921Y621873D01*
X346874Y621865D01*
X346817Y621831D01*
X346757Y621806D01*
X346722Y621775D01*
X346681Y621750D01*
X346640Y621699D01*
X346591Y621655D01*
X346569Y621613D01*
X346540Y621576D01*
X346519Y621514D01*
X346488Y621455D01*
X346480Y621401D01*
X346468Y621364D01*
X346468Y621361D01*
X346469Y621324D01*
X346461Y621270D01*
X346461Y618730D01*
X346472Y618665D01*
X346474Y618599D01*
X346492Y618556D01*
X346500Y618509D01*
X346534Y618452D01*
X346559Y618392D01*
X346590Y618357D01*
X346615Y618316D01*
X346666Y618275D01*
X346710Y618226D01*
X346752Y618204D01*
X346789Y618175D01*
X346851Y618154D01*
X346910Y618123D01*
X346964Y618115D01*
X347001Y618103D01*
X347041Y618104D01*
X347095Y618096D01*
X350905Y618096D01*
X350970Y618107D01*
G37*
G36*
X730979Y618107D02*
X730979Y618107D01*
X731045Y618109D01*
X731089Y618127D01*
X731135Y618135D01*
X731192Y618169D01*
X731253Y618194D01*
X731288Y618225D01*
X731328Y618250D01*
X731370Y618301D01*
X731418Y618345D01*
X731440Y618387D01*
X731470Y618424D01*
X731491Y618486D01*
X731521Y618545D01*
X731529Y618599D01*
X731542Y618636D01*
X731541Y618676D01*
X731549Y618730D01*
X731549Y621270D01*
X731537Y621335D01*
X731535Y621401D01*
X731517Y621444D01*
X731509Y621491D01*
X731475Y621548D01*
X731451Y621608D01*
X731419Y621643D01*
X731395Y621684D01*
X731344Y621726D01*
X731299Y621774D01*
X731257Y621796D01*
X731221Y621825D01*
X731158Y621846D01*
X731100Y621877D01*
X731045Y621885D01*
X731008Y621897D01*
X730969Y621896D01*
X730914Y621904D01*
X727104Y621904D01*
X727040Y621893D01*
X726974Y621891D01*
X726930Y621873D01*
X726884Y621865D01*
X726827Y621831D01*
X726766Y621806D01*
X726731Y621775D01*
X726690Y621750D01*
X726649Y621699D01*
X726600Y621655D01*
X726579Y621613D01*
X726549Y621576D01*
X726528Y621514D01*
X726498Y621455D01*
X726490Y621401D01*
X726477Y621364D01*
X726477Y621361D01*
X726478Y621324D01*
X726470Y621270D01*
X726470Y618730D01*
X726482Y618665D01*
X726484Y618599D01*
X726501Y618556D01*
X726510Y618509D01*
X726543Y618452D01*
X726568Y618392D01*
X726600Y618357D01*
X726624Y618316D01*
X726675Y618275D01*
X726719Y618226D01*
X726762Y618204D01*
X726798Y618175D01*
X726860Y618154D01*
X726919Y618123D01*
X726973Y618115D01*
X727011Y618103D01*
X727050Y618104D01*
X727104Y618096D01*
X730914Y618096D01*
X730979Y618107D01*
G37*
G36*
X147970Y595107D02*
X147970Y595107D01*
X148036Y595109D01*
X148079Y595127D01*
X148126Y595135D01*
X148183Y595169D01*
X148243Y595194D01*
X148278Y595225D01*
X148319Y595250D01*
X148361Y595301D01*
X148409Y595345D01*
X148431Y595387D01*
X148460Y595424D01*
X148481Y595486D01*
X148512Y595545D01*
X148520Y595599D01*
X148532Y595636D01*
X148531Y595676D01*
X148539Y595730D01*
X148539Y598270D01*
X148528Y598335D01*
X148526Y598401D01*
X148508Y598444D01*
X148500Y598491D01*
X148466Y598548D01*
X148441Y598608D01*
X148410Y598643D01*
X148385Y598684D01*
X148334Y598726D01*
X148290Y598774D01*
X148248Y598796D01*
X148211Y598825D01*
X148149Y598846D01*
X148090Y598877D01*
X148036Y598885D01*
X147999Y598897D01*
X147959Y598896D01*
X147905Y598904D01*
X144095Y598904D01*
X144030Y598893D01*
X143964Y598891D01*
X143921Y598873D01*
X143874Y598865D01*
X143817Y598831D01*
X143757Y598806D01*
X143722Y598775D01*
X143681Y598750D01*
X143640Y598699D01*
X143591Y598655D01*
X143569Y598613D01*
X143540Y598576D01*
X143519Y598514D01*
X143488Y598455D01*
X143480Y598401D01*
X143468Y598364D01*
X143468Y598361D01*
X143469Y598324D01*
X143461Y598270D01*
X143461Y595730D01*
X143472Y595665D01*
X143474Y595599D01*
X143492Y595556D01*
X143500Y595509D01*
X143534Y595452D01*
X143559Y595392D01*
X143590Y595357D01*
X143615Y595316D01*
X143666Y595275D01*
X143710Y595226D01*
X143752Y595204D01*
X143789Y595175D01*
X143851Y595154D01*
X143910Y595123D01*
X143964Y595115D01*
X144001Y595103D01*
X144041Y595104D01*
X144095Y595096D01*
X147905Y595096D01*
X147970Y595107D01*
G37*
G36*
X527979Y595107D02*
X527979Y595107D01*
X528045Y595109D01*
X528089Y595127D01*
X528135Y595135D01*
X528192Y595169D01*
X528253Y595194D01*
X528288Y595225D01*
X528328Y595250D01*
X528370Y595301D01*
X528418Y595345D01*
X528440Y595387D01*
X528470Y595424D01*
X528491Y595486D01*
X528521Y595545D01*
X528529Y595599D01*
X528542Y595636D01*
X528541Y595676D01*
X528549Y595730D01*
X528549Y598270D01*
X528537Y598335D01*
X528535Y598401D01*
X528517Y598444D01*
X528509Y598491D01*
X528475Y598548D01*
X528451Y598608D01*
X528419Y598643D01*
X528395Y598684D01*
X528344Y598726D01*
X528299Y598774D01*
X528257Y598796D01*
X528221Y598825D01*
X528158Y598846D01*
X528100Y598877D01*
X528045Y598885D01*
X528008Y598897D01*
X527969Y598896D01*
X527914Y598904D01*
X524104Y598904D01*
X524040Y598893D01*
X523974Y598891D01*
X523930Y598873D01*
X523884Y598865D01*
X523827Y598831D01*
X523766Y598806D01*
X523731Y598775D01*
X523690Y598750D01*
X523649Y598699D01*
X523600Y598655D01*
X523579Y598613D01*
X523549Y598576D01*
X523528Y598514D01*
X523498Y598455D01*
X523490Y598401D01*
X523477Y598364D01*
X523477Y598361D01*
X523478Y598324D01*
X523470Y598270D01*
X523470Y595730D01*
X523482Y595665D01*
X523484Y595599D01*
X523501Y595556D01*
X523510Y595509D01*
X523543Y595452D01*
X523568Y595392D01*
X523600Y595357D01*
X523624Y595316D01*
X523675Y595275D01*
X523719Y595226D01*
X523762Y595204D01*
X523798Y595175D01*
X523860Y595154D01*
X523919Y595123D01*
X523973Y595115D01*
X524011Y595103D01*
X524050Y595104D01*
X524104Y595096D01*
X527914Y595096D01*
X527979Y595107D01*
G37*
G36*
X147970Y560107D02*
X147970Y560107D01*
X148036Y560109D01*
X148079Y560127D01*
X148126Y560135D01*
X148183Y560169D01*
X148243Y560194D01*
X148278Y560225D01*
X148319Y560250D01*
X148361Y560301D01*
X148409Y560345D01*
X148431Y560387D01*
X148460Y560424D01*
X148481Y560486D01*
X148512Y560545D01*
X148520Y560599D01*
X148532Y560636D01*
X148531Y560676D01*
X148539Y560730D01*
X148539Y563270D01*
X148528Y563335D01*
X148526Y563401D01*
X148508Y563444D01*
X148500Y563491D01*
X148466Y563548D01*
X148441Y563608D01*
X148410Y563643D01*
X148385Y563684D01*
X148334Y563726D01*
X148290Y563774D01*
X148248Y563796D01*
X148211Y563825D01*
X148149Y563846D01*
X148090Y563877D01*
X148036Y563885D01*
X147999Y563897D01*
X147959Y563896D01*
X147905Y563904D01*
X144095Y563904D01*
X144030Y563893D01*
X143964Y563891D01*
X143921Y563873D01*
X143874Y563865D01*
X143817Y563831D01*
X143757Y563806D01*
X143722Y563775D01*
X143681Y563750D01*
X143640Y563699D01*
X143591Y563655D01*
X143569Y563613D01*
X143540Y563576D01*
X143519Y563514D01*
X143488Y563455D01*
X143480Y563401D01*
X143468Y563364D01*
X143468Y563361D01*
X143469Y563324D01*
X143461Y563270D01*
X143461Y560730D01*
X143472Y560665D01*
X143474Y560599D01*
X143492Y560556D01*
X143500Y560509D01*
X143534Y560452D01*
X143559Y560392D01*
X143590Y560357D01*
X143615Y560316D01*
X143666Y560275D01*
X143710Y560226D01*
X143752Y560204D01*
X143789Y560175D01*
X143851Y560154D01*
X143910Y560123D01*
X143964Y560115D01*
X144001Y560103D01*
X144041Y560104D01*
X144095Y560096D01*
X147905Y560096D01*
X147970Y560107D01*
G37*
G36*
X527979Y560107D02*
X527979Y560107D01*
X528045Y560109D01*
X528089Y560127D01*
X528135Y560135D01*
X528192Y560169D01*
X528253Y560194D01*
X528288Y560225D01*
X528328Y560250D01*
X528370Y560301D01*
X528418Y560345D01*
X528440Y560387D01*
X528470Y560424D01*
X528491Y560486D01*
X528521Y560545D01*
X528529Y560599D01*
X528542Y560636D01*
X528541Y560676D01*
X528549Y560730D01*
X528549Y563270D01*
X528537Y563335D01*
X528535Y563401D01*
X528517Y563444D01*
X528509Y563491D01*
X528475Y563548D01*
X528451Y563608D01*
X528419Y563643D01*
X528395Y563684D01*
X528344Y563726D01*
X528299Y563774D01*
X528257Y563796D01*
X528221Y563825D01*
X528158Y563846D01*
X528100Y563877D01*
X528045Y563885D01*
X528008Y563897D01*
X527969Y563896D01*
X527914Y563904D01*
X524104Y563904D01*
X524040Y563893D01*
X523974Y563891D01*
X523930Y563873D01*
X523884Y563865D01*
X523827Y563831D01*
X523766Y563806D01*
X523731Y563775D01*
X523690Y563750D01*
X523649Y563699D01*
X523600Y563655D01*
X523579Y563613D01*
X523549Y563576D01*
X523528Y563514D01*
X523498Y563455D01*
X523490Y563401D01*
X523477Y563364D01*
X523477Y563361D01*
X523478Y563324D01*
X523470Y563270D01*
X523470Y560730D01*
X523482Y560665D01*
X523484Y560599D01*
X523501Y560556D01*
X523510Y560509D01*
X523543Y560452D01*
X523568Y560392D01*
X523600Y560357D01*
X523624Y560316D01*
X523675Y560275D01*
X523719Y560226D01*
X523762Y560204D01*
X523798Y560175D01*
X523860Y560154D01*
X523919Y560123D01*
X523973Y560115D01*
X524011Y560103D01*
X524050Y560104D01*
X524104Y560096D01*
X527914Y560096D01*
X527979Y560107D01*
G37*
D10*
X339842Y85603D02*
X339842Y80269D01*
X328158Y80269D01*
X328158Y85603D01*
X339842Y85603D01*
X339842Y82441D02*
X328158Y82441D01*
X328158Y84613D02*
X339842Y84613D01*
X339842Y88397D02*
X339842Y93731D01*
X339842Y88397D02*
X328158Y88397D01*
X328158Y93731D01*
X339842Y93731D01*
X339842Y90569D02*
X328158Y90569D01*
X328158Y92741D02*
X339842Y92741D01*
D11*
X328900Y603450D03*
X271100Y603450D03*
D12*
X351411Y625844D02*
X357003Y625844D01*
X357003Y614156D01*
X351411Y614156D01*
X351411Y625844D01*
X351411Y616325D02*
X357003Y616325D01*
X357003Y618494D02*
X351411Y618494D01*
X351411Y620663D02*
X357003Y620663D01*
X357003Y622832D02*
X351411Y622832D01*
X351411Y625001D02*
X357003Y625001D01*
X346589Y625844D02*
X340997Y625844D01*
X346589Y625844D02*
X346589Y614156D01*
X340997Y614156D01*
X340997Y625844D01*
X340997Y616325D02*
X346589Y616325D01*
X346589Y618494D02*
X340997Y618494D01*
X340997Y620663D02*
X346589Y620663D01*
X346589Y622832D02*
X340997Y622832D01*
X340997Y625001D02*
X346589Y625001D01*
D13*
X200000Y510300D03*
D14*
X370000Y45000D03*
X5000Y645000D03*
D10*
X91158Y89747D02*
X91158Y84413D01*
X91158Y89747D02*
X102842Y89747D01*
X102842Y84413D01*
X91158Y84413D01*
X91158Y86585D02*
X102842Y86585D01*
X102842Y88757D02*
X91158Y88757D01*
X91158Y79587D02*
X91158Y74253D01*
X91158Y79587D02*
X102842Y79587D01*
X102842Y74253D01*
X91158Y74253D01*
X91158Y76425D02*
X102842Y76425D01*
X102842Y78597D02*
X91158Y78597D01*
D15*
X97000Y94700D03*
X97000Y69300D03*
D10*
X244397Y235842D02*
X249731Y235842D01*
X249731Y224158D01*
X244397Y224158D01*
X244397Y235842D01*
X244397Y226330D02*
X249731Y226330D01*
X249731Y228502D02*
X244397Y228502D01*
X244397Y230674D02*
X249731Y230674D01*
X249731Y232846D02*
X244397Y232846D01*
X244397Y235018D02*
X249731Y235018D01*
X241603Y235842D02*
X236269Y235842D01*
X241603Y235842D02*
X241603Y224158D01*
X236269Y224158D01*
X236269Y235842D01*
X236269Y226330D02*
X241603Y226330D01*
X241603Y228502D02*
X236269Y228502D01*
X236269Y230674D02*
X241603Y230674D01*
X241603Y232846D02*
X236269Y232846D01*
X236269Y235018D02*
X241603Y235018D01*
D12*
X154003Y636844D02*
X148411Y636844D01*
X154003Y636844D02*
X154003Y625156D01*
X148411Y625156D01*
X148411Y636844D01*
X148411Y627325D02*
X154003Y627325D01*
X154003Y629494D02*
X148411Y629494D01*
X148411Y631663D02*
X154003Y631663D01*
X154003Y633832D02*
X148411Y633832D01*
X148411Y636001D02*
X154003Y636001D01*
X143589Y636844D02*
X137997Y636844D01*
X143589Y636844D02*
X143589Y625156D01*
X137997Y625156D01*
X137997Y636844D01*
X137997Y627325D02*
X143589Y627325D01*
X143589Y629494D02*
X137997Y629494D01*
X137997Y631663D02*
X143589Y631663D01*
X143589Y633832D02*
X137997Y633832D01*
X137997Y636001D02*
X143589Y636001D01*
X148411Y602844D02*
X154003Y602844D01*
X154003Y591156D01*
X148411Y591156D01*
X148411Y602844D01*
X148411Y593325D02*
X154003Y593325D01*
X154003Y595494D02*
X148411Y595494D01*
X148411Y597663D02*
X154003Y597663D01*
X154003Y599832D02*
X148411Y599832D01*
X148411Y602001D02*
X154003Y602001D01*
X143589Y602844D02*
X137997Y602844D01*
X143589Y602844D02*
X143589Y591156D01*
X137997Y591156D01*
X137997Y602844D01*
X137997Y593325D02*
X143589Y593325D01*
X143589Y595494D02*
X137997Y595494D01*
X137997Y597663D02*
X143589Y597663D01*
X143589Y599832D02*
X137997Y599832D01*
X137997Y602001D02*
X143589Y602001D01*
X148411Y567844D02*
X154003Y567844D01*
X154003Y556156D01*
X148411Y556156D01*
X148411Y567844D01*
X148411Y558325D02*
X154003Y558325D01*
X154003Y560494D02*
X148411Y560494D01*
X148411Y562663D02*
X154003Y562663D01*
X154003Y564832D02*
X148411Y564832D01*
X148411Y567001D02*
X154003Y567001D01*
X143589Y567844D02*
X137997Y567844D01*
X143589Y567844D02*
X143589Y556156D01*
X137997Y556156D01*
X137997Y567844D01*
X137997Y558325D02*
X143589Y558325D01*
X143589Y560494D02*
X137997Y560494D01*
X137997Y562663D02*
X143589Y562663D01*
X143589Y564832D02*
X137997Y564832D01*
X137997Y567001D02*
X143589Y567001D01*
D16*
X300000Y177500D03*
D17*
X100000Y177500D03*
D18*
X276260Y6010D02*
X278740Y6010D01*
X276260Y6010D02*
X276260Y24490D01*
X278740Y24490D01*
X278740Y6010D01*
X278740Y8185D02*
X276260Y8185D01*
X276260Y10360D02*
X278740Y10360D01*
X278740Y12535D02*
X276260Y12535D01*
X276260Y14710D02*
X278740Y14710D01*
X278740Y16885D02*
X276260Y16885D01*
X276260Y19060D02*
X278740Y19060D01*
X278740Y21235D02*
X276260Y21235D01*
X276260Y23410D02*
X278740Y23410D01*
X273740Y6010D02*
X271260Y6010D01*
X271260Y24490D01*
X273740Y24490D01*
X273740Y6010D01*
X273740Y8185D02*
X271260Y8185D01*
X271260Y10360D02*
X273740Y10360D01*
X273740Y12535D02*
X271260Y12535D01*
X271260Y14710D02*
X273740Y14710D01*
X273740Y16885D02*
X271260Y16885D01*
X271260Y19060D02*
X273740Y19060D01*
X273740Y21235D02*
X271260Y21235D01*
X271260Y23410D02*
X273740Y23410D01*
X268740Y6010D02*
X266260Y6010D01*
X266260Y24490D01*
X268740Y24490D01*
X268740Y6010D01*
X268740Y8185D02*
X266260Y8185D01*
X266260Y10360D02*
X268740Y10360D01*
X268740Y12535D02*
X266260Y12535D01*
X266260Y14710D02*
X268740Y14710D01*
X268740Y16885D02*
X266260Y16885D01*
X266260Y19060D02*
X268740Y19060D01*
X268740Y21235D02*
X266260Y21235D01*
X266260Y23410D02*
X268740Y23410D01*
X263740Y6010D02*
X261260Y6010D01*
X261260Y24490D01*
X263740Y24490D01*
X263740Y6010D01*
X263740Y8185D02*
X261260Y8185D01*
X261260Y10360D02*
X263740Y10360D01*
X263740Y12535D02*
X261260Y12535D01*
X261260Y14710D02*
X263740Y14710D01*
X263740Y16885D02*
X261260Y16885D01*
X261260Y19060D02*
X263740Y19060D01*
X263740Y21235D02*
X261260Y21235D01*
X261260Y23410D02*
X263740Y23410D01*
X258740Y6010D02*
X256260Y6010D01*
X256260Y24490D01*
X258740Y24490D01*
X258740Y6010D01*
X258740Y8185D02*
X256260Y8185D01*
X256260Y10360D02*
X258740Y10360D01*
X258740Y12535D02*
X256260Y12535D01*
X256260Y14710D02*
X258740Y14710D01*
X258740Y16885D02*
X256260Y16885D01*
X256260Y19060D02*
X258740Y19060D01*
X258740Y21235D02*
X256260Y21235D01*
X256260Y23410D02*
X258740Y23410D01*
X253740Y6010D02*
X251260Y6010D01*
X251260Y24490D01*
X253740Y24490D01*
X253740Y6010D01*
X253740Y8185D02*
X251260Y8185D01*
X251260Y10360D02*
X253740Y10360D01*
X253740Y12535D02*
X251260Y12535D01*
X251260Y14710D02*
X253740Y14710D01*
X253740Y16885D02*
X251260Y16885D01*
X251260Y19060D02*
X253740Y19060D01*
X253740Y21235D02*
X251260Y21235D01*
X251260Y23410D02*
X253740Y23410D01*
X248740Y6010D02*
X246260Y6010D01*
X246260Y24490D01*
X248740Y24490D01*
X248740Y6010D01*
X248740Y8185D02*
X246260Y8185D01*
X246260Y10360D02*
X248740Y10360D01*
X248740Y12535D02*
X246260Y12535D01*
X246260Y14710D02*
X248740Y14710D01*
X248740Y16885D02*
X246260Y16885D01*
X246260Y19060D02*
X248740Y19060D01*
X248740Y21235D02*
X246260Y21235D01*
X246260Y23410D02*
X248740Y23410D01*
X243740Y6010D02*
X241260Y6010D01*
X241260Y24490D01*
X243740Y24490D01*
X243740Y6010D01*
X243740Y8185D02*
X241260Y8185D01*
X241260Y10360D02*
X243740Y10360D01*
X243740Y12535D02*
X241260Y12535D01*
X241260Y14710D02*
X243740Y14710D01*
X243740Y16885D02*
X241260Y16885D01*
X241260Y19060D02*
X243740Y19060D01*
X243740Y21235D02*
X241260Y21235D01*
X241260Y23410D02*
X243740Y23410D01*
X238740Y6010D02*
X236260Y6010D01*
X236260Y24490D01*
X238740Y24490D01*
X238740Y6010D01*
X238740Y8185D02*
X236260Y8185D01*
X236260Y10360D02*
X238740Y10360D01*
X238740Y12535D02*
X236260Y12535D01*
X236260Y14710D02*
X238740Y14710D01*
X238740Y16885D02*
X236260Y16885D01*
X236260Y19060D02*
X238740Y19060D01*
X238740Y21235D02*
X236260Y21235D01*
X236260Y23410D02*
X238740Y23410D01*
X233740Y6010D02*
X231260Y6010D01*
X231260Y24490D01*
X233740Y24490D01*
X233740Y6010D01*
X233740Y8185D02*
X231260Y8185D01*
X231260Y10360D02*
X233740Y10360D01*
X233740Y12535D02*
X231260Y12535D01*
X231260Y14710D02*
X233740Y14710D01*
X233740Y16885D02*
X231260Y16885D01*
X231260Y19060D02*
X233740Y19060D01*
X233740Y21235D02*
X231260Y21235D01*
X231260Y23410D02*
X233740Y23410D01*
X228740Y6010D02*
X226260Y6010D01*
X226260Y24490D01*
X228740Y24490D01*
X228740Y6010D01*
X228740Y8185D02*
X226260Y8185D01*
X226260Y10360D02*
X228740Y10360D01*
X228740Y12535D02*
X226260Y12535D01*
X226260Y14710D02*
X228740Y14710D01*
X228740Y16885D02*
X226260Y16885D01*
X226260Y19060D02*
X228740Y19060D01*
X228740Y21235D02*
X226260Y21235D01*
X226260Y23410D02*
X228740Y23410D01*
X203740Y6010D02*
X201260Y6010D01*
X201260Y24490D01*
X203740Y24490D01*
X203740Y6010D01*
X203740Y8185D02*
X201260Y8185D01*
X201260Y10360D02*
X203740Y10360D01*
X203740Y12535D02*
X201260Y12535D01*
X201260Y14710D02*
X203740Y14710D01*
X203740Y16885D02*
X201260Y16885D01*
X201260Y19060D02*
X203740Y19060D01*
X203740Y21235D02*
X201260Y21235D01*
X201260Y23410D02*
X203740Y23410D01*
X198740Y6010D02*
X196260Y6010D01*
X196260Y24490D01*
X198740Y24490D01*
X198740Y6010D01*
X198740Y8185D02*
X196260Y8185D01*
X196260Y10360D02*
X198740Y10360D01*
X198740Y12535D02*
X196260Y12535D01*
X196260Y14710D02*
X198740Y14710D01*
X198740Y16885D02*
X196260Y16885D01*
X196260Y19060D02*
X198740Y19060D01*
X198740Y21235D02*
X196260Y21235D01*
X196260Y23410D02*
X198740Y23410D01*
X193740Y6010D02*
X191260Y6010D01*
X191260Y24490D01*
X193740Y24490D01*
X193740Y6010D01*
X193740Y8185D02*
X191260Y8185D01*
X191260Y10360D02*
X193740Y10360D01*
X193740Y12535D02*
X191260Y12535D01*
X191260Y14710D02*
X193740Y14710D01*
X193740Y16885D02*
X191260Y16885D01*
X191260Y19060D02*
X193740Y19060D01*
X193740Y21235D02*
X191260Y21235D01*
X191260Y23410D02*
X193740Y23410D01*
X188740Y6010D02*
X186260Y6010D01*
X186260Y24490D01*
X188740Y24490D01*
X188740Y6010D01*
X188740Y8185D02*
X186260Y8185D01*
X186260Y10360D02*
X188740Y10360D01*
X188740Y12535D02*
X186260Y12535D01*
X186260Y14710D02*
X188740Y14710D01*
X188740Y16885D02*
X186260Y16885D01*
X186260Y19060D02*
X188740Y19060D01*
X188740Y21235D02*
X186260Y21235D01*
X186260Y23410D02*
X188740Y23410D01*
X183740Y6010D02*
X181260Y6010D01*
X181260Y24490D01*
X183740Y24490D01*
X183740Y6010D01*
X183740Y8185D02*
X181260Y8185D01*
X181260Y10360D02*
X183740Y10360D01*
X183740Y12535D02*
X181260Y12535D01*
X181260Y14710D02*
X183740Y14710D01*
X183740Y16885D02*
X181260Y16885D01*
X181260Y19060D02*
X183740Y19060D01*
X183740Y21235D02*
X181260Y21235D01*
X181260Y23410D02*
X183740Y23410D01*
X178740Y6010D02*
X176260Y6010D01*
X176260Y24490D01*
X178740Y24490D01*
X178740Y6010D01*
X178740Y8185D02*
X176260Y8185D01*
X176260Y10360D02*
X178740Y10360D01*
X178740Y12535D02*
X176260Y12535D01*
X176260Y14710D02*
X178740Y14710D01*
X178740Y16885D02*
X176260Y16885D01*
X176260Y19060D02*
X178740Y19060D01*
X178740Y21235D02*
X176260Y21235D01*
X176260Y23410D02*
X178740Y23410D01*
X173740Y6010D02*
X171260Y6010D01*
X171260Y24490D01*
X173740Y24490D01*
X173740Y6010D01*
X173740Y8185D02*
X171260Y8185D01*
X171260Y10360D02*
X173740Y10360D01*
X173740Y12535D02*
X171260Y12535D01*
X171260Y14710D02*
X173740Y14710D01*
X173740Y16885D02*
X171260Y16885D01*
X171260Y19060D02*
X173740Y19060D01*
X173740Y21235D02*
X171260Y21235D01*
X171260Y23410D02*
X173740Y23410D01*
X168740Y6010D02*
X166260Y6010D01*
X166260Y24490D01*
X168740Y24490D01*
X168740Y6010D01*
X168740Y8185D02*
X166260Y8185D01*
X166260Y10360D02*
X168740Y10360D01*
X168740Y12535D02*
X166260Y12535D01*
X166260Y14710D02*
X168740Y14710D01*
X168740Y16885D02*
X166260Y16885D01*
X166260Y19060D02*
X168740Y19060D01*
X168740Y21235D02*
X166260Y21235D01*
X166260Y23410D02*
X168740Y23410D01*
X163740Y6010D02*
X161260Y6010D01*
X161260Y24490D01*
X163740Y24490D01*
X163740Y6010D01*
X163740Y8185D02*
X161260Y8185D01*
X161260Y10360D02*
X163740Y10360D01*
X163740Y12535D02*
X161260Y12535D01*
X161260Y14710D02*
X163740Y14710D01*
X163740Y16885D02*
X161260Y16885D01*
X161260Y19060D02*
X163740Y19060D01*
X163740Y21235D02*
X161260Y21235D01*
X161260Y23410D02*
X163740Y23410D01*
X158740Y6010D02*
X156260Y6010D01*
X156260Y24490D01*
X158740Y24490D01*
X158740Y6010D01*
X158740Y8185D02*
X156260Y8185D01*
X156260Y10360D02*
X158740Y10360D01*
X158740Y12535D02*
X156260Y12535D01*
X156260Y14710D02*
X158740Y14710D01*
X158740Y16885D02*
X156260Y16885D01*
X156260Y19060D02*
X158740Y19060D01*
X158740Y21235D02*
X156260Y21235D01*
X156260Y23410D02*
X158740Y23410D01*
X153740Y6010D02*
X151260Y6010D01*
X151260Y24490D01*
X153740Y24490D01*
X153740Y6010D01*
X153740Y8185D02*
X151260Y8185D01*
X151260Y10360D02*
X153740Y10360D01*
X153740Y12535D02*
X151260Y12535D01*
X151260Y14710D02*
X153740Y14710D01*
X153740Y16885D02*
X151260Y16885D01*
X151260Y19060D02*
X153740Y19060D01*
X153740Y21235D02*
X151260Y21235D01*
X151260Y23410D02*
X153740Y23410D01*
X148740Y6010D02*
X146260Y6010D01*
X146260Y24490D01*
X148740Y24490D01*
X148740Y6010D01*
X148740Y8185D02*
X146260Y8185D01*
X146260Y10360D02*
X148740Y10360D01*
X148740Y12535D02*
X146260Y12535D01*
X146260Y14710D02*
X148740Y14710D01*
X148740Y16885D02*
X146260Y16885D01*
X146260Y19060D02*
X148740Y19060D01*
X148740Y21235D02*
X146260Y21235D01*
X146260Y23410D02*
X148740Y23410D01*
X143740Y6010D02*
X141260Y6010D01*
X141260Y24490D01*
X143740Y24490D01*
X143740Y6010D01*
X143740Y8185D02*
X141260Y8185D01*
X141260Y10360D02*
X143740Y10360D01*
X143740Y12535D02*
X141260Y12535D01*
X141260Y14710D02*
X143740Y14710D01*
X143740Y16885D02*
X141260Y16885D01*
X141260Y19060D02*
X143740Y19060D01*
X143740Y21235D02*
X141260Y21235D01*
X141260Y23410D02*
X143740Y23410D01*
X138740Y6010D02*
X136260Y6010D01*
X136260Y24490D01*
X138740Y24490D01*
X138740Y6010D01*
X138740Y8185D02*
X136260Y8185D01*
X136260Y10360D02*
X138740Y10360D01*
X138740Y12535D02*
X136260Y12535D01*
X136260Y14710D02*
X138740Y14710D01*
X138740Y16885D02*
X136260Y16885D01*
X136260Y19060D02*
X138740Y19060D01*
X138740Y21235D02*
X136260Y21235D01*
X136260Y23410D02*
X138740Y23410D01*
X133740Y6010D02*
X131260Y6010D01*
X131260Y24490D01*
X133740Y24490D01*
X133740Y6010D01*
X133740Y8185D02*
X131260Y8185D01*
X131260Y10360D02*
X133740Y10360D01*
X133740Y12535D02*
X131260Y12535D01*
X131260Y14710D02*
X133740Y14710D01*
X133740Y16885D02*
X131260Y16885D01*
X131260Y19060D02*
X133740Y19060D01*
X133740Y21235D02*
X131260Y21235D01*
X131260Y23410D02*
X133740Y23410D01*
X128740Y6010D02*
X126260Y6010D01*
X126260Y24490D01*
X128740Y24490D01*
X128740Y6010D01*
X128740Y8185D02*
X126260Y8185D01*
X126260Y10360D02*
X128740Y10360D01*
X128740Y12535D02*
X126260Y12535D01*
X126260Y14710D02*
X128740Y14710D01*
X128740Y16885D02*
X126260Y16885D01*
X126260Y19060D02*
X128740Y19060D01*
X128740Y21235D02*
X126260Y21235D01*
X126260Y23410D02*
X128740Y23410D01*
X123740Y6010D02*
X121260Y6010D01*
X121260Y24490D01*
X123740Y24490D01*
X123740Y6010D01*
X123740Y8185D02*
X121260Y8185D01*
X121260Y10360D02*
X123740Y10360D01*
X123740Y12535D02*
X121260Y12535D01*
X121260Y14710D02*
X123740Y14710D01*
X123740Y16885D02*
X121260Y16885D01*
X121260Y19060D02*
X123740Y19060D01*
X123740Y21235D02*
X121260Y21235D01*
X121260Y23410D02*
X123740Y23410D01*
X118740Y6010D02*
X116260Y6010D01*
X116260Y24490D01*
X118740Y24490D01*
X118740Y6010D01*
X118740Y8185D02*
X116260Y8185D01*
X116260Y10360D02*
X118740Y10360D01*
X118740Y12535D02*
X116260Y12535D01*
X116260Y14710D02*
X118740Y14710D01*
X118740Y16885D02*
X116260Y16885D01*
X116260Y19060D02*
X118740Y19060D01*
X118740Y21235D02*
X116260Y21235D01*
X116260Y23410D02*
X118740Y23410D01*
X113740Y6010D02*
X111260Y6010D01*
X111260Y24490D01*
X113740Y24490D01*
X113740Y6010D01*
X113740Y8185D02*
X111260Y8185D01*
X111260Y10360D02*
X113740Y10360D01*
X113740Y12535D02*
X111260Y12535D01*
X111260Y14710D02*
X113740Y14710D01*
X113740Y16885D02*
X111260Y16885D01*
X111260Y19060D02*
X113740Y19060D01*
X113740Y21235D02*
X111260Y21235D01*
X111260Y23410D02*
X113740Y23410D01*
X108740Y6010D02*
X106260Y6010D01*
X106260Y24490D01*
X108740Y24490D01*
X108740Y6010D01*
X108740Y8185D02*
X106260Y8185D01*
X106260Y10360D02*
X108740Y10360D01*
X108740Y12535D02*
X106260Y12535D01*
X106260Y14710D02*
X108740Y14710D01*
X108740Y16885D02*
X106260Y16885D01*
X106260Y19060D02*
X108740Y19060D01*
X108740Y21235D02*
X106260Y21235D01*
X106260Y23410D02*
X108740Y23410D01*
X103740Y6010D02*
X101260Y6010D01*
X101260Y24490D01*
X103740Y24490D01*
X103740Y6010D01*
X103740Y8185D02*
X101260Y8185D01*
X101260Y10360D02*
X103740Y10360D01*
X103740Y12535D02*
X101260Y12535D01*
X101260Y14710D02*
X103740Y14710D01*
X103740Y16885D02*
X101260Y16885D01*
X101260Y19060D02*
X103740Y19060D01*
X103740Y21235D02*
X101260Y21235D01*
X101260Y23410D02*
X103740Y23410D01*
X98740Y6010D02*
X96260Y6010D01*
X96260Y24490D01*
X98740Y24490D01*
X98740Y6010D01*
X98740Y8185D02*
X96260Y8185D01*
X96260Y10360D02*
X98740Y10360D01*
X98740Y12535D02*
X96260Y12535D01*
X96260Y14710D02*
X98740Y14710D01*
X98740Y16885D02*
X96260Y16885D01*
X96260Y19060D02*
X98740Y19060D01*
X98740Y21235D02*
X96260Y21235D01*
X96260Y23410D02*
X98740Y23410D01*
D19*
X367500Y461000D03*
X367500Y419000D03*
X354500Y440000D03*
X7500Y419000D03*
X7500Y461000D03*
X20500Y440000D03*
D15*
X19000Y240000D03*
X19000Y265400D03*
X19000Y290800D03*
X19000Y316200D03*
D12*
X232156Y636411D02*
X232156Y642003D01*
X243844Y642003D01*
X243844Y636411D01*
X232156Y636411D01*
X232156Y638580D02*
X243844Y638580D01*
X243844Y640749D02*
X232156Y640749D01*
X232156Y631589D02*
X232156Y625997D01*
X232156Y631589D02*
X243844Y631589D01*
X243844Y625997D01*
X232156Y625997D01*
X232156Y628166D02*
X243844Y628166D01*
X243844Y630335D02*
X232156Y630335D01*
D10*
X719851Y85603D02*
X719851Y80269D01*
X708167Y80269D01*
X708167Y85603D01*
X719851Y85603D01*
X719851Y82441D02*
X708167Y82441D01*
X708167Y84613D02*
X719851Y84613D01*
X719851Y88397D02*
X719851Y93731D01*
X719851Y88397D02*
X708167Y88397D01*
X708167Y93731D01*
X719851Y93731D01*
X719851Y90569D02*
X708167Y90569D01*
X708167Y92741D02*
X719851Y92741D01*
D11*
X708909Y603450D03*
X651109Y603450D03*
D12*
X731420Y625844D02*
X737012Y625844D01*
X737012Y614156D01*
X731420Y614156D01*
X731420Y625844D01*
X731420Y616325D02*
X737012Y616325D01*
X737012Y618494D02*
X731420Y618494D01*
X731420Y620663D02*
X737012Y620663D01*
X737012Y622832D02*
X731420Y622832D01*
X731420Y625001D02*
X737012Y625001D01*
X726598Y625844D02*
X721006Y625844D01*
X726598Y625844D02*
X726598Y614156D01*
X721006Y614156D01*
X721006Y625844D01*
X721006Y616325D02*
X726598Y616325D01*
X726598Y618494D02*
X721006Y618494D01*
X721006Y620663D02*
X726598Y620663D01*
X726598Y622832D02*
X721006Y622832D01*
X721006Y625001D02*
X726598Y625001D01*
D13*
X580009Y510300D03*
D14*
X750009Y45000D03*
X385009Y645000D03*
D10*
X471167Y89747D02*
X471167Y84413D01*
X471167Y89747D02*
X482851Y89747D01*
X482851Y84413D01*
X471167Y84413D01*
X471167Y86585D02*
X482851Y86585D01*
X482851Y88757D02*
X471167Y88757D01*
X471167Y79587D02*
X471167Y74253D01*
X471167Y79587D02*
X482851Y79587D01*
X482851Y74253D01*
X471167Y74253D01*
X471167Y76425D02*
X482851Y76425D01*
X482851Y78597D02*
X471167Y78597D01*
D15*
X477009Y94700D03*
X477009Y69300D03*
D10*
X624406Y235842D02*
X629740Y235842D01*
X629740Y224158D01*
X624406Y224158D01*
X624406Y235842D01*
X624406Y226330D02*
X629740Y226330D01*
X629740Y228502D02*
X624406Y228502D01*
X624406Y230674D02*
X629740Y230674D01*
X629740Y232846D02*
X624406Y232846D01*
X624406Y235018D02*
X629740Y235018D01*
X621612Y235842D02*
X616278Y235842D01*
X621612Y235842D02*
X621612Y224158D01*
X616278Y224158D01*
X616278Y235842D01*
X616278Y226330D02*
X621612Y226330D01*
X621612Y228502D02*
X616278Y228502D01*
X616278Y230674D02*
X621612Y230674D01*
X621612Y232846D02*
X616278Y232846D01*
X616278Y235018D02*
X621612Y235018D01*
D12*
X534012Y636844D02*
X528420Y636844D01*
X534012Y636844D02*
X534012Y625156D01*
X528420Y625156D01*
X528420Y636844D01*
X528420Y627325D02*
X534012Y627325D01*
X534012Y629494D02*
X528420Y629494D01*
X528420Y631663D02*
X534012Y631663D01*
X534012Y633832D02*
X528420Y633832D01*
X528420Y636001D02*
X534012Y636001D01*
X523598Y636844D02*
X518006Y636844D01*
X523598Y636844D02*
X523598Y625156D01*
X518006Y625156D01*
X518006Y636844D01*
X518006Y627325D02*
X523598Y627325D01*
X523598Y629494D02*
X518006Y629494D01*
X518006Y631663D02*
X523598Y631663D01*
X523598Y633832D02*
X518006Y633832D01*
X518006Y636001D02*
X523598Y636001D01*
X528420Y602844D02*
X534012Y602844D01*
X534012Y591156D01*
X528420Y591156D01*
X528420Y602844D01*
X528420Y593325D02*
X534012Y593325D01*
X534012Y595494D02*
X528420Y595494D01*
X528420Y597663D02*
X534012Y597663D01*
X534012Y599832D02*
X528420Y599832D01*
X528420Y602001D02*
X534012Y602001D01*
X523598Y602844D02*
X518006Y602844D01*
X523598Y602844D02*
X523598Y591156D01*
X518006Y591156D01*
X518006Y602844D01*
X518006Y593325D02*
X523598Y593325D01*
X523598Y595494D02*
X518006Y595494D01*
X518006Y597663D02*
X523598Y597663D01*
X523598Y599832D02*
X518006Y599832D01*
X518006Y602001D02*
X523598Y602001D01*
X528420Y567844D02*
X534012Y567844D01*
X534012Y556156D01*
X528420Y556156D01*
X528420Y567844D01*
X528420Y558325D02*
X534012Y558325D01*
X534012Y560494D02*
X528420Y560494D01*
X528420Y562663D02*
X534012Y562663D01*
X534012Y564832D02*
X528420Y564832D01*
X528420Y567001D02*
X534012Y567001D01*
X523598Y567844D02*
X518006Y567844D01*
X523598Y567844D02*
X523598Y556156D01*
X518006Y556156D01*
X518006Y567844D01*
X518006Y558325D02*
X523598Y558325D01*
X523598Y560494D02*
X518006Y560494D01*
X518006Y562663D02*
X523598Y562663D01*
X523598Y564832D02*
X518006Y564832D01*
X518006Y567001D02*
X523598Y567001D01*
D16*
X680009Y177500D03*
D17*
X480009Y177500D03*
D18*
X656269Y6010D02*
X658749Y6010D01*
X656269Y6010D02*
X656269Y24490D01*
X658749Y24490D01*
X658749Y6010D01*
X658749Y8185D02*
X656269Y8185D01*
X656269Y10360D02*
X658749Y10360D01*
X658749Y12535D02*
X656269Y12535D01*
X656269Y14710D02*
X658749Y14710D01*
X658749Y16885D02*
X656269Y16885D01*
X656269Y19060D02*
X658749Y19060D01*
X658749Y21235D02*
X656269Y21235D01*
X656269Y23410D02*
X658749Y23410D01*
X653749Y6010D02*
X651269Y6010D01*
X651269Y24490D01*
X653749Y24490D01*
X653749Y6010D01*
X653749Y8185D02*
X651269Y8185D01*
X651269Y10360D02*
X653749Y10360D01*
X653749Y12535D02*
X651269Y12535D01*
X651269Y14710D02*
X653749Y14710D01*
X653749Y16885D02*
X651269Y16885D01*
X651269Y19060D02*
X653749Y19060D01*
X653749Y21235D02*
X651269Y21235D01*
X651269Y23410D02*
X653749Y23410D01*
X648749Y6010D02*
X646269Y6010D01*
X646269Y24490D01*
X648749Y24490D01*
X648749Y6010D01*
X648749Y8185D02*
X646269Y8185D01*
X646269Y10360D02*
X648749Y10360D01*
X648749Y12535D02*
X646269Y12535D01*
X646269Y14710D02*
X648749Y14710D01*
X648749Y16885D02*
X646269Y16885D01*
X646269Y19060D02*
X648749Y19060D01*
X648749Y21235D02*
X646269Y21235D01*
X646269Y23410D02*
X648749Y23410D01*
X643749Y6010D02*
X641269Y6010D01*
X641269Y24490D01*
X643749Y24490D01*
X643749Y6010D01*
X643749Y8185D02*
X641269Y8185D01*
X641269Y10360D02*
X643749Y10360D01*
X643749Y12535D02*
X641269Y12535D01*
X641269Y14710D02*
X643749Y14710D01*
X643749Y16885D02*
X641269Y16885D01*
X641269Y19060D02*
X643749Y19060D01*
X643749Y21235D02*
X641269Y21235D01*
X641269Y23410D02*
X643749Y23410D01*
X638749Y6010D02*
X636269Y6010D01*
X636269Y24490D01*
X638749Y24490D01*
X638749Y6010D01*
X638749Y8185D02*
X636269Y8185D01*
X636269Y10360D02*
X638749Y10360D01*
X638749Y12535D02*
X636269Y12535D01*
X636269Y14710D02*
X638749Y14710D01*
X638749Y16885D02*
X636269Y16885D01*
X636269Y19060D02*
X638749Y19060D01*
X638749Y21235D02*
X636269Y21235D01*
X636269Y23410D02*
X638749Y23410D01*
X633749Y6010D02*
X631269Y6010D01*
X631269Y24490D01*
X633749Y24490D01*
X633749Y6010D01*
X633749Y8185D02*
X631269Y8185D01*
X631269Y10360D02*
X633749Y10360D01*
X633749Y12535D02*
X631269Y12535D01*
X631269Y14710D02*
X633749Y14710D01*
X633749Y16885D02*
X631269Y16885D01*
X631269Y19060D02*
X633749Y19060D01*
X633749Y21235D02*
X631269Y21235D01*
X631269Y23410D02*
X633749Y23410D01*
X628749Y6010D02*
X626269Y6010D01*
X626269Y24490D01*
X628749Y24490D01*
X628749Y6010D01*
X628749Y8185D02*
X626269Y8185D01*
X626269Y10360D02*
X628749Y10360D01*
X628749Y12535D02*
X626269Y12535D01*
X626269Y14710D02*
X628749Y14710D01*
X628749Y16885D02*
X626269Y16885D01*
X626269Y19060D02*
X628749Y19060D01*
X628749Y21235D02*
X626269Y21235D01*
X626269Y23410D02*
X628749Y23410D01*
X623749Y6010D02*
X621269Y6010D01*
X621269Y24490D01*
X623749Y24490D01*
X623749Y6010D01*
X623749Y8185D02*
X621269Y8185D01*
X621269Y10360D02*
X623749Y10360D01*
X623749Y12535D02*
X621269Y12535D01*
X621269Y14710D02*
X623749Y14710D01*
X623749Y16885D02*
X621269Y16885D01*
X621269Y19060D02*
X623749Y19060D01*
X623749Y21235D02*
X621269Y21235D01*
X621269Y23410D02*
X623749Y23410D01*
X618749Y6010D02*
X616269Y6010D01*
X616269Y24490D01*
X618749Y24490D01*
X618749Y6010D01*
X618749Y8185D02*
X616269Y8185D01*
X616269Y10360D02*
X618749Y10360D01*
X618749Y12535D02*
X616269Y12535D01*
X616269Y14710D02*
X618749Y14710D01*
X618749Y16885D02*
X616269Y16885D01*
X616269Y19060D02*
X618749Y19060D01*
X618749Y21235D02*
X616269Y21235D01*
X616269Y23410D02*
X618749Y23410D01*
X613749Y6010D02*
X611269Y6010D01*
X611269Y24490D01*
X613749Y24490D01*
X613749Y6010D01*
X613749Y8185D02*
X611269Y8185D01*
X611269Y10360D02*
X613749Y10360D01*
X613749Y12535D02*
X611269Y12535D01*
X611269Y14710D02*
X613749Y14710D01*
X613749Y16885D02*
X611269Y16885D01*
X611269Y19060D02*
X613749Y19060D01*
X613749Y21235D02*
X611269Y21235D01*
X611269Y23410D02*
X613749Y23410D01*
X608749Y6010D02*
X606269Y6010D01*
X606269Y24490D01*
X608749Y24490D01*
X608749Y6010D01*
X608749Y8185D02*
X606269Y8185D01*
X606269Y10360D02*
X608749Y10360D01*
X608749Y12535D02*
X606269Y12535D01*
X606269Y14710D02*
X608749Y14710D01*
X608749Y16885D02*
X606269Y16885D01*
X606269Y19060D02*
X608749Y19060D01*
X608749Y21235D02*
X606269Y21235D01*
X606269Y23410D02*
X608749Y23410D01*
X583749Y6010D02*
X581269Y6010D01*
X581269Y24490D01*
X583749Y24490D01*
X583749Y6010D01*
X583749Y8185D02*
X581269Y8185D01*
X581269Y10360D02*
X583749Y10360D01*
X583749Y12535D02*
X581269Y12535D01*
X581269Y14710D02*
X583749Y14710D01*
X583749Y16885D02*
X581269Y16885D01*
X581269Y19060D02*
X583749Y19060D01*
X583749Y21235D02*
X581269Y21235D01*
X581269Y23410D02*
X583749Y23410D01*
X578749Y6010D02*
X576269Y6010D01*
X576269Y24490D01*
X578749Y24490D01*
X578749Y6010D01*
X578749Y8185D02*
X576269Y8185D01*
X576269Y10360D02*
X578749Y10360D01*
X578749Y12535D02*
X576269Y12535D01*
X576269Y14710D02*
X578749Y14710D01*
X578749Y16885D02*
X576269Y16885D01*
X576269Y19060D02*
X578749Y19060D01*
X578749Y21235D02*
X576269Y21235D01*
X576269Y23410D02*
X578749Y23410D01*
X573749Y6010D02*
X571269Y6010D01*
X571269Y24490D01*
X573749Y24490D01*
X573749Y6010D01*
X573749Y8185D02*
X571269Y8185D01*
X571269Y10360D02*
X573749Y10360D01*
X573749Y12535D02*
X571269Y12535D01*
X571269Y14710D02*
X573749Y14710D01*
X573749Y16885D02*
X571269Y16885D01*
X571269Y19060D02*
X573749Y19060D01*
X573749Y21235D02*
X571269Y21235D01*
X571269Y23410D02*
X573749Y23410D01*
X568749Y6010D02*
X566269Y6010D01*
X566269Y24490D01*
X568749Y24490D01*
X568749Y6010D01*
X568749Y8185D02*
X566269Y8185D01*
X566269Y10360D02*
X568749Y10360D01*
X568749Y12535D02*
X566269Y12535D01*
X566269Y14710D02*
X568749Y14710D01*
X568749Y16885D02*
X566269Y16885D01*
X566269Y19060D02*
X568749Y19060D01*
X568749Y21235D02*
X566269Y21235D01*
X566269Y23410D02*
X568749Y23410D01*
X563749Y6010D02*
X561269Y6010D01*
X561269Y24490D01*
X563749Y24490D01*
X563749Y6010D01*
X563749Y8185D02*
X561269Y8185D01*
X561269Y10360D02*
X563749Y10360D01*
X563749Y12535D02*
X561269Y12535D01*
X561269Y14710D02*
X563749Y14710D01*
X563749Y16885D02*
X561269Y16885D01*
X561269Y19060D02*
X563749Y19060D01*
X563749Y21235D02*
X561269Y21235D01*
X561269Y23410D02*
X563749Y23410D01*
X558749Y6010D02*
X556269Y6010D01*
X556269Y24490D01*
X558749Y24490D01*
X558749Y6010D01*
X558749Y8185D02*
X556269Y8185D01*
X556269Y10360D02*
X558749Y10360D01*
X558749Y12535D02*
X556269Y12535D01*
X556269Y14710D02*
X558749Y14710D01*
X558749Y16885D02*
X556269Y16885D01*
X556269Y19060D02*
X558749Y19060D01*
X558749Y21235D02*
X556269Y21235D01*
X556269Y23410D02*
X558749Y23410D01*
X553749Y6010D02*
X551269Y6010D01*
X551269Y24490D01*
X553749Y24490D01*
X553749Y6010D01*
X553749Y8185D02*
X551269Y8185D01*
X551269Y10360D02*
X553749Y10360D01*
X553749Y12535D02*
X551269Y12535D01*
X551269Y14710D02*
X553749Y14710D01*
X553749Y16885D02*
X551269Y16885D01*
X551269Y19060D02*
X553749Y19060D01*
X553749Y21235D02*
X551269Y21235D01*
X551269Y23410D02*
X553749Y23410D01*
X548749Y6010D02*
X546269Y6010D01*
X546269Y24490D01*
X548749Y24490D01*
X548749Y6010D01*
X548749Y8185D02*
X546269Y8185D01*
X546269Y10360D02*
X548749Y10360D01*
X548749Y12535D02*
X546269Y12535D01*
X546269Y14710D02*
X548749Y14710D01*
X548749Y16885D02*
X546269Y16885D01*
X546269Y19060D02*
X548749Y19060D01*
X548749Y21235D02*
X546269Y21235D01*
X546269Y23410D02*
X548749Y23410D01*
X543749Y6010D02*
X541269Y6010D01*
X541269Y24490D01*
X543749Y24490D01*
X543749Y6010D01*
X543749Y8185D02*
X541269Y8185D01*
X541269Y10360D02*
X543749Y10360D01*
X543749Y12535D02*
X541269Y12535D01*
X541269Y14710D02*
X543749Y14710D01*
X543749Y16885D02*
X541269Y16885D01*
X541269Y19060D02*
X543749Y19060D01*
X543749Y21235D02*
X541269Y21235D01*
X541269Y23410D02*
X543749Y23410D01*
X538749Y6010D02*
X536269Y6010D01*
X536269Y24490D01*
X538749Y24490D01*
X538749Y6010D01*
X538749Y8185D02*
X536269Y8185D01*
X536269Y10360D02*
X538749Y10360D01*
X538749Y12535D02*
X536269Y12535D01*
X536269Y14710D02*
X538749Y14710D01*
X538749Y16885D02*
X536269Y16885D01*
X536269Y19060D02*
X538749Y19060D01*
X538749Y21235D02*
X536269Y21235D01*
X536269Y23410D02*
X538749Y23410D01*
X533749Y6010D02*
X531269Y6010D01*
X531269Y24490D01*
X533749Y24490D01*
X533749Y6010D01*
X533749Y8185D02*
X531269Y8185D01*
X531269Y10360D02*
X533749Y10360D01*
X533749Y12535D02*
X531269Y12535D01*
X531269Y14710D02*
X533749Y14710D01*
X533749Y16885D02*
X531269Y16885D01*
X531269Y19060D02*
X533749Y19060D01*
X533749Y21235D02*
X531269Y21235D01*
X531269Y23410D02*
X533749Y23410D01*
X528749Y6010D02*
X526269Y6010D01*
X526269Y24490D01*
X528749Y24490D01*
X528749Y6010D01*
X528749Y8185D02*
X526269Y8185D01*
X526269Y10360D02*
X528749Y10360D01*
X528749Y12535D02*
X526269Y12535D01*
X526269Y14710D02*
X528749Y14710D01*
X528749Y16885D02*
X526269Y16885D01*
X526269Y19060D02*
X528749Y19060D01*
X528749Y21235D02*
X526269Y21235D01*
X526269Y23410D02*
X528749Y23410D01*
X523749Y6010D02*
X521269Y6010D01*
X521269Y24490D01*
X523749Y24490D01*
X523749Y6010D01*
X523749Y8185D02*
X521269Y8185D01*
X521269Y10360D02*
X523749Y10360D01*
X523749Y12535D02*
X521269Y12535D01*
X521269Y14710D02*
X523749Y14710D01*
X523749Y16885D02*
X521269Y16885D01*
X521269Y19060D02*
X523749Y19060D01*
X523749Y21235D02*
X521269Y21235D01*
X521269Y23410D02*
X523749Y23410D01*
X518749Y6010D02*
X516269Y6010D01*
X516269Y24490D01*
X518749Y24490D01*
X518749Y6010D01*
X518749Y8185D02*
X516269Y8185D01*
X516269Y10360D02*
X518749Y10360D01*
X518749Y12535D02*
X516269Y12535D01*
X516269Y14710D02*
X518749Y14710D01*
X518749Y16885D02*
X516269Y16885D01*
X516269Y19060D02*
X518749Y19060D01*
X518749Y21235D02*
X516269Y21235D01*
X516269Y23410D02*
X518749Y23410D01*
X513749Y6010D02*
X511269Y6010D01*
X511269Y24490D01*
X513749Y24490D01*
X513749Y6010D01*
X513749Y8185D02*
X511269Y8185D01*
X511269Y10360D02*
X513749Y10360D01*
X513749Y12535D02*
X511269Y12535D01*
X511269Y14710D02*
X513749Y14710D01*
X513749Y16885D02*
X511269Y16885D01*
X511269Y19060D02*
X513749Y19060D01*
X513749Y21235D02*
X511269Y21235D01*
X511269Y23410D02*
X513749Y23410D01*
X508749Y6010D02*
X506269Y6010D01*
X506269Y24490D01*
X508749Y24490D01*
X508749Y6010D01*
X508749Y8185D02*
X506269Y8185D01*
X506269Y10360D02*
X508749Y10360D01*
X508749Y12535D02*
X506269Y12535D01*
X506269Y14710D02*
X508749Y14710D01*
X508749Y16885D02*
X506269Y16885D01*
X506269Y19060D02*
X508749Y19060D01*
X508749Y21235D02*
X506269Y21235D01*
X506269Y23410D02*
X508749Y23410D01*
X503749Y6010D02*
X501269Y6010D01*
X501269Y24490D01*
X503749Y24490D01*
X503749Y6010D01*
X503749Y8185D02*
X501269Y8185D01*
X501269Y10360D02*
X503749Y10360D01*
X503749Y12535D02*
X501269Y12535D01*
X501269Y14710D02*
X503749Y14710D01*
X503749Y16885D02*
X501269Y16885D01*
X501269Y19060D02*
X503749Y19060D01*
X503749Y21235D02*
X501269Y21235D01*
X501269Y23410D02*
X503749Y23410D01*
X498749Y6010D02*
X496269Y6010D01*
X496269Y24490D01*
X498749Y24490D01*
X498749Y6010D01*
X498749Y8185D02*
X496269Y8185D01*
X496269Y10360D02*
X498749Y10360D01*
X498749Y12535D02*
X496269Y12535D01*
X496269Y14710D02*
X498749Y14710D01*
X498749Y16885D02*
X496269Y16885D01*
X496269Y19060D02*
X498749Y19060D01*
X498749Y21235D02*
X496269Y21235D01*
X496269Y23410D02*
X498749Y23410D01*
X493749Y6010D02*
X491269Y6010D01*
X491269Y24490D01*
X493749Y24490D01*
X493749Y6010D01*
X493749Y8185D02*
X491269Y8185D01*
X491269Y10360D02*
X493749Y10360D01*
X493749Y12535D02*
X491269Y12535D01*
X491269Y14710D02*
X493749Y14710D01*
X493749Y16885D02*
X491269Y16885D01*
X491269Y19060D02*
X493749Y19060D01*
X493749Y21235D02*
X491269Y21235D01*
X491269Y23410D02*
X493749Y23410D01*
X488749Y6010D02*
X486269Y6010D01*
X486269Y24490D01*
X488749Y24490D01*
X488749Y6010D01*
X488749Y8185D02*
X486269Y8185D01*
X486269Y10360D02*
X488749Y10360D01*
X488749Y12535D02*
X486269Y12535D01*
X486269Y14710D02*
X488749Y14710D01*
X488749Y16885D02*
X486269Y16885D01*
X486269Y19060D02*
X488749Y19060D01*
X488749Y21235D02*
X486269Y21235D01*
X486269Y23410D02*
X488749Y23410D01*
X483749Y6010D02*
X481269Y6010D01*
X481269Y24490D01*
X483749Y24490D01*
X483749Y6010D01*
X483749Y8185D02*
X481269Y8185D01*
X481269Y10360D02*
X483749Y10360D01*
X483749Y12535D02*
X481269Y12535D01*
X481269Y14710D02*
X483749Y14710D01*
X483749Y16885D02*
X481269Y16885D01*
X481269Y19060D02*
X483749Y19060D01*
X483749Y21235D02*
X481269Y21235D01*
X481269Y23410D02*
X483749Y23410D01*
X478749Y6010D02*
X476269Y6010D01*
X476269Y24490D01*
X478749Y24490D01*
X478749Y6010D01*
X478749Y8185D02*
X476269Y8185D01*
X476269Y10360D02*
X478749Y10360D01*
X478749Y12535D02*
X476269Y12535D01*
X476269Y14710D02*
X478749Y14710D01*
X478749Y16885D02*
X476269Y16885D01*
X476269Y19060D02*
X478749Y19060D01*
X478749Y21235D02*
X476269Y21235D01*
X476269Y23410D02*
X478749Y23410D01*
D19*
X747509Y461000D03*
X747509Y419000D03*
X734509Y440000D03*
X387509Y419000D03*
X387509Y461000D03*
X400509Y440000D03*
D15*
X399009Y240000D03*
X399009Y265400D03*
X399009Y290800D03*
X399009Y316200D03*
D12*
X612165Y636411D02*
X612165Y642003D01*
X623853Y642003D01*
X623853Y636411D01*
X612165Y636411D01*
X612165Y638580D02*
X623853Y638580D01*
X623853Y640749D02*
X612165Y640749D01*
X612165Y631589D02*
X612165Y625997D01*
X612165Y631589D02*
X623853Y631589D01*
X623853Y625997D01*
X612165Y625997D01*
X612165Y628166D02*
X623853Y628166D01*
X623853Y630335D02*
X612165Y630335D01*
D20*
X-26264Y623341D03*
X781177Y623341D03*
D21*
X-35319Y63500D02*
X-35316Y63722D01*
X-35308Y63944D01*
X-35294Y64166D01*
X-35275Y64388D01*
X-35251Y64608D01*
X-35221Y64829D01*
X-35186Y65048D01*
X-35145Y65267D01*
X-35099Y65484D01*
X-35048Y65700D01*
X-34991Y65915D01*
X-34929Y66129D01*
X-34862Y66340D01*
X-34790Y66551D01*
X-34712Y66759D01*
X-34630Y66965D01*
X-34542Y67169D01*
X-34450Y67372D01*
X-34352Y67571D01*
X-34250Y67768D01*
X-34143Y67963D01*
X-34031Y68155D01*
X-33914Y68344D01*
X-33793Y68531D01*
X-33667Y68714D01*
X-33537Y68894D01*
X-33402Y69071D01*
X-33264Y69244D01*
X-33121Y69414D01*
X-32973Y69581D01*
X-32822Y69744D01*
X-32667Y69903D01*
X-32508Y70058D01*
X-32345Y70209D01*
X-32178Y70357D01*
X-32008Y70500D01*
X-31835Y70638D01*
X-31658Y70773D01*
X-31478Y70903D01*
X-31295Y71029D01*
X-31108Y71150D01*
X-30919Y71267D01*
X-30727Y71379D01*
X-30532Y71486D01*
X-30335Y71588D01*
X-30136Y71686D01*
X-29933Y71778D01*
X-29729Y71866D01*
X-29523Y71948D01*
X-29315Y72026D01*
X-29104Y72098D01*
X-28893Y72165D01*
X-28679Y72227D01*
X-28464Y72284D01*
X-28248Y72335D01*
X-28031Y72381D01*
X-27812Y72422D01*
X-27593Y72457D01*
X-27372Y72487D01*
X-27152Y72511D01*
X-26930Y72530D01*
X-26708Y72544D01*
X-26486Y72552D01*
X-26264Y72555D01*
X-26042Y72552D01*
X-25820Y72544D01*
X-25598Y72530D01*
X-25376Y72511D01*
X-25156Y72487D01*
X-24935Y72457D01*
X-24716Y72422D01*
X-24497Y72381D01*
X-24280Y72335D01*
X-24064Y72284D01*
X-23849Y72227D01*
X-23635Y72165D01*
X-23424Y72098D01*
X-23213Y72026D01*
X-23005Y71948D01*
X-22799Y71866D01*
X-22595Y71778D01*
X-22392Y71686D01*
X-22193Y71588D01*
X-21996Y71486D01*
X-21801Y71379D01*
X-21609Y71267D01*
X-21420Y71150D01*
X-21233Y71029D01*
X-21050Y70903D01*
X-20870Y70773D01*
X-20693Y70638D01*
X-20520Y70500D01*
X-20350Y70357D01*
X-20183Y70209D01*
X-20020Y70058D01*
X-19861Y69903D01*
X-19706Y69744D01*
X-19555Y69581D01*
X-19407Y69414D01*
X-19264Y69244D01*
X-19126Y69071D01*
X-18991Y68894D01*
X-18861Y68714D01*
X-18735Y68531D01*
X-18614Y68344D01*
X-18497Y68155D01*
X-18385Y67963D01*
X-18278Y67768D01*
X-18176Y67571D01*
X-18078Y67372D01*
X-17986Y67169D01*
X-17898Y66965D01*
X-17816Y66759D01*
X-17738Y66551D01*
X-17666Y66340D01*
X-17599Y66129D01*
X-17537Y65915D01*
X-17480Y65700D01*
X-17429Y65484D01*
X-17383Y65267D01*
X-17342Y65048D01*
X-17307Y64829D01*
X-17277Y64608D01*
X-17253Y64388D01*
X-17234Y64166D01*
X-17220Y63944D01*
X-17212Y63722D01*
X-17209Y63500D01*
X-17212Y63278D01*
X-17220Y63056D01*
X-17234Y62834D01*
X-17253Y62612D01*
X-17277Y62392D01*
X-17307Y62171D01*
X-17342Y61952D01*
X-17383Y61733D01*
X-17429Y61516D01*
X-17480Y61300D01*
X-17537Y61085D01*
X-17599Y60871D01*
X-17666Y60660D01*
X-17738Y60449D01*
X-17816Y60241D01*
X-17898Y60035D01*
X-17986Y59831D01*
X-18078Y59628D01*
X-18176Y59429D01*
X-18278Y59232D01*
X-18385Y59037D01*
X-18497Y58845D01*
X-18614Y58656D01*
X-18735Y58469D01*
X-18861Y58286D01*
X-18991Y58106D01*
X-19126Y57929D01*
X-19264Y57756D01*
X-19407Y57586D01*
X-19555Y57419D01*
X-19706Y57256D01*
X-19861Y57097D01*
X-20020Y56942D01*
X-20183Y56791D01*
X-20350Y56643D01*
X-20520Y56500D01*
X-20693Y56362D01*
X-20870Y56227D01*
X-21050Y56097D01*
X-21233Y55971D01*
X-21420Y55850D01*
X-21609Y55733D01*
X-21801Y55621D01*
X-21996Y55514D01*
X-22193Y55412D01*
X-22392Y55314D01*
X-22595Y55222D01*
X-22799Y55134D01*
X-23005Y55052D01*
X-23213Y54974D01*
X-23424Y54902D01*
X-23635Y54835D01*
X-23849Y54773D01*
X-24064Y54716D01*
X-24280Y54665D01*
X-24497Y54619D01*
X-24716Y54578D01*
X-24935Y54543D01*
X-25156Y54513D01*
X-25376Y54489D01*
X-25598Y54470D01*
X-25820Y54456D01*
X-26042Y54448D01*
X-26264Y54445D01*
X-26486Y54448D01*
X-26708Y54456D01*
X-26930Y54470D01*
X-27152Y54489D01*
X-27372Y54513D01*
X-27593Y54543D01*
X-27812Y54578D01*
X-28031Y54619D01*
X-28248Y54665D01*
X-28464Y54716D01*
X-28679Y54773D01*
X-28893Y54835D01*
X-29104Y54902D01*
X-29315Y54974D01*
X-29523Y55052D01*
X-29729Y55134D01*
X-29933Y55222D01*
X-30136Y55314D01*
X-30335Y55412D01*
X-30532Y55514D01*
X-30727Y55621D01*
X-30919Y55733D01*
X-31108Y55850D01*
X-31295Y55971D01*
X-31478Y56097D01*
X-31658Y56227D01*
X-31835Y56362D01*
X-32008Y56500D01*
X-32178Y56643D01*
X-32345Y56791D01*
X-32508Y56942D01*
X-32667Y57097D01*
X-32822Y57256D01*
X-32973Y57419D01*
X-33121Y57586D01*
X-33264Y57756D01*
X-33402Y57929D01*
X-33537Y58106D01*
X-33667Y58286D01*
X-33793Y58469D01*
X-33914Y58656D01*
X-34031Y58845D01*
X-34143Y59037D01*
X-34250Y59232D01*
X-34352Y59429D01*
X-34450Y59628D01*
X-34542Y59831D01*
X-34630Y60035D01*
X-34712Y60241D01*
X-34790Y60449D01*
X-34862Y60660D01*
X-34929Y60871D01*
X-34991Y61085D01*
X-35048Y61300D01*
X-35099Y61516D01*
X-35145Y61733D01*
X-35186Y61952D01*
X-35221Y62171D01*
X-35251Y62392D01*
X-35275Y62612D01*
X-35294Y62834D01*
X-35308Y63056D01*
X-35316Y63278D01*
X-35319Y63500D01*
D22*
X-26264Y63500D03*
M02*
