G04 EAGLE Gerber RS-274X export*
G75*
%MOMM*%
%FSLAX34Y34*%
%LPD*%
%INSoldermask Bottom*%
%IPPOS*%
%AMOC8*
5,1,8,0,0,1.08239X$1,22.5*%
G01*
%ADD10C,0.228600*%
%ADD11C,0.777000*%
%ADD12C,0.228344*%
%ADD13C,6.127000*%
%ADD14C,0.762000*%
%ADD15C,2.006600*%
%ADD16C,1.227000*%
%ADD17C,1.727000*%
%ADD18C,0.228959*%
%ADD19C,0.736600*%
%ADD20C,1.127000*%
%ADD21C,1.270000*%
%ADD22C,1.627000*%

G36*
X381441Y412531D02*
X381441Y412531D01*
X381450Y412535D01*
X381476Y412536D01*
X385310Y413370D01*
X385319Y413375D01*
X385344Y413380D01*
X389020Y414752D01*
X389028Y414757D01*
X389053Y414766D01*
X392496Y416647D01*
X392503Y416654D01*
X392526Y416666D01*
X395667Y419017D01*
X395673Y419025D01*
X395694Y419041D01*
X398469Y421815D01*
X398473Y421824D01*
X398492Y421842D01*
X400843Y424983D01*
X400847Y424992D01*
X400863Y425013D01*
X402743Y428457D01*
X402745Y428466D01*
X402758Y428489D01*
X404129Y432165D01*
X404130Y432175D01*
X404139Y432199D01*
X404973Y436033D01*
X404972Y436043D01*
X404978Y436069D01*
X405258Y439982D01*
X405256Y439992D01*
X405258Y440018D01*
X404978Y443931D01*
X404977Y443936D01*
X404977Y443939D01*
X404974Y443945D01*
X404973Y443967D01*
X404139Y447801D01*
X404134Y447809D01*
X404129Y447835D01*
X402758Y451511D01*
X402752Y451519D01*
X402743Y451543D01*
X400863Y454987D01*
X400856Y454994D01*
X400843Y455017D01*
X398492Y458158D01*
X398484Y458164D01*
X398469Y458185D01*
X395694Y460959D01*
X395686Y460964D01*
X395667Y460983D01*
X392526Y463334D01*
X392517Y463337D01*
X392496Y463353D01*
X389053Y465234D01*
X389043Y465236D01*
X389020Y465248D01*
X385344Y466620D01*
X385335Y466620D01*
X385310Y466630D01*
X381476Y467464D01*
X381466Y467463D01*
X381441Y467469D01*
X377527Y467749D01*
X377515Y467746D01*
X377482Y467749D01*
X373569Y467469D01*
X373559Y467465D01*
X373533Y467464D01*
X369699Y466630D01*
X369691Y466625D01*
X369665Y466620D01*
X365989Y465248D01*
X365981Y465243D01*
X365957Y465234D01*
X362513Y463353D01*
X362506Y463346D01*
X362483Y463334D01*
X359342Y460983D01*
X359336Y460975D01*
X359315Y460959D01*
X356541Y458185D01*
X356536Y458176D01*
X356517Y458158D01*
X354166Y455017D01*
X354163Y455008D01*
X354147Y454987D01*
X352266Y451543D01*
X352264Y451534D01*
X352252Y451511D01*
X350880Y447835D01*
X350880Y447825D01*
X350870Y447801D01*
X350036Y443967D01*
X350037Y443957D01*
X350031Y443931D01*
X349751Y440018D01*
X349753Y440008D01*
X349751Y439982D01*
X350031Y436069D01*
X350035Y436059D01*
X350036Y436033D01*
X350870Y432199D01*
X350875Y432191D01*
X350880Y432165D01*
X352252Y428489D01*
X352257Y428481D01*
X352266Y428457D01*
X354147Y425013D01*
X354154Y425006D01*
X354166Y424983D01*
X356517Y421842D01*
X356525Y421836D01*
X356541Y421815D01*
X359315Y419041D01*
X359324Y419036D01*
X359342Y419017D01*
X362483Y416666D01*
X362492Y416663D01*
X362513Y416647D01*
X365957Y414766D01*
X365966Y414764D01*
X365989Y414752D01*
X369665Y413380D01*
X369675Y413380D01*
X369699Y413370D01*
X373533Y412536D01*
X373543Y412537D01*
X373569Y412531D01*
X377482Y412251D01*
X377494Y412254D01*
X377527Y412251D01*
X381441Y412531D01*
G37*
G36*
X757540Y412253D02*
X757540Y412253D01*
X757543Y412253D01*
X757545Y412254D01*
X761425Y412531D01*
X761434Y412535D01*
X761460Y412536D01*
X765294Y413370D01*
X765303Y413375D01*
X765328Y413380D01*
X769004Y414752D01*
X769012Y414757D01*
X769037Y414766D01*
X772480Y416647D01*
X772487Y416654D01*
X772510Y416666D01*
X775651Y419017D01*
X775657Y419025D01*
X775678Y419041D01*
X778453Y421815D01*
X778457Y421824D01*
X778476Y421842D01*
X780827Y424983D01*
X780831Y424992D01*
X780847Y425013D01*
X782727Y428457D01*
X782729Y428466D01*
X782742Y428489D01*
X784113Y432165D01*
X784114Y432175D01*
X784123Y432199D01*
X784957Y436033D01*
X784956Y436043D01*
X784962Y436069D01*
X785242Y439982D01*
X785240Y439992D01*
X785242Y440018D01*
X784962Y443931D01*
X784961Y443936D01*
X784961Y443939D01*
X784958Y443945D01*
X784957Y443967D01*
X784123Y447801D01*
X784118Y447809D01*
X784113Y447835D01*
X782742Y451511D01*
X782736Y451519D01*
X782727Y451543D01*
X780847Y454987D01*
X780840Y454994D01*
X780827Y455017D01*
X778476Y458158D01*
X778468Y458164D01*
X778453Y458185D01*
X775678Y460959D01*
X775670Y460964D01*
X775651Y460983D01*
X772510Y463334D01*
X772501Y463337D01*
X772480Y463353D01*
X769037Y465234D01*
X769027Y465236D01*
X769004Y465248D01*
X765328Y466620D01*
X765319Y466620D01*
X765294Y466630D01*
X761460Y467464D01*
X761450Y467463D01*
X761425Y467469D01*
X757511Y467749D01*
X757506Y467748D01*
X757492Y467749D01*
X757463Y467747D01*
X757460Y467747D01*
X757458Y467746D01*
X753578Y467469D01*
X753569Y467465D01*
X753543Y467464D01*
X749709Y466630D01*
X749700Y466625D01*
X749675Y466620D01*
X745998Y465248D01*
X745991Y465243D01*
X745966Y465234D01*
X742522Y463353D01*
X742516Y463346D01*
X742492Y463334D01*
X739351Y460983D01*
X739346Y460975D01*
X739325Y460959D01*
X736550Y458185D01*
X736545Y458176D01*
X736527Y458158D01*
X734175Y455017D01*
X734172Y455008D01*
X734156Y454987D01*
X732276Y451543D01*
X732274Y451534D01*
X732261Y451511D01*
X730890Y447835D01*
X730889Y447825D01*
X730880Y447801D01*
X730046Y443967D01*
X730046Y443957D01*
X730041Y443931D01*
X729761Y440018D01*
X729763Y440008D01*
X729761Y439982D01*
X730041Y436069D01*
X730044Y436059D01*
X730046Y436033D01*
X730880Y432199D01*
X730884Y432191D01*
X730890Y432165D01*
X732261Y428489D01*
X732267Y428481D01*
X732276Y428457D01*
X734156Y425013D01*
X734163Y425006D01*
X734175Y424983D01*
X736527Y421842D01*
X736535Y421836D01*
X736550Y421815D01*
X739325Y419041D01*
X739333Y419036D01*
X739351Y419017D01*
X742492Y416666D01*
X742502Y416663D01*
X742522Y416647D01*
X745966Y414766D01*
X745975Y414764D01*
X745998Y414752D01*
X749675Y413380D01*
X749684Y413380D01*
X749709Y413370D01*
X753543Y412536D01*
X753552Y412537D01*
X753578Y412531D01*
X757492Y412251D01*
X757497Y412253D01*
X757511Y412251D01*
X757540Y412253D01*
G37*
%LPC*%
G36*
X374802Y422962D02*
X374802Y422962D01*
X372169Y423594D01*
X369669Y424630D01*
X367361Y426044D01*
X365302Y427802D01*
X363544Y429861D01*
X362130Y432169D01*
X361094Y434669D01*
X360462Y437302D01*
X360250Y440000D01*
X360462Y442698D01*
X361094Y445331D01*
X362130Y447831D01*
X363544Y450139D01*
X365302Y452198D01*
X367361Y453956D01*
X369669Y455370D01*
X372169Y456406D01*
X374802Y457038D01*
X377505Y457250D01*
X380208Y457038D01*
X382840Y456406D01*
X385341Y455370D01*
X387649Y453956D01*
X389707Y452198D01*
X391465Y450139D01*
X392879Y447831D01*
X393915Y445331D01*
X394547Y442698D01*
X394759Y440000D01*
X394547Y437302D01*
X393915Y434669D01*
X392879Y432169D01*
X391465Y429861D01*
X389707Y427802D01*
X387649Y426044D01*
X385341Y424630D01*
X382840Y423594D01*
X380208Y422962D01*
X377505Y422750D01*
X374802Y422962D01*
G37*
%LPD*%
%LPC*%
G36*
X754811Y422962D02*
X754811Y422962D01*
X752179Y423594D01*
X749678Y424630D01*
X747370Y426044D01*
X745312Y427802D01*
X743554Y429861D01*
X742140Y432169D01*
X741104Y434669D01*
X740472Y437302D01*
X740259Y440000D01*
X740472Y442698D01*
X741104Y445331D01*
X742140Y447831D01*
X743554Y450139D01*
X745312Y452198D01*
X747370Y453956D01*
X749678Y455370D01*
X752179Y456406D01*
X754811Y457038D01*
X757501Y457249D01*
X760192Y457038D01*
X762824Y456406D01*
X765325Y455370D01*
X767633Y453956D01*
X769691Y452198D01*
X771449Y450139D01*
X772863Y447831D01*
X773899Y445331D01*
X774531Y442698D01*
X774743Y440000D01*
X774531Y437302D01*
X773899Y434669D01*
X772863Y432169D01*
X771449Y429861D01*
X769691Y427802D01*
X767633Y426044D01*
X765325Y424630D01*
X762824Y423594D01*
X760192Y422962D01*
X757501Y422751D01*
X754811Y422962D01*
G37*
%LPD*%
G36*
X1431Y412531D02*
X1431Y412531D01*
X1441Y412535D01*
X1467Y412536D01*
X5301Y413370D01*
X5309Y413375D01*
X5335Y413380D01*
X9011Y414752D01*
X9019Y414757D01*
X9043Y414766D01*
X12487Y416647D01*
X12494Y416654D01*
X12517Y416666D01*
X15658Y419017D01*
X15664Y419025D01*
X15685Y419041D01*
X18459Y421815D01*
X18464Y421824D01*
X18483Y421842D01*
X20834Y424983D01*
X20837Y424992D01*
X20853Y425013D01*
X22734Y428457D01*
X22736Y428466D01*
X22748Y428489D01*
X24120Y432165D01*
X24120Y432175D01*
X24130Y432199D01*
X24964Y436033D01*
X24963Y436043D01*
X24969Y436069D01*
X25249Y439982D01*
X25247Y439992D01*
X25249Y440018D01*
X24969Y443931D01*
X24967Y443936D01*
X24968Y443939D01*
X24965Y443945D01*
X24964Y443967D01*
X24130Y447801D01*
X24125Y447809D01*
X24120Y447835D01*
X22748Y451511D01*
X22743Y451519D01*
X22734Y451543D01*
X20853Y454987D01*
X20846Y454994D01*
X20834Y455017D01*
X18483Y458158D01*
X18475Y458164D01*
X18459Y458185D01*
X15685Y460959D01*
X15676Y460964D01*
X15658Y460983D01*
X12517Y463334D01*
X12508Y463337D01*
X12487Y463353D01*
X9043Y465234D01*
X9034Y465236D01*
X9011Y465248D01*
X5335Y466620D01*
X5325Y466620D01*
X5301Y466630D01*
X1467Y467464D01*
X1457Y467463D01*
X1431Y467469D01*
X-2482Y467749D01*
X-2508Y467743D01*
X-2533Y467747D01*
X-2575Y467729D01*
X-2619Y467719D01*
X-2637Y467701D01*
X-2661Y467690D01*
X-2686Y467652D01*
X-2718Y467621D01*
X-2724Y467595D01*
X-2738Y467574D01*
X-2749Y467500D01*
X-2749Y457500D01*
X-2747Y457493D01*
X-2749Y457486D01*
X-2728Y457427D01*
X-2710Y457366D01*
X-2705Y457361D01*
X-2702Y457354D01*
X-2652Y457316D01*
X-2605Y457274D01*
X-2598Y457273D01*
X-2592Y457268D01*
X-2520Y457252D01*
X198Y457038D01*
X2831Y456406D01*
X5331Y455370D01*
X7639Y453956D01*
X9698Y452198D01*
X11456Y450139D01*
X12870Y447831D01*
X13906Y445331D01*
X14538Y442698D01*
X14750Y440000D01*
X14538Y437302D01*
X13906Y434669D01*
X12870Y432169D01*
X11456Y429861D01*
X9698Y427802D01*
X7639Y426044D01*
X5331Y424630D01*
X2831Y423594D01*
X198Y422962D01*
X-2520Y422748D01*
X-2526Y422746D01*
X-2533Y422747D01*
X-2591Y422721D01*
X-2650Y422699D01*
X-2655Y422693D01*
X-2661Y422690D01*
X-2696Y422637D01*
X-2734Y422587D01*
X-2734Y422580D01*
X-2738Y422574D01*
X-2749Y422500D01*
X-2749Y412500D01*
X-2742Y412475D01*
X-2744Y412449D01*
X-2723Y412409D01*
X-2710Y412366D01*
X-2690Y412349D01*
X-2678Y412326D01*
X-2639Y412304D01*
X-2605Y412274D01*
X-2579Y412270D01*
X-2556Y412257D01*
X-2482Y412251D01*
X1431Y412531D01*
G37*
G36*
X1137501Y412257D02*
X1137501Y412257D01*
X1137527Y412253D01*
X1137568Y412271D01*
X1137612Y412281D01*
X1137631Y412299D01*
X1137655Y412310D01*
X1137679Y412348D01*
X1137712Y412379D01*
X1137717Y412405D01*
X1137732Y412427D01*
X1137743Y412500D01*
X1137743Y422500D01*
X1137741Y422507D01*
X1137742Y422514D01*
X1137721Y422573D01*
X1137703Y422634D01*
X1137698Y422639D01*
X1137696Y422646D01*
X1137646Y422685D01*
X1137598Y422726D01*
X1137591Y422727D01*
X1137585Y422732D01*
X1137513Y422748D01*
X1134795Y422962D01*
X1132163Y423594D01*
X1129662Y424630D01*
X1127354Y426044D01*
X1125296Y427802D01*
X1123538Y429861D01*
X1122124Y432169D01*
X1121088Y434669D01*
X1120456Y437302D01*
X1120243Y440000D01*
X1120456Y442698D01*
X1121088Y445331D01*
X1122124Y447831D01*
X1123538Y450139D01*
X1125296Y452198D01*
X1127354Y453956D01*
X1129662Y455370D01*
X1132163Y456406D01*
X1134795Y457038D01*
X1137513Y457252D01*
X1137520Y457254D01*
X1137527Y457253D01*
X1137585Y457279D01*
X1137644Y457301D01*
X1137648Y457307D01*
X1137655Y457310D01*
X1137689Y457363D01*
X1137727Y457413D01*
X1137728Y457421D01*
X1137732Y457427D01*
X1137743Y457500D01*
X1137743Y467500D01*
X1137735Y467525D01*
X1137737Y467551D01*
X1137716Y467591D01*
X1137703Y467634D01*
X1137684Y467651D01*
X1137672Y467674D01*
X1137632Y467696D01*
X1137598Y467726D01*
X1137572Y467730D01*
X1137550Y467743D01*
X1137476Y467749D01*
X1133562Y467469D01*
X1133553Y467465D01*
X1133527Y467464D01*
X1129693Y466630D01*
X1129684Y466625D01*
X1129659Y466620D01*
X1125982Y465248D01*
X1125975Y465243D01*
X1125950Y465234D01*
X1122506Y463353D01*
X1122500Y463346D01*
X1122476Y463334D01*
X1119335Y460983D01*
X1119330Y460975D01*
X1119309Y460959D01*
X1116534Y458185D01*
X1116529Y458176D01*
X1116511Y458158D01*
X1114159Y455017D01*
X1114156Y455008D01*
X1114140Y454987D01*
X1112260Y451543D01*
X1112258Y451534D01*
X1112245Y451511D01*
X1110874Y447835D01*
X1110873Y447825D01*
X1110864Y447801D01*
X1110030Y443967D01*
X1110030Y443957D01*
X1110025Y443931D01*
X1109745Y440018D01*
X1109747Y440008D01*
X1109745Y439982D01*
X1110025Y436069D01*
X1110028Y436059D01*
X1110030Y436033D01*
X1110864Y432199D01*
X1110868Y432191D01*
X1110874Y432165D01*
X1112245Y428489D01*
X1112251Y428481D01*
X1112260Y428457D01*
X1114140Y425013D01*
X1114147Y425006D01*
X1114159Y424983D01*
X1116511Y421842D01*
X1116519Y421836D01*
X1116534Y421815D01*
X1119309Y419041D01*
X1119317Y419036D01*
X1119335Y419017D01*
X1122476Y416666D01*
X1122486Y416663D01*
X1122506Y416647D01*
X1125950Y414766D01*
X1125959Y414764D01*
X1125982Y414752D01*
X1129659Y413380D01*
X1129668Y413380D01*
X1129693Y413370D01*
X1133527Y412536D01*
X1133536Y412537D01*
X1133562Y412531D01*
X1137476Y412251D01*
X1137501Y412257D01*
G37*
G36*
X863662Y79472D02*
X863662Y79472D01*
X863728Y79474D01*
X863772Y79492D01*
X863818Y79500D01*
X863875Y79534D01*
X863936Y79559D01*
X863971Y79590D01*
X864011Y79615D01*
X864053Y79666D01*
X864101Y79710D01*
X864123Y79752D01*
X864153Y79789D01*
X864174Y79851D01*
X864204Y79910D01*
X864212Y79964D01*
X864225Y80001D01*
X864224Y80041D01*
X864232Y80095D01*
X864232Y83905D01*
X864220Y83970D01*
X864218Y84036D01*
X864200Y84079D01*
X864192Y84126D01*
X864158Y84183D01*
X864134Y84243D01*
X864102Y84278D01*
X864078Y84319D01*
X864027Y84361D01*
X863982Y84409D01*
X863940Y84431D01*
X863904Y84460D01*
X863841Y84481D01*
X863783Y84512D01*
X863728Y84520D01*
X863691Y84532D01*
X863652Y84531D01*
X863597Y84539D01*
X850389Y84539D01*
X850325Y84528D01*
X850259Y84526D01*
X850215Y84508D01*
X850169Y84500D01*
X850112Y84466D01*
X850051Y84441D01*
X850016Y84410D01*
X849975Y84385D01*
X849934Y84334D01*
X849885Y84290D01*
X849864Y84248D01*
X849834Y84211D01*
X849813Y84149D01*
X849783Y84090D01*
X849775Y84036D01*
X849762Y83999D01*
X849762Y83995D01*
X849762Y83994D01*
X849763Y83959D01*
X849755Y83905D01*
X849755Y80095D01*
X849767Y80030D01*
X849769Y79964D01*
X849786Y79921D01*
X849795Y79874D01*
X849828Y79817D01*
X849853Y79757D01*
X849885Y79722D01*
X849909Y79681D01*
X849960Y79640D01*
X850004Y79591D01*
X850047Y79569D01*
X850083Y79540D01*
X850145Y79519D01*
X850204Y79488D01*
X850258Y79480D01*
X850296Y79468D01*
X850335Y79469D01*
X850389Y79461D01*
X863597Y79461D01*
X863662Y79472D01*
G37*
G36*
X103669Y79472D02*
X103669Y79472D01*
X103735Y79474D01*
X103778Y79492D01*
X103825Y79500D01*
X103882Y79534D01*
X103942Y79559D01*
X103977Y79590D01*
X104018Y79615D01*
X104060Y79666D01*
X104108Y79710D01*
X104130Y79752D01*
X104159Y79789D01*
X104180Y79851D01*
X104211Y79910D01*
X104219Y79964D01*
X104231Y80001D01*
X104230Y80041D01*
X104238Y80095D01*
X104238Y83905D01*
X104227Y83970D01*
X104225Y84036D01*
X104207Y84079D01*
X104199Y84126D01*
X104165Y84183D01*
X104140Y84243D01*
X104109Y84278D01*
X104084Y84319D01*
X104033Y84361D01*
X103989Y84409D01*
X103947Y84431D01*
X103910Y84460D01*
X103848Y84481D01*
X103789Y84512D01*
X103735Y84520D01*
X103698Y84532D01*
X103658Y84531D01*
X103604Y84539D01*
X90396Y84539D01*
X90331Y84528D01*
X90265Y84526D01*
X90222Y84508D01*
X90175Y84500D01*
X90118Y84466D01*
X90058Y84441D01*
X90023Y84410D01*
X89982Y84385D01*
X89941Y84334D01*
X89892Y84290D01*
X89870Y84248D01*
X89841Y84211D01*
X89820Y84149D01*
X89789Y84090D01*
X89781Y84036D01*
X89769Y83999D01*
X89769Y83995D01*
X89769Y83994D01*
X89770Y83959D01*
X89762Y83905D01*
X89762Y80095D01*
X89773Y80030D01*
X89775Y79964D01*
X89793Y79921D01*
X89801Y79874D01*
X89835Y79817D01*
X89860Y79757D01*
X89891Y79722D01*
X89916Y79681D01*
X89967Y79640D01*
X90011Y79591D01*
X90053Y79569D01*
X90090Y79540D01*
X90152Y79519D01*
X90211Y79488D01*
X90265Y79480D01*
X90302Y79468D01*
X90342Y79469D01*
X90396Y79461D01*
X103604Y79461D01*
X103669Y79472D01*
G37*
G36*
X483678Y79472D02*
X483678Y79472D01*
X483744Y79474D01*
X483788Y79492D01*
X483834Y79500D01*
X483891Y79534D01*
X483952Y79559D01*
X483987Y79590D01*
X484027Y79615D01*
X484069Y79666D01*
X484117Y79710D01*
X484139Y79752D01*
X484169Y79789D01*
X484190Y79851D01*
X484220Y79910D01*
X484228Y79964D01*
X484241Y80001D01*
X484240Y80041D01*
X484248Y80095D01*
X484248Y83905D01*
X484236Y83970D01*
X484234Y84036D01*
X484216Y84079D01*
X484208Y84126D01*
X484174Y84183D01*
X484150Y84243D01*
X484118Y84278D01*
X484094Y84319D01*
X484043Y84361D01*
X483998Y84409D01*
X483956Y84431D01*
X483920Y84460D01*
X483857Y84481D01*
X483799Y84512D01*
X483744Y84520D01*
X483707Y84532D01*
X483668Y84531D01*
X483613Y84539D01*
X470405Y84539D01*
X470341Y84528D01*
X470275Y84526D01*
X470231Y84508D01*
X470185Y84500D01*
X470128Y84466D01*
X470067Y84441D01*
X470032Y84410D01*
X469991Y84385D01*
X469950Y84334D01*
X469901Y84290D01*
X469880Y84248D01*
X469850Y84211D01*
X469829Y84149D01*
X469799Y84090D01*
X469791Y84036D01*
X469778Y83999D01*
X469778Y83995D01*
X469778Y83994D01*
X469779Y83959D01*
X469771Y83905D01*
X469771Y80095D01*
X469783Y80030D01*
X469785Y79964D01*
X469802Y79921D01*
X469811Y79874D01*
X469844Y79817D01*
X469869Y79757D01*
X469901Y79722D01*
X469925Y79681D01*
X469976Y79640D01*
X470020Y79591D01*
X470063Y79569D01*
X470099Y79540D01*
X470161Y79519D01*
X470220Y79488D01*
X470274Y79480D01*
X470312Y79468D01*
X470351Y79469D01*
X470405Y79461D01*
X483613Y79461D01*
X483678Y79472D01*
G37*
G36*
X568344Y617472D02*
X568344Y617472D01*
X568410Y617474D01*
X568454Y617492D01*
X568500Y617500D01*
X568557Y617534D01*
X568618Y617559D01*
X568653Y617590D01*
X568693Y617615D01*
X568735Y617666D01*
X568783Y617710D01*
X568805Y617752D01*
X568835Y617789D01*
X568856Y617851D01*
X568886Y617910D01*
X568894Y617964D01*
X568907Y618001D01*
X568906Y618041D01*
X568914Y618095D01*
X568914Y621905D01*
X568902Y621970D01*
X568900Y622036D01*
X568882Y622079D01*
X568874Y622126D01*
X568840Y622183D01*
X568816Y622243D01*
X568784Y622278D01*
X568760Y622319D01*
X568709Y622361D01*
X568664Y622409D01*
X568622Y622431D01*
X568586Y622460D01*
X568523Y622481D01*
X568465Y622512D01*
X568410Y622520D01*
X568373Y622532D01*
X568334Y622531D01*
X568279Y622539D01*
X565739Y622539D01*
X565675Y622528D01*
X565609Y622526D01*
X565565Y622508D01*
X565519Y622500D01*
X565462Y622466D01*
X565401Y622441D01*
X565366Y622410D01*
X565325Y622385D01*
X565284Y622334D01*
X565235Y622290D01*
X565214Y622248D01*
X565184Y622211D01*
X565163Y622149D01*
X565133Y622090D01*
X565125Y622036D01*
X565112Y621999D01*
X565112Y621995D01*
X565112Y621994D01*
X565113Y621959D01*
X565105Y621905D01*
X565105Y618095D01*
X565117Y618030D01*
X565119Y617964D01*
X565136Y617921D01*
X565145Y617874D01*
X565178Y617817D01*
X565203Y617757D01*
X565235Y617722D01*
X565259Y617681D01*
X565310Y617640D01*
X565354Y617591D01*
X565397Y617569D01*
X565433Y617540D01*
X565495Y617519D01*
X565554Y617488D01*
X565608Y617480D01*
X565646Y617468D01*
X565685Y617469D01*
X565739Y617461D01*
X568279Y617461D01*
X568344Y617472D01*
G37*
G36*
X984328Y617472D02*
X984328Y617472D01*
X984394Y617474D01*
X984438Y617492D01*
X984484Y617500D01*
X984541Y617534D01*
X984602Y617559D01*
X984637Y617590D01*
X984677Y617615D01*
X984719Y617666D01*
X984767Y617710D01*
X984789Y617752D01*
X984819Y617789D01*
X984840Y617851D01*
X984870Y617910D01*
X984878Y617964D01*
X984891Y618001D01*
X984890Y618041D01*
X984898Y618095D01*
X984898Y621905D01*
X984886Y621970D01*
X984884Y622036D01*
X984866Y622079D01*
X984858Y622126D01*
X984824Y622183D01*
X984800Y622243D01*
X984768Y622278D01*
X984744Y622319D01*
X984693Y622361D01*
X984648Y622409D01*
X984606Y622431D01*
X984570Y622460D01*
X984507Y622481D01*
X984449Y622512D01*
X984394Y622520D01*
X984357Y622532D01*
X984318Y622531D01*
X984263Y622539D01*
X981723Y622539D01*
X981659Y622528D01*
X981593Y622526D01*
X981549Y622508D01*
X981503Y622500D01*
X981446Y622466D01*
X981385Y622441D01*
X981350Y622410D01*
X981309Y622385D01*
X981268Y622334D01*
X981219Y622290D01*
X981198Y622248D01*
X981168Y622211D01*
X981147Y622149D01*
X981117Y622090D01*
X981109Y622036D01*
X981096Y621999D01*
X981096Y621995D01*
X981096Y621994D01*
X981097Y621959D01*
X981089Y621905D01*
X981089Y618095D01*
X981101Y618030D01*
X981103Y617964D01*
X981120Y617921D01*
X981129Y617874D01*
X981162Y617817D01*
X981187Y617757D01*
X981219Y617722D01*
X981243Y617681D01*
X981294Y617640D01*
X981338Y617591D01*
X981381Y617569D01*
X981417Y617540D01*
X981479Y617519D01*
X981538Y617488D01*
X981592Y617480D01*
X981630Y617468D01*
X981669Y617469D01*
X981723Y617461D01*
X984263Y617461D01*
X984328Y617472D01*
G37*
G36*
X153335Y617472D02*
X153335Y617472D01*
X153401Y617474D01*
X153444Y617492D01*
X153491Y617500D01*
X153548Y617534D01*
X153608Y617559D01*
X153643Y617590D01*
X153684Y617615D01*
X153726Y617666D01*
X153774Y617710D01*
X153796Y617752D01*
X153825Y617789D01*
X153846Y617851D01*
X153877Y617910D01*
X153885Y617964D01*
X153897Y618001D01*
X153896Y618041D01*
X153904Y618095D01*
X153904Y621905D01*
X153893Y621970D01*
X153891Y622036D01*
X153873Y622079D01*
X153865Y622126D01*
X153831Y622183D01*
X153806Y622243D01*
X153775Y622278D01*
X153750Y622319D01*
X153699Y622361D01*
X153655Y622409D01*
X153613Y622431D01*
X153576Y622460D01*
X153514Y622481D01*
X153455Y622512D01*
X153401Y622520D01*
X153364Y622532D01*
X153324Y622531D01*
X153270Y622539D01*
X150730Y622539D01*
X150665Y622528D01*
X150599Y622526D01*
X150556Y622508D01*
X150509Y622500D01*
X150452Y622466D01*
X150392Y622441D01*
X150357Y622410D01*
X150316Y622385D01*
X150275Y622334D01*
X150226Y622290D01*
X150204Y622248D01*
X150175Y622211D01*
X150154Y622149D01*
X150123Y622090D01*
X150115Y622036D01*
X150103Y621999D01*
X150103Y621995D01*
X150103Y621994D01*
X150104Y621959D01*
X150096Y621905D01*
X150096Y618095D01*
X150107Y618030D01*
X150109Y617964D01*
X150127Y617921D01*
X150135Y617874D01*
X150169Y617817D01*
X150194Y617757D01*
X150225Y617722D01*
X150250Y617681D01*
X150301Y617640D01*
X150345Y617591D01*
X150387Y617569D01*
X150424Y617540D01*
X150486Y617519D01*
X150545Y617488D01*
X150599Y617480D01*
X150636Y617468D01*
X150676Y617469D01*
X150730Y617461D01*
X153270Y617461D01*
X153335Y617472D01*
G37*
G36*
X533344Y617472D02*
X533344Y617472D01*
X533410Y617474D01*
X533454Y617492D01*
X533500Y617500D01*
X533557Y617534D01*
X533618Y617559D01*
X533653Y617590D01*
X533693Y617615D01*
X533735Y617666D01*
X533783Y617710D01*
X533805Y617752D01*
X533835Y617789D01*
X533856Y617851D01*
X533886Y617910D01*
X533894Y617964D01*
X533907Y618001D01*
X533906Y618041D01*
X533914Y618095D01*
X533914Y621905D01*
X533902Y621970D01*
X533900Y622036D01*
X533882Y622079D01*
X533874Y622126D01*
X533840Y622183D01*
X533816Y622243D01*
X533784Y622278D01*
X533760Y622319D01*
X533709Y622361D01*
X533664Y622409D01*
X533622Y622431D01*
X533586Y622460D01*
X533523Y622481D01*
X533465Y622512D01*
X533410Y622520D01*
X533373Y622532D01*
X533334Y622531D01*
X533279Y622539D01*
X530739Y622539D01*
X530675Y622528D01*
X530609Y622526D01*
X530565Y622508D01*
X530519Y622500D01*
X530462Y622466D01*
X530401Y622441D01*
X530366Y622410D01*
X530325Y622385D01*
X530284Y622334D01*
X530235Y622290D01*
X530214Y622248D01*
X530184Y622211D01*
X530163Y622149D01*
X530133Y622090D01*
X530125Y622036D01*
X530112Y621999D01*
X530112Y621995D01*
X530112Y621994D01*
X530113Y621959D01*
X530105Y621905D01*
X530105Y618095D01*
X530117Y618030D01*
X530119Y617964D01*
X530136Y617921D01*
X530145Y617874D01*
X530178Y617817D01*
X530203Y617757D01*
X530235Y617722D01*
X530259Y617681D01*
X530310Y617640D01*
X530354Y617591D01*
X530397Y617569D01*
X530433Y617540D01*
X530495Y617519D01*
X530554Y617488D01*
X530608Y617480D01*
X530646Y617468D01*
X530685Y617469D01*
X530739Y617461D01*
X533279Y617461D01*
X533344Y617472D01*
G37*
G36*
X188335Y617472D02*
X188335Y617472D01*
X188401Y617474D01*
X188444Y617492D01*
X188491Y617500D01*
X188548Y617534D01*
X188608Y617559D01*
X188643Y617590D01*
X188684Y617615D01*
X188726Y617666D01*
X188774Y617710D01*
X188796Y617752D01*
X188825Y617789D01*
X188846Y617851D01*
X188877Y617910D01*
X188885Y617964D01*
X188897Y618001D01*
X188896Y618041D01*
X188904Y618095D01*
X188904Y621905D01*
X188893Y621970D01*
X188891Y622036D01*
X188873Y622079D01*
X188865Y622126D01*
X188831Y622183D01*
X188806Y622243D01*
X188775Y622278D01*
X188750Y622319D01*
X188699Y622361D01*
X188655Y622409D01*
X188613Y622431D01*
X188576Y622460D01*
X188514Y622481D01*
X188455Y622512D01*
X188401Y622520D01*
X188364Y622532D01*
X188324Y622531D01*
X188270Y622539D01*
X185730Y622539D01*
X185665Y622528D01*
X185599Y622526D01*
X185556Y622508D01*
X185509Y622500D01*
X185452Y622466D01*
X185392Y622441D01*
X185357Y622410D01*
X185316Y622385D01*
X185275Y622334D01*
X185226Y622290D01*
X185204Y622248D01*
X185175Y622211D01*
X185154Y622149D01*
X185123Y622090D01*
X185115Y622036D01*
X185103Y621999D01*
X185103Y621995D01*
X185103Y621994D01*
X185104Y621959D01*
X185096Y621905D01*
X185096Y618095D01*
X185107Y618030D01*
X185109Y617964D01*
X185127Y617921D01*
X185135Y617874D01*
X185169Y617817D01*
X185194Y617757D01*
X185225Y617722D01*
X185250Y617681D01*
X185301Y617640D01*
X185345Y617591D01*
X185387Y617569D01*
X185424Y617540D01*
X185486Y617519D01*
X185545Y617488D01*
X185599Y617480D01*
X185636Y617468D01*
X185676Y617469D01*
X185730Y617461D01*
X188270Y617461D01*
X188335Y617472D01*
G37*
G36*
X913328Y617472D02*
X913328Y617472D01*
X913394Y617474D01*
X913438Y617492D01*
X913484Y617500D01*
X913541Y617534D01*
X913602Y617559D01*
X913637Y617590D01*
X913677Y617615D01*
X913719Y617666D01*
X913767Y617710D01*
X913789Y617752D01*
X913819Y617789D01*
X913840Y617851D01*
X913870Y617910D01*
X913878Y617964D01*
X913891Y618001D01*
X913890Y618041D01*
X913898Y618095D01*
X913898Y621905D01*
X913886Y621970D01*
X913884Y622036D01*
X913866Y622079D01*
X913858Y622126D01*
X913824Y622183D01*
X913800Y622243D01*
X913768Y622278D01*
X913744Y622319D01*
X913693Y622361D01*
X913648Y622409D01*
X913606Y622431D01*
X913570Y622460D01*
X913507Y622481D01*
X913449Y622512D01*
X913394Y622520D01*
X913357Y622532D01*
X913318Y622531D01*
X913263Y622539D01*
X910723Y622539D01*
X910659Y622528D01*
X910593Y622526D01*
X910549Y622508D01*
X910503Y622500D01*
X910446Y622466D01*
X910385Y622441D01*
X910350Y622410D01*
X910309Y622385D01*
X910268Y622334D01*
X910219Y622290D01*
X910198Y622248D01*
X910168Y622211D01*
X910147Y622149D01*
X910117Y622090D01*
X910109Y622036D01*
X910096Y621999D01*
X910096Y621995D01*
X910096Y621994D01*
X910097Y621959D01*
X910089Y621905D01*
X910089Y618095D01*
X910101Y618030D01*
X910103Y617964D01*
X910120Y617921D01*
X910129Y617874D01*
X910162Y617817D01*
X910187Y617757D01*
X910219Y617722D01*
X910243Y617681D01*
X910294Y617640D01*
X910338Y617591D01*
X910381Y617569D01*
X910417Y617540D01*
X910479Y617519D01*
X910538Y617488D01*
X910592Y617480D01*
X910630Y617468D01*
X910669Y617469D01*
X910723Y617461D01*
X913263Y617461D01*
X913328Y617472D01*
G37*
G36*
X948328Y617472D02*
X948328Y617472D01*
X948394Y617474D01*
X948438Y617492D01*
X948484Y617500D01*
X948541Y617534D01*
X948602Y617559D01*
X948637Y617590D01*
X948677Y617615D01*
X948719Y617666D01*
X948767Y617710D01*
X948789Y617752D01*
X948819Y617789D01*
X948840Y617851D01*
X948870Y617910D01*
X948878Y617964D01*
X948891Y618001D01*
X948890Y618041D01*
X948898Y618095D01*
X948898Y621905D01*
X948886Y621970D01*
X948884Y622036D01*
X948866Y622079D01*
X948858Y622126D01*
X948824Y622183D01*
X948800Y622243D01*
X948768Y622278D01*
X948744Y622319D01*
X948693Y622361D01*
X948648Y622409D01*
X948606Y622431D01*
X948570Y622460D01*
X948507Y622481D01*
X948449Y622512D01*
X948394Y622520D01*
X948357Y622532D01*
X948318Y622531D01*
X948263Y622539D01*
X945723Y622539D01*
X945659Y622528D01*
X945593Y622526D01*
X945549Y622508D01*
X945503Y622500D01*
X945446Y622466D01*
X945385Y622441D01*
X945350Y622410D01*
X945309Y622385D01*
X945268Y622334D01*
X945219Y622290D01*
X945198Y622248D01*
X945168Y622211D01*
X945147Y622149D01*
X945117Y622090D01*
X945109Y622036D01*
X945096Y621999D01*
X945096Y621995D01*
X945096Y621994D01*
X945097Y621959D01*
X945089Y621905D01*
X945089Y618095D01*
X945101Y618030D01*
X945103Y617964D01*
X945120Y617921D01*
X945129Y617874D01*
X945162Y617817D01*
X945187Y617757D01*
X945219Y617722D01*
X945243Y617681D01*
X945294Y617640D01*
X945338Y617591D01*
X945381Y617569D01*
X945417Y617540D01*
X945479Y617519D01*
X945538Y617488D01*
X945592Y617480D01*
X945630Y617468D01*
X945669Y617469D01*
X945723Y617461D01*
X948263Y617461D01*
X948328Y617472D01*
G37*
G36*
X604344Y617472D02*
X604344Y617472D01*
X604410Y617474D01*
X604454Y617492D01*
X604500Y617500D01*
X604557Y617534D01*
X604618Y617559D01*
X604653Y617590D01*
X604693Y617615D01*
X604735Y617666D01*
X604783Y617710D01*
X604805Y617752D01*
X604835Y617789D01*
X604856Y617851D01*
X604886Y617910D01*
X604894Y617964D01*
X604907Y618001D01*
X604906Y618041D01*
X604914Y618095D01*
X604914Y621905D01*
X604902Y621970D01*
X604900Y622036D01*
X604882Y622079D01*
X604874Y622126D01*
X604840Y622183D01*
X604816Y622243D01*
X604784Y622278D01*
X604760Y622319D01*
X604709Y622361D01*
X604664Y622409D01*
X604622Y622431D01*
X604586Y622460D01*
X604523Y622481D01*
X604465Y622512D01*
X604410Y622520D01*
X604373Y622532D01*
X604334Y622531D01*
X604279Y622539D01*
X601739Y622539D01*
X601675Y622528D01*
X601609Y622526D01*
X601565Y622508D01*
X601519Y622500D01*
X601462Y622466D01*
X601401Y622441D01*
X601366Y622410D01*
X601325Y622385D01*
X601284Y622334D01*
X601235Y622290D01*
X601214Y622248D01*
X601184Y622211D01*
X601163Y622149D01*
X601133Y622090D01*
X601125Y622036D01*
X601112Y621999D01*
X601112Y621995D01*
X601112Y621994D01*
X601113Y621959D01*
X601105Y621905D01*
X601105Y618095D01*
X601117Y618030D01*
X601119Y617964D01*
X601136Y617921D01*
X601145Y617874D01*
X601178Y617817D01*
X601203Y617757D01*
X601235Y617722D01*
X601259Y617681D01*
X601310Y617640D01*
X601354Y617591D01*
X601397Y617569D01*
X601433Y617540D01*
X601495Y617519D01*
X601554Y617488D01*
X601608Y617480D01*
X601646Y617468D01*
X601685Y617469D01*
X601739Y617461D01*
X604279Y617461D01*
X604344Y617472D01*
G37*
G36*
X224335Y617472D02*
X224335Y617472D01*
X224401Y617474D01*
X224444Y617492D01*
X224491Y617500D01*
X224548Y617534D01*
X224608Y617559D01*
X224643Y617590D01*
X224684Y617615D01*
X224726Y617666D01*
X224774Y617710D01*
X224796Y617752D01*
X224825Y617789D01*
X224846Y617851D01*
X224877Y617910D01*
X224885Y617964D01*
X224897Y618001D01*
X224896Y618041D01*
X224904Y618095D01*
X224904Y621905D01*
X224893Y621970D01*
X224891Y622036D01*
X224873Y622079D01*
X224865Y622126D01*
X224831Y622183D01*
X224806Y622243D01*
X224775Y622278D01*
X224750Y622319D01*
X224699Y622361D01*
X224655Y622409D01*
X224613Y622431D01*
X224576Y622460D01*
X224514Y622481D01*
X224455Y622512D01*
X224401Y622520D01*
X224364Y622532D01*
X224324Y622531D01*
X224270Y622539D01*
X221730Y622539D01*
X221665Y622528D01*
X221599Y622526D01*
X221556Y622508D01*
X221509Y622500D01*
X221452Y622466D01*
X221392Y622441D01*
X221357Y622410D01*
X221316Y622385D01*
X221275Y622334D01*
X221226Y622290D01*
X221204Y622248D01*
X221175Y622211D01*
X221154Y622149D01*
X221123Y622090D01*
X221115Y622036D01*
X221103Y621999D01*
X221103Y621995D01*
X221103Y621994D01*
X221104Y621959D01*
X221096Y621905D01*
X221096Y618095D01*
X221107Y618030D01*
X221109Y617964D01*
X221127Y617921D01*
X221135Y617874D01*
X221169Y617817D01*
X221194Y617757D01*
X221225Y617722D01*
X221250Y617681D01*
X221301Y617640D01*
X221345Y617591D01*
X221387Y617569D01*
X221424Y617540D01*
X221486Y617519D01*
X221545Y617488D01*
X221599Y617480D01*
X221636Y617468D01*
X221676Y617469D01*
X221730Y617461D01*
X224270Y617461D01*
X224335Y617472D01*
G37*
G36*
X1110963Y618107D02*
X1110963Y618107D01*
X1111029Y618109D01*
X1111073Y618127D01*
X1111119Y618135D01*
X1111176Y618169D01*
X1111237Y618194D01*
X1111272Y618225D01*
X1111312Y618250D01*
X1111354Y618301D01*
X1111402Y618345D01*
X1111424Y618387D01*
X1111454Y618424D01*
X1111475Y618486D01*
X1111505Y618545D01*
X1111513Y618599D01*
X1111526Y618636D01*
X1111525Y618676D01*
X1111533Y618730D01*
X1111533Y621270D01*
X1111521Y621335D01*
X1111519Y621401D01*
X1111501Y621444D01*
X1111493Y621491D01*
X1111459Y621548D01*
X1111435Y621608D01*
X1111403Y621643D01*
X1111379Y621684D01*
X1111328Y621726D01*
X1111283Y621774D01*
X1111241Y621796D01*
X1111205Y621825D01*
X1111142Y621846D01*
X1111084Y621877D01*
X1111029Y621885D01*
X1110992Y621897D01*
X1110953Y621896D01*
X1110898Y621904D01*
X1107088Y621904D01*
X1107024Y621893D01*
X1106958Y621891D01*
X1106914Y621873D01*
X1106868Y621865D01*
X1106811Y621831D01*
X1106750Y621806D01*
X1106715Y621775D01*
X1106674Y621750D01*
X1106633Y621699D01*
X1106584Y621655D01*
X1106563Y621613D01*
X1106533Y621576D01*
X1106512Y621514D01*
X1106482Y621455D01*
X1106474Y621401D01*
X1106461Y621364D01*
X1106461Y621361D01*
X1106462Y621324D01*
X1106454Y621270D01*
X1106454Y618730D01*
X1106466Y618665D01*
X1106468Y618599D01*
X1106485Y618556D01*
X1106494Y618509D01*
X1106527Y618452D01*
X1106552Y618392D01*
X1106584Y618357D01*
X1106608Y618316D01*
X1106659Y618275D01*
X1106703Y618226D01*
X1106746Y618204D01*
X1106782Y618175D01*
X1106844Y618154D01*
X1106903Y618123D01*
X1106957Y618115D01*
X1106995Y618103D01*
X1107034Y618104D01*
X1107088Y618096D01*
X1110898Y618096D01*
X1110963Y618107D01*
G37*
G36*
X350970Y618107D02*
X350970Y618107D01*
X351036Y618109D01*
X351079Y618127D01*
X351126Y618135D01*
X351183Y618169D01*
X351243Y618194D01*
X351278Y618225D01*
X351319Y618250D01*
X351361Y618301D01*
X351409Y618345D01*
X351431Y618387D01*
X351460Y618424D01*
X351481Y618486D01*
X351512Y618545D01*
X351520Y618599D01*
X351532Y618636D01*
X351531Y618676D01*
X351539Y618730D01*
X351539Y621270D01*
X351528Y621335D01*
X351526Y621401D01*
X351508Y621444D01*
X351500Y621491D01*
X351466Y621548D01*
X351441Y621608D01*
X351410Y621643D01*
X351385Y621684D01*
X351334Y621726D01*
X351290Y621774D01*
X351248Y621796D01*
X351211Y621825D01*
X351149Y621846D01*
X351090Y621877D01*
X351036Y621885D01*
X350999Y621897D01*
X350959Y621896D01*
X350905Y621904D01*
X347095Y621904D01*
X347030Y621893D01*
X346964Y621891D01*
X346921Y621873D01*
X346874Y621865D01*
X346817Y621831D01*
X346757Y621806D01*
X346722Y621775D01*
X346681Y621750D01*
X346640Y621699D01*
X346591Y621655D01*
X346569Y621613D01*
X346540Y621576D01*
X346519Y621514D01*
X346488Y621455D01*
X346480Y621401D01*
X346468Y621364D01*
X346468Y621361D01*
X346469Y621324D01*
X346461Y621270D01*
X346461Y618730D01*
X346472Y618665D01*
X346474Y618599D01*
X346492Y618556D01*
X346500Y618509D01*
X346534Y618452D01*
X346559Y618392D01*
X346590Y618357D01*
X346615Y618316D01*
X346666Y618275D01*
X346710Y618226D01*
X346752Y618204D01*
X346789Y618175D01*
X346851Y618154D01*
X346910Y618123D01*
X346964Y618115D01*
X347001Y618103D01*
X347041Y618104D01*
X347095Y618096D01*
X350905Y618096D01*
X350970Y618107D01*
G37*
G36*
X730979Y618107D02*
X730979Y618107D01*
X731045Y618109D01*
X731089Y618127D01*
X731135Y618135D01*
X731192Y618169D01*
X731253Y618194D01*
X731288Y618225D01*
X731328Y618250D01*
X731370Y618301D01*
X731418Y618345D01*
X731440Y618387D01*
X731470Y618424D01*
X731491Y618486D01*
X731521Y618545D01*
X731529Y618599D01*
X731542Y618636D01*
X731541Y618676D01*
X731549Y618730D01*
X731549Y621270D01*
X731537Y621335D01*
X731535Y621401D01*
X731517Y621444D01*
X731509Y621491D01*
X731475Y621548D01*
X731451Y621608D01*
X731419Y621643D01*
X731395Y621684D01*
X731344Y621726D01*
X731299Y621774D01*
X731257Y621796D01*
X731221Y621825D01*
X731158Y621846D01*
X731100Y621877D01*
X731045Y621885D01*
X731008Y621897D01*
X730969Y621896D01*
X730914Y621904D01*
X727104Y621904D01*
X727040Y621893D01*
X726974Y621891D01*
X726930Y621873D01*
X726884Y621865D01*
X726827Y621831D01*
X726766Y621806D01*
X726731Y621775D01*
X726690Y621750D01*
X726649Y621699D01*
X726600Y621655D01*
X726579Y621613D01*
X726549Y621576D01*
X726528Y621514D01*
X726498Y621455D01*
X726490Y621401D01*
X726477Y621364D01*
X726477Y621361D01*
X726478Y621324D01*
X726470Y621270D01*
X726470Y618730D01*
X726482Y618665D01*
X726484Y618599D01*
X726501Y618556D01*
X726510Y618509D01*
X726543Y618452D01*
X726568Y618392D01*
X726600Y618357D01*
X726624Y618316D01*
X726675Y618275D01*
X726719Y618226D01*
X726762Y618204D01*
X726798Y618175D01*
X726860Y618154D01*
X726919Y618123D01*
X726973Y618115D01*
X727011Y618103D01*
X727050Y618104D01*
X727104Y618096D01*
X730914Y618096D01*
X730979Y618107D01*
G37*
D10*
X339842Y85603D02*
X339842Y80269D01*
X328158Y80269D01*
X328158Y85603D01*
X339842Y85603D01*
X339842Y82441D02*
X328158Y82441D01*
X328158Y84613D02*
X339842Y84613D01*
X339842Y88397D02*
X339842Y93731D01*
X339842Y88397D02*
X328158Y88397D01*
X328158Y93731D01*
X339842Y93731D01*
X339842Y90569D02*
X328158Y90569D01*
X328158Y92741D02*
X339842Y92741D01*
D11*
X328900Y603450D03*
X271100Y603450D03*
D12*
X351411Y625844D02*
X357003Y625844D01*
X357003Y614156D01*
X351411Y614156D01*
X351411Y625844D01*
X351411Y616325D02*
X357003Y616325D01*
X357003Y618494D02*
X351411Y618494D01*
X351411Y620663D02*
X357003Y620663D01*
X357003Y622832D02*
X351411Y622832D01*
X351411Y625001D02*
X357003Y625001D01*
X346589Y625844D02*
X340997Y625844D01*
X346589Y625844D02*
X346589Y614156D01*
X340997Y614156D01*
X340997Y625844D01*
X340997Y616325D02*
X346589Y616325D01*
X346589Y618494D02*
X340997Y618494D01*
X340997Y620663D02*
X346589Y620663D01*
X346589Y622832D02*
X340997Y622832D01*
X340997Y625001D02*
X346589Y625001D01*
D13*
X200000Y510300D03*
D14*
X370000Y45000D03*
X5000Y645000D03*
D10*
X91158Y89747D02*
X91158Y84413D01*
X91158Y89747D02*
X102842Y89747D01*
X102842Y84413D01*
X91158Y84413D01*
X91158Y86585D02*
X102842Y86585D01*
X102842Y88757D02*
X91158Y88757D01*
X91158Y79587D02*
X91158Y74253D01*
X91158Y79587D02*
X102842Y79587D01*
X102842Y74253D01*
X91158Y74253D01*
X91158Y76425D02*
X102842Y76425D01*
X102842Y78597D02*
X91158Y78597D01*
D15*
X97000Y94700D03*
X97000Y69300D03*
D10*
X244397Y235842D02*
X249731Y235842D01*
X249731Y224158D01*
X244397Y224158D01*
X244397Y235842D01*
X244397Y226330D02*
X249731Y226330D01*
X249731Y228502D02*
X244397Y228502D01*
X244397Y230674D02*
X249731Y230674D01*
X249731Y232846D02*
X244397Y232846D01*
X244397Y235018D02*
X249731Y235018D01*
X241603Y235842D02*
X236269Y235842D01*
X241603Y235842D02*
X241603Y224158D01*
X236269Y224158D01*
X236269Y235842D01*
X236269Y226330D02*
X241603Y226330D01*
X241603Y228502D02*
X236269Y228502D01*
X236269Y230674D02*
X241603Y230674D01*
X241603Y232846D02*
X236269Y232846D01*
X236269Y235018D02*
X241603Y235018D01*
D12*
X217156Y622411D02*
X217156Y628003D01*
X228844Y628003D01*
X228844Y622411D01*
X217156Y622411D01*
X217156Y624580D02*
X228844Y624580D01*
X228844Y626749D02*
X217156Y626749D01*
X217156Y617589D02*
X217156Y611997D01*
X217156Y617589D02*
X228844Y617589D01*
X228844Y611997D01*
X217156Y611997D01*
X217156Y614166D02*
X228844Y614166D01*
X228844Y616335D02*
X217156Y616335D01*
X181156Y622411D02*
X181156Y628003D01*
X192844Y628003D01*
X192844Y622411D01*
X181156Y622411D01*
X181156Y624580D02*
X192844Y624580D01*
X192844Y626749D02*
X181156Y626749D01*
X181156Y617589D02*
X181156Y611997D01*
X181156Y617589D02*
X192844Y617589D01*
X192844Y611997D01*
X181156Y611997D01*
X181156Y614166D02*
X192844Y614166D01*
X192844Y616335D02*
X181156Y616335D01*
X146156Y622411D02*
X146156Y628003D01*
X157844Y628003D01*
X157844Y622411D01*
X146156Y622411D01*
X146156Y624580D02*
X157844Y624580D01*
X157844Y626749D02*
X146156Y626749D01*
X146156Y617589D02*
X146156Y611997D01*
X146156Y617589D02*
X157844Y617589D01*
X157844Y611997D01*
X146156Y611997D01*
X146156Y614166D02*
X157844Y614166D01*
X157844Y616335D02*
X146156Y616335D01*
D15*
X17500Y240000D03*
X17500Y265400D03*
X17500Y290800D03*
X17500Y316200D03*
X17500Y341600D03*
X17500Y367000D03*
D16*
X300000Y177500D03*
D17*
X100000Y177500D03*
D18*
X276260Y6010D02*
X278740Y6010D01*
X276260Y6010D02*
X276260Y24490D01*
X278740Y24490D01*
X278740Y6010D01*
X278740Y8185D02*
X276260Y8185D01*
X276260Y10360D02*
X278740Y10360D01*
X278740Y12535D02*
X276260Y12535D01*
X276260Y14710D02*
X278740Y14710D01*
X278740Y16885D02*
X276260Y16885D01*
X276260Y19060D02*
X278740Y19060D01*
X278740Y21235D02*
X276260Y21235D01*
X276260Y23410D02*
X278740Y23410D01*
X273740Y6010D02*
X271260Y6010D01*
X271260Y24490D01*
X273740Y24490D01*
X273740Y6010D01*
X273740Y8185D02*
X271260Y8185D01*
X271260Y10360D02*
X273740Y10360D01*
X273740Y12535D02*
X271260Y12535D01*
X271260Y14710D02*
X273740Y14710D01*
X273740Y16885D02*
X271260Y16885D01*
X271260Y19060D02*
X273740Y19060D01*
X273740Y21235D02*
X271260Y21235D01*
X271260Y23410D02*
X273740Y23410D01*
X268740Y6010D02*
X266260Y6010D01*
X266260Y24490D01*
X268740Y24490D01*
X268740Y6010D01*
X268740Y8185D02*
X266260Y8185D01*
X266260Y10360D02*
X268740Y10360D01*
X268740Y12535D02*
X266260Y12535D01*
X266260Y14710D02*
X268740Y14710D01*
X268740Y16885D02*
X266260Y16885D01*
X266260Y19060D02*
X268740Y19060D01*
X268740Y21235D02*
X266260Y21235D01*
X266260Y23410D02*
X268740Y23410D01*
X263740Y6010D02*
X261260Y6010D01*
X261260Y24490D01*
X263740Y24490D01*
X263740Y6010D01*
X263740Y8185D02*
X261260Y8185D01*
X261260Y10360D02*
X263740Y10360D01*
X263740Y12535D02*
X261260Y12535D01*
X261260Y14710D02*
X263740Y14710D01*
X263740Y16885D02*
X261260Y16885D01*
X261260Y19060D02*
X263740Y19060D01*
X263740Y21235D02*
X261260Y21235D01*
X261260Y23410D02*
X263740Y23410D01*
X258740Y6010D02*
X256260Y6010D01*
X256260Y24490D01*
X258740Y24490D01*
X258740Y6010D01*
X258740Y8185D02*
X256260Y8185D01*
X256260Y10360D02*
X258740Y10360D01*
X258740Y12535D02*
X256260Y12535D01*
X256260Y14710D02*
X258740Y14710D01*
X258740Y16885D02*
X256260Y16885D01*
X256260Y19060D02*
X258740Y19060D01*
X258740Y21235D02*
X256260Y21235D01*
X256260Y23410D02*
X258740Y23410D01*
X253740Y6010D02*
X251260Y6010D01*
X251260Y24490D01*
X253740Y24490D01*
X253740Y6010D01*
X253740Y8185D02*
X251260Y8185D01*
X251260Y10360D02*
X253740Y10360D01*
X253740Y12535D02*
X251260Y12535D01*
X251260Y14710D02*
X253740Y14710D01*
X253740Y16885D02*
X251260Y16885D01*
X251260Y19060D02*
X253740Y19060D01*
X253740Y21235D02*
X251260Y21235D01*
X251260Y23410D02*
X253740Y23410D01*
X248740Y6010D02*
X246260Y6010D01*
X246260Y24490D01*
X248740Y24490D01*
X248740Y6010D01*
X248740Y8185D02*
X246260Y8185D01*
X246260Y10360D02*
X248740Y10360D01*
X248740Y12535D02*
X246260Y12535D01*
X246260Y14710D02*
X248740Y14710D01*
X248740Y16885D02*
X246260Y16885D01*
X246260Y19060D02*
X248740Y19060D01*
X248740Y21235D02*
X246260Y21235D01*
X246260Y23410D02*
X248740Y23410D01*
X243740Y6010D02*
X241260Y6010D01*
X241260Y24490D01*
X243740Y24490D01*
X243740Y6010D01*
X243740Y8185D02*
X241260Y8185D01*
X241260Y10360D02*
X243740Y10360D01*
X243740Y12535D02*
X241260Y12535D01*
X241260Y14710D02*
X243740Y14710D01*
X243740Y16885D02*
X241260Y16885D01*
X241260Y19060D02*
X243740Y19060D01*
X243740Y21235D02*
X241260Y21235D01*
X241260Y23410D02*
X243740Y23410D01*
X238740Y6010D02*
X236260Y6010D01*
X236260Y24490D01*
X238740Y24490D01*
X238740Y6010D01*
X238740Y8185D02*
X236260Y8185D01*
X236260Y10360D02*
X238740Y10360D01*
X238740Y12535D02*
X236260Y12535D01*
X236260Y14710D02*
X238740Y14710D01*
X238740Y16885D02*
X236260Y16885D01*
X236260Y19060D02*
X238740Y19060D01*
X238740Y21235D02*
X236260Y21235D01*
X236260Y23410D02*
X238740Y23410D01*
X233740Y6010D02*
X231260Y6010D01*
X231260Y24490D01*
X233740Y24490D01*
X233740Y6010D01*
X233740Y8185D02*
X231260Y8185D01*
X231260Y10360D02*
X233740Y10360D01*
X233740Y12535D02*
X231260Y12535D01*
X231260Y14710D02*
X233740Y14710D01*
X233740Y16885D02*
X231260Y16885D01*
X231260Y19060D02*
X233740Y19060D01*
X233740Y21235D02*
X231260Y21235D01*
X231260Y23410D02*
X233740Y23410D01*
X228740Y6010D02*
X226260Y6010D01*
X226260Y24490D01*
X228740Y24490D01*
X228740Y6010D01*
X228740Y8185D02*
X226260Y8185D01*
X226260Y10360D02*
X228740Y10360D01*
X228740Y12535D02*
X226260Y12535D01*
X226260Y14710D02*
X228740Y14710D01*
X228740Y16885D02*
X226260Y16885D01*
X226260Y19060D02*
X228740Y19060D01*
X228740Y21235D02*
X226260Y21235D01*
X226260Y23410D02*
X228740Y23410D01*
X203740Y6010D02*
X201260Y6010D01*
X201260Y24490D01*
X203740Y24490D01*
X203740Y6010D01*
X203740Y8185D02*
X201260Y8185D01*
X201260Y10360D02*
X203740Y10360D01*
X203740Y12535D02*
X201260Y12535D01*
X201260Y14710D02*
X203740Y14710D01*
X203740Y16885D02*
X201260Y16885D01*
X201260Y19060D02*
X203740Y19060D01*
X203740Y21235D02*
X201260Y21235D01*
X201260Y23410D02*
X203740Y23410D01*
X198740Y6010D02*
X196260Y6010D01*
X196260Y24490D01*
X198740Y24490D01*
X198740Y6010D01*
X198740Y8185D02*
X196260Y8185D01*
X196260Y10360D02*
X198740Y10360D01*
X198740Y12535D02*
X196260Y12535D01*
X196260Y14710D02*
X198740Y14710D01*
X198740Y16885D02*
X196260Y16885D01*
X196260Y19060D02*
X198740Y19060D01*
X198740Y21235D02*
X196260Y21235D01*
X196260Y23410D02*
X198740Y23410D01*
X193740Y6010D02*
X191260Y6010D01*
X191260Y24490D01*
X193740Y24490D01*
X193740Y6010D01*
X193740Y8185D02*
X191260Y8185D01*
X191260Y10360D02*
X193740Y10360D01*
X193740Y12535D02*
X191260Y12535D01*
X191260Y14710D02*
X193740Y14710D01*
X193740Y16885D02*
X191260Y16885D01*
X191260Y19060D02*
X193740Y19060D01*
X193740Y21235D02*
X191260Y21235D01*
X191260Y23410D02*
X193740Y23410D01*
X188740Y6010D02*
X186260Y6010D01*
X186260Y24490D01*
X188740Y24490D01*
X188740Y6010D01*
X188740Y8185D02*
X186260Y8185D01*
X186260Y10360D02*
X188740Y10360D01*
X188740Y12535D02*
X186260Y12535D01*
X186260Y14710D02*
X188740Y14710D01*
X188740Y16885D02*
X186260Y16885D01*
X186260Y19060D02*
X188740Y19060D01*
X188740Y21235D02*
X186260Y21235D01*
X186260Y23410D02*
X188740Y23410D01*
X183740Y6010D02*
X181260Y6010D01*
X181260Y24490D01*
X183740Y24490D01*
X183740Y6010D01*
X183740Y8185D02*
X181260Y8185D01*
X181260Y10360D02*
X183740Y10360D01*
X183740Y12535D02*
X181260Y12535D01*
X181260Y14710D02*
X183740Y14710D01*
X183740Y16885D02*
X181260Y16885D01*
X181260Y19060D02*
X183740Y19060D01*
X183740Y21235D02*
X181260Y21235D01*
X181260Y23410D02*
X183740Y23410D01*
X178740Y6010D02*
X176260Y6010D01*
X176260Y24490D01*
X178740Y24490D01*
X178740Y6010D01*
X178740Y8185D02*
X176260Y8185D01*
X176260Y10360D02*
X178740Y10360D01*
X178740Y12535D02*
X176260Y12535D01*
X176260Y14710D02*
X178740Y14710D01*
X178740Y16885D02*
X176260Y16885D01*
X176260Y19060D02*
X178740Y19060D01*
X178740Y21235D02*
X176260Y21235D01*
X176260Y23410D02*
X178740Y23410D01*
X173740Y6010D02*
X171260Y6010D01*
X171260Y24490D01*
X173740Y24490D01*
X173740Y6010D01*
X173740Y8185D02*
X171260Y8185D01*
X171260Y10360D02*
X173740Y10360D01*
X173740Y12535D02*
X171260Y12535D01*
X171260Y14710D02*
X173740Y14710D01*
X173740Y16885D02*
X171260Y16885D01*
X171260Y19060D02*
X173740Y19060D01*
X173740Y21235D02*
X171260Y21235D01*
X171260Y23410D02*
X173740Y23410D01*
X168740Y6010D02*
X166260Y6010D01*
X166260Y24490D01*
X168740Y24490D01*
X168740Y6010D01*
X168740Y8185D02*
X166260Y8185D01*
X166260Y10360D02*
X168740Y10360D01*
X168740Y12535D02*
X166260Y12535D01*
X166260Y14710D02*
X168740Y14710D01*
X168740Y16885D02*
X166260Y16885D01*
X166260Y19060D02*
X168740Y19060D01*
X168740Y21235D02*
X166260Y21235D01*
X166260Y23410D02*
X168740Y23410D01*
X163740Y6010D02*
X161260Y6010D01*
X161260Y24490D01*
X163740Y24490D01*
X163740Y6010D01*
X163740Y8185D02*
X161260Y8185D01*
X161260Y10360D02*
X163740Y10360D01*
X163740Y12535D02*
X161260Y12535D01*
X161260Y14710D02*
X163740Y14710D01*
X163740Y16885D02*
X161260Y16885D01*
X161260Y19060D02*
X163740Y19060D01*
X163740Y21235D02*
X161260Y21235D01*
X161260Y23410D02*
X163740Y23410D01*
X158740Y6010D02*
X156260Y6010D01*
X156260Y24490D01*
X158740Y24490D01*
X158740Y6010D01*
X158740Y8185D02*
X156260Y8185D01*
X156260Y10360D02*
X158740Y10360D01*
X158740Y12535D02*
X156260Y12535D01*
X156260Y14710D02*
X158740Y14710D01*
X158740Y16885D02*
X156260Y16885D01*
X156260Y19060D02*
X158740Y19060D01*
X158740Y21235D02*
X156260Y21235D01*
X156260Y23410D02*
X158740Y23410D01*
X153740Y6010D02*
X151260Y6010D01*
X151260Y24490D01*
X153740Y24490D01*
X153740Y6010D01*
X153740Y8185D02*
X151260Y8185D01*
X151260Y10360D02*
X153740Y10360D01*
X153740Y12535D02*
X151260Y12535D01*
X151260Y14710D02*
X153740Y14710D01*
X153740Y16885D02*
X151260Y16885D01*
X151260Y19060D02*
X153740Y19060D01*
X153740Y21235D02*
X151260Y21235D01*
X151260Y23410D02*
X153740Y23410D01*
X148740Y6010D02*
X146260Y6010D01*
X146260Y24490D01*
X148740Y24490D01*
X148740Y6010D01*
X148740Y8185D02*
X146260Y8185D01*
X146260Y10360D02*
X148740Y10360D01*
X148740Y12535D02*
X146260Y12535D01*
X146260Y14710D02*
X148740Y14710D01*
X148740Y16885D02*
X146260Y16885D01*
X146260Y19060D02*
X148740Y19060D01*
X148740Y21235D02*
X146260Y21235D01*
X146260Y23410D02*
X148740Y23410D01*
X143740Y6010D02*
X141260Y6010D01*
X141260Y24490D01*
X143740Y24490D01*
X143740Y6010D01*
X143740Y8185D02*
X141260Y8185D01*
X141260Y10360D02*
X143740Y10360D01*
X143740Y12535D02*
X141260Y12535D01*
X141260Y14710D02*
X143740Y14710D01*
X143740Y16885D02*
X141260Y16885D01*
X141260Y19060D02*
X143740Y19060D01*
X143740Y21235D02*
X141260Y21235D01*
X141260Y23410D02*
X143740Y23410D01*
X138740Y6010D02*
X136260Y6010D01*
X136260Y24490D01*
X138740Y24490D01*
X138740Y6010D01*
X138740Y8185D02*
X136260Y8185D01*
X136260Y10360D02*
X138740Y10360D01*
X138740Y12535D02*
X136260Y12535D01*
X136260Y14710D02*
X138740Y14710D01*
X138740Y16885D02*
X136260Y16885D01*
X136260Y19060D02*
X138740Y19060D01*
X138740Y21235D02*
X136260Y21235D01*
X136260Y23410D02*
X138740Y23410D01*
X133740Y6010D02*
X131260Y6010D01*
X131260Y24490D01*
X133740Y24490D01*
X133740Y6010D01*
X133740Y8185D02*
X131260Y8185D01*
X131260Y10360D02*
X133740Y10360D01*
X133740Y12535D02*
X131260Y12535D01*
X131260Y14710D02*
X133740Y14710D01*
X133740Y16885D02*
X131260Y16885D01*
X131260Y19060D02*
X133740Y19060D01*
X133740Y21235D02*
X131260Y21235D01*
X131260Y23410D02*
X133740Y23410D01*
X128740Y6010D02*
X126260Y6010D01*
X126260Y24490D01*
X128740Y24490D01*
X128740Y6010D01*
X128740Y8185D02*
X126260Y8185D01*
X126260Y10360D02*
X128740Y10360D01*
X128740Y12535D02*
X126260Y12535D01*
X126260Y14710D02*
X128740Y14710D01*
X128740Y16885D02*
X126260Y16885D01*
X126260Y19060D02*
X128740Y19060D01*
X128740Y21235D02*
X126260Y21235D01*
X126260Y23410D02*
X128740Y23410D01*
X123740Y6010D02*
X121260Y6010D01*
X121260Y24490D01*
X123740Y24490D01*
X123740Y6010D01*
X123740Y8185D02*
X121260Y8185D01*
X121260Y10360D02*
X123740Y10360D01*
X123740Y12535D02*
X121260Y12535D01*
X121260Y14710D02*
X123740Y14710D01*
X123740Y16885D02*
X121260Y16885D01*
X121260Y19060D02*
X123740Y19060D01*
X123740Y21235D02*
X121260Y21235D01*
X121260Y23410D02*
X123740Y23410D01*
X118740Y6010D02*
X116260Y6010D01*
X116260Y24490D01*
X118740Y24490D01*
X118740Y6010D01*
X118740Y8185D02*
X116260Y8185D01*
X116260Y10360D02*
X118740Y10360D01*
X118740Y12535D02*
X116260Y12535D01*
X116260Y14710D02*
X118740Y14710D01*
X118740Y16885D02*
X116260Y16885D01*
X116260Y19060D02*
X118740Y19060D01*
X118740Y21235D02*
X116260Y21235D01*
X116260Y23410D02*
X118740Y23410D01*
X113740Y6010D02*
X111260Y6010D01*
X111260Y24490D01*
X113740Y24490D01*
X113740Y6010D01*
X113740Y8185D02*
X111260Y8185D01*
X111260Y10360D02*
X113740Y10360D01*
X113740Y12535D02*
X111260Y12535D01*
X111260Y14710D02*
X113740Y14710D01*
X113740Y16885D02*
X111260Y16885D01*
X111260Y19060D02*
X113740Y19060D01*
X113740Y21235D02*
X111260Y21235D01*
X111260Y23410D02*
X113740Y23410D01*
X108740Y6010D02*
X106260Y6010D01*
X106260Y24490D01*
X108740Y24490D01*
X108740Y6010D01*
X108740Y8185D02*
X106260Y8185D01*
X106260Y10360D02*
X108740Y10360D01*
X108740Y12535D02*
X106260Y12535D01*
X106260Y14710D02*
X108740Y14710D01*
X108740Y16885D02*
X106260Y16885D01*
X106260Y19060D02*
X108740Y19060D01*
X108740Y21235D02*
X106260Y21235D01*
X106260Y23410D02*
X108740Y23410D01*
X103740Y6010D02*
X101260Y6010D01*
X101260Y24490D01*
X103740Y24490D01*
X103740Y6010D01*
X103740Y8185D02*
X101260Y8185D01*
X101260Y10360D02*
X103740Y10360D01*
X103740Y12535D02*
X101260Y12535D01*
X101260Y14710D02*
X103740Y14710D01*
X103740Y16885D02*
X101260Y16885D01*
X101260Y19060D02*
X103740Y19060D01*
X103740Y21235D02*
X101260Y21235D01*
X101260Y23410D02*
X103740Y23410D01*
X98740Y6010D02*
X96260Y6010D01*
X96260Y24490D01*
X98740Y24490D01*
X98740Y6010D01*
X98740Y8185D02*
X96260Y8185D01*
X96260Y10360D02*
X98740Y10360D01*
X98740Y12535D02*
X96260Y12535D01*
X96260Y14710D02*
X98740Y14710D01*
X98740Y16885D02*
X96260Y16885D01*
X96260Y19060D02*
X98740Y19060D01*
X98740Y21235D02*
X96260Y21235D01*
X96260Y23410D02*
X98740Y23410D01*
D19*
X367500Y461000D03*
X367500Y419000D03*
X354500Y440000D03*
X7500Y419000D03*
X7500Y461000D03*
X20500Y440000D03*
D10*
X719851Y85603D02*
X719851Y80269D01*
X708167Y80269D01*
X708167Y85603D01*
X719851Y85603D01*
X719851Y82441D02*
X708167Y82441D01*
X708167Y84613D02*
X719851Y84613D01*
X719851Y88397D02*
X719851Y93731D01*
X719851Y88397D02*
X708167Y88397D01*
X708167Y93731D01*
X719851Y93731D01*
X719851Y90569D02*
X708167Y90569D01*
X708167Y92741D02*
X719851Y92741D01*
D11*
X708909Y603450D03*
X651109Y603450D03*
D12*
X731420Y625844D02*
X737012Y625844D01*
X737012Y614156D01*
X731420Y614156D01*
X731420Y625844D01*
X731420Y616325D02*
X737012Y616325D01*
X737012Y618494D02*
X731420Y618494D01*
X731420Y620663D02*
X737012Y620663D01*
X737012Y622832D02*
X731420Y622832D01*
X731420Y625001D02*
X737012Y625001D01*
X726598Y625844D02*
X721006Y625844D01*
X726598Y625844D02*
X726598Y614156D01*
X721006Y614156D01*
X721006Y625844D01*
X721006Y616325D02*
X726598Y616325D01*
X726598Y618494D02*
X721006Y618494D01*
X721006Y620663D02*
X726598Y620663D01*
X726598Y622832D02*
X721006Y622832D01*
X721006Y625001D02*
X726598Y625001D01*
D13*
X580009Y510300D03*
D14*
X750009Y45000D03*
X385009Y645000D03*
D10*
X471167Y89747D02*
X471167Y84413D01*
X471167Y89747D02*
X482851Y89747D01*
X482851Y84413D01*
X471167Y84413D01*
X471167Y86585D02*
X482851Y86585D01*
X482851Y88757D02*
X471167Y88757D01*
X471167Y79587D02*
X471167Y74253D01*
X471167Y79587D02*
X482851Y79587D01*
X482851Y74253D01*
X471167Y74253D01*
X471167Y76425D02*
X482851Y76425D01*
X482851Y78597D02*
X471167Y78597D01*
D15*
X477009Y94700D03*
X477009Y69300D03*
D10*
X624406Y235842D02*
X629740Y235842D01*
X629740Y224158D01*
X624406Y224158D01*
X624406Y235842D01*
X624406Y226330D02*
X629740Y226330D01*
X629740Y228502D02*
X624406Y228502D01*
X624406Y230674D02*
X629740Y230674D01*
X629740Y232846D02*
X624406Y232846D01*
X624406Y235018D02*
X629740Y235018D01*
X621612Y235842D02*
X616278Y235842D01*
X621612Y235842D02*
X621612Y224158D01*
X616278Y224158D01*
X616278Y235842D01*
X616278Y226330D02*
X621612Y226330D01*
X621612Y228502D02*
X616278Y228502D01*
X616278Y230674D02*
X621612Y230674D01*
X621612Y232846D02*
X616278Y232846D01*
X616278Y235018D02*
X621612Y235018D01*
D12*
X597165Y622411D02*
X597165Y628003D01*
X608853Y628003D01*
X608853Y622411D01*
X597165Y622411D01*
X597165Y624580D02*
X608853Y624580D01*
X608853Y626749D02*
X597165Y626749D01*
X597165Y617589D02*
X597165Y611997D01*
X597165Y617589D02*
X608853Y617589D01*
X608853Y611997D01*
X597165Y611997D01*
X597165Y614166D02*
X608853Y614166D01*
X608853Y616335D02*
X597165Y616335D01*
X561165Y622411D02*
X561165Y628003D01*
X572853Y628003D01*
X572853Y622411D01*
X561165Y622411D01*
X561165Y624580D02*
X572853Y624580D01*
X572853Y626749D02*
X561165Y626749D01*
X561165Y617589D02*
X561165Y611997D01*
X561165Y617589D02*
X572853Y617589D01*
X572853Y611997D01*
X561165Y611997D01*
X561165Y614166D02*
X572853Y614166D01*
X572853Y616335D02*
X561165Y616335D01*
X526165Y622411D02*
X526165Y628003D01*
X537853Y628003D01*
X537853Y622411D01*
X526165Y622411D01*
X526165Y624580D02*
X537853Y624580D01*
X537853Y626749D02*
X526165Y626749D01*
X526165Y617589D02*
X526165Y611997D01*
X526165Y617589D02*
X537853Y617589D01*
X537853Y611997D01*
X526165Y611997D01*
X526165Y614166D02*
X537853Y614166D01*
X537853Y616335D02*
X526165Y616335D01*
D15*
X397509Y240000D03*
X397509Y265400D03*
X397509Y290800D03*
X397509Y316200D03*
X397509Y341600D03*
X397509Y367000D03*
D16*
X680009Y177500D03*
D17*
X480009Y177500D03*
D18*
X656269Y6010D02*
X658749Y6010D01*
X656269Y6010D02*
X656269Y24490D01*
X658749Y24490D01*
X658749Y6010D01*
X658749Y8185D02*
X656269Y8185D01*
X656269Y10360D02*
X658749Y10360D01*
X658749Y12535D02*
X656269Y12535D01*
X656269Y14710D02*
X658749Y14710D01*
X658749Y16885D02*
X656269Y16885D01*
X656269Y19060D02*
X658749Y19060D01*
X658749Y21235D02*
X656269Y21235D01*
X656269Y23410D02*
X658749Y23410D01*
X653749Y6010D02*
X651269Y6010D01*
X651269Y24490D01*
X653749Y24490D01*
X653749Y6010D01*
X653749Y8185D02*
X651269Y8185D01*
X651269Y10360D02*
X653749Y10360D01*
X653749Y12535D02*
X651269Y12535D01*
X651269Y14710D02*
X653749Y14710D01*
X653749Y16885D02*
X651269Y16885D01*
X651269Y19060D02*
X653749Y19060D01*
X653749Y21235D02*
X651269Y21235D01*
X651269Y23410D02*
X653749Y23410D01*
X648749Y6010D02*
X646269Y6010D01*
X646269Y24490D01*
X648749Y24490D01*
X648749Y6010D01*
X648749Y8185D02*
X646269Y8185D01*
X646269Y10360D02*
X648749Y10360D01*
X648749Y12535D02*
X646269Y12535D01*
X646269Y14710D02*
X648749Y14710D01*
X648749Y16885D02*
X646269Y16885D01*
X646269Y19060D02*
X648749Y19060D01*
X648749Y21235D02*
X646269Y21235D01*
X646269Y23410D02*
X648749Y23410D01*
X643749Y6010D02*
X641269Y6010D01*
X641269Y24490D01*
X643749Y24490D01*
X643749Y6010D01*
X643749Y8185D02*
X641269Y8185D01*
X641269Y10360D02*
X643749Y10360D01*
X643749Y12535D02*
X641269Y12535D01*
X641269Y14710D02*
X643749Y14710D01*
X643749Y16885D02*
X641269Y16885D01*
X641269Y19060D02*
X643749Y19060D01*
X643749Y21235D02*
X641269Y21235D01*
X641269Y23410D02*
X643749Y23410D01*
X638749Y6010D02*
X636269Y6010D01*
X636269Y24490D01*
X638749Y24490D01*
X638749Y6010D01*
X638749Y8185D02*
X636269Y8185D01*
X636269Y10360D02*
X638749Y10360D01*
X638749Y12535D02*
X636269Y12535D01*
X636269Y14710D02*
X638749Y14710D01*
X638749Y16885D02*
X636269Y16885D01*
X636269Y19060D02*
X638749Y19060D01*
X638749Y21235D02*
X636269Y21235D01*
X636269Y23410D02*
X638749Y23410D01*
X633749Y6010D02*
X631269Y6010D01*
X631269Y24490D01*
X633749Y24490D01*
X633749Y6010D01*
X633749Y8185D02*
X631269Y8185D01*
X631269Y10360D02*
X633749Y10360D01*
X633749Y12535D02*
X631269Y12535D01*
X631269Y14710D02*
X633749Y14710D01*
X633749Y16885D02*
X631269Y16885D01*
X631269Y19060D02*
X633749Y19060D01*
X633749Y21235D02*
X631269Y21235D01*
X631269Y23410D02*
X633749Y23410D01*
X628749Y6010D02*
X626269Y6010D01*
X626269Y24490D01*
X628749Y24490D01*
X628749Y6010D01*
X628749Y8185D02*
X626269Y8185D01*
X626269Y10360D02*
X628749Y10360D01*
X628749Y12535D02*
X626269Y12535D01*
X626269Y14710D02*
X628749Y14710D01*
X628749Y16885D02*
X626269Y16885D01*
X626269Y19060D02*
X628749Y19060D01*
X628749Y21235D02*
X626269Y21235D01*
X626269Y23410D02*
X628749Y23410D01*
X623749Y6010D02*
X621269Y6010D01*
X621269Y24490D01*
X623749Y24490D01*
X623749Y6010D01*
X623749Y8185D02*
X621269Y8185D01*
X621269Y10360D02*
X623749Y10360D01*
X623749Y12535D02*
X621269Y12535D01*
X621269Y14710D02*
X623749Y14710D01*
X623749Y16885D02*
X621269Y16885D01*
X621269Y19060D02*
X623749Y19060D01*
X623749Y21235D02*
X621269Y21235D01*
X621269Y23410D02*
X623749Y23410D01*
X618749Y6010D02*
X616269Y6010D01*
X616269Y24490D01*
X618749Y24490D01*
X618749Y6010D01*
X618749Y8185D02*
X616269Y8185D01*
X616269Y10360D02*
X618749Y10360D01*
X618749Y12535D02*
X616269Y12535D01*
X616269Y14710D02*
X618749Y14710D01*
X618749Y16885D02*
X616269Y16885D01*
X616269Y19060D02*
X618749Y19060D01*
X618749Y21235D02*
X616269Y21235D01*
X616269Y23410D02*
X618749Y23410D01*
X613749Y6010D02*
X611269Y6010D01*
X611269Y24490D01*
X613749Y24490D01*
X613749Y6010D01*
X613749Y8185D02*
X611269Y8185D01*
X611269Y10360D02*
X613749Y10360D01*
X613749Y12535D02*
X611269Y12535D01*
X611269Y14710D02*
X613749Y14710D01*
X613749Y16885D02*
X611269Y16885D01*
X611269Y19060D02*
X613749Y19060D01*
X613749Y21235D02*
X611269Y21235D01*
X611269Y23410D02*
X613749Y23410D01*
X608749Y6010D02*
X606269Y6010D01*
X606269Y24490D01*
X608749Y24490D01*
X608749Y6010D01*
X608749Y8185D02*
X606269Y8185D01*
X606269Y10360D02*
X608749Y10360D01*
X608749Y12535D02*
X606269Y12535D01*
X606269Y14710D02*
X608749Y14710D01*
X608749Y16885D02*
X606269Y16885D01*
X606269Y19060D02*
X608749Y19060D01*
X608749Y21235D02*
X606269Y21235D01*
X606269Y23410D02*
X608749Y23410D01*
X583749Y6010D02*
X581269Y6010D01*
X581269Y24490D01*
X583749Y24490D01*
X583749Y6010D01*
X583749Y8185D02*
X581269Y8185D01*
X581269Y10360D02*
X583749Y10360D01*
X583749Y12535D02*
X581269Y12535D01*
X581269Y14710D02*
X583749Y14710D01*
X583749Y16885D02*
X581269Y16885D01*
X581269Y19060D02*
X583749Y19060D01*
X583749Y21235D02*
X581269Y21235D01*
X581269Y23410D02*
X583749Y23410D01*
X578749Y6010D02*
X576269Y6010D01*
X576269Y24490D01*
X578749Y24490D01*
X578749Y6010D01*
X578749Y8185D02*
X576269Y8185D01*
X576269Y10360D02*
X578749Y10360D01*
X578749Y12535D02*
X576269Y12535D01*
X576269Y14710D02*
X578749Y14710D01*
X578749Y16885D02*
X576269Y16885D01*
X576269Y19060D02*
X578749Y19060D01*
X578749Y21235D02*
X576269Y21235D01*
X576269Y23410D02*
X578749Y23410D01*
X573749Y6010D02*
X571269Y6010D01*
X571269Y24490D01*
X573749Y24490D01*
X573749Y6010D01*
X573749Y8185D02*
X571269Y8185D01*
X571269Y10360D02*
X573749Y10360D01*
X573749Y12535D02*
X571269Y12535D01*
X571269Y14710D02*
X573749Y14710D01*
X573749Y16885D02*
X571269Y16885D01*
X571269Y19060D02*
X573749Y19060D01*
X573749Y21235D02*
X571269Y21235D01*
X571269Y23410D02*
X573749Y23410D01*
X568749Y6010D02*
X566269Y6010D01*
X566269Y24490D01*
X568749Y24490D01*
X568749Y6010D01*
X568749Y8185D02*
X566269Y8185D01*
X566269Y10360D02*
X568749Y10360D01*
X568749Y12535D02*
X566269Y12535D01*
X566269Y14710D02*
X568749Y14710D01*
X568749Y16885D02*
X566269Y16885D01*
X566269Y19060D02*
X568749Y19060D01*
X568749Y21235D02*
X566269Y21235D01*
X566269Y23410D02*
X568749Y23410D01*
X563749Y6010D02*
X561269Y6010D01*
X561269Y24490D01*
X563749Y24490D01*
X563749Y6010D01*
X563749Y8185D02*
X561269Y8185D01*
X561269Y10360D02*
X563749Y10360D01*
X563749Y12535D02*
X561269Y12535D01*
X561269Y14710D02*
X563749Y14710D01*
X563749Y16885D02*
X561269Y16885D01*
X561269Y19060D02*
X563749Y19060D01*
X563749Y21235D02*
X561269Y21235D01*
X561269Y23410D02*
X563749Y23410D01*
X558749Y6010D02*
X556269Y6010D01*
X556269Y24490D01*
X558749Y24490D01*
X558749Y6010D01*
X558749Y8185D02*
X556269Y8185D01*
X556269Y10360D02*
X558749Y10360D01*
X558749Y12535D02*
X556269Y12535D01*
X556269Y14710D02*
X558749Y14710D01*
X558749Y16885D02*
X556269Y16885D01*
X556269Y19060D02*
X558749Y19060D01*
X558749Y21235D02*
X556269Y21235D01*
X556269Y23410D02*
X558749Y23410D01*
X553749Y6010D02*
X551269Y6010D01*
X551269Y24490D01*
X553749Y24490D01*
X553749Y6010D01*
X553749Y8185D02*
X551269Y8185D01*
X551269Y10360D02*
X553749Y10360D01*
X553749Y12535D02*
X551269Y12535D01*
X551269Y14710D02*
X553749Y14710D01*
X553749Y16885D02*
X551269Y16885D01*
X551269Y19060D02*
X553749Y19060D01*
X553749Y21235D02*
X551269Y21235D01*
X551269Y23410D02*
X553749Y23410D01*
X548749Y6010D02*
X546269Y6010D01*
X546269Y24490D01*
X548749Y24490D01*
X548749Y6010D01*
X548749Y8185D02*
X546269Y8185D01*
X546269Y10360D02*
X548749Y10360D01*
X548749Y12535D02*
X546269Y12535D01*
X546269Y14710D02*
X548749Y14710D01*
X548749Y16885D02*
X546269Y16885D01*
X546269Y19060D02*
X548749Y19060D01*
X548749Y21235D02*
X546269Y21235D01*
X546269Y23410D02*
X548749Y23410D01*
X543749Y6010D02*
X541269Y6010D01*
X541269Y24490D01*
X543749Y24490D01*
X543749Y6010D01*
X543749Y8185D02*
X541269Y8185D01*
X541269Y10360D02*
X543749Y10360D01*
X543749Y12535D02*
X541269Y12535D01*
X541269Y14710D02*
X543749Y14710D01*
X543749Y16885D02*
X541269Y16885D01*
X541269Y19060D02*
X543749Y19060D01*
X543749Y21235D02*
X541269Y21235D01*
X541269Y23410D02*
X543749Y23410D01*
X538749Y6010D02*
X536269Y6010D01*
X536269Y24490D01*
X538749Y24490D01*
X538749Y6010D01*
X538749Y8185D02*
X536269Y8185D01*
X536269Y10360D02*
X538749Y10360D01*
X538749Y12535D02*
X536269Y12535D01*
X536269Y14710D02*
X538749Y14710D01*
X538749Y16885D02*
X536269Y16885D01*
X536269Y19060D02*
X538749Y19060D01*
X538749Y21235D02*
X536269Y21235D01*
X536269Y23410D02*
X538749Y23410D01*
X533749Y6010D02*
X531269Y6010D01*
X531269Y24490D01*
X533749Y24490D01*
X533749Y6010D01*
X533749Y8185D02*
X531269Y8185D01*
X531269Y10360D02*
X533749Y10360D01*
X533749Y12535D02*
X531269Y12535D01*
X531269Y14710D02*
X533749Y14710D01*
X533749Y16885D02*
X531269Y16885D01*
X531269Y19060D02*
X533749Y19060D01*
X533749Y21235D02*
X531269Y21235D01*
X531269Y23410D02*
X533749Y23410D01*
X528749Y6010D02*
X526269Y6010D01*
X526269Y24490D01*
X528749Y24490D01*
X528749Y6010D01*
X528749Y8185D02*
X526269Y8185D01*
X526269Y10360D02*
X528749Y10360D01*
X528749Y12535D02*
X526269Y12535D01*
X526269Y14710D02*
X528749Y14710D01*
X528749Y16885D02*
X526269Y16885D01*
X526269Y19060D02*
X528749Y19060D01*
X528749Y21235D02*
X526269Y21235D01*
X526269Y23410D02*
X528749Y23410D01*
X523749Y6010D02*
X521269Y6010D01*
X521269Y24490D01*
X523749Y24490D01*
X523749Y6010D01*
X523749Y8185D02*
X521269Y8185D01*
X521269Y10360D02*
X523749Y10360D01*
X523749Y12535D02*
X521269Y12535D01*
X521269Y14710D02*
X523749Y14710D01*
X523749Y16885D02*
X521269Y16885D01*
X521269Y19060D02*
X523749Y19060D01*
X523749Y21235D02*
X521269Y21235D01*
X521269Y23410D02*
X523749Y23410D01*
X518749Y6010D02*
X516269Y6010D01*
X516269Y24490D01*
X518749Y24490D01*
X518749Y6010D01*
X518749Y8185D02*
X516269Y8185D01*
X516269Y10360D02*
X518749Y10360D01*
X518749Y12535D02*
X516269Y12535D01*
X516269Y14710D02*
X518749Y14710D01*
X518749Y16885D02*
X516269Y16885D01*
X516269Y19060D02*
X518749Y19060D01*
X518749Y21235D02*
X516269Y21235D01*
X516269Y23410D02*
X518749Y23410D01*
X513749Y6010D02*
X511269Y6010D01*
X511269Y24490D01*
X513749Y24490D01*
X513749Y6010D01*
X513749Y8185D02*
X511269Y8185D01*
X511269Y10360D02*
X513749Y10360D01*
X513749Y12535D02*
X511269Y12535D01*
X511269Y14710D02*
X513749Y14710D01*
X513749Y16885D02*
X511269Y16885D01*
X511269Y19060D02*
X513749Y19060D01*
X513749Y21235D02*
X511269Y21235D01*
X511269Y23410D02*
X513749Y23410D01*
X508749Y6010D02*
X506269Y6010D01*
X506269Y24490D01*
X508749Y24490D01*
X508749Y6010D01*
X508749Y8185D02*
X506269Y8185D01*
X506269Y10360D02*
X508749Y10360D01*
X508749Y12535D02*
X506269Y12535D01*
X506269Y14710D02*
X508749Y14710D01*
X508749Y16885D02*
X506269Y16885D01*
X506269Y19060D02*
X508749Y19060D01*
X508749Y21235D02*
X506269Y21235D01*
X506269Y23410D02*
X508749Y23410D01*
X503749Y6010D02*
X501269Y6010D01*
X501269Y24490D01*
X503749Y24490D01*
X503749Y6010D01*
X503749Y8185D02*
X501269Y8185D01*
X501269Y10360D02*
X503749Y10360D01*
X503749Y12535D02*
X501269Y12535D01*
X501269Y14710D02*
X503749Y14710D01*
X503749Y16885D02*
X501269Y16885D01*
X501269Y19060D02*
X503749Y19060D01*
X503749Y21235D02*
X501269Y21235D01*
X501269Y23410D02*
X503749Y23410D01*
X498749Y6010D02*
X496269Y6010D01*
X496269Y24490D01*
X498749Y24490D01*
X498749Y6010D01*
X498749Y8185D02*
X496269Y8185D01*
X496269Y10360D02*
X498749Y10360D01*
X498749Y12535D02*
X496269Y12535D01*
X496269Y14710D02*
X498749Y14710D01*
X498749Y16885D02*
X496269Y16885D01*
X496269Y19060D02*
X498749Y19060D01*
X498749Y21235D02*
X496269Y21235D01*
X496269Y23410D02*
X498749Y23410D01*
X493749Y6010D02*
X491269Y6010D01*
X491269Y24490D01*
X493749Y24490D01*
X493749Y6010D01*
X493749Y8185D02*
X491269Y8185D01*
X491269Y10360D02*
X493749Y10360D01*
X493749Y12535D02*
X491269Y12535D01*
X491269Y14710D02*
X493749Y14710D01*
X493749Y16885D02*
X491269Y16885D01*
X491269Y19060D02*
X493749Y19060D01*
X493749Y21235D02*
X491269Y21235D01*
X491269Y23410D02*
X493749Y23410D01*
X488749Y6010D02*
X486269Y6010D01*
X486269Y24490D01*
X488749Y24490D01*
X488749Y6010D01*
X488749Y8185D02*
X486269Y8185D01*
X486269Y10360D02*
X488749Y10360D01*
X488749Y12535D02*
X486269Y12535D01*
X486269Y14710D02*
X488749Y14710D01*
X488749Y16885D02*
X486269Y16885D01*
X486269Y19060D02*
X488749Y19060D01*
X488749Y21235D02*
X486269Y21235D01*
X486269Y23410D02*
X488749Y23410D01*
X483749Y6010D02*
X481269Y6010D01*
X481269Y24490D01*
X483749Y24490D01*
X483749Y6010D01*
X483749Y8185D02*
X481269Y8185D01*
X481269Y10360D02*
X483749Y10360D01*
X483749Y12535D02*
X481269Y12535D01*
X481269Y14710D02*
X483749Y14710D01*
X483749Y16885D02*
X481269Y16885D01*
X481269Y19060D02*
X483749Y19060D01*
X483749Y21235D02*
X481269Y21235D01*
X481269Y23410D02*
X483749Y23410D01*
X478749Y6010D02*
X476269Y6010D01*
X476269Y24490D01*
X478749Y24490D01*
X478749Y6010D01*
X478749Y8185D02*
X476269Y8185D01*
X476269Y10360D02*
X478749Y10360D01*
X478749Y12535D02*
X476269Y12535D01*
X476269Y14710D02*
X478749Y14710D01*
X478749Y16885D02*
X476269Y16885D01*
X476269Y19060D02*
X478749Y19060D01*
X478749Y21235D02*
X476269Y21235D01*
X476269Y23410D02*
X478749Y23410D01*
D19*
X747509Y461000D03*
X747509Y419000D03*
X734509Y440000D03*
X387509Y419000D03*
X387509Y461000D03*
X400509Y440000D03*
D10*
X1099835Y85603D02*
X1099835Y80269D01*
X1088151Y80269D01*
X1088151Y85603D01*
X1099835Y85603D01*
X1099835Y82441D02*
X1088151Y82441D01*
X1088151Y84613D02*
X1099835Y84613D01*
X1099835Y88397D02*
X1099835Y93731D01*
X1099835Y88397D02*
X1088151Y88397D01*
X1088151Y93731D01*
X1099835Y93731D01*
X1099835Y90569D02*
X1088151Y90569D01*
X1088151Y92741D02*
X1099835Y92741D01*
D11*
X1088893Y603450D03*
X1031093Y603450D03*
D12*
X1111404Y625844D02*
X1116996Y625844D01*
X1116996Y614156D01*
X1111404Y614156D01*
X1111404Y625844D01*
X1111404Y616325D02*
X1116996Y616325D01*
X1116996Y618494D02*
X1111404Y618494D01*
X1111404Y620663D02*
X1116996Y620663D01*
X1116996Y622832D02*
X1111404Y622832D01*
X1111404Y625001D02*
X1116996Y625001D01*
X1106582Y625844D02*
X1100990Y625844D01*
X1106582Y625844D02*
X1106582Y614156D01*
X1100990Y614156D01*
X1100990Y625844D01*
X1100990Y616325D02*
X1106582Y616325D01*
X1106582Y618494D02*
X1100990Y618494D01*
X1100990Y620663D02*
X1106582Y620663D01*
X1106582Y622832D02*
X1100990Y622832D01*
X1100990Y625001D02*
X1106582Y625001D01*
D13*
X959993Y510300D03*
D14*
X1129993Y45000D03*
X764993Y645000D03*
D10*
X851151Y89747D02*
X851151Y84413D01*
X851151Y89747D02*
X862835Y89747D01*
X862835Y84413D01*
X851151Y84413D01*
X851151Y86585D02*
X862835Y86585D01*
X862835Y88757D02*
X851151Y88757D01*
X851151Y79587D02*
X851151Y74253D01*
X851151Y79587D02*
X862835Y79587D01*
X862835Y74253D01*
X851151Y74253D01*
X851151Y76425D02*
X862835Y76425D01*
X862835Y78597D02*
X851151Y78597D01*
D15*
X856993Y94700D03*
X856993Y69300D03*
D10*
X1004390Y235842D02*
X1009724Y235842D01*
X1009724Y224158D01*
X1004390Y224158D01*
X1004390Y235842D01*
X1004390Y226330D02*
X1009724Y226330D01*
X1009724Y228502D02*
X1004390Y228502D01*
X1004390Y230674D02*
X1009724Y230674D01*
X1009724Y232846D02*
X1004390Y232846D01*
X1004390Y235018D02*
X1009724Y235018D01*
X1001596Y235842D02*
X996262Y235842D01*
X1001596Y235842D02*
X1001596Y224158D01*
X996262Y224158D01*
X996262Y235842D01*
X996262Y226330D02*
X1001596Y226330D01*
X1001596Y228502D02*
X996262Y228502D01*
X996262Y230674D02*
X1001596Y230674D01*
X1001596Y232846D02*
X996262Y232846D01*
X996262Y235018D02*
X1001596Y235018D01*
D12*
X977149Y622411D02*
X977149Y628003D01*
X988837Y628003D01*
X988837Y622411D01*
X977149Y622411D01*
X977149Y624580D02*
X988837Y624580D01*
X988837Y626749D02*
X977149Y626749D01*
X977149Y617589D02*
X977149Y611997D01*
X977149Y617589D02*
X988837Y617589D01*
X988837Y611997D01*
X977149Y611997D01*
X977149Y614166D02*
X988837Y614166D01*
X988837Y616335D02*
X977149Y616335D01*
X941149Y622411D02*
X941149Y628003D01*
X952837Y628003D01*
X952837Y622411D01*
X941149Y622411D01*
X941149Y624580D02*
X952837Y624580D01*
X952837Y626749D02*
X941149Y626749D01*
X941149Y617589D02*
X941149Y611997D01*
X941149Y617589D02*
X952837Y617589D01*
X952837Y611997D01*
X941149Y611997D01*
X941149Y614166D02*
X952837Y614166D01*
X952837Y616335D02*
X941149Y616335D01*
X906149Y622411D02*
X906149Y628003D01*
X917837Y628003D01*
X917837Y622411D01*
X906149Y622411D01*
X906149Y624580D02*
X917837Y624580D01*
X917837Y626749D02*
X906149Y626749D01*
X906149Y617589D02*
X906149Y611997D01*
X906149Y617589D02*
X917837Y617589D01*
X917837Y611997D01*
X906149Y611997D01*
X906149Y614166D02*
X917837Y614166D01*
X917837Y616335D02*
X906149Y616335D01*
D15*
X777493Y240000D03*
X777493Y265400D03*
X777493Y290800D03*
X777493Y316200D03*
X777493Y341600D03*
X777493Y367000D03*
D16*
X1059993Y177500D03*
D17*
X859993Y177500D03*
D18*
X1036253Y6010D02*
X1038733Y6010D01*
X1036253Y6010D02*
X1036253Y24490D01*
X1038733Y24490D01*
X1038733Y6010D01*
X1038733Y8185D02*
X1036253Y8185D01*
X1036253Y10360D02*
X1038733Y10360D01*
X1038733Y12535D02*
X1036253Y12535D01*
X1036253Y14710D02*
X1038733Y14710D01*
X1038733Y16885D02*
X1036253Y16885D01*
X1036253Y19060D02*
X1038733Y19060D01*
X1038733Y21235D02*
X1036253Y21235D01*
X1036253Y23410D02*
X1038733Y23410D01*
X1033733Y6010D02*
X1031253Y6010D01*
X1031253Y24490D01*
X1033733Y24490D01*
X1033733Y6010D01*
X1033733Y8185D02*
X1031253Y8185D01*
X1031253Y10360D02*
X1033733Y10360D01*
X1033733Y12535D02*
X1031253Y12535D01*
X1031253Y14710D02*
X1033733Y14710D01*
X1033733Y16885D02*
X1031253Y16885D01*
X1031253Y19060D02*
X1033733Y19060D01*
X1033733Y21235D02*
X1031253Y21235D01*
X1031253Y23410D02*
X1033733Y23410D01*
X1028733Y6010D02*
X1026253Y6010D01*
X1026253Y24490D01*
X1028733Y24490D01*
X1028733Y6010D01*
X1028733Y8185D02*
X1026253Y8185D01*
X1026253Y10360D02*
X1028733Y10360D01*
X1028733Y12535D02*
X1026253Y12535D01*
X1026253Y14710D02*
X1028733Y14710D01*
X1028733Y16885D02*
X1026253Y16885D01*
X1026253Y19060D02*
X1028733Y19060D01*
X1028733Y21235D02*
X1026253Y21235D01*
X1026253Y23410D02*
X1028733Y23410D01*
X1023733Y6010D02*
X1021253Y6010D01*
X1021253Y24490D01*
X1023733Y24490D01*
X1023733Y6010D01*
X1023733Y8185D02*
X1021253Y8185D01*
X1021253Y10360D02*
X1023733Y10360D01*
X1023733Y12535D02*
X1021253Y12535D01*
X1021253Y14710D02*
X1023733Y14710D01*
X1023733Y16885D02*
X1021253Y16885D01*
X1021253Y19060D02*
X1023733Y19060D01*
X1023733Y21235D02*
X1021253Y21235D01*
X1021253Y23410D02*
X1023733Y23410D01*
X1018733Y6010D02*
X1016253Y6010D01*
X1016253Y24490D01*
X1018733Y24490D01*
X1018733Y6010D01*
X1018733Y8185D02*
X1016253Y8185D01*
X1016253Y10360D02*
X1018733Y10360D01*
X1018733Y12535D02*
X1016253Y12535D01*
X1016253Y14710D02*
X1018733Y14710D01*
X1018733Y16885D02*
X1016253Y16885D01*
X1016253Y19060D02*
X1018733Y19060D01*
X1018733Y21235D02*
X1016253Y21235D01*
X1016253Y23410D02*
X1018733Y23410D01*
X1013733Y6010D02*
X1011253Y6010D01*
X1011253Y24490D01*
X1013733Y24490D01*
X1013733Y6010D01*
X1013733Y8185D02*
X1011253Y8185D01*
X1011253Y10360D02*
X1013733Y10360D01*
X1013733Y12535D02*
X1011253Y12535D01*
X1011253Y14710D02*
X1013733Y14710D01*
X1013733Y16885D02*
X1011253Y16885D01*
X1011253Y19060D02*
X1013733Y19060D01*
X1013733Y21235D02*
X1011253Y21235D01*
X1011253Y23410D02*
X1013733Y23410D01*
X1008733Y6010D02*
X1006253Y6010D01*
X1006253Y24490D01*
X1008733Y24490D01*
X1008733Y6010D01*
X1008733Y8185D02*
X1006253Y8185D01*
X1006253Y10360D02*
X1008733Y10360D01*
X1008733Y12535D02*
X1006253Y12535D01*
X1006253Y14710D02*
X1008733Y14710D01*
X1008733Y16885D02*
X1006253Y16885D01*
X1006253Y19060D02*
X1008733Y19060D01*
X1008733Y21235D02*
X1006253Y21235D01*
X1006253Y23410D02*
X1008733Y23410D01*
X1003733Y6010D02*
X1001253Y6010D01*
X1001253Y24490D01*
X1003733Y24490D01*
X1003733Y6010D01*
X1003733Y8185D02*
X1001253Y8185D01*
X1001253Y10360D02*
X1003733Y10360D01*
X1003733Y12535D02*
X1001253Y12535D01*
X1001253Y14710D02*
X1003733Y14710D01*
X1003733Y16885D02*
X1001253Y16885D01*
X1001253Y19060D02*
X1003733Y19060D01*
X1003733Y21235D02*
X1001253Y21235D01*
X1001253Y23410D02*
X1003733Y23410D01*
X998733Y6010D02*
X996253Y6010D01*
X996253Y24490D01*
X998733Y24490D01*
X998733Y6010D01*
X998733Y8185D02*
X996253Y8185D01*
X996253Y10360D02*
X998733Y10360D01*
X998733Y12535D02*
X996253Y12535D01*
X996253Y14710D02*
X998733Y14710D01*
X998733Y16885D02*
X996253Y16885D01*
X996253Y19060D02*
X998733Y19060D01*
X998733Y21235D02*
X996253Y21235D01*
X996253Y23410D02*
X998733Y23410D01*
X993733Y6010D02*
X991253Y6010D01*
X991253Y24490D01*
X993733Y24490D01*
X993733Y6010D01*
X993733Y8185D02*
X991253Y8185D01*
X991253Y10360D02*
X993733Y10360D01*
X993733Y12535D02*
X991253Y12535D01*
X991253Y14710D02*
X993733Y14710D01*
X993733Y16885D02*
X991253Y16885D01*
X991253Y19060D02*
X993733Y19060D01*
X993733Y21235D02*
X991253Y21235D01*
X991253Y23410D02*
X993733Y23410D01*
X988733Y6010D02*
X986253Y6010D01*
X986253Y24490D01*
X988733Y24490D01*
X988733Y6010D01*
X988733Y8185D02*
X986253Y8185D01*
X986253Y10360D02*
X988733Y10360D01*
X988733Y12535D02*
X986253Y12535D01*
X986253Y14710D02*
X988733Y14710D01*
X988733Y16885D02*
X986253Y16885D01*
X986253Y19060D02*
X988733Y19060D01*
X988733Y21235D02*
X986253Y21235D01*
X986253Y23410D02*
X988733Y23410D01*
X963733Y6010D02*
X961253Y6010D01*
X961253Y24490D01*
X963733Y24490D01*
X963733Y6010D01*
X963733Y8185D02*
X961253Y8185D01*
X961253Y10360D02*
X963733Y10360D01*
X963733Y12535D02*
X961253Y12535D01*
X961253Y14710D02*
X963733Y14710D01*
X963733Y16885D02*
X961253Y16885D01*
X961253Y19060D02*
X963733Y19060D01*
X963733Y21235D02*
X961253Y21235D01*
X961253Y23410D02*
X963733Y23410D01*
X958733Y6010D02*
X956253Y6010D01*
X956253Y24490D01*
X958733Y24490D01*
X958733Y6010D01*
X958733Y8185D02*
X956253Y8185D01*
X956253Y10360D02*
X958733Y10360D01*
X958733Y12535D02*
X956253Y12535D01*
X956253Y14710D02*
X958733Y14710D01*
X958733Y16885D02*
X956253Y16885D01*
X956253Y19060D02*
X958733Y19060D01*
X958733Y21235D02*
X956253Y21235D01*
X956253Y23410D02*
X958733Y23410D01*
X953733Y6010D02*
X951253Y6010D01*
X951253Y24490D01*
X953733Y24490D01*
X953733Y6010D01*
X953733Y8185D02*
X951253Y8185D01*
X951253Y10360D02*
X953733Y10360D01*
X953733Y12535D02*
X951253Y12535D01*
X951253Y14710D02*
X953733Y14710D01*
X953733Y16885D02*
X951253Y16885D01*
X951253Y19060D02*
X953733Y19060D01*
X953733Y21235D02*
X951253Y21235D01*
X951253Y23410D02*
X953733Y23410D01*
X948733Y6010D02*
X946253Y6010D01*
X946253Y24490D01*
X948733Y24490D01*
X948733Y6010D01*
X948733Y8185D02*
X946253Y8185D01*
X946253Y10360D02*
X948733Y10360D01*
X948733Y12535D02*
X946253Y12535D01*
X946253Y14710D02*
X948733Y14710D01*
X948733Y16885D02*
X946253Y16885D01*
X946253Y19060D02*
X948733Y19060D01*
X948733Y21235D02*
X946253Y21235D01*
X946253Y23410D02*
X948733Y23410D01*
X943733Y6010D02*
X941253Y6010D01*
X941253Y24490D01*
X943733Y24490D01*
X943733Y6010D01*
X943733Y8185D02*
X941253Y8185D01*
X941253Y10360D02*
X943733Y10360D01*
X943733Y12535D02*
X941253Y12535D01*
X941253Y14710D02*
X943733Y14710D01*
X943733Y16885D02*
X941253Y16885D01*
X941253Y19060D02*
X943733Y19060D01*
X943733Y21235D02*
X941253Y21235D01*
X941253Y23410D02*
X943733Y23410D01*
X938733Y6010D02*
X936253Y6010D01*
X936253Y24490D01*
X938733Y24490D01*
X938733Y6010D01*
X938733Y8185D02*
X936253Y8185D01*
X936253Y10360D02*
X938733Y10360D01*
X938733Y12535D02*
X936253Y12535D01*
X936253Y14710D02*
X938733Y14710D01*
X938733Y16885D02*
X936253Y16885D01*
X936253Y19060D02*
X938733Y19060D01*
X938733Y21235D02*
X936253Y21235D01*
X936253Y23410D02*
X938733Y23410D01*
X933733Y6010D02*
X931253Y6010D01*
X931253Y24490D01*
X933733Y24490D01*
X933733Y6010D01*
X933733Y8185D02*
X931253Y8185D01*
X931253Y10360D02*
X933733Y10360D01*
X933733Y12535D02*
X931253Y12535D01*
X931253Y14710D02*
X933733Y14710D01*
X933733Y16885D02*
X931253Y16885D01*
X931253Y19060D02*
X933733Y19060D01*
X933733Y21235D02*
X931253Y21235D01*
X931253Y23410D02*
X933733Y23410D01*
X928733Y6010D02*
X926253Y6010D01*
X926253Y24490D01*
X928733Y24490D01*
X928733Y6010D01*
X928733Y8185D02*
X926253Y8185D01*
X926253Y10360D02*
X928733Y10360D01*
X928733Y12535D02*
X926253Y12535D01*
X926253Y14710D02*
X928733Y14710D01*
X928733Y16885D02*
X926253Y16885D01*
X926253Y19060D02*
X928733Y19060D01*
X928733Y21235D02*
X926253Y21235D01*
X926253Y23410D02*
X928733Y23410D01*
X923733Y6010D02*
X921253Y6010D01*
X921253Y24490D01*
X923733Y24490D01*
X923733Y6010D01*
X923733Y8185D02*
X921253Y8185D01*
X921253Y10360D02*
X923733Y10360D01*
X923733Y12535D02*
X921253Y12535D01*
X921253Y14710D02*
X923733Y14710D01*
X923733Y16885D02*
X921253Y16885D01*
X921253Y19060D02*
X923733Y19060D01*
X923733Y21235D02*
X921253Y21235D01*
X921253Y23410D02*
X923733Y23410D01*
X918733Y6010D02*
X916253Y6010D01*
X916253Y24490D01*
X918733Y24490D01*
X918733Y6010D01*
X918733Y8185D02*
X916253Y8185D01*
X916253Y10360D02*
X918733Y10360D01*
X918733Y12535D02*
X916253Y12535D01*
X916253Y14710D02*
X918733Y14710D01*
X918733Y16885D02*
X916253Y16885D01*
X916253Y19060D02*
X918733Y19060D01*
X918733Y21235D02*
X916253Y21235D01*
X916253Y23410D02*
X918733Y23410D01*
X913733Y6010D02*
X911253Y6010D01*
X911253Y24490D01*
X913733Y24490D01*
X913733Y6010D01*
X913733Y8185D02*
X911253Y8185D01*
X911253Y10360D02*
X913733Y10360D01*
X913733Y12535D02*
X911253Y12535D01*
X911253Y14710D02*
X913733Y14710D01*
X913733Y16885D02*
X911253Y16885D01*
X911253Y19060D02*
X913733Y19060D01*
X913733Y21235D02*
X911253Y21235D01*
X911253Y23410D02*
X913733Y23410D01*
X908733Y6010D02*
X906253Y6010D01*
X906253Y24490D01*
X908733Y24490D01*
X908733Y6010D01*
X908733Y8185D02*
X906253Y8185D01*
X906253Y10360D02*
X908733Y10360D01*
X908733Y12535D02*
X906253Y12535D01*
X906253Y14710D02*
X908733Y14710D01*
X908733Y16885D02*
X906253Y16885D01*
X906253Y19060D02*
X908733Y19060D01*
X908733Y21235D02*
X906253Y21235D01*
X906253Y23410D02*
X908733Y23410D01*
X903733Y6010D02*
X901253Y6010D01*
X901253Y24490D01*
X903733Y24490D01*
X903733Y6010D01*
X903733Y8185D02*
X901253Y8185D01*
X901253Y10360D02*
X903733Y10360D01*
X903733Y12535D02*
X901253Y12535D01*
X901253Y14710D02*
X903733Y14710D01*
X903733Y16885D02*
X901253Y16885D01*
X901253Y19060D02*
X903733Y19060D01*
X903733Y21235D02*
X901253Y21235D01*
X901253Y23410D02*
X903733Y23410D01*
X898733Y6010D02*
X896253Y6010D01*
X896253Y24490D01*
X898733Y24490D01*
X898733Y6010D01*
X898733Y8185D02*
X896253Y8185D01*
X896253Y10360D02*
X898733Y10360D01*
X898733Y12535D02*
X896253Y12535D01*
X896253Y14710D02*
X898733Y14710D01*
X898733Y16885D02*
X896253Y16885D01*
X896253Y19060D02*
X898733Y19060D01*
X898733Y21235D02*
X896253Y21235D01*
X896253Y23410D02*
X898733Y23410D01*
X893733Y6010D02*
X891253Y6010D01*
X891253Y24490D01*
X893733Y24490D01*
X893733Y6010D01*
X893733Y8185D02*
X891253Y8185D01*
X891253Y10360D02*
X893733Y10360D01*
X893733Y12535D02*
X891253Y12535D01*
X891253Y14710D02*
X893733Y14710D01*
X893733Y16885D02*
X891253Y16885D01*
X891253Y19060D02*
X893733Y19060D01*
X893733Y21235D02*
X891253Y21235D01*
X891253Y23410D02*
X893733Y23410D01*
X888733Y6010D02*
X886253Y6010D01*
X886253Y24490D01*
X888733Y24490D01*
X888733Y6010D01*
X888733Y8185D02*
X886253Y8185D01*
X886253Y10360D02*
X888733Y10360D01*
X888733Y12535D02*
X886253Y12535D01*
X886253Y14710D02*
X888733Y14710D01*
X888733Y16885D02*
X886253Y16885D01*
X886253Y19060D02*
X888733Y19060D01*
X888733Y21235D02*
X886253Y21235D01*
X886253Y23410D02*
X888733Y23410D01*
X883733Y6010D02*
X881253Y6010D01*
X881253Y24490D01*
X883733Y24490D01*
X883733Y6010D01*
X883733Y8185D02*
X881253Y8185D01*
X881253Y10360D02*
X883733Y10360D01*
X883733Y12535D02*
X881253Y12535D01*
X881253Y14710D02*
X883733Y14710D01*
X883733Y16885D02*
X881253Y16885D01*
X881253Y19060D02*
X883733Y19060D01*
X883733Y21235D02*
X881253Y21235D01*
X881253Y23410D02*
X883733Y23410D01*
X878733Y6010D02*
X876253Y6010D01*
X876253Y24490D01*
X878733Y24490D01*
X878733Y6010D01*
X878733Y8185D02*
X876253Y8185D01*
X876253Y10360D02*
X878733Y10360D01*
X878733Y12535D02*
X876253Y12535D01*
X876253Y14710D02*
X878733Y14710D01*
X878733Y16885D02*
X876253Y16885D01*
X876253Y19060D02*
X878733Y19060D01*
X878733Y21235D02*
X876253Y21235D01*
X876253Y23410D02*
X878733Y23410D01*
X873733Y6010D02*
X871253Y6010D01*
X871253Y24490D01*
X873733Y24490D01*
X873733Y6010D01*
X873733Y8185D02*
X871253Y8185D01*
X871253Y10360D02*
X873733Y10360D01*
X873733Y12535D02*
X871253Y12535D01*
X871253Y14710D02*
X873733Y14710D01*
X873733Y16885D02*
X871253Y16885D01*
X871253Y19060D02*
X873733Y19060D01*
X873733Y21235D02*
X871253Y21235D01*
X871253Y23410D02*
X873733Y23410D01*
X868733Y6010D02*
X866253Y6010D01*
X866253Y24490D01*
X868733Y24490D01*
X868733Y6010D01*
X868733Y8185D02*
X866253Y8185D01*
X866253Y10360D02*
X868733Y10360D01*
X868733Y12535D02*
X866253Y12535D01*
X866253Y14710D02*
X868733Y14710D01*
X868733Y16885D02*
X866253Y16885D01*
X866253Y19060D02*
X868733Y19060D01*
X868733Y21235D02*
X866253Y21235D01*
X866253Y23410D02*
X868733Y23410D01*
X863733Y6010D02*
X861253Y6010D01*
X861253Y24490D01*
X863733Y24490D01*
X863733Y6010D01*
X863733Y8185D02*
X861253Y8185D01*
X861253Y10360D02*
X863733Y10360D01*
X863733Y12535D02*
X861253Y12535D01*
X861253Y14710D02*
X863733Y14710D01*
X863733Y16885D02*
X861253Y16885D01*
X861253Y19060D02*
X863733Y19060D01*
X863733Y21235D02*
X861253Y21235D01*
X861253Y23410D02*
X863733Y23410D01*
X858733Y6010D02*
X856253Y6010D01*
X856253Y24490D01*
X858733Y24490D01*
X858733Y6010D01*
X858733Y8185D02*
X856253Y8185D01*
X856253Y10360D02*
X858733Y10360D01*
X858733Y12535D02*
X856253Y12535D01*
X856253Y14710D02*
X858733Y14710D01*
X858733Y16885D02*
X856253Y16885D01*
X856253Y19060D02*
X858733Y19060D01*
X858733Y21235D02*
X856253Y21235D01*
X856253Y23410D02*
X858733Y23410D01*
D19*
X1127493Y461000D03*
X1127493Y419000D03*
X1114493Y440000D03*
X767493Y419000D03*
X767493Y461000D03*
X780493Y440000D03*
D20*
X-26264Y623341D03*
X1161161Y623341D03*
D21*
X-35319Y63500D02*
X-35316Y63722D01*
X-35308Y63944D01*
X-35294Y64166D01*
X-35275Y64388D01*
X-35251Y64608D01*
X-35221Y64829D01*
X-35186Y65048D01*
X-35145Y65267D01*
X-35099Y65484D01*
X-35048Y65700D01*
X-34991Y65915D01*
X-34929Y66129D01*
X-34862Y66340D01*
X-34790Y66551D01*
X-34712Y66759D01*
X-34630Y66965D01*
X-34542Y67169D01*
X-34450Y67372D01*
X-34352Y67571D01*
X-34250Y67768D01*
X-34143Y67963D01*
X-34031Y68155D01*
X-33914Y68344D01*
X-33793Y68531D01*
X-33667Y68714D01*
X-33537Y68894D01*
X-33402Y69071D01*
X-33264Y69244D01*
X-33121Y69414D01*
X-32973Y69581D01*
X-32822Y69744D01*
X-32667Y69903D01*
X-32508Y70058D01*
X-32345Y70209D01*
X-32178Y70357D01*
X-32008Y70500D01*
X-31835Y70638D01*
X-31658Y70773D01*
X-31478Y70903D01*
X-31295Y71029D01*
X-31108Y71150D01*
X-30919Y71267D01*
X-30727Y71379D01*
X-30532Y71486D01*
X-30335Y71588D01*
X-30136Y71686D01*
X-29933Y71778D01*
X-29729Y71866D01*
X-29523Y71948D01*
X-29315Y72026D01*
X-29104Y72098D01*
X-28893Y72165D01*
X-28679Y72227D01*
X-28464Y72284D01*
X-28248Y72335D01*
X-28031Y72381D01*
X-27812Y72422D01*
X-27593Y72457D01*
X-27372Y72487D01*
X-27152Y72511D01*
X-26930Y72530D01*
X-26708Y72544D01*
X-26486Y72552D01*
X-26264Y72555D01*
X-26042Y72552D01*
X-25820Y72544D01*
X-25598Y72530D01*
X-25376Y72511D01*
X-25156Y72487D01*
X-24935Y72457D01*
X-24716Y72422D01*
X-24497Y72381D01*
X-24280Y72335D01*
X-24064Y72284D01*
X-23849Y72227D01*
X-23635Y72165D01*
X-23424Y72098D01*
X-23213Y72026D01*
X-23005Y71948D01*
X-22799Y71866D01*
X-22595Y71778D01*
X-22392Y71686D01*
X-22193Y71588D01*
X-21996Y71486D01*
X-21801Y71379D01*
X-21609Y71267D01*
X-21420Y71150D01*
X-21233Y71029D01*
X-21050Y70903D01*
X-20870Y70773D01*
X-20693Y70638D01*
X-20520Y70500D01*
X-20350Y70357D01*
X-20183Y70209D01*
X-20020Y70058D01*
X-19861Y69903D01*
X-19706Y69744D01*
X-19555Y69581D01*
X-19407Y69414D01*
X-19264Y69244D01*
X-19126Y69071D01*
X-18991Y68894D01*
X-18861Y68714D01*
X-18735Y68531D01*
X-18614Y68344D01*
X-18497Y68155D01*
X-18385Y67963D01*
X-18278Y67768D01*
X-18176Y67571D01*
X-18078Y67372D01*
X-17986Y67169D01*
X-17898Y66965D01*
X-17816Y66759D01*
X-17738Y66551D01*
X-17666Y66340D01*
X-17599Y66129D01*
X-17537Y65915D01*
X-17480Y65700D01*
X-17429Y65484D01*
X-17383Y65267D01*
X-17342Y65048D01*
X-17307Y64829D01*
X-17277Y64608D01*
X-17253Y64388D01*
X-17234Y64166D01*
X-17220Y63944D01*
X-17212Y63722D01*
X-17209Y63500D01*
X-17212Y63278D01*
X-17220Y63056D01*
X-17234Y62834D01*
X-17253Y62612D01*
X-17277Y62392D01*
X-17307Y62171D01*
X-17342Y61952D01*
X-17383Y61733D01*
X-17429Y61516D01*
X-17480Y61300D01*
X-17537Y61085D01*
X-17599Y60871D01*
X-17666Y60660D01*
X-17738Y60449D01*
X-17816Y60241D01*
X-17898Y60035D01*
X-17986Y59831D01*
X-18078Y59628D01*
X-18176Y59429D01*
X-18278Y59232D01*
X-18385Y59037D01*
X-18497Y58845D01*
X-18614Y58656D01*
X-18735Y58469D01*
X-18861Y58286D01*
X-18991Y58106D01*
X-19126Y57929D01*
X-19264Y57756D01*
X-19407Y57586D01*
X-19555Y57419D01*
X-19706Y57256D01*
X-19861Y57097D01*
X-20020Y56942D01*
X-20183Y56791D01*
X-20350Y56643D01*
X-20520Y56500D01*
X-20693Y56362D01*
X-20870Y56227D01*
X-21050Y56097D01*
X-21233Y55971D01*
X-21420Y55850D01*
X-21609Y55733D01*
X-21801Y55621D01*
X-21996Y55514D01*
X-22193Y55412D01*
X-22392Y55314D01*
X-22595Y55222D01*
X-22799Y55134D01*
X-23005Y55052D01*
X-23213Y54974D01*
X-23424Y54902D01*
X-23635Y54835D01*
X-23849Y54773D01*
X-24064Y54716D01*
X-24280Y54665D01*
X-24497Y54619D01*
X-24716Y54578D01*
X-24935Y54543D01*
X-25156Y54513D01*
X-25376Y54489D01*
X-25598Y54470D01*
X-25820Y54456D01*
X-26042Y54448D01*
X-26264Y54445D01*
X-26486Y54448D01*
X-26708Y54456D01*
X-26930Y54470D01*
X-27152Y54489D01*
X-27372Y54513D01*
X-27593Y54543D01*
X-27812Y54578D01*
X-28031Y54619D01*
X-28248Y54665D01*
X-28464Y54716D01*
X-28679Y54773D01*
X-28893Y54835D01*
X-29104Y54902D01*
X-29315Y54974D01*
X-29523Y55052D01*
X-29729Y55134D01*
X-29933Y55222D01*
X-30136Y55314D01*
X-30335Y55412D01*
X-30532Y55514D01*
X-30727Y55621D01*
X-30919Y55733D01*
X-31108Y55850D01*
X-31295Y55971D01*
X-31478Y56097D01*
X-31658Y56227D01*
X-31835Y56362D01*
X-32008Y56500D01*
X-32178Y56643D01*
X-32345Y56791D01*
X-32508Y56942D01*
X-32667Y57097D01*
X-32822Y57256D01*
X-32973Y57419D01*
X-33121Y57586D01*
X-33264Y57756D01*
X-33402Y57929D01*
X-33537Y58106D01*
X-33667Y58286D01*
X-33793Y58469D01*
X-33914Y58656D01*
X-34031Y58845D01*
X-34143Y59037D01*
X-34250Y59232D01*
X-34352Y59429D01*
X-34450Y59628D01*
X-34542Y59831D01*
X-34630Y60035D01*
X-34712Y60241D01*
X-34790Y60449D01*
X-34862Y60660D01*
X-34929Y60871D01*
X-34991Y61085D01*
X-35048Y61300D01*
X-35099Y61516D01*
X-35145Y61733D01*
X-35186Y61952D01*
X-35221Y62171D01*
X-35251Y62392D01*
X-35275Y62612D01*
X-35294Y62834D01*
X-35308Y63056D01*
X-35316Y63278D01*
X-35319Y63500D01*
D22*
X-26264Y63500D03*
M02*
