M48
;GenerationSoftware,Autodesk,EAGLE,9.6.2*%
;CreationDate,2022-09-02T19:49:01Z*%
FMAT,2
ICI,OFF
METRIC,TZ,000.000
T8C0.300
T7C0.305
T6C0.400
T5C0.650
T4C1.016
T3C1.100
T2C1.600
T1C3.800
%
G90
M71
T1
X55489Y85320
X20000Y51030
X17490Y85320
X58001Y51030
X93490Y85320
X95999Y51030
T2
X10000Y17750
X65489Y118600
X48001Y17750
X85999Y17750
X103490Y118600
X27490Y118600
T3
X7490Y118600
X45489Y118600
X30000Y17750
X68001Y17750
X83490Y118600
X105999Y17750
T4
X73589Y104730
X103790Y126880
X103790Y129420
X111590Y112350
X39901Y24000
X39901Y26540
X39901Y29080
X39901Y31620
X111590Y104730
X111590Y109810
X47701Y6930
X85699Y9470
X85699Y6930
X77899Y24000
X77899Y26540
X77899Y29080
X77899Y31620
X9700Y9470
X9700Y6930
X27790Y126880
X27790Y129420
X35590Y112350
X35590Y109810
X35590Y107270
X35590Y104730
X1900Y24000
X1900Y26540
X1900Y29080
X1900Y31620
X111590Y107270
X65789Y126880
X65789Y129420
X73589Y112350
X47701Y9470
X73589Y109810
X73589Y107270
T5
X32890Y60345
X27110Y60345
X70891Y60345
X65111Y60345
X108889Y60345
X103109Y60345
X4600Y76005
X10380Y76005
X42599Y76005
X48379Y76005
X80600Y76005
X86380Y76005
T6
X34318Y63995
X25682Y63995
X25682Y59815
X34318Y59815
X79172Y72355
X41171Y72355
X49807Y72355
X3172Y72355
X41171Y76535
X101681Y59815
X72319Y63995
X63683Y63995
X63683Y59815
X72319Y59815
X11808Y72355
X11808Y76535
X3172Y76535
X110317Y59815
X49807Y76535
X87808Y72355
X110317Y63995
X87808Y76535
X79172Y76535
X101681Y63995
T7
X36750Y46100
X36750Y41900
X35450Y44000
X750Y41900
X750Y46100
X2050Y44000
X74751Y46100
X73451Y44000
X38751Y41900
X38751Y46100
X40051Y44000
X36740Y90250
X35440Y92350
X112749Y46100
X74739Y90250
X73439Y92350
X111449Y44000
X76749Y41900
X76749Y46100
X78049Y44000
X112749Y41900
X38739Y90250
X38739Y94450
X40039Y92350
X74739Y94450
X740Y90250
X74751Y41900
X76740Y90250
X76740Y94450
X78040Y92350
X112740Y94450
X112740Y90250
X111440Y92350
X2040Y92350
X36740Y94450
X740Y94450
T8
X36600Y64200
X18350Y11350
X25900Y55900
X16700Y64100
X13500Y44900
X26090Y5300
X20148Y3442
X19732Y2896
X33400Y12500
X25800Y9460
X28600Y60100
X31500Y60100
X29750Y60400
X30920Y60400
X30500Y54850
X27800Y14500
X29500Y54850
X27148Y14500
X30000Y55500
X32450Y58100
X27550Y58400
X26254Y15200
X28500Y54700
X17750Y8200
X17750Y7700
X27900Y4194
X34700Y12500
X19600Y16800
X27900Y3600
X35900Y12500
X19170Y18000
X17700Y3400
X16000Y18800
X14000Y18800
X17700Y11354
X22500Y9900
X24500Y2828
X13500Y18200
X18770Y10860
X22500Y10500
X25200Y2828
X11600Y51500
X11600Y31620
X1300Y38400
X23300Y14254
X24700Y13700
X14000Y3500
X17500Y15600
X24200Y47500
X19600Y42900
X17000Y16000
X16500Y16500
X27500Y21300
X27500Y21800
X14500Y46100
X15100Y46100
X12100Y50400
X3300Y59200
X24500Y21200
X23900Y21600
X13600Y21500
X26400Y27600
X16200Y60900
X25150Y53770
X18897Y43597
X9600Y41800
X13300Y58300
X13300Y61800
X13300Y54000
X18300Y17600
X21300Y41300
X23600Y44600
X22700Y63900
X14500Y2900
X10600Y33750
X55001Y2890
X47211Y2900
X64251Y7000
X50051Y4200
X68001Y57700
X51351Y6100
X60401Y3300
X67591Y4420
X49601Y52400
X50601Y2900
X52701Y3800
X59241Y8200
X53701Y16500
X67101Y24400
X65901Y6240
X68801Y7500
X61041Y6920
X66501Y14500
X63601Y15400
X60501Y14800
X62501Y17800
X66601Y16700
X48301Y11200
X51501Y13800
X54701Y11000
X47201Y4100
X50301Y8400
X40101Y6800
X40101Y10100
X40101Y14400
X40101Y17800
X41401Y21300
X51001Y22100
X51701Y25700
X54501Y24000
X54501Y30300
X52001Y28100
X52101Y30200
X59801Y36700
X69101Y24400
X67101Y30900
X69101Y30900
X67101Y36600
X69101Y36600
X61101Y45300
X55201Y45400
X58701Y41600
X50201Y47300
X52601Y49800
X50201Y49600
X45901Y47100
X69101Y46000
X67101Y46000
X69001Y54300
X67101Y54300
X72101Y57300
X63901Y57300
X55601Y60800
X39401Y48000
X40001Y53100
X41201Y56100
X39901Y61600
X50101Y61500
X49601Y25800
X69001Y19600
X52101Y44950
X57201Y40200
X65701Y34800
X56501Y22100
X58101Y23800
X59401Y24900
X61201Y26700
X63451Y26750
X64501Y26800
X63451Y28250
X63451Y34000
X64601Y32800
X63451Y37100
X67201Y11200
X65901Y8000
X49451Y13800
X57921Y11110
X59241Y11100
X55551Y14800
X61161Y13110
X73951Y4700
X72051Y12400
X74251Y13100
X73251Y17900
X72851Y21300
X71051Y16600
X61751Y11000
X57201Y6500
X42951Y18700
X41001Y27800
X41001Y30300
X41001Y32900
X61901Y9450
X54051Y7000
X69401Y10100
X60001Y5800
X66841Y7100
X60201Y12700
X56501Y18700
X65401Y18400
X64251Y2870
X66151Y2970
X41601Y44000
X38801Y40300
X72001Y44000
X74701Y40300
X63001Y48400
X65101Y50700
X50301Y40100
X50301Y35700
X48301Y22800
X73901Y24400
X74601Y26100
X71501Y26700
X72101Y28400
X74601Y34200
X48601Y35700
X48601Y40100
X44101Y45600
X74601Y51200
X74601Y57900
X74601Y64200
X56351Y11350
X63901Y55900
X54701Y64100
X51501Y44900
X64091Y5300
X58148Y3442
X57733Y2896
X71401Y12500
X63801Y9460
X66601Y60100
X69501Y60100
X67751Y60400
X68921Y60400
X68501Y54850
X65801Y14500
X67501Y54850
X65149Y14500
X68001Y55500
X70451Y58100
X65551Y58400
X64255Y15200
X66501Y54700
X55751Y8200
X55751Y7700
X65901Y4194
X72701Y12500
X57601Y16800
X65901Y3600
X73901Y12500
X57171Y18000
X55701Y3400
X54001Y18800
X52001Y18800
X55701Y11354
X60501Y9900
X62501Y2828
X51501Y18200
X56771Y10860
X60501Y10500
X63201Y2828
X49601Y51500
X49601Y31620
X39301Y38400
X61301Y14254
X62701Y13700
X52001Y3500
X55501Y15600
X62201Y47500
X57601Y42900
X55001Y16000
X54501Y16500
X65501Y21300
X65501Y21800
X52501Y46100
X53101Y46100
X50101Y50400
X41301Y59200
X62501Y21200
X61901Y21600
X51601Y21500
X64401Y27600
X54201Y60900
X63151Y53770
X56898Y43597
X47601Y41800
X51301Y58300
X51301Y61800
X51301Y54000
X56301Y17600
X59301Y41300
X61601Y44600
X60701Y63900
X52501Y2900
X48601Y33750
X92999Y2890
X85209Y2900
X102249Y7000
X88049Y4200
X105999Y57700
X89349Y6100
X98399Y3300
X105589Y4420
X87599Y52400
X88599Y2900
X90699Y3800
X97239Y8200
X91699Y16500
X105099Y24400
X103899Y6240
X106799Y7500
X99039Y6920
X104499Y14500
X101599Y15400
X98499Y14800
X100499Y17800
X104599Y16700
X86299Y11200
X89499Y13800
X92699Y11000
X85199Y4100
X88299Y8400
X78099Y6800
X78099Y10100
X78099Y14400
X78099Y17800
X79399Y21300
X88999Y22100
X89699Y25700
X92499Y24000
X92499Y30300
X89999Y28100
X90099Y30200
X97799Y36700
X107099Y24400
X105099Y30900
X107099Y30900
X105099Y36600
X107099Y36600
X99099Y45300
X93199Y45400
X96699Y41600
X88199Y47300
X90599Y49800
X88199Y49600
X83899Y47100
X107099Y46000
X105099Y46000
X106999Y54300
X105099Y54300
X110099Y57300
X101899Y57300
X93599Y60800
X77399Y48000
X77999Y53100
X79199Y56100
X77899Y61600
X88099Y61500
X87599Y25800
X106999Y19600
X90099Y44950
X95199Y40200
X103699Y34800
X94499Y22100
X96099Y23800
X97399Y24900
X99199Y26700
X101449Y26750
X102499Y26800
X101449Y28250
X101449Y34000
X102599Y32800
X101449Y37100
X105199Y11200
X103899Y8000
X87449Y13800
X95919Y11110
X97239Y11100
X93549Y14800
X99159Y13110
X111949Y4700
X110049Y12400
X112249Y13100
X111249Y17900
X110849Y21300
X109049Y16600
X99749Y11000
X95199Y6500
X80949Y18700
X78999Y27800
X78999Y30300
X78999Y32900
X99899Y9450
X92049Y7000
X107399Y10100
X97999Y5800
X104839Y7100
X98199Y12700
X94499Y18700
X103399Y18400
X102249Y2870
X104149Y2970
X79599Y44000
X76799Y40300
X109999Y44000
X112699Y40300
X100999Y48400
X103099Y50700
X88299Y40100
X88299Y35700
X86299Y22800
X111899Y24400
X112599Y26100
X109499Y26700
X110099Y28400
X112599Y34200
X86599Y35700
X86599Y40100
X82099Y45600
X112599Y51200
X112599Y57900
X112599Y64200
X94349Y11350
X101899Y55900
X92699Y64100
X89499Y44900
X102089Y5300
X96147Y3442
X95731Y2896
X109399Y12500
X101799Y9460
X104599Y60100
X107499Y60100
X105749Y60400
X106919Y60400
X106499Y54850
X103799Y14500
X105499Y54850
X103147Y14500
X105999Y55500
X108449Y58100
X103549Y58400
X102253Y15200
X104499Y54700
X93749Y8200
X93749Y7700
X103899Y4194
X110699Y12500
X95599Y16800
X103899Y3600
X111899Y12500
X95169Y18000
X93699Y3400
X91999Y18800
X89999Y18800
X93699Y11354
X98499Y9900
X100499Y2828
X89499Y18200
X94769Y10860
X98499Y10500
X101199Y2828
X87599Y51500
X87599Y31620
X77299Y38400
X99299Y14254
X100699Y13700
X89999Y3500
X93499Y15600
X100199Y47500
X95599Y42900
X92999Y16000
X92499Y16500
X103499Y21300
X103499Y21800
X90499Y46100
X91099Y46100
X88099Y50400
X79299Y59200
X100499Y21200
X99899Y21600
X89599Y21500
X102399Y27600
X92199Y60900
X101149Y53770
X94897Y43597
X85599Y41800
X89299Y58300
X89299Y61800
X89299Y54000
X94299Y17600
X97299Y41300
X99599Y44600
X98699Y63900
X90499Y2900
X86599Y33750
X20490Y133460
X28280Y133450
X11240Y129350
X25440Y132150
X7490Y78650
X24140Y130250
X15090Y133050
X7900Y131930
X25890Y83950
X24890Y133450
X22790Y132550
X16250Y128150
X21790Y119850
X8390Y111950
X9590Y130110
X6690Y128850
X14450Y129430
X8990Y121850
X11890Y120950
X14990Y121550
X12990Y118550
X8890Y119650
X27190Y125150
X23990Y122550
X20790Y125350
X28290Y132250
X25190Y127950
X35390Y129550
X35390Y126250
X35390Y121950
X35390Y118550
X34090Y115050
X24490Y114250
X23790Y110650
X20990Y112350
X20990Y106050
X23490Y108250
X23390Y106150
X15690Y99650
X6390Y111950
X8390Y105450
X6390Y105450
X8390Y99750
X6390Y99750
X14390Y91050
X20290Y90950
X16790Y94750
X25290Y89050
X22890Y86550
X25290Y86750
X29590Y89250
X6390Y90350
X8390Y90350
X6490Y82050
X8390Y82050
X3390Y79050
X11590Y79050
X19890Y75550
X36090Y88350
X35490Y83250
X34290Y80250
X35590Y74750
X25390Y74850
X25890Y110550
X6490Y116750
X23390Y91400
X18290Y96150
X9790Y101550
X18990Y114250
X17390Y112550
X16090Y111450
X14290Y109650
X12040Y109600
X10990Y109550
X12040Y108100
X12040Y102350
X10890Y103550
X12040Y99250
X8290Y125150
X9590Y128350
X26040Y122550
X17570Y125240
X16250Y125250
X19940Y121550
X14330Y123240
X1540Y131650
X3440Y123950
X1240Y123250
X2240Y118450
X2640Y115050
X4440Y119750
X13740Y125350
X18290Y129850
X32540Y117650
X34490Y108550
X34490Y106050
X34490Y103450
X13590Y126900
X21440Y129350
X6090Y126250
X15490Y130550
X8650Y129250
X15290Y123650
X18990Y117650
X10090Y117950
X11240Y133480
X9340Y133380
X33890Y92350
X36690Y96050
X3490Y92350
X790Y96050
X12490Y87950
X10390Y85650
X25190Y96250
X25190Y100650
X27190Y113550
X1590Y111950
X890Y110250
X3990Y109650
X3390Y107950
X890Y102150
X26890Y100650
X26890Y96250
X31390Y90750
X890Y85150
X890Y78450
X890Y72150
X19140Y125000
X11590Y80450
X20790Y72250
X23990Y91450
X11400Y131050
X17343Y132907
X17759Y133453
X4090Y123850
X11690Y126890
X8890Y76250
X5990Y76250
X7740Y75950
X6570Y75950
X6990Y81500
X9690Y121850
X7990Y81500
X10343Y121850
X7490Y80850
X5040Y78250
X9940Y77950
X11236Y121150
X8990Y81650
X19740Y128150
X19740Y128650
X9590Y132156
X2790Y123850
X17890Y119550
X9590Y132750
X1590Y123850
X18320Y118350
X19790Y132950
X21490Y117550
X23490Y117550
X19790Y124996
X14990Y126450
X12990Y133522
X23990Y118150
X18720Y125490
X14990Y125850
X12290Y133522
X25890Y84850
X25890Y104730
X36190Y97950
X14190Y122096
X12790Y122650
X23490Y132850
X19990Y120750
X13290Y88850
X17890Y93450
X20490Y120350
X20990Y119850
X9990Y115050
X9990Y114550
X22990Y90250
X22390Y90250
X25390Y85950
X34190Y77150
X12990Y115150
X13590Y114750
X23890Y114850
X11090Y108750
X21290Y75450
X12340Y82580
X18593Y92752
X27890Y94550
X24190Y78050
X24190Y74550
X24190Y82350
X19190Y118750
X16190Y95050
X13890Y91750
X14790Y72450
X22990Y133450
X26890Y102600
X58489Y133460
X66279Y133450
X49239Y129350
X63439Y132150
X45489Y78650
X62139Y130250
X53089Y133050
X45899Y131930
X63889Y83950
X62889Y133450
X60789Y132550
X54249Y128150
X59789Y119850
X46389Y111950
X47589Y130110
X44689Y128850
X52449Y129430
X46989Y121850
X49889Y120950
X52989Y121550
X50989Y118550
X46889Y119650
X65189Y125150
X61989Y122550
X58789Y125350
X66289Y132250
X63189Y127950
X73389Y129550
X73389Y126250
X73389Y121950
X73389Y118550
X72089Y115050
X62489Y114250
X61789Y110650
X58989Y112350
X58989Y106050
X61489Y108250
X61389Y106150
X53689Y99650
X44389Y111950
X46389Y105450
X44389Y105450
X46389Y99750
X44389Y99750
X52389Y91050
X58289Y90950
X54789Y94750
X63289Y89050
X60889Y86550
X63289Y86750
X67589Y89250
X44389Y90350
X46389Y90350
X44489Y82050
X46389Y82050
X41389Y79050
X49589Y79050
X57889Y75550
X74089Y88350
X73489Y83250
X72289Y80250
X73589Y74750
X63389Y74850
X63889Y110550
X44489Y116750
X61389Y91400
X56289Y96150
X47789Y101550
X56989Y114250
X55389Y112550
X54089Y111450
X52289Y109650
X50039Y109600
X48989Y109550
X50039Y108100
X50039Y102350
X48889Y103550
X50039Y99250
X46289Y125150
X47589Y128350
X64039Y122550
X55569Y125240
X54249Y125250
X57939Y121550
X52329Y123240
X39539Y131650
X41439Y123950
X39239Y123250
X40239Y118450
X40639Y115050
X42439Y119750
X51739Y125350
X56289Y129850
X70539Y117650
X72489Y108550
X72489Y106050
X72489Y103450
X51589Y126900
X59439Y129350
X44089Y126250
X53489Y130550
X46649Y129250
X53289Y123650
X56989Y117650
X48089Y117950
X49239Y133480
X47339Y133380
X71889Y92350
X74689Y96050
X41489Y92350
X38789Y96050
X50489Y87950
X48389Y85650
X63189Y96250
X63189Y100650
X65189Y113550
X39589Y111950
X38889Y110250
X41989Y109650
X41389Y107950
X38889Y102150
X64889Y100650
X64889Y96250
X69389Y90750
X38889Y85150
X38889Y78450
X38889Y72150
X57139Y125000
X49589Y80450
X58789Y72250
X61989Y91450
X49399Y131050
X55341Y132907
X55757Y133453
X42089Y123850
X49689Y126890
X46889Y76250
X43989Y76250
X45739Y75950
X44569Y75950
X44989Y81500
X47689Y121850
X45989Y81500
X48341Y121850
X45489Y80850
X43039Y78250
X47939Y77950
X49235Y121150
X46989Y81650
X57739Y128150
X57739Y128650
X47589Y132156
X40789Y123850
X55889Y119550
X47589Y132750
X39589Y123850
X56319Y118350
X57789Y132950
X59489Y117550
X61489Y117550
X57789Y124996
X52989Y126450
X50989Y133522
X61989Y118150
X56719Y125490
X52989Y125850
X50289Y133522
X63889Y84850
X63889Y104730
X74189Y97950
X52189Y122096
X50789Y122650
X61489Y132850
X57989Y120750
X51289Y88850
X55889Y93450
X58489Y120350
X58989Y119850
X47989Y115050
X47989Y114550
X60989Y90250
X60389Y90250
X63389Y85950
X72189Y77150
X50989Y115150
X51589Y114750
X61889Y114850
X49089Y108750
X59289Y75450
X50339Y82580
X56591Y92752
X65889Y94550
X62189Y78050
X62189Y74550
X62189Y82350
X17000Y2890
X54189Y95050
X51889Y91750
X52789Y72450
X60989Y133450
X64889Y102600
X96490Y133460
X104280Y133450
X87240Y129350
X101440Y132150
X83490Y78650
X100140Y130250
X91090Y133050
X83900Y131930
X101890Y83950
X100890Y133450
X98790Y132550
X92250Y128150
X97790Y119850
X84390Y111950
X85590Y130110
X82690Y128850
X90450Y129430
X84990Y121850
X87890Y120950
X90990Y121550
X88990Y118550
X84890Y119650
X103190Y125150
X99990Y122550
X96790Y125350
X104290Y132250
X101190Y127950
X111390Y129550
X111390Y126250
X111390Y121950
X111390Y118550
X110090Y115050
X100490Y114250
X99790Y110650
X96990Y112350
X96990Y106050
X99490Y108250
X99390Y106150
X91690Y99650
X82390Y111950
X84390Y105450
X82390Y105450
X84390Y99750
X82390Y99750
X90390Y91050
X96290Y90950
X92790Y94750
X101290Y89050
X98890Y86550
X101290Y86750
X105590Y89250
X82390Y90350
X84390Y90350
X82490Y82050
X84390Y82050
X79390Y79050
X87590Y79050
X95890Y75550
X112090Y88350
X111490Y83250
X110290Y80250
X111590Y74750
X101390Y74850
X101890Y110550
X82490Y116750
X99390Y91400
X94290Y96150
X85790Y101550
X94990Y114250
X93390Y112550
X92090Y111450
X90290Y109650
X88040Y109600
X86990Y109550
X88040Y108100
X88040Y102350
X86890Y103550
X88040Y99250
X84290Y125150
X85590Y128350
X102040Y122550
X93570Y125240
X92250Y125250
X95940Y121550
X90330Y123240
X77540Y131650
X79440Y123950
X77240Y123250
X78240Y118450
X78640Y115050
X80440Y119750
X89740Y125350
X94290Y129850
X108540Y117650
X110490Y108550
X110490Y106050
X110490Y103450
X89590Y126900
X97440Y129350
X82090Y126250
X91490Y130550
X84650Y129250
X91290Y123650
X94990Y117650
X86090Y117950
X87240Y133480
X85340Y133380
X109890Y92350
X112690Y96050
X79490Y92350
X76790Y96050
X88490Y87950
X86390Y85650
X101190Y96250
X101190Y100650
X103190Y113550
X77590Y111950
X76890Y110250
X79990Y109650
X79390Y107950
X76890Y102150
X102890Y100650
X102890Y96250
X107390Y90750
X76890Y85150
X76890Y78450
X76890Y72150
X95140Y125000
X87590Y80450
X96790Y72250
X99990Y91450
X87400Y131050
X93342Y132907
X93758Y133453
X80090Y123850
X87690Y126890
X84890Y76250
X81990Y76250
X83740Y75950
X82570Y75950
X82990Y81500
X85690Y121850
X83990Y81500
X86342Y121850
X83490Y80850
X81040Y78250
X85940Y77950
X87236Y121150
X84990Y81650
X95740Y128150
X95740Y128650
X85590Y132156
X78790Y123850
X93890Y119550
X85590Y132750
X77590Y123850
X94320Y118350
X95790Y132950
X97490Y117550
X99490Y117550
X57189Y118750
X90990Y126450
X88990Y133522
X99990Y118150
X94720Y125490
X90990Y125850
X88290Y133522
X101890Y84850
X101890Y104730
X112190Y97950
X90190Y122096
X88790Y122650
X99490Y132850
X95990Y120750
X89290Y88850
X93890Y93450
X96490Y120350
X96990Y119850
X85990Y115050
X85990Y114550
X98990Y90250
X98390Y90250
X101390Y85950
X110190Y77150
X88990Y115150
X89590Y114750
X99890Y114850
X87090Y108750
X97290Y75450
X88340Y82580
X94592Y92752
X103890Y94550
X100190Y78050
X100190Y74550
X100190Y82350
X95190Y118750
X92190Y95050
X89890Y91750
X90790Y72450
X98990Y133450
X102890Y102600
X9210Y2900
X26250Y7000
X12050Y4200
X30000Y57700
X13350Y6100
X22400Y3300
X29590Y4420
X11600Y52400
X12600Y2900
X14700Y3800
X21240Y8200
X15700Y16500
X29100Y24400
X27900Y6240
X30800Y7500
X23040Y6920
X28500Y14500
X25600Y15400
X22500Y14800
X24500Y17800
X28600Y16700
X10300Y11200
X13500Y13800
X16700Y11000
X9200Y4100
X12300Y8400
X2100Y6800
X2100Y10100
X2100Y14400
X2100Y17800
X3400Y21300
X13000Y22100
X13700Y25700
X16500Y24000
X16500Y30300
X14000Y28100
X14100Y30200
X21800Y36700
X31100Y24400
X29100Y30900
X31100Y30900
X29100Y36600
X31100Y36600
X23100Y45300
X17200Y45400
X20700Y41600
X12200Y47300
X14600Y49800
X12200Y49600
X7900Y47100
X31100Y46000
X29100Y46000
X31000Y54300
X29100Y54300
X34100Y57300
X25900Y57300
X17600Y60800
X1400Y48000
X2000Y53100
X3200Y56100
X1900Y61600
X12100Y61500
X11600Y25800
X31000Y19600
X14100Y44950
X19200Y40200
X27700Y34800
X18500Y22100
X20100Y23800
X21400Y24900
X23200Y26700
X25450Y26750
X26500Y26800
X25450Y28250
X25450Y34000
X26600Y32800
X25450Y37100
X29200Y11200
X27900Y8000
X11450Y13800
X19920Y11110
X21240Y11100
X17550Y14800
X23160Y13110
X35950Y4700
X34050Y12400
X36250Y13100
X35250Y17900
X34850Y21300
X33050Y16600
X23750Y11000
X19200Y6500
X4950Y18700
X3000Y27800
X3000Y30300
X3000Y32900
X23900Y9450
X16050Y7000
X31400Y10100
X22000Y5800
X28840Y7100
X22200Y12700
X18500Y18700
X27400Y18400
X26250Y2870
X28150Y2970
X3600Y44000
X800Y40300
X34000Y44000
X36700Y40300
X25000Y48400
X27100Y50700
X12300Y40100
X12300Y35700
X10300Y22800
X35900Y24400
X36600Y26100
X33500Y26700
X34100Y28400
X36600Y34200
X10600Y35700
X10600Y40100
X6100Y45600
X36600Y51200
X36600Y57900
X95790Y124996
M30