G04 EAGLE Gerber RS-274X export*
G75*
%MOMM*%
%FSLAX34Y34*%
%LPD*%
%INSolderpaste Top*%
%IPPOS*%
%AMOC8*
5,1,8,0,0,1.08239X$1,22.5*%
G01*
%ADD10C,0.102000*%
%ADD11C,0.104000*%
%ADD12C,0.102500*%
%ADD13C,0.099000*%
%ADD14C,0.100800*%
%ADD15C,0.098000*%
%ADD16C,0.100000*%
%ADD17C,0.300000*%
%ADD18R,0.300000X1.750000*%
%ADD19C,0.096000*%
%ADD20C,0.105000*%

G36*
X576069Y479811D02*
X576069Y479811D01*
X576113Y479812D01*
X576165Y479834D01*
X576219Y479847D01*
X576255Y479873D01*
X576295Y479891D01*
X576334Y479932D01*
X576380Y479965D01*
X576402Y480003D01*
X576432Y480035D01*
X576452Y480088D01*
X576481Y480136D01*
X576490Y480187D01*
X576502Y480221D01*
X576501Y480255D01*
X576509Y480300D01*
X576509Y491300D01*
X576498Y491353D01*
X576497Y491406D01*
X576478Y491449D01*
X576469Y491495D01*
X576439Y491539D01*
X576417Y491588D01*
X576383Y491620D01*
X576357Y491659D01*
X576311Y491688D01*
X576272Y491724D01*
X576221Y491745D01*
X576189Y491766D01*
X576158Y491771D01*
X576118Y491787D01*
X573383Y492398D01*
X570820Y493426D01*
X568455Y494853D01*
X566351Y496642D01*
X564562Y498746D01*
X563135Y501110D01*
X562107Y503674D01*
X561497Y506409D01*
X561475Y506458D01*
X561462Y506510D01*
X561435Y506548D01*
X561416Y506590D01*
X561376Y506627D01*
X561344Y506670D01*
X561304Y506694D01*
X561270Y506726D01*
X561220Y506744D01*
X561173Y506772D01*
X561119Y506781D01*
X561083Y506794D01*
X561052Y506792D01*
X561009Y506799D01*
X550009Y506799D01*
X549954Y506788D01*
X549898Y506787D01*
X549858Y506768D01*
X549815Y506760D01*
X549768Y506728D01*
X549717Y506705D01*
X549687Y506672D01*
X549651Y506647D01*
X549620Y506600D01*
X549582Y506558D01*
X549567Y506517D01*
X549544Y506480D01*
X549534Y506424D01*
X549515Y506371D01*
X549517Y506319D01*
X549510Y506283D01*
X549518Y506251D01*
X549518Y506246D01*
X549518Y506244D01*
X549518Y506243D01*
X549519Y506205D01*
X550359Y501884D01*
X550371Y501855D01*
X550378Y501813D01*
X551847Y497663D01*
X551864Y497636D01*
X551877Y497596D01*
X553943Y493709D01*
X553963Y493685D01*
X553983Y493647D01*
X556601Y490108D01*
X556624Y490087D01*
X556649Y490052D01*
X559762Y486940D01*
X559776Y486930D01*
X559784Y486919D01*
X559800Y486910D01*
X559818Y486891D01*
X563356Y484273D01*
X563385Y484260D01*
X563419Y484234D01*
X567305Y482168D01*
X567335Y482159D01*
X567373Y482138D01*
X571522Y480669D01*
X571553Y480664D01*
X571593Y480649D01*
X575914Y479810D01*
X575971Y479810D01*
X576026Y479801D01*
X576069Y479811D01*
G37*
G36*
X196059Y479811D02*
X196059Y479811D01*
X196104Y479812D01*
X196155Y479834D01*
X196210Y479847D01*
X196246Y479873D01*
X196286Y479891D01*
X196325Y479932D01*
X196370Y479965D01*
X196393Y480003D01*
X196423Y480035D01*
X196443Y480088D01*
X196472Y480136D01*
X196480Y480187D01*
X196493Y480221D01*
X196492Y480255D01*
X196499Y480300D01*
X196499Y491300D01*
X196489Y491353D01*
X196488Y491406D01*
X196469Y491449D01*
X196460Y491495D01*
X196429Y491539D01*
X196408Y491588D01*
X196374Y491620D01*
X196347Y491659D01*
X196302Y491688D01*
X196263Y491724D01*
X196212Y491745D01*
X196180Y491766D01*
X196148Y491771D01*
X196109Y491787D01*
X193374Y492398D01*
X190810Y493426D01*
X188446Y494853D01*
X186342Y496642D01*
X184553Y498746D01*
X183126Y501110D01*
X182098Y503674D01*
X181487Y506409D01*
X181465Y506458D01*
X181453Y506510D01*
X181425Y506548D01*
X181406Y506590D01*
X181367Y506627D01*
X181335Y506670D01*
X181295Y506694D01*
X181261Y506726D01*
X181210Y506744D01*
X181164Y506772D01*
X181110Y506781D01*
X181074Y506794D01*
X181042Y506792D01*
X181000Y506799D01*
X170000Y506799D01*
X169945Y506788D01*
X169889Y506787D01*
X169848Y506768D01*
X169805Y506760D01*
X169759Y506728D01*
X169708Y506705D01*
X169678Y506672D01*
X169641Y506647D01*
X169611Y506600D01*
X169573Y506558D01*
X169558Y506517D01*
X169534Y506480D01*
X169525Y506424D01*
X169506Y506371D01*
X169507Y506319D01*
X169501Y506283D01*
X169509Y506251D01*
X169509Y506246D01*
X169509Y506244D01*
X169509Y506243D01*
X169510Y506205D01*
X170349Y501884D01*
X170361Y501855D01*
X170369Y501813D01*
X171838Y497663D01*
X171854Y497636D01*
X171868Y497596D01*
X173934Y493709D01*
X173954Y493685D01*
X173973Y493647D01*
X176591Y490108D01*
X176615Y490087D01*
X176640Y490052D01*
X179752Y486940D01*
X179767Y486930D01*
X179775Y486919D01*
X179790Y486910D01*
X179808Y486891D01*
X183347Y484273D01*
X183375Y484260D01*
X183409Y484234D01*
X187296Y482168D01*
X187326Y482159D01*
X187363Y482138D01*
X191513Y480669D01*
X191544Y480664D01*
X191584Y480649D01*
X195905Y479810D01*
X195961Y479810D01*
X196017Y479801D01*
X196059Y479811D01*
G37*
G36*
X561062Y513811D02*
X561062Y513811D01*
X561116Y513812D01*
X561158Y513831D01*
X561204Y513840D01*
X561249Y513871D01*
X561298Y513892D01*
X561330Y513926D01*
X561368Y513953D01*
X561397Y513998D01*
X561434Y514037D01*
X561455Y514088D01*
X561475Y514120D01*
X561481Y514152D01*
X561497Y514191D01*
X562107Y516926D01*
X563135Y519490D01*
X564562Y521854D01*
X566351Y523958D01*
X568455Y525747D01*
X570820Y527174D01*
X573383Y528202D01*
X576118Y528813D01*
X576167Y528835D01*
X576219Y528847D01*
X576257Y528875D01*
X576300Y528894D01*
X576336Y528933D01*
X576380Y528965D01*
X576403Y529005D01*
X576435Y529039D01*
X576454Y529090D01*
X576481Y529136D01*
X576490Y529190D01*
X576503Y529226D01*
X576502Y529258D01*
X576509Y529300D01*
X576509Y540300D01*
X576497Y540355D01*
X576496Y540411D01*
X576478Y540452D01*
X576469Y540495D01*
X576437Y540541D01*
X576414Y540593D01*
X576382Y540622D01*
X576357Y540659D01*
X576309Y540689D01*
X576268Y540727D01*
X576226Y540742D01*
X576189Y540766D01*
X576133Y540775D01*
X576081Y540794D01*
X576029Y540793D01*
X575993Y540799D01*
X575960Y540791D01*
X575914Y540790D01*
X571593Y539951D01*
X571564Y539939D01*
X571522Y539931D01*
X567373Y538462D01*
X567346Y538446D01*
X567305Y538432D01*
X563419Y536366D01*
X563394Y536346D01*
X563356Y536327D01*
X559818Y533709D01*
X559796Y533685D01*
X559762Y533660D01*
X556649Y530548D01*
X556632Y530522D01*
X556601Y530492D01*
X553983Y526954D01*
X553969Y526925D01*
X553943Y526891D01*
X551877Y523004D01*
X551870Y522981D01*
X551861Y522967D01*
X551860Y522960D01*
X551847Y522937D01*
X550378Y518787D01*
X550374Y518756D01*
X550359Y518716D01*
X549519Y514395D01*
X549520Y514339D01*
X549510Y514283D01*
X549521Y514241D01*
X549521Y514196D01*
X549543Y514145D01*
X549556Y514090D01*
X549583Y514055D01*
X549600Y514014D01*
X549641Y513975D01*
X549674Y513930D01*
X549712Y513907D01*
X549744Y513877D01*
X549797Y513857D01*
X549845Y513828D01*
X549896Y513820D01*
X549930Y513807D01*
X549964Y513808D01*
X550009Y513801D01*
X561009Y513801D01*
X561062Y513811D01*
G37*
G36*
X181053Y513811D02*
X181053Y513811D01*
X181106Y513812D01*
X181149Y513831D01*
X181195Y513840D01*
X181239Y513871D01*
X181288Y513892D01*
X181320Y513926D01*
X181359Y513953D01*
X181388Y513998D01*
X181424Y514037D01*
X181445Y514088D01*
X181466Y514120D01*
X181471Y514152D01*
X181487Y514191D01*
X182098Y516926D01*
X183126Y519490D01*
X184553Y521854D01*
X186342Y523958D01*
X188446Y525747D01*
X190810Y527174D01*
X193374Y528202D01*
X196109Y528813D01*
X196158Y528835D01*
X196210Y528847D01*
X196248Y528875D01*
X196290Y528894D01*
X196327Y528933D01*
X196370Y528965D01*
X196394Y529005D01*
X196426Y529039D01*
X196444Y529090D01*
X196472Y529136D01*
X196481Y529190D01*
X196494Y529226D01*
X196492Y529258D01*
X196499Y529300D01*
X196499Y540300D01*
X196488Y540355D01*
X196487Y540411D01*
X196468Y540452D01*
X196460Y540495D01*
X196428Y540541D01*
X196405Y540593D01*
X196372Y540622D01*
X196347Y540659D01*
X196300Y540689D01*
X196258Y540727D01*
X196217Y540742D01*
X196180Y540766D01*
X196124Y540775D01*
X196071Y540794D01*
X196019Y540793D01*
X195983Y540799D01*
X195951Y540791D01*
X195905Y540790D01*
X191584Y539951D01*
X191555Y539939D01*
X191513Y539931D01*
X187363Y538462D01*
X187336Y538446D01*
X187296Y538432D01*
X183409Y536366D01*
X183385Y536346D01*
X183347Y536327D01*
X179808Y533709D01*
X179787Y533685D01*
X179752Y533660D01*
X176640Y530548D01*
X176622Y530522D01*
X176591Y530492D01*
X173973Y526954D01*
X173960Y526925D01*
X173934Y526891D01*
X171868Y523004D01*
X171861Y522981D01*
X171852Y522967D01*
X171851Y522960D01*
X171838Y522937D01*
X170369Y518787D01*
X170364Y518756D01*
X170349Y518716D01*
X169510Y514395D01*
X169510Y514339D01*
X169501Y514283D01*
X169511Y514241D01*
X169512Y514196D01*
X169534Y514145D01*
X169547Y514090D01*
X169573Y514055D01*
X169591Y514014D01*
X169632Y513975D01*
X169665Y513930D01*
X169703Y513907D01*
X169735Y513877D01*
X169788Y513857D01*
X169836Y513828D01*
X169887Y513820D01*
X169921Y513807D01*
X169955Y513808D01*
X170000Y513801D01*
X181000Y513801D01*
X181053Y513811D01*
G37*
G36*
X610065Y513812D02*
X610065Y513812D01*
X610121Y513813D01*
X610161Y513832D01*
X610204Y513840D01*
X610251Y513872D01*
X610302Y513895D01*
X610332Y513928D01*
X610368Y513953D01*
X610398Y514000D01*
X610437Y514042D01*
X610452Y514083D01*
X610475Y514120D01*
X610485Y514176D01*
X610504Y514229D01*
X610502Y514281D01*
X610508Y514317D01*
X610501Y514349D01*
X610500Y514395D01*
X609660Y518716D01*
X609648Y518745D01*
X609641Y518787D01*
X608172Y522937D01*
X608155Y522964D01*
X608146Y522991D01*
X608145Y522997D01*
X608144Y522999D01*
X608142Y523004D01*
X606076Y526891D01*
X606055Y526915D01*
X606036Y526954D01*
X603418Y530492D01*
X603394Y530513D01*
X603370Y530548D01*
X600257Y533660D01*
X600231Y533678D01*
X600201Y533709D01*
X596663Y536327D01*
X596634Y536340D01*
X596600Y536366D01*
X592714Y538432D01*
X592684Y538441D01*
X592646Y538462D01*
X588497Y539931D01*
X588466Y539936D01*
X588425Y539951D01*
X584105Y540790D01*
X584048Y540790D01*
X583993Y540799D01*
X583950Y540789D01*
X583906Y540788D01*
X583854Y540766D01*
X583799Y540753D01*
X583764Y540727D01*
X583723Y540709D01*
X583685Y540668D01*
X583639Y540635D01*
X583617Y540597D01*
X583586Y540565D01*
X583567Y540512D01*
X583538Y540464D01*
X583529Y540413D01*
X583516Y540379D01*
X583518Y540345D01*
X583510Y540300D01*
X583510Y529300D01*
X583521Y529247D01*
X583522Y529194D01*
X583540Y529151D01*
X583550Y529105D01*
X583580Y529061D01*
X583602Y529012D01*
X583636Y528980D01*
X583662Y528941D01*
X583708Y528912D01*
X583747Y528876D01*
X583798Y528855D01*
X583830Y528834D01*
X583861Y528829D01*
X583901Y528813D01*
X586635Y528202D01*
X589199Y527174D01*
X591564Y525747D01*
X593668Y523958D01*
X595457Y521854D01*
X596884Y519490D01*
X597912Y516926D01*
X598522Y514191D01*
X598544Y514142D01*
X598556Y514090D01*
X598584Y514052D01*
X598603Y514010D01*
X598643Y513973D01*
X598674Y513930D01*
X598715Y513906D01*
X598749Y513874D01*
X598799Y513856D01*
X598845Y513828D01*
X598900Y513819D01*
X598936Y513806D01*
X598967Y513808D01*
X599009Y513801D01*
X610009Y513801D01*
X610065Y513812D01*
G37*
G36*
X230055Y513812D02*
X230055Y513812D01*
X230111Y513813D01*
X230152Y513832D01*
X230195Y513840D01*
X230241Y513872D01*
X230293Y513895D01*
X230322Y513928D01*
X230359Y513953D01*
X230389Y514000D01*
X230427Y514042D01*
X230442Y514083D01*
X230466Y514120D01*
X230475Y514176D01*
X230494Y514229D01*
X230493Y514281D01*
X230499Y514317D01*
X230491Y514349D01*
X230490Y514395D01*
X229651Y518716D01*
X229639Y518745D01*
X229631Y518787D01*
X228162Y522937D01*
X228146Y522964D01*
X228137Y522991D01*
X228135Y522997D01*
X228134Y522999D01*
X228132Y523004D01*
X226066Y526891D01*
X226046Y526915D01*
X226027Y526954D01*
X223409Y530492D01*
X223385Y530513D01*
X223360Y530548D01*
X220248Y533660D01*
X220222Y533678D01*
X220192Y533709D01*
X216654Y536327D01*
X216625Y536340D01*
X216591Y536366D01*
X212704Y538432D01*
X212674Y538441D01*
X212637Y538462D01*
X208487Y539931D01*
X208456Y539936D01*
X208416Y539951D01*
X204095Y540790D01*
X204039Y540790D01*
X203983Y540799D01*
X203941Y540789D01*
X203896Y540788D01*
X203845Y540766D01*
X203790Y540753D01*
X203755Y540727D01*
X203714Y540709D01*
X203675Y540668D01*
X203630Y540635D01*
X203607Y540597D01*
X203577Y540565D01*
X203557Y540512D01*
X203528Y540464D01*
X203520Y540413D01*
X203507Y540379D01*
X203508Y540345D01*
X203501Y540300D01*
X203501Y529300D01*
X203511Y529247D01*
X203512Y529194D01*
X203531Y529151D01*
X203540Y529105D01*
X203571Y529061D01*
X203592Y529012D01*
X203626Y528980D01*
X203653Y528941D01*
X203698Y528912D01*
X203737Y528876D01*
X203788Y528855D01*
X203820Y528834D01*
X203852Y528829D01*
X203891Y528813D01*
X206626Y528202D01*
X209190Y527174D01*
X211554Y525747D01*
X213658Y523958D01*
X215447Y521854D01*
X216874Y519490D01*
X217902Y516926D01*
X218513Y514191D01*
X218535Y514142D01*
X218547Y514090D01*
X218575Y514052D01*
X218594Y514010D01*
X218633Y513973D01*
X218665Y513930D01*
X218705Y513906D01*
X218739Y513874D01*
X218790Y513856D01*
X218836Y513828D01*
X218890Y513819D01*
X218926Y513806D01*
X218958Y513808D01*
X219000Y513801D01*
X230000Y513801D01*
X230055Y513812D01*
G37*
G36*
X584059Y479809D02*
X584059Y479809D01*
X584105Y479810D01*
X588425Y480649D01*
X588455Y480661D01*
X588497Y480669D01*
X592646Y482138D01*
X592673Y482154D01*
X592714Y482168D01*
X596600Y484234D01*
X596625Y484254D01*
X596663Y484273D01*
X600201Y486891D01*
X600222Y486915D01*
X600257Y486940D01*
X603370Y490052D01*
X603387Y490079D01*
X603418Y490108D01*
X606036Y493647D01*
X606049Y493675D01*
X606076Y493709D01*
X608142Y497596D01*
X608151Y497626D01*
X608172Y497663D01*
X609641Y501813D01*
X609645Y501844D01*
X609660Y501884D01*
X610500Y506205D01*
X610499Y506261D01*
X610508Y506317D01*
X610498Y506359D01*
X610498Y506404D01*
X610475Y506455D01*
X610462Y506510D01*
X610436Y506546D01*
X610419Y506586D01*
X610378Y506625D01*
X610344Y506670D01*
X610307Y506693D01*
X610275Y506723D01*
X610222Y506743D01*
X610173Y506772D01*
X610123Y506780D01*
X610088Y506793D01*
X610055Y506792D01*
X610009Y506799D01*
X599009Y506799D01*
X598957Y506789D01*
X598903Y506788D01*
X598860Y506769D01*
X598815Y506760D01*
X598770Y506729D01*
X598721Y506708D01*
X598689Y506674D01*
X598651Y506647D01*
X598622Y506602D01*
X598585Y506563D01*
X598564Y506512D01*
X598544Y506480D01*
X598538Y506448D01*
X598536Y506442D01*
X598535Y506441D01*
X598535Y506440D01*
X598522Y506409D01*
X597912Y503674D01*
X596884Y501110D01*
X595457Y498746D01*
X593668Y496642D01*
X591564Y494853D01*
X589199Y493426D01*
X586635Y492398D01*
X583901Y491787D01*
X583852Y491765D01*
X583799Y491753D01*
X583762Y491725D01*
X583719Y491706D01*
X583682Y491667D01*
X583639Y491635D01*
X583615Y491595D01*
X583584Y491561D01*
X583565Y491510D01*
X583538Y491464D01*
X583529Y491410D01*
X583516Y491374D01*
X583517Y491342D01*
X583510Y491300D01*
X583510Y480300D01*
X583521Y480245D01*
X583523Y480189D01*
X583541Y480148D01*
X583550Y480105D01*
X583582Y480059D01*
X583605Y480008D01*
X583637Y479978D01*
X583662Y479941D01*
X583710Y479911D01*
X583751Y479873D01*
X583793Y479858D01*
X583830Y479834D01*
X583885Y479825D01*
X583938Y479806D01*
X583990Y479807D01*
X584026Y479801D01*
X584059Y479809D01*
G37*
G36*
X204049Y479809D02*
X204049Y479809D01*
X204095Y479810D01*
X208416Y480649D01*
X208445Y480661D01*
X208487Y480669D01*
X212637Y482138D01*
X212664Y482154D01*
X212704Y482168D01*
X216591Y484234D01*
X216615Y484254D01*
X216654Y484273D01*
X220192Y486891D01*
X220213Y486915D01*
X220248Y486940D01*
X223360Y490052D01*
X223378Y490079D01*
X223409Y490108D01*
X226027Y493647D01*
X226040Y493675D01*
X226066Y493709D01*
X228132Y497596D01*
X228141Y497626D01*
X228162Y497663D01*
X229631Y501813D01*
X229636Y501844D01*
X229651Y501884D01*
X230490Y506205D01*
X230490Y506261D01*
X230499Y506317D01*
X230489Y506359D01*
X230488Y506404D01*
X230466Y506455D01*
X230453Y506510D01*
X230427Y506546D01*
X230409Y506586D01*
X230368Y506625D01*
X230335Y506670D01*
X230297Y506693D01*
X230265Y506723D01*
X230212Y506743D01*
X230164Y506772D01*
X230113Y506780D01*
X230079Y506793D01*
X230045Y506792D01*
X230000Y506799D01*
X219000Y506799D01*
X218947Y506789D01*
X218894Y506788D01*
X218851Y506769D01*
X218805Y506760D01*
X218761Y506729D01*
X218712Y506708D01*
X218680Y506674D01*
X218641Y506647D01*
X218612Y506602D01*
X218576Y506563D01*
X218555Y506512D01*
X218534Y506480D01*
X218529Y506448D01*
X218526Y506442D01*
X218525Y506441D01*
X218525Y506440D01*
X218513Y506409D01*
X217902Y503674D01*
X216874Y501110D01*
X215447Y498746D01*
X213658Y496642D01*
X211554Y494853D01*
X209190Y493426D01*
X206626Y492398D01*
X203891Y491787D01*
X203842Y491765D01*
X203790Y491753D01*
X203752Y491725D01*
X203710Y491706D01*
X203673Y491667D01*
X203630Y491635D01*
X203606Y491595D01*
X203574Y491561D01*
X203556Y491510D01*
X203528Y491464D01*
X203519Y491410D01*
X203506Y491374D01*
X203508Y491342D01*
X203501Y491300D01*
X203501Y480300D01*
X203512Y480245D01*
X203513Y480189D01*
X203532Y480148D01*
X203540Y480105D01*
X203572Y480059D01*
X203595Y480008D01*
X203628Y479978D01*
X203653Y479941D01*
X203700Y479911D01*
X203742Y479873D01*
X203783Y479858D01*
X203820Y479834D01*
X203876Y479825D01*
X203929Y479806D01*
X203981Y479807D01*
X204017Y479801D01*
X204049Y479809D01*
G37*
G36*
X257004Y587455D02*
X257004Y587455D01*
X257007Y587451D01*
X258115Y587621D01*
X258121Y587627D01*
X258126Y587624D01*
X259168Y588036D01*
X259172Y588043D01*
X259177Y588041D01*
X260102Y588675D01*
X260104Y588683D01*
X260110Y588682D01*
X260870Y589506D01*
X260871Y589514D01*
X260877Y589514D01*
X261434Y590486D01*
X261434Y590490D01*
X261435Y590491D01*
X261433Y590493D01*
X261433Y590494D01*
X261439Y590496D01*
X261766Y591568D01*
X261765Y591573D01*
X261767Y591574D01*
X261765Y591577D01*
X261768Y591579D01*
X261849Y592696D01*
X261848Y592699D01*
X261849Y592700D01*
X261849Y604700D01*
X261844Y604707D01*
X261848Y604711D01*
X261629Y605655D01*
X261623Y605661D01*
X261625Y605666D01*
X261202Y606538D01*
X261194Y606541D01*
X261196Y606547D01*
X260589Y607303D01*
X260581Y607305D01*
X260581Y607311D01*
X259821Y607912D01*
X259812Y607912D01*
X259811Y607918D01*
X258936Y608336D01*
X258928Y608334D01*
X258926Y608339D01*
X257980Y608552D01*
X257973Y608548D01*
X257969Y608553D01*
X257000Y608549D01*
X256999Y608549D01*
X255931Y608530D01*
X255930Y608530D01*
X255924Y608526D01*
X255920Y608529D01*
X254883Y608273D01*
X254878Y608266D01*
X254872Y608269D01*
X253918Y607788D01*
X253915Y607781D01*
X253909Y607782D01*
X253086Y607101D01*
X253084Y607093D01*
X253078Y607093D01*
X252427Y606246D01*
X252427Y606238D01*
X252421Y606237D01*
X251974Y605266D01*
X251976Y605258D01*
X251971Y605256D01*
X251752Y604210D01*
X251755Y604203D01*
X251751Y604200D01*
X251751Y592200D01*
X251754Y592195D01*
X251751Y592192D01*
X251931Y591097D01*
X251937Y591091D01*
X251934Y591086D01*
X252353Y590058D01*
X252360Y590054D01*
X252358Y590049D01*
X252996Y589140D01*
X253003Y589138D01*
X253003Y589132D01*
X253826Y588388D01*
X253834Y588387D01*
X253835Y588381D01*
X254803Y587839D01*
X254812Y587840D01*
X254814Y587834D01*
X255878Y587521D01*
X255886Y587524D01*
X255889Y587519D01*
X256997Y587451D01*
X257004Y587455D01*
G37*
G36*
X637013Y587455D02*
X637013Y587455D01*
X637017Y587451D01*
X638124Y587621D01*
X638130Y587627D01*
X638135Y587624D01*
X639177Y588036D01*
X639181Y588043D01*
X639187Y588041D01*
X640111Y588675D01*
X640114Y588683D01*
X640119Y588682D01*
X640879Y589506D01*
X640880Y589514D01*
X640886Y589514D01*
X641444Y590486D01*
X641443Y590490D01*
X641445Y590491D01*
X641443Y590493D01*
X641443Y590494D01*
X641448Y590496D01*
X641776Y591568D01*
X641774Y591573D01*
X641776Y591574D01*
X641775Y591577D01*
X641778Y591579D01*
X641859Y592696D01*
X641857Y592699D01*
X641859Y592700D01*
X641859Y604700D01*
X641854Y604707D01*
X641857Y604711D01*
X641638Y605655D01*
X641632Y605661D01*
X641635Y605666D01*
X641211Y606538D01*
X641204Y606541D01*
X641205Y606547D01*
X640598Y607303D01*
X640590Y607305D01*
X640590Y607311D01*
X639830Y607912D01*
X639822Y607912D01*
X639821Y607918D01*
X638946Y608336D01*
X638938Y608334D01*
X638935Y608339D01*
X637990Y608552D01*
X637982Y608548D01*
X637979Y608553D01*
X637009Y608549D01*
X635940Y608530D01*
X635939Y608530D01*
X635933Y608526D01*
X635929Y608529D01*
X634892Y608273D01*
X634887Y608266D01*
X634882Y608269D01*
X633928Y607788D01*
X633924Y607781D01*
X633918Y607782D01*
X633095Y607101D01*
X633093Y607093D01*
X633087Y607093D01*
X632436Y606246D01*
X632436Y606238D01*
X632430Y606237D01*
X631984Y605266D01*
X631986Y605258D01*
X631980Y605256D01*
X631761Y604210D01*
X631764Y604203D01*
X631760Y604200D01*
X631760Y592200D01*
X631764Y592195D01*
X631761Y592192D01*
X631941Y591097D01*
X631947Y591091D01*
X631944Y591086D01*
X632363Y590058D01*
X632370Y590054D01*
X632368Y590049D01*
X633005Y589140D01*
X633013Y589138D01*
X633012Y589132D01*
X633836Y588388D01*
X633844Y588387D01*
X633845Y588381D01*
X634813Y587839D01*
X634821Y587840D01*
X634823Y587834D01*
X635888Y587521D01*
X635895Y587524D01*
X635899Y587519D01*
X637006Y587451D01*
X637013Y587455D01*
G37*
G36*
X723512Y587454D02*
X723512Y587454D01*
X723515Y587451D01*
X724561Y587569D01*
X724567Y587575D01*
X724572Y587571D01*
X725565Y587919D01*
X725569Y587926D01*
X725575Y587924D01*
X726466Y588484D01*
X726469Y588491D01*
X726475Y588491D01*
X727219Y589235D01*
X727220Y589243D01*
X727226Y589243D01*
X727786Y590135D01*
X727785Y590142D01*
X727787Y590143D01*
X727790Y590144D01*
X728138Y591138D01*
X728136Y591146D01*
X728141Y591149D01*
X728258Y592195D01*
X728256Y592198D01*
X728259Y592200D01*
X728259Y604200D01*
X728255Y604205D01*
X728258Y604208D01*
X728101Y605204D01*
X728095Y605210D01*
X728098Y605215D01*
X727723Y606151D01*
X727716Y606155D01*
X727718Y606161D01*
X727143Y606990D01*
X727136Y606993D01*
X727136Y606998D01*
X726392Y607679D01*
X726384Y607680D01*
X726383Y607686D01*
X725506Y608184D01*
X725498Y608183D01*
X725496Y608188D01*
X724530Y608479D01*
X724522Y608476D01*
X724519Y608481D01*
X723513Y608549D01*
X723510Y608548D01*
X723509Y608549D01*
X722428Y608540D01*
X722422Y608535D01*
X722417Y608539D01*
X721366Y608290D01*
X721361Y608283D01*
X721356Y608286D01*
X720386Y607809D01*
X720382Y607801D01*
X720377Y607803D01*
X719537Y607122D01*
X719535Y607114D01*
X719530Y607114D01*
X718863Y606264D01*
X718863Y606255D01*
X718857Y606254D01*
X718396Y605277D01*
X718398Y605269D01*
X718393Y605266D01*
X718161Y604211D01*
X718165Y604203D01*
X718160Y604200D01*
X718160Y592200D01*
X718164Y592195D01*
X718161Y592192D01*
X718353Y591086D01*
X718359Y591081D01*
X718356Y591076D01*
X718789Y590041D01*
X718796Y590037D01*
X718795Y590032D01*
X719447Y589119D01*
X719455Y589117D01*
X719455Y589111D01*
X720294Y588367D01*
X720302Y588366D01*
X720303Y588361D01*
X721287Y587822D01*
X721295Y587823D01*
X721297Y587818D01*
X722376Y587511D01*
X722383Y587514D01*
X722387Y587509D01*
X723507Y587451D01*
X723512Y587454D01*
G37*
G36*
X343502Y587454D02*
X343502Y587454D01*
X343506Y587451D01*
X344551Y587569D01*
X344557Y587575D01*
X344562Y587571D01*
X345556Y587919D01*
X345560Y587926D01*
X345565Y587924D01*
X346457Y588484D01*
X346460Y588491D01*
X346465Y588491D01*
X347209Y589235D01*
X347211Y589243D01*
X347216Y589243D01*
X347776Y590135D01*
X347776Y590142D01*
X347777Y590143D01*
X347781Y590144D01*
X348129Y591138D01*
X348126Y591146D01*
X348131Y591149D01*
X348249Y592195D01*
X348247Y592198D01*
X348249Y592200D01*
X348249Y604200D01*
X348246Y604205D01*
X348249Y604208D01*
X348091Y605204D01*
X348085Y605210D01*
X348088Y605215D01*
X347713Y606151D01*
X347706Y606155D01*
X347708Y606161D01*
X347134Y606990D01*
X347126Y606993D01*
X347127Y606998D01*
X346383Y607679D01*
X346374Y607680D01*
X346374Y607686D01*
X345497Y608184D01*
X345489Y608183D01*
X345486Y608188D01*
X344521Y608479D01*
X344513Y608476D01*
X344510Y608481D01*
X343503Y608549D01*
X343501Y608548D01*
X343500Y608549D01*
X342419Y608540D01*
X342412Y608535D01*
X342408Y608539D01*
X341356Y608290D01*
X341351Y608283D01*
X341346Y608286D01*
X340376Y607809D01*
X340373Y607801D01*
X340367Y607803D01*
X339528Y607122D01*
X339526Y607114D01*
X339520Y607114D01*
X338854Y606264D01*
X338853Y606255D01*
X338848Y606254D01*
X338387Y605277D01*
X338389Y605269D01*
X338384Y605266D01*
X338152Y604211D01*
X338155Y604203D01*
X338151Y604200D01*
X338151Y592200D01*
X338155Y592195D01*
X338151Y592192D01*
X338344Y591086D01*
X338350Y591081D01*
X338347Y591076D01*
X338780Y590041D01*
X338787Y590037D01*
X338785Y590032D01*
X339438Y589119D01*
X339446Y589117D01*
X339445Y589111D01*
X340284Y588367D01*
X340293Y588366D01*
X340293Y588361D01*
X341277Y587822D01*
X341285Y587823D01*
X341287Y587818D01*
X342366Y587511D01*
X342374Y587514D01*
X342377Y587509D01*
X343497Y587451D01*
X343502Y587454D01*
G37*
G36*
X257004Y631956D02*
X257004Y631956D01*
X257009Y631952D01*
X258146Y632159D01*
X258152Y632165D01*
X258157Y632162D01*
X259219Y632617D01*
X259223Y632624D01*
X259229Y632622D01*
X260164Y633302D01*
X260166Y633310D01*
X260172Y633309D01*
X260932Y634180D01*
X260932Y634188D01*
X260938Y634189D01*
X261485Y635208D01*
X261484Y635216D01*
X261489Y635218D01*
X261495Y635237D01*
X261508Y635286D01*
X261522Y635336D01*
X261535Y635385D01*
X261549Y635434D01*
X261562Y635483D01*
X261563Y635483D01*
X261562Y635483D01*
X261576Y635533D01*
X261590Y635582D01*
X261603Y635631D01*
X261617Y635680D01*
X261630Y635730D01*
X261644Y635779D01*
X261657Y635828D01*
X261671Y635877D01*
X261685Y635927D01*
X261698Y635976D01*
X261712Y636025D01*
X261796Y636332D01*
X261793Y636340D01*
X261798Y636343D01*
X261849Y637498D01*
X261848Y637499D01*
X261849Y637500D01*
X261849Y643500D01*
X261845Y643506D01*
X261848Y643509D01*
X261636Y644590D01*
X261630Y644595D01*
X261633Y644600D01*
X261186Y645606D01*
X261179Y645610D01*
X261181Y645616D01*
X260521Y646497D01*
X260513Y646500D01*
X260513Y646505D01*
X259674Y647218D01*
X259666Y647218D01*
X259665Y647224D01*
X258688Y647732D01*
X258680Y647731D01*
X258678Y647736D01*
X257613Y648014D01*
X257605Y648011D01*
X257602Y648015D01*
X256502Y648049D01*
X256496Y648046D01*
X256493Y648049D01*
X255418Y647894D01*
X255412Y647888D01*
X255407Y647891D01*
X254393Y647501D01*
X254389Y647494D01*
X254383Y647496D01*
X253481Y646889D01*
X253479Y646881D01*
X253473Y646882D01*
X252729Y646090D01*
X252728Y646082D01*
X252722Y646082D01*
X252173Y645144D01*
X252174Y645136D01*
X252168Y645134D01*
X251841Y644098D01*
X251844Y644090D01*
X251839Y644087D01*
X251751Y643004D01*
X251753Y643001D01*
X251751Y643000D01*
X251751Y637000D01*
X251754Y636996D01*
X251751Y636994D01*
X251901Y635861D01*
X251907Y635855D01*
X251904Y635850D01*
X252302Y634780D01*
X252309Y634776D01*
X252307Y634770D01*
X252934Y633815D01*
X252942Y633812D01*
X252941Y633807D01*
X253764Y633015D01*
X253772Y633014D01*
X253773Y633008D01*
X254752Y632419D01*
X254760Y632420D01*
X254762Y632415D01*
X255847Y632059D01*
X255855Y632062D01*
X255858Y632057D01*
X256995Y631951D01*
X257004Y631956D01*
G37*
G36*
X637013Y631956D02*
X637013Y631956D01*
X637018Y631952D01*
X638155Y632159D01*
X638161Y632165D01*
X638166Y632162D01*
X639229Y632617D01*
X639233Y632624D01*
X639238Y632622D01*
X640173Y633302D01*
X640175Y633310D01*
X640181Y633309D01*
X640941Y634180D01*
X640942Y634188D01*
X640947Y634189D01*
X641495Y635208D01*
X641493Y635216D01*
X641499Y635218D01*
X641504Y635237D01*
X641518Y635286D01*
X641531Y635336D01*
X641545Y635385D01*
X641558Y635434D01*
X641572Y635483D01*
X641585Y635533D01*
X641599Y635582D01*
X641613Y635631D01*
X641626Y635680D01*
X641640Y635730D01*
X641653Y635779D01*
X641667Y635828D01*
X641680Y635877D01*
X641694Y635927D01*
X641708Y635976D01*
X641721Y636025D01*
X641806Y636332D01*
X641803Y636340D01*
X641807Y636343D01*
X641859Y637498D01*
X641858Y637499D01*
X641859Y637500D01*
X641859Y643500D01*
X641854Y643506D01*
X641858Y643509D01*
X641646Y644590D01*
X641640Y644595D01*
X641643Y644600D01*
X641196Y645606D01*
X641188Y645610D01*
X641190Y645616D01*
X640530Y646497D01*
X640523Y646500D01*
X640523Y646505D01*
X639684Y647218D01*
X639675Y647218D01*
X639675Y647224D01*
X638698Y647732D01*
X638690Y647731D01*
X638688Y647736D01*
X637622Y648014D01*
X637615Y648011D01*
X637611Y648015D01*
X636511Y648049D01*
X636506Y648046D01*
X636502Y648049D01*
X635427Y647894D01*
X635421Y647888D01*
X635416Y647891D01*
X634402Y647501D01*
X634398Y647494D01*
X634392Y647496D01*
X633491Y646889D01*
X633488Y646881D01*
X633482Y646882D01*
X632738Y646090D01*
X632737Y646082D01*
X632732Y646082D01*
X632182Y645144D01*
X632183Y645136D01*
X632178Y645134D01*
X631851Y644098D01*
X631853Y644090D01*
X631849Y644087D01*
X631760Y643004D01*
X631762Y643001D01*
X631760Y643000D01*
X631760Y637000D01*
X631763Y636996D01*
X631761Y636994D01*
X631911Y635861D01*
X631916Y635855D01*
X631913Y635850D01*
X632312Y634780D01*
X632319Y634776D01*
X632317Y634770D01*
X632943Y633815D01*
X632951Y633812D01*
X632950Y633807D01*
X633774Y633015D01*
X633782Y633014D01*
X633782Y633008D01*
X634761Y632419D01*
X634769Y632420D01*
X634771Y632415D01*
X635857Y632059D01*
X635864Y632062D01*
X635867Y632057D01*
X637005Y631951D01*
X637013Y631956D01*
G37*
G36*
X724151Y632057D02*
X724151Y632057D01*
X724157Y632062D01*
X724162Y632059D01*
X725247Y632415D01*
X725252Y632422D01*
X725258Y632419D01*
X726236Y633008D01*
X726239Y633016D01*
X726245Y633015D01*
X727069Y633807D01*
X727070Y633815D01*
X727076Y633815D01*
X727702Y634770D01*
X727702Y634778D01*
X727707Y634780D01*
X728105Y635850D01*
X728103Y635858D01*
X728108Y635861D01*
X728258Y636994D01*
X728256Y636998D01*
X728259Y637000D01*
X728259Y643000D01*
X728256Y643004D01*
X728258Y643006D01*
X728108Y644139D01*
X728102Y644145D01*
X728105Y644150D01*
X727707Y645220D01*
X727700Y645224D01*
X727702Y645230D01*
X727076Y646185D01*
X727068Y646188D01*
X727069Y646193D01*
X726245Y646985D01*
X726237Y646986D01*
X726236Y646992D01*
X725258Y647581D01*
X725249Y647580D01*
X725247Y647585D01*
X724162Y647941D01*
X724154Y647939D01*
X724151Y647943D01*
X723014Y648049D01*
X723007Y648045D01*
X723003Y648049D01*
X721915Y647904D01*
X721909Y647898D01*
X721904Y647901D01*
X720876Y647518D01*
X720872Y647511D01*
X720866Y647513D01*
X719949Y646910D01*
X719946Y646902D01*
X719941Y646903D01*
X719181Y646111D01*
X719180Y646103D01*
X719174Y646102D01*
X718609Y645161D01*
X718610Y645153D01*
X718604Y645151D01*
X718263Y644108D01*
X718266Y644100D01*
X718261Y644097D01*
X718160Y643005D01*
X718162Y643002D01*
X718160Y643000D01*
X718160Y637000D01*
X718162Y636997D01*
X718160Y636996D01*
X718261Y635903D01*
X718267Y635897D01*
X718263Y635892D01*
X718604Y634849D01*
X718611Y634844D01*
X718609Y634839D01*
X719174Y633898D01*
X719181Y633895D01*
X719181Y633889D01*
X719941Y633097D01*
X719949Y633096D01*
X719949Y633090D01*
X720866Y632488D01*
X720874Y632488D01*
X720876Y632483D01*
X721904Y632099D01*
X721912Y632101D01*
X721915Y632096D01*
X723003Y631951D01*
X723010Y631955D01*
X723014Y631951D01*
X724151Y632057D01*
G37*
G36*
X344142Y632057D02*
X344142Y632057D01*
X344148Y632062D01*
X344153Y632059D01*
X345238Y632415D01*
X345243Y632422D01*
X345248Y632419D01*
X346227Y633008D01*
X346230Y633016D01*
X346236Y633015D01*
X347059Y633807D01*
X347060Y633815D01*
X347066Y633815D01*
X347693Y634770D01*
X347692Y634778D01*
X347698Y634780D01*
X348096Y635850D01*
X348094Y635858D01*
X348099Y635861D01*
X348249Y636994D01*
X348246Y636998D01*
X348249Y637000D01*
X348249Y643000D01*
X348246Y643004D01*
X348249Y643006D01*
X348099Y644139D01*
X348093Y644145D01*
X348096Y644150D01*
X347698Y645220D01*
X347691Y645224D01*
X347693Y645230D01*
X347066Y646185D01*
X347058Y646188D01*
X347059Y646193D01*
X346236Y646985D01*
X346228Y646986D01*
X346227Y646992D01*
X345248Y647581D01*
X345240Y647580D01*
X345238Y647585D01*
X344153Y647941D01*
X344145Y647939D01*
X344142Y647943D01*
X343005Y648049D01*
X342998Y648045D01*
X342994Y648049D01*
X341906Y647904D01*
X341900Y647898D01*
X341895Y647901D01*
X340867Y647518D01*
X340862Y647511D01*
X340857Y647513D01*
X339940Y646910D01*
X339937Y646902D01*
X339931Y646903D01*
X339171Y646111D01*
X339170Y646103D01*
X339164Y646102D01*
X338600Y645161D01*
X338601Y645153D01*
X338595Y645151D01*
X338254Y644108D01*
X338256Y644100D01*
X338252Y644097D01*
X338151Y643005D01*
X338153Y643002D01*
X338151Y643000D01*
X338151Y637000D01*
X338153Y636997D01*
X338151Y636996D01*
X338252Y635903D01*
X338257Y635897D01*
X338254Y635892D01*
X338595Y634849D01*
X338602Y634844D01*
X338600Y634839D01*
X339164Y633898D01*
X339172Y633895D01*
X339171Y633889D01*
X339931Y633097D01*
X339939Y633096D01*
X339940Y633090D01*
X340857Y632488D01*
X340865Y632488D01*
X340867Y632483D01*
X341895Y632099D01*
X341903Y632101D01*
X341906Y632096D01*
X342994Y631951D01*
X343001Y631955D01*
X343005Y631951D01*
X344142Y632057D01*
G37*
D10*
X323440Y53510D02*
X318460Y53510D01*
X318460Y64490D01*
X323440Y64490D01*
X323440Y53510D01*
X323440Y54479D02*
X318460Y54479D01*
X318460Y55448D02*
X323440Y55448D01*
X323440Y56417D02*
X318460Y56417D01*
X318460Y57386D02*
X323440Y57386D01*
X323440Y58355D02*
X318460Y58355D01*
X318460Y59324D02*
X323440Y59324D01*
X323440Y60293D02*
X318460Y60293D01*
X318460Y61262D02*
X323440Y61262D01*
X323440Y62231D02*
X318460Y62231D01*
X318460Y63200D02*
X323440Y63200D01*
X323440Y64169D02*
X318460Y64169D01*
X331160Y53510D02*
X336140Y53510D01*
X331160Y53510D02*
X331160Y64490D01*
X336140Y64490D01*
X336140Y53510D01*
X336140Y54479D02*
X331160Y54479D01*
X331160Y55448D02*
X336140Y55448D01*
X336140Y56417D02*
X331160Y56417D01*
X331160Y57386D02*
X336140Y57386D01*
X336140Y58355D02*
X331160Y58355D01*
X331160Y59324D02*
X336140Y59324D01*
X336140Y60293D02*
X331160Y60293D01*
X331160Y61262D02*
X336140Y61262D01*
X336140Y62231D02*
X331160Y62231D01*
X331160Y63200D02*
X336140Y63200D01*
X336140Y64169D02*
X331160Y64169D01*
X343860Y53510D02*
X348840Y53510D01*
X343860Y53510D02*
X343860Y64490D01*
X348840Y64490D01*
X348840Y53510D01*
X348840Y54479D02*
X343860Y54479D01*
X343860Y55448D02*
X348840Y55448D01*
X348840Y56417D02*
X343860Y56417D01*
X343860Y57386D02*
X348840Y57386D01*
X348840Y58355D02*
X343860Y58355D01*
X343860Y59324D02*
X348840Y59324D01*
X348840Y60293D02*
X343860Y60293D01*
X343860Y61262D02*
X348840Y61262D01*
X348840Y62231D02*
X343860Y62231D01*
X343860Y63200D02*
X348840Y63200D01*
X348840Y64169D02*
X343860Y64169D01*
X356560Y53510D02*
X361540Y53510D01*
X356560Y53510D02*
X356560Y64490D01*
X361540Y64490D01*
X361540Y53510D01*
X361540Y54479D02*
X356560Y54479D01*
X356560Y55448D02*
X361540Y55448D01*
X361540Y56417D02*
X356560Y56417D01*
X356560Y57386D02*
X361540Y57386D01*
X361540Y58355D02*
X356560Y58355D01*
X356560Y59324D02*
X361540Y59324D01*
X361540Y60293D02*
X356560Y60293D01*
X356560Y61262D02*
X361540Y61262D01*
X361540Y62231D02*
X356560Y62231D01*
X356560Y63200D02*
X361540Y63200D01*
X361540Y64169D02*
X356560Y64169D01*
X356560Y109510D02*
X361540Y109510D01*
X356560Y109510D02*
X356560Y120490D01*
X361540Y120490D01*
X361540Y109510D01*
X361540Y110479D02*
X356560Y110479D01*
X356560Y111448D02*
X361540Y111448D01*
X361540Y112417D02*
X356560Y112417D01*
X356560Y113386D02*
X361540Y113386D01*
X361540Y114355D02*
X356560Y114355D01*
X356560Y115324D02*
X361540Y115324D01*
X361540Y116293D02*
X356560Y116293D01*
X356560Y117262D02*
X361540Y117262D01*
X361540Y118231D02*
X356560Y118231D01*
X356560Y119200D02*
X361540Y119200D01*
X361540Y120169D02*
X356560Y120169D01*
X348840Y109510D02*
X343860Y109510D01*
X343860Y120490D01*
X348840Y120490D01*
X348840Y109510D01*
X348840Y110479D02*
X343860Y110479D01*
X343860Y111448D02*
X348840Y111448D01*
X348840Y112417D02*
X343860Y112417D01*
X343860Y113386D02*
X348840Y113386D01*
X348840Y114355D02*
X343860Y114355D01*
X343860Y115324D02*
X348840Y115324D01*
X348840Y116293D02*
X343860Y116293D01*
X343860Y117262D02*
X348840Y117262D01*
X348840Y118231D02*
X343860Y118231D01*
X343860Y119200D02*
X348840Y119200D01*
X348840Y120169D02*
X343860Y120169D01*
X336140Y109510D02*
X331160Y109510D01*
X331160Y120490D01*
X336140Y120490D01*
X336140Y109510D01*
X336140Y110479D02*
X331160Y110479D01*
X331160Y111448D02*
X336140Y111448D01*
X336140Y112417D02*
X331160Y112417D01*
X331160Y113386D02*
X336140Y113386D01*
X336140Y114355D02*
X331160Y114355D01*
X331160Y115324D02*
X336140Y115324D01*
X336140Y116293D02*
X331160Y116293D01*
X331160Y117262D02*
X336140Y117262D01*
X336140Y118231D02*
X331160Y118231D01*
X331160Y119200D02*
X336140Y119200D01*
X336140Y120169D02*
X331160Y120169D01*
X323440Y109510D02*
X318460Y109510D01*
X318460Y120490D01*
X323440Y120490D01*
X323440Y109510D01*
X323440Y110479D02*
X318460Y110479D01*
X318460Y111448D02*
X323440Y111448D01*
X323440Y112417D02*
X318460Y112417D01*
X318460Y113386D02*
X323440Y113386D01*
X323440Y114355D02*
X318460Y114355D01*
X318460Y115324D02*
X323440Y115324D01*
X323440Y116293D02*
X318460Y116293D01*
X318460Y117262D02*
X323440Y117262D01*
X323440Y118231D02*
X318460Y118231D01*
X318460Y119200D02*
X323440Y119200D01*
X323440Y120169D02*
X318460Y120169D01*
X318510Y132510D02*
X323490Y132510D01*
X318510Y132510D02*
X318510Y137490D01*
X323490Y137490D01*
X323490Y132510D01*
X323490Y133479D02*
X318510Y133479D01*
X318510Y134448D02*
X323490Y134448D01*
X323490Y135417D02*
X318510Y135417D01*
X318510Y136386D02*
X323490Y136386D01*
X323490Y137355D02*
X318510Y137355D01*
X328510Y132510D02*
X333490Y132510D01*
X328510Y132510D02*
X328510Y137490D01*
X333490Y137490D01*
X333490Y132510D01*
X333490Y133479D02*
X328510Y133479D01*
X328510Y134448D02*
X333490Y134448D01*
X333490Y135417D02*
X328510Y135417D01*
X328510Y136386D02*
X333490Y136386D01*
X333490Y137355D02*
X328510Y137355D01*
X302510Y113490D02*
X302510Y108510D01*
X302510Y113490D02*
X307490Y113490D01*
X307490Y108510D01*
X302510Y108510D01*
X302510Y109479D02*
X307490Y109479D01*
X307490Y110448D02*
X302510Y110448D01*
X302510Y111417D02*
X307490Y111417D01*
X307490Y112386D02*
X302510Y112386D01*
X302510Y113355D02*
X307490Y113355D01*
X302510Y103490D02*
X302510Y98510D01*
X302510Y103490D02*
X307490Y103490D01*
X307490Y98510D01*
X302510Y98510D01*
X302510Y99479D02*
X307490Y99479D01*
X307490Y100448D02*
X302510Y100448D01*
X302510Y101417D02*
X307490Y101417D01*
X307490Y102386D02*
X302510Y102386D01*
X302510Y103355D02*
X307490Y103355D01*
X283510Y92990D02*
X283510Y88010D01*
X283510Y92990D02*
X288490Y92990D01*
X288490Y88010D01*
X283510Y88010D01*
X283510Y88979D02*
X288490Y88979D01*
X288490Y89948D02*
X283510Y89948D01*
X283510Y90917D02*
X288490Y90917D01*
X288490Y91886D02*
X283510Y91886D01*
X283510Y92855D02*
X288490Y92855D01*
X283510Y82990D02*
X283510Y78010D01*
X283510Y82990D02*
X288490Y82990D01*
X288490Y78010D01*
X283510Y78010D01*
X283510Y78979D02*
X288490Y78979D01*
X288490Y79948D02*
X283510Y79948D01*
X283510Y80917D02*
X288490Y80917D01*
X288490Y81886D02*
X283510Y81886D01*
X283510Y82855D02*
X288490Y82855D01*
X274490Y82990D02*
X274490Y78010D01*
X269510Y78010D01*
X269510Y82990D01*
X274490Y82990D01*
X274490Y78979D02*
X269510Y78979D01*
X269510Y79948D02*
X274490Y79948D01*
X274490Y80917D02*
X269510Y80917D01*
X269510Y81886D02*
X274490Y81886D01*
X274490Y82855D02*
X269510Y82855D01*
X274490Y88010D02*
X274490Y92990D01*
X274490Y88010D02*
X269510Y88010D01*
X269510Y92990D01*
X274490Y92990D01*
X274490Y88979D02*
X269510Y88979D01*
X269510Y89948D02*
X274490Y89948D01*
X274490Y90917D02*
X269510Y90917D01*
X269510Y91886D02*
X274490Y91886D01*
X274490Y92855D02*
X269510Y92855D01*
D11*
X199020Y93980D02*
X199020Y87020D01*
X199020Y93980D02*
X206980Y93980D01*
X206980Y87020D01*
X199020Y87020D01*
X199020Y88008D02*
X206980Y88008D01*
X206980Y88996D02*
X199020Y88996D01*
X199020Y89984D02*
X206980Y89984D01*
X206980Y90972D02*
X199020Y90972D01*
X199020Y91960D02*
X206980Y91960D01*
X206980Y92948D02*
X199020Y92948D01*
X199020Y93936D02*
X206980Y93936D01*
X199020Y74980D02*
X199020Y68020D01*
X199020Y74980D02*
X206980Y74980D01*
X206980Y68020D01*
X199020Y68020D01*
X199020Y69008D02*
X206980Y69008D01*
X206980Y69996D02*
X199020Y69996D01*
X199020Y70984D02*
X206980Y70984D01*
X206980Y71972D02*
X199020Y71972D01*
X199020Y72960D02*
X206980Y72960D01*
X206980Y73948D02*
X199020Y73948D01*
X199020Y74936D02*
X206980Y74936D01*
X220020Y77520D02*
X220020Y84480D01*
X227980Y84480D01*
X227980Y77520D01*
X220020Y77520D01*
X220020Y78508D02*
X227980Y78508D01*
X227980Y79496D02*
X220020Y79496D01*
X220020Y80484D02*
X227980Y80484D01*
X227980Y81472D02*
X220020Y81472D01*
X220020Y82460D02*
X227980Y82460D01*
X227980Y83448D02*
X220020Y83448D01*
X220020Y84436D02*
X227980Y84436D01*
X129020Y87020D02*
X129020Y93980D01*
X136980Y93980D01*
X136980Y87020D01*
X129020Y87020D01*
X129020Y88008D02*
X136980Y88008D01*
X136980Y88996D02*
X129020Y88996D01*
X129020Y89984D02*
X136980Y89984D01*
X136980Y90972D02*
X129020Y90972D01*
X129020Y91960D02*
X136980Y91960D01*
X136980Y92948D02*
X129020Y92948D01*
X129020Y93936D02*
X136980Y93936D01*
X129020Y74980D02*
X129020Y68020D01*
X129020Y74980D02*
X136980Y74980D01*
X136980Y68020D01*
X129020Y68020D01*
X129020Y69008D02*
X136980Y69008D01*
X136980Y69996D02*
X129020Y69996D01*
X129020Y70984D02*
X136980Y70984D01*
X136980Y71972D02*
X129020Y71972D01*
X129020Y72960D02*
X136980Y72960D01*
X136980Y73948D02*
X129020Y73948D01*
X129020Y74936D02*
X136980Y74936D01*
X150020Y77520D02*
X150020Y84480D01*
X157980Y84480D01*
X157980Y77520D01*
X150020Y77520D01*
X150020Y78508D02*
X157980Y78508D01*
X157980Y79496D02*
X150020Y79496D01*
X150020Y80484D02*
X157980Y80484D01*
X157980Y81472D02*
X150020Y81472D01*
X150020Y82460D02*
X157980Y82460D01*
X157980Y83448D02*
X150020Y83448D01*
X150020Y84436D02*
X157980Y84436D01*
X234020Y77020D02*
X240980Y77020D01*
X234020Y77020D02*
X234020Y84980D01*
X240980Y84980D01*
X240980Y77020D01*
X240980Y78008D02*
X234020Y78008D01*
X234020Y78996D02*
X240980Y78996D01*
X240980Y79984D02*
X234020Y79984D01*
X234020Y80972D02*
X240980Y80972D01*
X240980Y81960D02*
X234020Y81960D01*
X234020Y82948D02*
X240980Y82948D01*
X240980Y83936D02*
X234020Y83936D01*
X234020Y84924D02*
X240980Y84924D01*
X253020Y77020D02*
X259980Y77020D01*
X253020Y77020D02*
X253020Y84980D01*
X259980Y84980D01*
X259980Y77020D01*
X259980Y78008D02*
X253020Y78008D01*
X253020Y78996D02*
X259980Y78996D01*
X259980Y79984D02*
X253020Y79984D01*
X253020Y80972D02*
X259980Y80972D01*
X259980Y81960D02*
X253020Y81960D01*
X253020Y82948D02*
X259980Y82948D01*
X259980Y83936D02*
X253020Y83936D01*
X253020Y84924D02*
X259980Y84924D01*
X250480Y98020D02*
X243520Y98020D01*
X243520Y105980D01*
X250480Y105980D01*
X250480Y98020D01*
X250480Y99008D02*
X243520Y99008D01*
X243520Y99996D02*
X250480Y99996D01*
X250480Y100984D02*
X243520Y100984D01*
X243520Y101972D02*
X250480Y101972D01*
X250480Y102960D02*
X243520Y102960D01*
X243520Y103948D02*
X250480Y103948D01*
X250480Y104936D02*
X243520Y104936D01*
X243520Y105924D02*
X250480Y105924D01*
X170980Y77020D02*
X164020Y77020D01*
X164020Y84980D01*
X170980Y84980D01*
X170980Y77020D01*
X170980Y78008D02*
X164020Y78008D01*
X164020Y78996D02*
X170980Y78996D01*
X170980Y79984D02*
X164020Y79984D01*
X164020Y80972D02*
X170980Y80972D01*
X170980Y81960D02*
X164020Y81960D01*
X164020Y82948D02*
X170980Y82948D01*
X170980Y83936D02*
X164020Y83936D01*
X164020Y84924D02*
X170980Y84924D01*
X183020Y77020D02*
X189980Y77020D01*
X183020Y77020D02*
X183020Y84980D01*
X189980Y84980D01*
X189980Y77020D01*
X189980Y78008D02*
X183020Y78008D01*
X183020Y78996D02*
X189980Y78996D01*
X189980Y79984D02*
X183020Y79984D01*
X183020Y80972D02*
X189980Y80972D01*
X189980Y81960D02*
X183020Y81960D01*
X183020Y82948D02*
X189980Y82948D01*
X189980Y83936D02*
X183020Y83936D01*
X183020Y84924D02*
X189980Y84924D01*
X180480Y98020D02*
X173520Y98020D01*
X173520Y105980D01*
X180480Y105980D01*
X180480Y98020D01*
X180480Y99008D02*
X173520Y99008D01*
X173520Y99996D02*
X180480Y99996D01*
X180480Y100984D02*
X173520Y100984D01*
X173520Y101972D02*
X180480Y101972D01*
X180480Y102960D02*
X173520Y102960D01*
X173520Y103948D02*
X180480Y103948D01*
X180480Y104936D02*
X173520Y104936D01*
X173520Y105924D02*
X180480Y105924D01*
D10*
X235010Y67010D02*
X239990Y67010D01*
X235010Y67010D02*
X235010Y71990D01*
X239990Y71990D01*
X239990Y67010D01*
X239990Y67979D02*
X235010Y67979D01*
X235010Y68948D02*
X239990Y68948D01*
X239990Y69917D02*
X235010Y69917D01*
X235010Y70886D02*
X239990Y70886D01*
X239990Y71855D02*
X235010Y71855D01*
X245010Y67010D02*
X249990Y67010D01*
X245010Y67010D02*
X245010Y71990D01*
X249990Y71990D01*
X249990Y67010D01*
X249990Y67979D02*
X245010Y67979D01*
X245010Y68948D02*
X249990Y68948D01*
X249990Y69917D02*
X245010Y69917D01*
X245010Y70886D02*
X249990Y70886D01*
X249990Y71855D02*
X245010Y71855D01*
X169990Y67010D02*
X165010Y67010D01*
X165010Y71990D01*
X169990Y71990D01*
X169990Y67010D01*
X169990Y67979D02*
X165010Y67979D01*
X165010Y68948D02*
X169990Y68948D01*
X169990Y69917D02*
X165010Y69917D01*
X165010Y70886D02*
X169990Y70886D01*
X169990Y71855D02*
X165010Y71855D01*
X175010Y67010D02*
X179990Y67010D01*
X175010Y67010D02*
X175010Y71990D01*
X179990Y71990D01*
X179990Y67010D01*
X179990Y67979D02*
X175010Y67979D01*
X175010Y68948D02*
X179990Y68948D01*
X179990Y69917D02*
X175010Y69917D01*
X175010Y70886D02*
X179990Y70886D01*
X179990Y71855D02*
X175010Y71855D01*
X291510Y596890D02*
X293490Y596890D01*
X293490Y587910D01*
X291510Y587910D01*
X291510Y596890D01*
X291510Y588879D02*
X293490Y588879D01*
X293490Y589848D02*
X291510Y589848D01*
X291510Y590817D02*
X293490Y590817D01*
X293490Y591786D02*
X291510Y591786D01*
X291510Y592755D02*
X293490Y592755D01*
X293490Y593724D02*
X291510Y593724D01*
X291510Y594693D02*
X293490Y594693D01*
X293490Y595662D02*
X291510Y595662D01*
X291510Y596631D02*
X293490Y596631D01*
X296510Y596890D02*
X298490Y596890D01*
X298490Y587910D01*
X296510Y587910D01*
X296510Y596890D01*
X296510Y588879D02*
X298490Y588879D01*
X298490Y589848D02*
X296510Y589848D01*
X296510Y590817D02*
X298490Y590817D01*
X298490Y591786D02*
X296510Y591786D01*
X296510Y592755D02*
X298490Y592755D01*
X298490Y593724D02*
X296510Y593724D01*
X296510Y594693D02*
X298490Y594693D01*
X298490Y595662D02*
X296510Y595662D01*
X296510Y596631D02*
X298490Y596631D01*
X270240Y596890D02*
X265260Y596890D01*
X270240Y596890D02*
X270240Y587910D01*
X265260Y587910D01*
X265260Y596890D01*
X265260Y588879D02*
X270240Y588879D01*
X270240Y589848D02*
X265260Y589848D01*
X265260Y590817D02*
X270240Y590817D01*
X270240Y591786D02*
X265260Y591786D01*
X265260Y592755D02*
X270240Y592755D01*
X270240Y593724D02*
X265260Y593724D01*
X265260Y594693D02*
X270240Y594693D01*
X270240Y595662D02*
X265260Y595662D01*
X265260Y596631D02*
X270240Y596631D01*
X273010Y596890D02*
X277990Y596890D01*
X277990Y587910D01*
X273010Y587910D01*
X273010Y596890D01*
X273010Y588879D02*
X277990Y588879D01*
X277990Y589848D02*
X273010Y589848D01*
X273010Y590817D02*
X277990Y590817D01*
X277990Y591786D02*
X273010Y591786D01*
X273010Y592755D02*
X277990Y592755D01*
X277990Y593724D02*
X273010Y593724D01*
X273010Y594693D02*
X277990Y594693D01*
X277990Y595662D02*
X273010Y595662D01*
X273010Y596631D02*
X277990Y596631D01*
X281510Y596890D02*
X283490Y596890D01*
X283490Y587910D01*
X281510Y587910D01*
X281510Y596890D01*
X281510Y588879D02*
X283490Y588879D01*
X283490Y589848D02*
X281510Y589848D01*
X281510Y590817D02*
X283490Y590817D01*
X283490Y591786D02*
X281510Y591786D01*
X281510Y592755D02*
X283490Y592755D01*
X283490Y593724D02*
X281510Y593724D01*
X281510Y594693D02*
X283490Y594693D01*
X283490Y595662D02*
X281510Y595662D01*
X281510Y596631D02*
X283490Y596631D01*
X286510Y596890D02*
X288490Y596890D01*
X288490Y587910D01*
X286510Y587910D01*
X286510Y596890D01*
X286510Y588879D02*
X288490Y588879D01*
X288490Y589848D02*
X286510Y589848D01*
X286510Y590817D02*
X288490Y590817D01*
X288490Y591786D02*
X286510Y591786D01*
X286510Y592755D02*
X288490Y592755D01*
X288490Y593724D02*
X286510Y593724D01*
X286510Y594693D02*
X288490Y594693D01*
X288490Y595662D02*
X286510Y595662D01*
X286510Y596631D02*
X288490Y596631D01*
X306510Y587910D02*
X308490Y587910D01*
X306510Y587910D02*
X306510Y596890D01*
X308490Y596890D01*
X308490Y587910D01*
X308490Y588879D02*
X306510Y588879D01*
X306510Y589848D02*
X308490Y589848D01*
X308490Y590817D02*
X306510Y590817D01*
X306510Y591786D02*
X308490Y591786D01*
X308490Y592755D02*
X306510Y592755D01*
X306510Y593724D02*
X308490Y593724D01*
X308490Y594693D02*
X306510Y594693D01*
X306510Y595662D02*
X308490Y595662D01*
X308490Y596631D02*
X306510Y596631D01*
X303490Y587910D02*
X301510Y587910D01*
X301510Y596890D01*
X303490Y596890D01*
X303490Y587910D01*
X303490Y588879D02*
X301510Y588879D01*
X301510Y589848D02*
X303490Y589848D01*
X303490Y590817D02*
X301510Y590817D01*
X301510Y591786D02*
X303490Y591786D01*
X303490Y592755D02*
X301510Y592755D01*
X301510Y593724D02*
X303490Y593724D01*
X303490Y594693D02*
X301510Y594693D01*
X301510Y595662D02*
X303490Y595662D01*
X303490Y596631D02*
X301510Y596631D01*
X329760Y587910D02*
X334740Y587910D01*
X329760Y587910D02*
X329760Y596890D01*
X334740Y596890D01*
X334740Y587910D01*
X334740Y588879D02*
X329760Y588879D01*
X329760Y589848D02*
X334740Y589848D01*
X334740Y590817D02*
X329760Y590817D01*
X329760Y591786D02*
X334740Y591786D01*
X334740Y592755D02*
X329760Y592755D01*
X329760Y593724D02*
X334740Y593724D01*
X334740Y594693D02*
X329760Y594693D01*
X329760Y595662D02*
X334740Y595662D01*
X334740Y596631D02*
X329760Y596631D01*
X326990Y587910D02*
X322010Y587910D01*
X322010Y596890D01*
X326990Y596890D01*
X326990Y587910D01*
X326990Y588879D02*
X322010Y588879D01*
X322010Y589848D02*
X326990Y589848D01*
X326990Y590817D02*
X322010Y590817D01*
X322010Y591786D02*
X326990Y591786D01*
X326990Y592755D02*
X322010Y592755D01*
X322010Y593724D02*
X326990Y593724D01*
X326990Y594693D02*
X322010Y594693D01*
X322010Y595662D02*
X326990Y595662D01*
X326990Y596631D02*
X322010Y596631D01*
X318490Y587910D02*
X316510Y587910D01*
X316510Y596890D01*
X318490Y596890D01*
X318490Y587910D01*
X318490Y588879D02*
X316510Y588879D01*
X316510Y589848D02*
X318490Y589848D01*
X318490Y590817D02*
X316510Y590817D01*
X316510Y591786D02*
X318490Y591786D01*
X318490Y592755D02*
X316510Y592755D01*
X316510Y593724D02*
X318490Y593724D01*
X318490Y594693D02*
X316510Y594693D01*
X316510Y595662D02*
X318490Y595662D01*
X318490Y596631D02*
X316510Y596631D01*
X313490Y587910D02*
X311510Y587910D01*
X311510Y596890D01*
X313490Y596890D01*
X313490Y587910D01*
X313490Y588879D02*
X311510Y588879D01*
X311510Y589848D02*
X313490Y589848D01*
X313490Y590817D02*
X311510Y590817D01*
X311510Y591786D02*
X313490Y591786D01*
X313490Y592755D02*
X311510Y592755D01*
X311510Y593724D02*
X313490Y593724D01*
X313490Y594693D02*
X311510Y594693D01*
X311510Y595662D02*
X313490Y595662D01*
X313490Y596631D02*
X311510Y596631D01*
D12*
X304262Y572588D02*
X304262Y567512D01*
X304262Y572588D02*
X305738Y572588D01*
X305738Y567512D01*
X304262Y567512D01*
X304262Y568486D02*
X305738Y568486D01*
X305738Y569460D02*
X304262Y569460D01*
X304262Y570434D02*
X305738Y570434D01*
X305738Y571408D02*
X304262Y571408D01*
X304262Y572382D02*
X305738Y572382D01*
X299262Y572588D02*
X299262Y568012D01*
X299262Y572588D02*
X300738Y572588D01*
X300738Y568012D01*
X299262Y568012D01*
X299262Y568986D02*
X300738Y568986D01*
X300738Y569960D02*
X299262Y569960D01*
X299262Y570934D02*
X300738Y570934D01*
X300738Y571908D02*
X299262Y571908D01*
X294262Y572588D02*
X294262Y568012D01*
X294262Y572588D02*
X295738Y572588D01*
X295738Y568012D01*
X294262Y568012D01*
X294262Y568986D02*
X295738Y568986D01*
X295738Y569960D02*
X294262Y569960D01*
X294262Y570934D02*
X295738Y570934D01*
X295738Y571908D02*
X294262Y571908D01*
X295738Y563988D02*
X295738Y559412D01*
X294262Y559412D01*
X294262Y563988D01*
X295738Y563988D01*
X295738Y560386D02*
X294262Y560386D01*
X294262Y561360D02*
X295738Y561360D01*
X295738Y562334D02*
X294262Y562334D01*
X294262Y563308D02*
X295738Y563308D01*
X300738Y563988D02*
X300738Y559412D01*
X299262Y559412D01*
X299262Y563988D01*
X300738Y563988D01*
X300738Y560386D02*
X299262Y560386D01*
X299262Y561360D02*
X300738Y561360D01*
X300738Y562334D02*
X299262Y562334D01*
X299262Y563308D02*
X300738Y563308D01*
X305738Y563988D02*
X305738Y559412D01*
X304262Y559412D01*
X304262Y563988D01*
X305738Y563988D01*
X305738Y560386D02*
X304262Y560386D01*
X304262Y561360D02*
X305738Y561360D01*
X305738Y562334D02*
X304262Y562334D01*
X304262Y563308D02*
X305738Y563308D01*
D10*
X270490Y570510D02*
X265510Y570510D01*
X265510Y575490D01*
X270490Y575490D01*
X270490Y570510D01*
X270490Y571479D02*
X265510Y571479D01*
X265510Y572448D02*
X270490Y572448D01*
X270490Y573417D02*
X265510Y573417D01*
X265510Y574386D02*
X270490Y574386D01*
X270490Y575355D02*
X265510Y575355D01*
X275510Y570510D02*
X280490Y570510D01*
X275510Y570510D02*
X275510Y575490D01*
X280490Y575490D01*
X280490Y570510D01*
X280490Y571479D02*
X275510Y571479D01*
X275510Y572448D02*
X280490Y572448D01*
X280490Y573417D02*
X275510Y573417D01*
X275510Y574386D02*
X280490Y574386D01*
X280490Y575355D02*
X275510Y575355D01*
X329510Y575490D02*
X334490Y575490D01*
X334490Y570510D01*
X329510Y570510D01*
X329510Y575490D01*
X329510Y571479D02*
X334490Y571479D01*
X334490Y572448D02*
X329510Y572448D01*
X329510Y573417D02*
X334490Y573417D01*
X334490Y574386D02*
X329510Y574386D01*
X329510Y575355D02*
X334490Y575355D01*
X324490Y575490D02*
X319510Y575490D01*
X324490Y575490D02*
X324490Y570510D01*
X319510Y570510D01*
X319510Y575490D01*
X319510Y571479D02*
X324490Y571479D01*
X324490Y572448D02*
X319510Y572448D01*
X319510Y573417D02*
X324490Y573417D01*
X324490Y574386D02*
X319510Y574386D01*
X319510Y575355D02*
X324490Y575355D01*
D13*
X187495Y583495D02*
X187495Y591505D01*
X196505Y591505D01*
X196505Y583495D01*
X187495Y583495D01*
X187495Y584435D02*
X196505Y584435D01*
X196505Y585375D02*
X187495Y585375D01*
X187495Y586315D02*
X196505Y586315D01*
X196505Y587255D02*
X187495Y587255D01*
X187495Y588195D02*
X196505Y588195D01*
X196505Y589135D02*
X187495Y589135D01*
X187495Y590075D02*
X196505Y590075D01*
X196505Y591015D02*
X187495Y591015D01*
X171495Y591505D02*
X171495Y583495D01*
X171495Y591505D02*
X180505Y591505D01*
X180505Y583495D01*
X171495Y583495D01*
X171495Y584435D02*
X180505Y584435D01*
X180505Y585375D02*
X171495Y585375D01*
X171495Y586315D02*
X180505Y586315D01*
X180505Y587255D02*
X171495Y587255D01*
X171495Y588195D02*
X180505Y588195D01*
X180505Y589135D02*
X171495Y589135D01*
X171495Y590075D02*
X180505Y590075D01*
X180505Y591015D02*
X171495Y591015D01*
X171495Y624495D02*
X171495Y632505D01*
X180505Y632505D01*
X180505Y624495D01*
X171495Y624495D01*
X171495Y625435D02*
X180505Y625435D01*
X180505Y626375D02*
X171495Y626375D01*
X171495Y627315D02*
X180505Y627315D01*
X180505Y628255D02*
X171495Y628255D01*
X171495Y629195D02*
X180505Y629195D01*
X180505Y630135D02*
X171495Y630135D01*
X171495Y631075D02*
X180505Y631075D01*
X180505Y632015D02*
X171495Y632015D01*
X187495Y632505D02*
X187495Y624495D01*
X187495Y632505D02*
X196505Y632505D01*
X196505Y624495D01*
X187495Y624495D01*
X187495Y625435D02*
X196505Y625435D01*
X196505Y626375D02*
X187495Y626375D01*
X187495Y627315D02*
X196505Y627315D01*
X196505Y628255D02*
X187495Y628255D01*
X187495Y629195D02*
X196505Y629195D01*
X196505Y630135D02*
X187495Y630135D01*
X187495Y631075D02*
X196505Y631075D01*
X196505Y632015D02*
X187495Y632015D01*
D14*
X248854Y543354D02*
X254146Y543354D01*
X248854Y543354D02*
X248854Y550646D01*
X254146Y550646D01*
X254146Y543354D01*
X254146Y544312D02*
X248854Y544312D01*
X248854Y545270D02*
X254146Y545270D01*
X254146Y546228D02*
X248854Y546228D01*
X248854Y547186D02*
X254146Y547186D01*
X254146Y548144D02*
X248854Y548144D01*
X248854Y549102D02*
X254146Y549102D01*
X254146Y550060D02*
X248854Y550060D01*
X271854Y543354D02*
X277146Y543354D01*
X271854Y543354D02*
X271854Y550646D01*
X277146Y550646D01*
X277146Y543354D01*
X277146Y544312D02*
X271854Y544312D01*
X271854Y545270D02*
X277146Y545270D01*
X277146Y546228D02*
X271854Y546228D01*
X271854Y547186D02*
X277146Y547186D01*
X277146Y548144D02*
X271854Y548144D01*
X271854Y549102D02*
X277146Y549102D01*
X277146Y550060D02*
X271854Y550060D01*
X134146Y102054D02*
X128854Y102054D01*
X128854Y109346D01*
X134146Y109346D01*
X134146Y102054D01*
X134146Y103012D02*
X128854Y103012D01*
X128854Y103970D02*
X134146Y103970D01*
X134146Y104928D02*
X128854Y104928D01*
X128854Y105886D02*
X134146Y105886D01*
X134146Y106844D02*
X128854Y106844D01*
X128854Y107802D02*
X134146Y107802D01*
X134146Y108760D02*
X128854Y108760D01*
X151854Y102054D02*
X157146Y102054D01*
X151854Y102054D02*
X151854Y109346D01*
X157146Y109346D01*
X157146Y102054D01*
X157146Y103012D02*
X151854Y103012D01*
X151854Y103970D02*
X157146Y103970D01*
X157146Y104928D02*
X151854Y104928D01*
X151854Y105886D02*
X157146Y105886D01*
X157146Y106844D02*
X151854Y106844D01*
X151854Y107802D02*
X157146Y107802D01*
X157146Y108760D02*
X151854Y108760D01*
D15*
X83510Y78490D02*
X54490Y78490D01*
X54490Y91510D01*
X83510Y91510D01*
X83510Y78490D01*
X83510Y79421D02*
X54490Y79421D01*
X54490Y80352D02*
X83510Y80352D01*
X83510Y81283D02*
X54490Y81283D01*
X54490Y82214D02*
X83510Y82214D01*
X83510Y83145D02*
X54490Y83145D01*
X54490Y84076D02*
X83510Y84076D01*
X83510Y85007D02*
X54490Y85007D01*
X54490Y85938D02*
X83510Y85938D01*
X83510Y86869D02*
X54490Y86869D01*
X54490Y87800D02*
X83510Y87800D01*
X83510Y88731D02*
X54490Y88731D01*
X54490Y89662D02*
X83510Y89662D01*
X83510Y90593D02*
X54490Y90593D01*
X35510Y78490D02*
X6490Y78490D01*
X6490Y91510D01*
X35510Y91510D01*
X35510Y78490D01*
X35510Y79421D02*
X6490Y79421D01*
X6490Y80352D02*
X35510Y80352D01*
X35510Y81283D02*
X6490Y81283D01*
X6490Y82214D02*
X35510Y82214D01*
X35510Y83145D02*
X6490Y83145D01*
X6490Y84076D02*
X35510Y84076D01*
X35510Y85007D02*
X6490Y85007D01*
X6490Y85938D02*
X35510Y85938D01*
X35510Y86869D02*
X6490Y86869D01*
X6490Y87800D02*
X35510Y87800D01*
X35510Y88731D02*
X6490Y88731D01*
X6490Y89662D02*
X35510Y89662D01*
X35510Y90593D02*
X6490Y90593D01*
X54490Y153490D02*
X83510Y153490D01*
X54490Y153490D02*
X54490Y166510D01*
X83510Y166510D01*
X83510Y153490D01*
X83510Y154421D02*
X54490Y154421D01*
X54490Y155352D02*
X83510Y155352D01*
X83510Y156283D02*
X54490Y156283D01*
X54490Y157214D02*
X83510Y157214D01*
X83510Y158145D02*
X54490Y158145D01*
X54490Y159076D02*
X83510Y159076D01*
X83510Y160007D02*
X54490Y160007D01*
X54490Y160938D02*
X83510Y160938D01*
X83510Y161869D02*
X54490Y161869D01*
X54490Y162800D02*
X83510Y162800D01*
X83510Y163731D02*
X54490Y163731D01*
X54490Y164662D02*
X83510Y164662D01*
X83510Y165593D02*
X54490Y165593D01*
X35510Y153490D02*
X6490Y153490D01*
X6490Y166510D01*
X35510Y166510D01*
X35510Y153490D01*
X35510Y154421D02*
X6490Y154421D01*
X6490Y155352D02*
X35510Y155352D01*
X35510Y156283D02*
X6490Y156283D01*
X6490Y157214D02*
X35510Y157214D01*
X35510Y158145D02*
X6490Y158145D01*
X6490Y159076D02*
X35510Y159076D01*
X35510Y160007D02*
X6490Y160007D01*
X6490Y160938D02*
X35510Y160938D01*
X35510Y161869D02*
X6490Y161869D01*
X6490Y162800D02*
X35510Y162800D01*
X35510Y163731D02*
X6490Y163731D01*
X6490Y164662D02*
X35510Y164662D01*
X35510Y165593D02*
X6490Y165593D01*
D10*
X318510Y176510D02*
X323490Y176510D01*
X318510Y176510D02*
X318510Y181490D01*
X323490Y181490D01*
X323490Y176510D01*
X323490Y177479D02*
X318510Y177479D01*
X318510Y178448D02*
X323490Y178448D01*
X323490Y179417D02*
X318510Y179417D01*
X318510Y180386D02*
X323490Y180386D01*
X323490Y181355D02*
X318510Y181355D01*
X328510Y176510D02*
X333490Y176510D01*
X328510Y176510D02*
X328510Y181490D01*
X333490Y181490D01*
X333490Y176510D01*
X333490Y177479D02*
X328510Y177479D01*
X328510Y178448D02*
X333490Y178448D01*
X333490Y179417D02*
X328510Y179417D01*
X328510Y180386D02*
X333490Y180386D01*
X333490Y181355D02*
X328510Y181355D01*
D16*
X125500Y644000D02*
X116500Y644000D01*
X125500Y644000D02*
X125500Y622000D01*
X116500Y622000D01*
X116500Y644000D01*
X116500Y622950D02*
X125500Y622950D01*
X125500Y623900D02*
X116500Y623900D01*
X116500Y624850D02*
X125500Y624850D01*
X125500Y625800D02*
X116500Y625800D01*
X116500Y626750D02*
X125500Y626750D01*
X125500Y627700D02*
X116500Y627700D01*
X116500Y628650D02*
X125500Y628650D01*
X125500Y629600D02*
X116500Y629600D01*
X116500Y630550D02*
X125500Y630550D01*
X125500Y631500D02*
X116500Y631500D01*
X116500Y632450D02*
X125500Y632450D01*
X125500Y633400D02*
X116500Y633400D01*
X116500Y634350D02*
X125500Y634350D01*
X125500Y635300D02*
X116500Y635300D01*
X116500Y636250D02*
X125500Y636250D01*
X125500Y637200D02*
X116500Y637200D01*
X116500Y638150D02*
X125500Y638150D01*
X125500Y639100D02*
X116500Y639100D01*
X116500Y640050D02*
X125500Y640050D01*
X125500Y641000D02*
X116500Y641000D01*
X116500Y641950D02*
X125500Y641950D01*
X125500Y642900D02*
X116500Y642900D01*
X116500Y643850D02*
X125500Y643850D01*
X125500Y572000D02*
X116500Y572000D01*
X125500Y572000D02*
X125500Y550000D01*
X116500Y550000D01*
X116500Y572000D01*
X116500Y550950D02*
X125500Y550950D01*
X125500Y551900D02*
X116500Y551900D01*
X116500Y552850D02*
X125500Y552850D01*
X125500Y553800D02*
X116500Y553800D01*
X116500Y554750D02*
X125500Y554750D01*
X125500Y555700D02*
X116500Y555700D01*
X116500Y556650D02*
X125500Y556650D01*
X125500Y557600D02*
X116500Y557600D01*
X116500Y558550D02*
X125500Y558550D01*
X125500Y559500D02*
X116500Y559500D01*
X116500Y560450D02*
X125500Y560450D01*
X125500Y561400D02*
X116500Y561400D01*
X116500Y562350D02*
X125500Y562350D01*
X125500Y563300D02*
X116500Y563300D01*
X116500Y564250D02*
X125500Y564250D01*
X125500Y565200D02*
X116500Y565200D01*
X116500Y566150D02*
X125500Y566150D01*
X125500Y567100D02*
X116500Y567100D01*
X116500Y568050D02*
X125500Y568050D01*
X125500Y569000D02*
X116500Y569000D01*
X116500Y569950D02*
X125500Y569950D01*
X125500Y570900D02*
X116500Y570900D01*
X116500Y571850D02*
X125500Y571850D01*
X23500Y572000D02*
X14500Y572000D01*
X23500Y572000D02*
X23500Y550000D01*
X14500Y550000D01*
X14500Y572000D01*
X14500Y550950D02*
X23500Y550950D01*
X23500Y551900D02*
X14500Y551900D01*
X14500Y552850D02*
X23500Y552850D01*
X23500Y553800D02*
X14500Y553800D01*
X14500Y554750D02*
X23500Y554750D01*
X23500Y555700D02*
X14500Y555700D01*
X14500Y556650D02*
X23500Y556650D01*
X23500Y557600D02*
X14500Y557600D01*
X14500Y558550D02*
X23500Y558550D01*
X23500Y559500D02*
X14500Y559500D01*
X14500Y560450D02*
X23500Y560450D01*
X23500Y561400D02*
X14500Y561400D01*
X14500Y562350D02*
X23500Y562350D01*
X23500Y563300D02*
X14500Y563300D01*
X14500Y564250D02*
X23500Y564250D01*
X23500Y565200D02*
X14500Y565200D01*
X14500Y566150D02*
X23500Y566150D01*
X23500Y567100D02*
X14500Y567100D01*
X14500Y568050D02*
X23500Y568050D01*
X23500Y569000D02*
X14500Y569000D01*
X14500Y569950D02*
X23500Y569950D01*
X23500Y570900D02*
X14500Y570900D01*
X14500Y571850D02*
X23500Y571850D01*
X23500Y644000D02*
X14500Y644000D01*
X23500Y644000D02*
X23500Y622000D01*
X14500Y622000D01*
X14500Y644000D01*
X14500Y622950D02*
X23500Y622950D01*
X23500Y623900D02*
X14500Y623900D01*
X14500Y624850D02*
X23500Y624850D01*
X23500Y625800D02*
X14500Y625800D01*
X14500Y626750D02*
X23500Y626750D01*
X23500Y627700D02*
X14500Y627700D01*
X14500Y628650D02*
X23500Y628650D01*
X23500Y629600D02*
X14500Y629600D01*
X14500Y630550D02*
X23500Y630550D01*
X23500Y631500D02*
X14500Y631500D01*
X14500Y632450D02*
X23500Y632450D01*
X23500Y633400D02*
X14500Y633400D01*
X14500Y634350D02*
X23500Y634350D01*
X23500Y635300D02*
X14500Y635300D01*
X14500Y636250D02*
X23500Y636250D01*
X23500Y637200D02*
X14500Y637200D01*
X14500Y638150D02*
X23500Y638150D01*
X23500Y639100D02*
X14500Y639100D01*
X14500Y640050D02*
X23500Y640050D01*
X23500Y641000D02*
X14500Y641000D01*
X14500Y641950D02*
X23500Y641950D01*
X23500Y642900D02*
X14500Y642900D01*
X14500Y643850D02*
X23500Y643850D01*
D11*
X114520Y607980D02*
X123480Y607980D01*
X123480Y601020D01*
X114520Y601020D01*
X114520Y607980D01*
X114520Y602008D02*
X123480Y602008D01*
X123480Y602996D02*
X114520Y602996D01*
X114520Y603984D02*
X123480Y603984D01*
X123480Y604972D02*
X114520Y604972D01*
X114520Y605960D02*
X123480Y605960D01*
X123480Y606948D02*
X114520Y606948D01*
X114520Y607936D02*
X123480Y607936D01*
X25480Y607980D02*
X16520Y607980D01*
X25480Y607980D02*
X25480Y601020D01*
X16520Y601020D01*
X16520Y607980D01*
X16520Y602008D02*
X25480Y602008D01*
X25480Y602996D02*
X16520Y602996D01*
X16520Y603984D02*
X25480Y603984D01*
X25480Y604972D02*
X16520Y604972D01*
X16520Y605960D02*
X25480Y605960D01*
X25480Y606948D02*
X16520Y606948D01*
X16520Y607936D02*
X25480Y607936D01*
X25480Y595980D02*
X16520Y595980D01*
X25480Y595980D02*
X25480Y589020D01*
X16520Y589020D01*
X16520Y595980D01*
X16520Y590008D02*
X25480Y590008D01*
X25480Y590996D02*
X16520Y590996D01*
X16520Y591984D02*
X25480Y591984D01*
X25480Y592972D02*
X16520Y592972D01*
X16520Y593960D02*
X25480Y593960D01*
X25480Y594948D02*
X16520Y594948D01*
X16520Y595936D02*
X25480Y595936D01*
X25480Y583980D02*
X16520Y583980D01*
X25480Y583980D02*
X25480Y577020D01*
X16520Y577020D01*
X16520Y583980D01*
X16520Y578008D02*
X25480Y578008D01*
X25480Y578996D02*
X16520Y578996D01*
X16520Y579984D02*
X25480Y579984D01*
X25480Y580972D02*
X16520Y580972D01*
X16520Y581960D02*
X25480Y581960D01*
X25480Y582948D02*
X16520Y582948D01*
X16520Y583936D02*
X25480Y583936D01*
X114520Y595980D02*
X123480Y595980D01*
X123480Y589020D01*
X114520Y589020D01*
X114520Y595980D01*
X114520Y590008D02*
X123480Y590008D01*
X123480Y590996D02*
X114520Y590996D01*
X114520Y591984D02*
X123480Y591984D01*
X123480Y592972D02*
X114520Y592972D01*
X114520Y593960D02*
X123480Y593960D01*
X123480Y594948D02*
X114520Y594948D01*
X114520Y595936D02*
X123480Y595936D01*
X123480Y583980D02*
X114520Y583980D01*
X123480Y583980D02*
X123480Y577020D01*
X114520Y577020D01*
X114520Y583980D01*
X114520Y578008D02*
X123480Y578008D01*
X123480Y578996D02*
X114520Y578996D01*
X114520Y579984D02*
X123480Y579984D01*
X123480Y580972D02*
X114520Y580972D01*
X114520Y581960D02*
X123480Y581960D01*
X123480Y582948D02*
X114520Y582948D01*
X114520Y583936D02*
X123480Y583936D01*
D16*
X93200Y526250D02*
X83200Y526250D01*
X93200Y526250D02*
X93200Y517250D01*
X83200Y517250D01*
X83200Y526250D01*
X83200Y518200D02*
X93200Y518200D01*
X93200Y519150D02*
X83200Y519150D01*
X83200Y520100D02*
X93200Y520100D01*
X93200Y521050D02*
X83200Y521050D01*
X83200Y522000D02*
X93200Y522000D01*
X93200Y522950D02*
X83200Y522950D01*
X83200Y523900D02*
X93200Y523900D01*
X93200Y524850D02*
X83200Y524850D01*
X83200Y525800D02*
X93200Y525800D01*
X56800Y526250D02*
X46800Y526250D01*
X56800Y526250D02*
X56800Y517250D01*
X46800Y517250D01*
X46800Y526250D01*
X46800Y518200D02*
X56800Y518200D01*
X56800Y519150D02*
X46800Y519150D01*
X46800Y520100D02*
X56800Y520100D01*
X56800Y521050D02*
X46800Y521050D01*
X46800Y522000D02*
X56800Y522000D01*
X56800Y522950D02*
X46800Y522950D01*
X46800Y523900D02*
X56800Y523900D01*
X56800Y524850D02*
X46800Y524850D01*
X46800Y525800D02*
X56800Y525800D01*
D10*
X46490Y222490D02*
X41510Y222490D01*
X46490Y222490D02*
X46490Y217510D01*
X41510Y217510D01*
X41510Y222490D01*
X41510Y218479D02*
X46490Y218479D01*
X46490Y219448D02*
X41510Y219448D01*
X41510Y220417D02*
X46490Y220417D01*
X46490Y221386D02*
X41510Y221386D01*
X41510Y222355D02*
X46490Y222355D01*
X36490Y222490D02*
X31510Y222490D01*
X36490Y222490D02*
X36490Y217510D01*
X31510Y217510D01*
X31510Y222490D01*
X31510Y218479D02*
X36490Y218479D01*
X36490Y219448D02*
X31510Y219448D01*
X31510Y220417D02*
X36490Y220417D01*
X36490Y221386D02*
X31510Y221386D01*
X31510Y222355D02*
X36490Y222355D01*
D17*
X151270Y627500D02*
X151270Y634500D01*
X158270Y634500D01*
X158270Y627500D01*
X151270Y627500D01*
X151270Y630350D02*
X158270Y630350D01*
X158270Y633200D02*
X151270Y633200D01*
X133730Y634500D02*
X133730Y627500D01*
X133730Y634500D02*
X140730Y634500D01*
X140730Y627500D01*
X133730Y627500D01*
X133730Y630350D02*
X140730Y630350D01*
X140730Y633200D02*
X133730Y633200D01*
X151270Y599500D02*
X151270Y592500D01*
X151270Y599500D02*
X158270Y599500D01*
X158270Y592500D01*
X151270Y592500D01*
X151270Y595350D02*
X158270Y595350D01*
X158270Y598200D02*
X151270Y598200D01*
X133730Y599500D02*
X133730Y592500D01*
X133730Y599500D02*
X140730Y599500D01*
X140730Y592500D01*
X133730Y592500D01*
X133730Y595350D02*
X140730Y595350D01*
X140730Y598200D02*
X133730Y598200D01*
D10*
X138510Y615510D02*
X143490Y615510D01*
X138510Y615510D02*
X138510Y620490D01*
X143490Y620490D01*
X143490Y615510D01*
X143490Y616479D02*
X138510Y616479D01*
X138510Y617448D02*
X143490Y617448D01*
X143490Y618417D02*
X138510Y618417D01*
X138510Y619386D02*
X143490Y619386D01*
X143490Y620355D02*
X138510Y620355D01*
X148510Y615510D02*
X153490Y615510D01*
X148510Y615510D02*
X148510Y620490D01*
X153490Y620490D01*
X153490Y615510D01*
X153490Y616479D02*
X148510Y616479D01*
X148510Y617448D02*
X153490Y617448D01*
X153490Y618417D02*
X148510Y618417D01*
X148510Y619386D02*
X153490Y619386D01*
X153490Y620355D02*
X148510Y620355D01*
X143490Y580510D02*
X138510Y580510D01*
X138510Y585490D01*
X143490Y585490D01*
X143490Y580510D01*
X143490Y581479D02*
X138510Y581479D01*
X138510Y582448D02*
X143490Y582448D01*
X143490Y583417D02*
X138510Y583417D01*
X138510Y584386D02*
X143490Y584386D01*
X143490Y585355D02*
X138510Y585355D01*
X148510Y580510D02*
X153490Y580510D01*
X148510Y580510D02*
X148510Y585490D01*
X153490Y585490D01*
X153490Y580510D01*
X153490Y581479D02*
X148510Y581479D01*
X148510Y582448D02*
X153490Y582448D01*
X153490Y583417D02*
X148510Y583417D01*
X148510Y584386D02*
X153490Y584386D01*
X153490Y585355D02*
X148510Y585355D01*
D17*
X151270Y564500D02*
X151270Y557500D01*
X151270Y564500D02*
X158270Y564500D01*
X158270Y557500D01*
X151270Y557500D01*
X151270Y560350D02*
X158270Y560350D01*
X158270Y563200D02*
X151270Y563200D01*
X133730Y564500D02*
X133730Y557500D01*
X133730Y564500D02*
X140730Y564500D01*
X140730Y557500D01*
X133730Y557500D01*
X133730Y560350D02*
X140730Y560350D01*
X140730Y563200D02*
X133730Y563200D01*
D10*
X138510Y545510D02*
X143490Y545510D01*
X138510Y545510D02*
X138510Y550490D01*
X143490Y550490D01*
X143490Y545510D01*
X143490Y546479D02*
X138510Y546479D01*
X138510Y547448D02*
X143490Y547448D01*
X143490Y548417D02*
X138510Y548417D01*
X138510Y549386D02*
X143490Y549386D01*
X143490Y550355D02*
X138510Y550355D01*
X148510Y545510D02*
X153490Y545510D01*
X148510Y545510D02*
X148510Y550490D01*
X153490Y550490D01*
X153490Y545510D01*
X153490Y546479D02*
X148510Y546479D01*
X148510Y547448D02*
X153490Y547448D01*
X153490Y548417D02*
X148510Y548417D01*
X148510Y549386D02*
X153490Y549386D01*
X153490Y550355D02*
X148510Y550355D01*
X36490Y202510D02*
X31510Y202510D01*
X31510Y207490D01*
X36490Y207490D01*
X36490Y202510D01*
X36490Y203479D02*
X31510Y203479D01*
X31510Y204448D02*
X36490Y204448D01*
X36490Y205417D02*
X31510Y205417D01*
X31510Y206386D02*
X36490Y206386D01*
X36490Y207355D02*
X31510Y207355D01*
X41510Y202510D02*
X46490Y202510D01*
X41510Y202510D02*
X41510Y207490D01*
X46490Y207490D01*
X46490Y202510D01*
X46490Y203479D02*
X41510Y203479D01*
X41510Y204448D02*
X46490Y204448D01*
X46490Y205417D02*
X41510Y205417D01*
X41510Y206386D02*
X46490Y206386D01*
X46490Y207355D02*
X41510Y207355D01*
D11*
X35480Y499480D02*
X28520Y499480D01*
X35480Y499480D02*
X35480Y488520D01*
X28520Y488520D01*
X28520Y499480D01*
X28520Y489508D02*
X35480Y489508D01*
X35480Y490496D02*
X28520Y490496D01*
X28520Y491484D02*
X35480Y491484D01*
X35480Y492472D02*
X28520Y492472D01*
X28520Y493460D02*
X35480Y493460D01*
X35480Y494448D02*
X28520Y494448D01*
X28520Y495436D02*
X35480Y495436D01*
X35480Y496424D02*
X28520Y496424D01*
X28520Y497412D02*
X35480Y497412D01*
X35480Y498400D02*
X28520Y498400D01*
X28520Y499388D02*
X35480Y499388D01*
X17480Y499480D02*
X10520Y499480D01*
X17480Y499480D02*
X17480Y488520D01*
X10520Y488520D01*
X10520Y499480D01*
X10520Y489508D02*
X17480Y489508D01*
X17480Y490496D02*
X10520Y490496D01*
X10520Y491484D02*
X17480Y491484D01*
X17480Y492472D02*
X10520Y492472D01*
X10520Y493460D02*
X17480Y493460D01*
X17480Y494448D02*
X10520Y494448D01*
X10520Y495436D02*
X17480Y495436D01*
X17480Y496424D02*
X10520Y496424D01*
X10520Y497412D02*
X17480Y497412D01*
X17480Y498400D02*
X10520Y498400D01*
X10520Y499388D02*
X17480Y499388D01*
D18*
X110000Y200250D03*
X120000Y200250D03*
X125000Y200250D03*
X115000Y200250D03*
X130000Y200250D03*
X140000Y200250D03*
X145000Y200250D03*
X135000Y200250D03*
X150000Y200250D03*
X160000Y200250D03*
X165000Y200250D03*
X155000Y200250D03*
X170000Y200250D03*
X180000Y200250D03*
X185000Y200250D03*
X175000Y200250D03*
X190000Y200250D03*
X200000Y200250D03*
X205000Y200250D03*
X195000Y200250D03*
X210000Y200250D03*
X215000Y200250D03*
X240000Y200250D03*
X245000Y200250D03*
X250000Y200250D03*
X260000Y200250D03*
X265000Y200250D03*
X255000Y200250D03*
X270000Y200250D03*
X280000Y200250D03*
X285000Y200250D03*
X275000Y200250D03*
X290000Y200250D03*
X107500Y124750D03*
X117500Y124750D03*
X122500Y124750D03*
X112500Y124750D03*
X127500Y124750D03*
X137500Y124750D03*
X142500Y124750D03*
X132500Y124750D03*
X147500Y124750D03*
X157500Y124750D03*
X162500Y124750D03*
X152500Y124750D03*
X167500Y124750D03*
X177500Y124750D03*
X182500Y124750D03*
X172500Y124750D03*
X187500Y124750D03*
X197500Y124750D03*
X202500Y124750D03*
X192500Y124750D03*
X207500Y124750D03*
X212500Y124750D03*
X237500Y124750D03*
X242500Y124750D03*
X247500Y124750D03*
X257500Y124750D03*
X262500Y124750D03*
X252500Y124750D03*
X267500Y124750D03*
X277500Y124750D03*
X282500Y124750D03*
X272500Y124750D03*
X287500Y124750D03*
X292500Y124750D03*
D19*
X297980Y145770D02*
X309020Y145770D01*
X309020Y119230D01*
X297980Y119230D01*
X297980Y145770D01*
X297980Y120142D02*
X309020Y120142D01*
X309020Y121054D02*
X297980Y121054D01*
X297980Y121966D02*
X309020Y121966D01*
X309020Y122878D02*
X297980Y122878D01*
X297980Y123790D02*
X309020Y123790D01*
X309020Y124702D02*
X297980Y124702D01*
X297980Y125614D02*
X309020Y125614D01*
X309020Y126526D02*
X297980Y126526D01*
X297980Y127438D02*
X309020Y127438D01*
X309020Y128350D02*
X297980Y128350D01*
X297980Y129262D02*
X309020Y129262D01*
X309020Y130174D02*
X297980Y130174D01*
X297980Y131086D02*
X309020Y131086D01*
X309020Y131998D02*
X297980Y131998D01*
X297980Y132910D02*
X309020Y132910D01*
X309020Y133822D02*
X297980Y133822D01*
X297980Y134734D02*
X309020Y134734D01*
X309020Y135646D02*
X297980Y135646D01*
X297980Y136558D02*
X309020Y136558D01*
X309020Y137470D02*
X297980Y137470D01*
X297980Y138382D02*
X309020Y138382D01*
X309020Y139294D02*
X297980Y139294D01*
X297980Y140206D02*
X309020Y140206D01*
X309020Y141118D02*
X297980Y141118D01*
X297980Y142030D02*
X309020Y142030D01*
X309020Y142942D02*
X297980Y142942D01*
X297980Y143854D02*
X309020Y143854D01*
X309020Y144766D02*
X297980Y144766D01*
X297980Y145678D02*
X309020Y145678D01*
X102020Y145770D02*
X90980Y145770D01*
X102020Y145770D02*
X102020Y119230D01*
X90980Y119230D01*
X90980Y145770D01*
X90980Y120142D02*
X102020Y120142D01*
X102020Y121054D02*
X90980Y121054D01*
X90980Y121966D02*
X102020Y121966D01*
X102020Y122878D02*
X90980Y122878D01*
X90980Y123790D02*
X102020Y123790D01*
X102020Y124702D02*
X90980Y124702D01*
X90980Y125614D02*
X102020Y125614D01*
X102020Y126526D02*
X90980Y126526D01*
X90980Y127438D02*
X102020Y127438D01*
X102020Y128350D02*
X90980Y128350D01*
X90980Y129262D02*
X102020Y129262D01*
X102020Y130174D02*
X90980Y130174D01*
X90980Y131086D02*
X102020Y131086D01*
X102020Y131998D02*
X90980Y131998D01*
X90980Y132910D02*
X102020Y132910D01*
X102020Y133822D02*
X90980Y133822D01*
X90980Y134734D02*
X102020Y134734D01*
X102020Y135646D02*
X90980Y135646D01*
X90980Y136558D02*
X102020Y136558D01*
X102020Y137470D02*
X90980Y137470D01*
X90980Y138382D02*
X102020Y138382D01*
X102020Y139294D02*
X90980Y139294D01*
X90980Y140206D02*
X102020Y140206D01*
X102020Y141118D02*
X90980Y141118D01*
X90980Y142030D02*
X102020Y142030D01*
X102020Y142942D02*
X90980Y142942D01*
X90980Y143854D02*
X102020Y143854D01*
X102020Y144766D02*
X90980Y144766D01*
X90980Y145678D02*
X102020Y145678D01*
D13*
X360245Y197506D02*
X364755Y197506D01*
X364755Y186496D01*
X360245Y186496D01*
X360245Y197506D01*
X360245Y187436D02*
X364755Y187436D01*
X364755Y188376D02*
X360245Y188376D01*
X360245Y189316D02*
X364755Y189316D01*
X364755Y190256D02*
X360245Y190256D01*
X360245Y191196D02*
X364755Y191196D01*
X364755Y192136D02*
X360245Y192136D01*
X360245Y193076D02*
X364755Y193076D01*
X364755Y194016D02*
X360245Y194016D01*
X360245Y194956D02*
X364755Y194956D01*
X364755Y195896D02*
X360245Y195896D01*
X360245Y196836D02*
X364755Y196836D01*
X355255Y197506D02*
X350745Y197506D01*
X355255Y197506D02*
X355255Y186496D01*
X350745Y186496D01*
X350745Y197506D01*
X350745Y187436D02*
X355255Y187436D01*
X355255Y188376D02*
X350745Y188376D01*
X350745Y189316D02*
X355255Y189316D01*
X355255Y190256D02*
X350745Y190256D01*
X350745Y191196D02*
X355255Y191196D01*
X355255Y192136D02*
X350745Y192136D01*
X350745Y193076D02*
X355255Y193076D01*
X355255Y194016D02*
X350745Y194016D01*
X350745Y194956D02*
X355255Y194956D01*
X355255Y195896D02*
X350745Y195896D01*
X350745Y196836D02*
X355255Y196836D01*
X345755Y197506D02*
X341245Y197506D01*
X345755Y197506D02*
X345755Y186496D01*
X341245Y186496D01*
X341245Y197506D01*
X341245Y187436D02*
X345755Y187436D01*
X345755Y188376D02*
X341245Y188376D01*
X341245Y189316D02*
X345755Y189316D01*
X345755Y190256D02*
X341245Y190256D01*
X341245Y191196D02*
X345755Y191196D01*
X345755Y192136D02*
X341245Y192136D01*
X341245Y193076D02*
X345755Y193076D01*
X345755Y194016D02*
X341245Y194016D01*
X341245Y194956D02*
X345755Y194956D01*
X345755Y195896D02*
X341245Y195896D01*
X341245Y196836D02*
X345755Y196836D01*
X345755Y171504D02*
X341245Y171504D01*
X345755Y171504D02*
X345755Y160494D01*
X341245Y160494D01*
X341245Y171504D01*
X341245Y161434D02*
X345755Y161434D01*
X345755Y162374D02*
X341245Y162374D01*
X341245Y163314D02*
X345755Y163314D01*
X345755Y164254D02*
X341245Y164254D01*
X341245Y165194D02*
X345755Y165194D01*
X345755Y166134D02*
X341245Y166134D01*
X341245Y167074D02*
X345755Y167074D01*
X345755Y168014D02*
X341245Y168014D01*
X341245Y168954D02*
X345755Y168954D01*
X345755Y169894D02*
X341245Y169894D01*
X341245Y170834D02*
X345755Y170834D01*
X360245Y171504D02*
X364755Y171504D01*
X364755Y160494D01*
X360245Y160494D01*
X360245Y171504D01*
X360245Y161434D02*
X364755Y161434D01*
X364755Y162374D02*
X360245Y162374D01*
X360245Y163314D02*
X364755Y163314D01*
X364755Y164254D02*
X360245Y164254D01*
X360245Y165194D02*
X364755Y165194D01*
X364755Y166134D02*
X360245Y166134D01*
X360245Y167074D02*
X364755Y167074D01*
X364755Y168014D02*
X360245Y168014D01*
X360245Y168954D02*
X364755Y168954D01*
X364755Y169894D02*
X360245Y169894D01*
X360245Y170834D02*
X364755Y170834D01*
D10*
X359490Y224510D02*
X354510Y224510D01*
X354510Y229490D01*
X359490Y229490D01*
X359490Y224510D01*
X359490Y225479D02*
X354510Y225479D01*
X354510Y226448D02*
X359490Y226448D01*
X359490Y227417D02*
X354510Y227417D01*
X354510Y228386D02*
X359490Y228386D01*
X359490Y229355D02*
X354510Y229355D01*
X364510Y224510D02*
X369490Y224510D01*
X364510Y224510D02*
X364510Y229490D01*
X369490Y229490D01*
X369490Y224510D01*
X369490Y225479D02*
X364510Y225479D01*
X364510Y226448D02*
X369490Y226448D01*
X369490Y227417D02*
X364510Y227417D01*
X364510Y228386D02*
X369490Y228386D01*
X369490Y229355D02*
X364510Y229355D01*
D14*
X323646Y145354D02*
X318354Y145354D01*
X318354Y152646D01*
X323646Y152646D01*
X323646Y145354D01*
X323646Y146312D02*
X318354Y146312D01*
X318354Y147270D02*
X323646Y147270D01*
X323646Y148228D02*
X318354Y148228D01*
X318354Y149186D02*
X323646Y149186D01*
X323646Y150144D02*
X318354Y150144D01*
X318354Y151102D02*
X323646Y151102D01*
X323646Y152060D02*
X318354Y152060D01*
X341354Y145354D02*
X346646Y145354D01*
X341354Y145354D02*
X341354Y152646D01*
X346646Y152646D01*
X346646Y145354D01*
X346646Y146312D02*
X341354Y146312D01*
X341354Y147270D02*
X346646Y147270D01*
X346646Y148228D02*
X341354Y148228D01*
X341354Y149186D02*
X346646Y149186D01*
X346646Y150144D02*
X341354Y150144D01*
X341354Y151102D02*
X346646Y151102D01*
X346646Y152060D02*
X341354Y152060D01*
D10*
X364510Y215490D02*
X369490Y215490D01*
X369490Y210510D01*
X364510Y210510D01*
X364510Y215490D01*
X364510Y211479D02*
X369490Y211479D01*
X369490Y212448D02*
X364510Y212448D01*
X364510Y213417D02*
X369490Y213417D01*
X369490Y214386D02*
X364510Y214386D01*
X364510Y215355D02*
X369490Y215355D01*
X359490Y215490D02*
X354510Y215490D01*
X359490Y215490D02*
X359490Y210510D01*
X354510Y210510D01*
X354510Y215490D01*
X354510Y211479D02*
X359490Y211479D01*
X359490Y212448D02*
X354510Y212448D01*
X354510Y213417D02*
X359490Y213417D01*
X359490Y214386D02*
X354510Y214386D01*
X354510Y215355D02*
X359490Y215355D01*
X360010Y151490D02*
X360010Y146510D01*
X360010Y151490D02*
X364990Y151490D01*
X364990Y146510D01*
X360010Y146510D01*
X360010Y147479D02*
X364990Y147479D01*
X364990Y148448D02*
X360010Y148448D01*
X360010Y149417D02*
X364990Y149417D01*
X364990Y150386D02*
X360010Y150386D01*
X360010Y151355D02*
X364990Y151355D01*
X360010Y141490D02*
X360010Y136510D01*
X360010Y141490D02*
X364990Y141490D01*
X364990Y136510D01*
X360010Y136510D01*
X360010Y137479D02*
X364990Y137479D01*
X364990Y138448D02*
X360010Y138448D01*
X360010Y139417D02*
X364990Y139417D01*
X364990Y140386D02*
X360010Y140386D01*
X360010Y141355D02*
X364990Y141355D01*
D14*
X288146Y109646D02*
X282854Y109646D01*
X288146Y109646D02*
X288146Y102354D01*
X282854Y102354D01*
X282854Y109646D01*
X282854Y103312D02*
X288146Y103312D01*
X288146Y104270D02*
X282854Y104270D01*
X282854Y105228D02*
X288146Y105228D01*
X288146Y106186D02*
X282854Y106186D01*
X282854Y107144D02*
X288146Y107144D01*
X288146Y108102D02*
X282854Y108102D01*
X282854Y109060D02*
X288146Y109060D01*
X265146Y109646D02*
X259854Y109646D01*
X265146Y109646D02*
X265146Y102354D01*
X259854Y102354D01*
X259854Y109646D01*
X259854Y103312D02*
X265146Y103312D01*
X265146Y104270D02*
X259854Y104270D01*
X259854Y105228D02*
X265146Y105228D01*
X265146Y106186D02*
X259854Y106186D01*
X259854Y107144D02*
X265146Y107144D01*
X265146Y108102D02*
X259854Y108102D01*
X259854Y109060D02*
X265146Y109060D01*
D10*
X229990Y57510D02*
X225010Y57510D01*
X225010Y62490D01*
X229990Y62490D01*
X229990Y57510D01*
X229990Y58479D02*
X225010Y58479D01*
X225010Y59448D02*
X229990Y59448D01*
X229990Y60417D02*
X225010Y60417D01*
X225010Y61386D02*
X229990Y61386D01*
X229990Y62355D02*
X225010Y62355D01*
X235010Y57510D02*
X239990Y57510D01*
X235010Y57510D02*
X235010Y62490D01*
X239990Y62490D01*
X239990Y57510D01*
X239990Y58479D02*
X235010Y58479D01*
X235010Y59448D02*
X239990Y59448D01*
X239990Y60417D02*
X235010Y60417D01*
X235010Y61386D02*
X239990Y61386D01*
X239990Y62355D02*
X235010Y62355D01*
X159990Y57510D02*
X155010Y57510D01*
X155010Y62490D01*
X159990Y62490D01*
X159990Y57510D01*
X159990Y58479D02*
X155010Y58479D01*
X155010Y59448D02*
X159990Y59448D01*
X159990Y60417D02*
X155010Y60417D01*
X155010Y61386D02*
X159990Y61386D01*
X159990Y62355D02*
X155010Y62355D01*
X165010Y57510D02*
X169990Y57510D01*
X165010Y57510D02*
X165010Y62490D01*
X169990Y62490D01*
X169990Y57510D01*
X169990Y58479D02*
X165010Y58479D01*
X165010Y59448D02*
X169990Y59448D01*
X169990Y60417D02*
X165010Y60417D01*
X165010Y61386D02*
X169990Y61386D01*
X169990Y62355D02*
X165010Y62355D01*
D16*
X102000Y55500D02*
X92000Y55500D01*
X102000Y55500D02*
X102000Y46500D01*
X92000Y46500D01*
X92000Y55500D01*
X92000Y47450D02*
X102000Y47450D01*
X102000Y48400D02*
X92000Y48400D01*
X92000Y49350D02*
X102000Y49350D01*
X102000Y50300D02*
X92000Y50300D01*
X92000Y51250D02*
X102000Y51250D01*
X102000Y52200D02*
X92000Y52200D01*
X92000Y53150D02*
X102000Y53150D01*
X102000Y54100D02*
X92000Y54100D01*
X92000Y55050D02*
X102000Y55050D01*
X85000Y55500D02*
X75000Y55500D01*
X85000Y55500D02*
X85000Y46500D01*
X75000Y46500D01*
X75000Y55500D01*
X75000Y47450D02*
X85000Y47450D01*
X85000Y48400D02*
X75000Y48400D01*
X75000Y49350D02*
X85000Y49350D01*
X85000Y50300D02*
X75000Y50300D01*
X75000Y51250D02*
X85000Y51250D01*
X85000Y52200D02*
X75000Y52200D01*
X75000Y53150D02*
X85000Y53150D01*
X85000Y54100D02*
X75000Y54100D01*
X75000Y55050D02*
X85000Y55050D01*
D10*
X189510Y642490D02*
X194490Y642490D01*
X194490Y637510D01*
X189510Y637510D01*
X189510Y642490D01*
X189510Y638479D02*
X194490Y638479D01*
X194490Y639448D02*
X189510Y639448D01*
X189510Y640417D02*
X194490Y640417D01*
X194490Y641386D02*
X189510Y641386D01*
X189510Y642355D02*
X194490Y642355D01*
X184490Y642490D02*
X179510Y642490D01*
X184490Y642490D02*
X184490Y637510D01*
X179510Y637510D01*
X179510Y642490D01*
X179510Y638479D02*
X184490Y638479D01*
X184490Y639448D02*
X179510Y639448D01*
X179510Y640417D02*
X184490Y640417D01*
X184490Y641386D02*
X179510Y641386D01*
X179510Y642355D02*
X184490Y642355D01*
D20*
X190475Y551025D02*
X170525Y551025D01*
X170525Y572975D01*
X190475Y572975D01*
X190475Y551025D01*
X190475Y552022D02*
X170525Y552022D01*
X170525Y553019D02*
X190475Y553019D01*
X190475Y554016D02*
X170525Y554016D01*
X170525Y555013D02*
X190475Y555013D01*
X190475Y556010D02*
X170525Y556010D01*
X170525Y557007D02*
X190475Y557007D01*
X190475Y558004D02*
X170525Y558004D01*
X170525Y559001D02*
X190475Y559001D01*
X190475Y559998D02*
X170525Y559998D01*
X170525Y560995D02*
X190475Y560995D01*
X190475Y561992D02*
X170525Y561992D01*
X170525Y562989D02*
X190475Y562989D01*
X190475Y563986D02*
X170525Y563986D01*
X170525Y564983D02*
X190475Y564983D01*
X190475Y565980D02*
X170525Y565980D01*
X170525Y566977D02*
X190475Y566977D01*
X190475Y567974D02*
X170525Y567974D01*
X170525Y568971D02*
X190475Y568971D01*
X190475Y569968D02*
X170525Y569968D01*
X170525Y570965D02*
X190475Y570965D01*
X190475Y571962D02*
X170525Y571962D01*
X170525Y572959D02*
X190475Y572959D01*
X209525Y551025D02*
X229475Y551025D01*
X209525Y551025D02*
X209525Y572975D01*
X229475Y572975D01*
X229475Y551025D01*
X229475Y552022D02*
X209525Y552022D01*
X209525Y553019D02*
X229475Y553019D01*
X229475Y554016D02*
X209525Y554016D01*
X209525Y555013D02*
X229475Y555013D01*
X229475Y556010D02*
X209525Y556010D01*
X209525Y557007D02*
X229475Y557007D01*
X229475Y558004D02*
X209525Y558004D01*
X209525Y559001D02*
X229475Y559001D01*
X229475Y559998D02*
X209525Y559998D01*
X209525Y560995D02*
X229475Y560995D01*
X229475Y561992D02*
X209525Y561992D01*
X209525Y562989D02*
X229475Y562989D01*
X229475Y563986D02*
X209525Y563986D01*
X209525Y564983D02*
X229475Y564983D01*
X229475Y565980D02*
X209525Y565980D01*
X209525Y566977D02*
X229475Y566977D01*
X229475Y567974D02*
X209525Y567974D01*
X209525Y568971D02*
X229475Y568971D01*
X229475Y569968D02*
X209525Y569968D01*
X209525Y570965D02*
X229475Y570965D01*
X229475Y571962D02*
X209525Y571962D01*
X209525Y572959D02*
X229475Y572959D01*
X223825Y606475D02*
X217875Y606475D01*
X223825Y606475D02*
X223825Y600525D01*
X217875Y600525D01*
X217875Y606475D01*
X217875Y601522D02*
X223825Y601522D01*
X223825Y602519D02*
X217875Y602519D01*
X217875Y603516D02*
X223825Y603516D01*
X223825Y604513D02*
X217875Y604513D01*
X217875Y605510D02*
X223825Y605510D01*
X223825Y617475D02*
X217875Y617475D01*
X223825Y617475D02*
X223825Y611525D01*
X217875Y611525D01*
X217875Y617475D01*
X217875Y612522D02*
X223825Y612522D01*
X223825Y613519D02*
X217875Y613519D01*
X217875Y614516D02*
X223825Y614516D01*
X223825Y615513D02*
X217875Y615513D01*
X217875Y616510D02*
X223825Y616510D01*
X236175Y617475D02*
X242125Y617475D01*
X242125Y611525D01*
X236175Y611525D01*
X236175Y617475D01*
X236175Y612522D02*
X242125Y612522D01*
X242125Y613519D02*
X236175Y613519D01*
X236175Y614516D02*
X242125Y614516D01*
X242125Y615513D02*
X236175Y615513D01*
X236175Y616510D02*
X242125Y616510D01*
X242125Y606475D02*
X236175Y606475D01*
X242125Y606475D02*
X242125Y600525D01*
X236175Y600525D01*
X236175Y606475D01*
X236175Y601522D02*
X242125Y601522D01*
X242125Y602519D02*
X236175Y602519D01*
X236175Y603516D02*
X242125Y603516D01*
X242125Y604513D02*
X236175Y604513D01*
X236175Y605510D02*
X242125Y605510D01*
D10*
X241490Y631490D02*
X236510Y631490D01*
X241490Y631490D02*
X241490Y626510D01*
X236510Y626510D01*
X236510Y631490D01*
X236510Y627479D02*
X241490Y627479D01*
X241490Y628448D02*
X236510Y628448D01*
X236510Y629417D02*
X241490Y629417D01*
X241490Y630386D02*
X236510Y630386D01*
X236510Y631355D02*
X241490Y631355D01*
X231490Y631490D02*
X226510Y631490D01*
X231490Y631490D02*
X231490Y626510D01*
X226510Y626510D01*
X226510Y631490D01*
X226510Y627479D02*
X231490Y627479D01*
X231490Y628448D02*
X226510Y628448D01*
X226510Y629417D02*
X231490Y629417D01*
X231490Y630386D02*
X226510Y630386D01*
X226510Y631355D02*
X231490Y631355D01*
D11*
X36980Y340980D02*
X36980Y334020D01*
X29020Y334020D01*
X29020Y340980D01*
X36980Y340980D01*
X36980Y335008D02*
X29020Y335008D01*
X29020Y335996D02*
X36980Y335996D01*
X36980Y336984D02*
X29020Y336984D01*
X29020Y337972D02*
X36980Y337972D01*
X36980Y338960D02*
X29020Y338960D01*
X29020Y339948D02*
X36980Y339948D01*
X36980Y340936D02*
X29020Y340936D01*
X36980Y353020D02*
X36980Y359980D01*
X36980Y353020D02*
X29020Y353020D01*
X29020Y359980D01*
X36980Y359980D01*
X36980Y354008D02*
X29020Y354008D01*
X29020Y354996D02*
X36980Y354996D01*
X36980Y355984D02*
X29020Y355984D01*
X29020Y356972D02*
X36980Y356972D01*
X36980Y357960D02*
X29020Y357960D01*
X29020Y358948D02*
X36980Y358948D01*
X36980Y359936D02*
X29020Y359936D01*
X15980Y350480D02*
X15980Y343520D01*
X8020Y343520D01*
X8020Y350480D01*
X15980Y350480D01*
X15980Y344508D02*
X8020Y344508D01*
X8020Y345496D02*
X15980Y345496D01*
X15980Y346484D02*
X8020Y346484D01*
X8020Y347472D02*
X15980Y347472D01*
X15980Y348460D02*
X8020Y348460D01*
X8020Y349448D02*
X15980Y349448D01*
X15980Y350436D02*
X8020Y350436D01*
X36980Y380020D02*
X36980Y386980D01*
X36980Y380020D02*
X29020Y380020D01*
X29020Y386980D01*
X36980Y386980D01*
X36980Y381008D02*
X29020Y381008D01*
X29020Y381996D02*
X36980Y381996D01*
X36980Y382984D02*
X29020Y382984D01*
X29020Y383972D02*
X36980Y383972D01*
X36980Y384960D02*
X29020Y384960D01*
X29020Y385948D02*
X36980Y385948D01*
X36980Y386936D02*
X29020Y386936D01*
X36980Y399020D02*
X36980Y405980D01*
X36980Y399020D02*
X29020Y399020D01*
X29020Y405980D01*
X36980Y405980D01*
X36980Y400008D02*
X29020Y400008D01*
X29020Y400996D02*
X36980Y400996D01*
X36980Y401984D02*
X29020Y401984D01*
X29020Y402972D02*
X36980Y402972D01*
X36980Y403960D02*
X29020Y403960D01*
X29020Y404948D02*
X36980Y404948D01*
X36980Y405936D02*
X29020Y405936D01*
X15980Y396480D02*
X15980Y389520D01*
X8020Y389520D01*
X8020Y396480D01*
X15980Y396480D01*
X15980Y390508D02*
X8020Y390508D01*
X8020Y391496D02*
X15980Y391496D01*
X15980Y392484D02*
X8020Y392484D01*
X8020Y393472D02*
X15980Y393472D01*
X15980Y394460D02*
X8020Y394460D01*
X8020Y395448D02*
X15980Y395448D01*
X15980Y396436D02*
X8020Y396436D01*
D10*
X31510Y367510D02*
X36490Y367510D01*
X31510Y367510D02*
X31510Y372490D01*
X36490Y372490D01*
X36490Y367510D01*
X36490Y368479D02*
X31510Y368479D01*
X31510Y369448D02*
X36490Y369448D01*
X36490Y370417D02*
X31510Y370417D01*
X31510Y371386D02*
X36490Y371386D01*
X36490Y372355D02*
X31510Y372355D01*
X41510Y367510D02*
X46490Y367510D01*
X41510Y367510D02*
X41510Y372490D01*
X46490Y372490D01*
X46490Y367510D01*
X46490Y368479D02*
X41510Y368479D01*
X41510Y369448D02*
X46490Y369448D01*
X46490Y370417D02*
X41510Y370417D01*
X41510Y371386D02*
X46490Y371386D01*
X46490Y372355D02*
X41510Y372355D01*
X14490Y367510D02*
X9510Y367510D01*
X9510Y372490D01*
X14490Y372490D01*
X14490Y367510D01*
X14490Y368479D02*
X9510Y368479D01*
X9510Y369448D02*
X14490Y369448D01*
X14490Y370417D02*
X9510Y370417D01*
X9510Y371386D02*
X14490Y371386D01*
X14490Y372355D02*
X9510Y372355D01*
X19510Y367510D02*
X24490Y367510D01*
X19510Y367510D02*
X19510Y372490D01*
X24490Y372490D01*
X24490Y367510D01*
X24490Y368479D02*
X19510Y368479D01*
X19510Y369448D02*
X24490Y369448D01*
X24490Y370417D02*
X19510Y370417D01*
X19510Y371386D02*
X24490Y371386D01*
X24490Y372355D02*
X19510Y372355D01*
X698469Y53510D02*
X703449Y53510D01*
X698469Y53510D02*
X698469Y64490D01*
X703449Y64490D01*
X703449Y53510D01*
X703449Y54479D02*
X698469Y54479D01*
X698469Y55448D02*
X703449Y55448D01*
X703449Y56417D02*
X698469Y56417D01*
X698469Y57386D02*
X703449Y57386D01*
X703449Y58355D02*
X698469Y58355D01*
X698469Y59324D02*
X703449Y59324D01*
X703449Y60293D02*
X698469Y60293D01*
X698469Y61262D02*
X703449Y61262D01*
X703449Y62231D02*
X698469Y62231D01*
X698469Y63200D02*
X703449Y63200D01*
X703449Y64169D02*
X698469Y64169D01*
X711169Y53510D02*
X716149Y53510D01*
X711169Y53510D02*
X711169Y64490D01*
X716149Y64490D01*
X716149Y53510D01*
X716149Y54479D02*
X711169Y54479D01*
X711169Y55448D02*
X716149Y55448D01*
X716149Y56417D02*
X711169Y56417D01*
X711169Y57386D02*
X716149Y57386D01*
X716149Y58355D02*
X711169Y58355D01*
X711169Y59324D02*
X716149Y59324D01*
X716149Y60293D02*
X711169Y60293D01*
X711169Y61262D02*
X716149Y61262D01*
X716149Y62231D02*
X711169Y62231D01*
X711169Y63200D02*
X716149Y63200D01*
X716149Y64169D02*
X711169Y64169D01*
X723869Y53510D02*
X728849Y53510D01*
X723869Y53510D02*
X723869Y64490D01*
X728849Y64490D01*
X728849Y53510D01*
X728849Y54479D02*
X723869Y54479D01*
X723869Y55448D02*
X728849Y55448D01*
X728849Y56417D02*
X723869Y56417D01*
X723869Y57386D02*
X728849Y57386D01*
X728849Y58355D02*
X723869Y58355D01*
X723869Y59324D02*
X728849Y59324D01*
X728849Y60293D02*
X723869Y60293D01*
X723869Y61262D02*
X728849Y61262D01*
X728849Y62231D02*
X723869Y62231D01*
X723869Y63200D02*
X728849Y63200D01*
X728849Y64169D02*
X723869Y64169D01*
X736569Y53510D02*
X741549Y53510D01*
X736569Y53510D02*
X736569Y64490D01*
X741549Y64490D01*
X741549Y53510D01*
X741549Y54479D02*
X736569Y54479D01*
X736569Y55448D02*
X741549Y55448D01*
X741549Y56417D02*
X736569Y56417D01*
X736569Y57386D02*
X741549Y57386D01*
X741549Y58355D02*
X736569Y58355D01*
X736569Y59324D02*
X741549Y59324D01*
X741549Y60293D02*
X736569Y60293D01*
X736569Y61262D02*
X741549Y61262D01*
X741549Y62231D02*
X736569Y62231D01*
X736569Y63200D02*
X741549Y63200D01*
X741549Y64169D02*
X736569Y64169D01*
X736569Y109510D02*
X741549Y109510D01*
X736569Y109510D02*
X736569Y120490D01*
X741549Y120490D01*
X741549Y109510D01*
X741549Y110479D02*
X736569Y110479D01*
X736569Y111448D02*
X741549Y111448D01*
X741549Y112417D02*
X736569Y112417D01*
X736569Y113386D02*
X741549Y113386D01*
X741549Y114355D02*
X736569Y114355D01*
X736569Y115324D02*
X741549Y115324D01*
X741549Y116293D02*
X736569Y116293D01*
X736569Y117262D02*
X741549Y117262D01*
X741549Y118231D02*
X736569Y118231D01*
X736569Y119200D02*
X741549Y119200D01*
X741549Y120169D02*
X736569Y120169D01*
X728849Y109510D02*
X723869Y109510D01*
X723869Y120490D01*
X728849Y120490D01*
X728849Y109510D01*
X728849Y110479D02*
X723869Y110479D01*
X723869Y111448D02*
X728849Y111448D01*
X728849Y112417D02*
X723869Y112417D01*
X723869Y113386D02*
X728849Y113386D01*
X728849Y114355D02*
X723869Y114355D01*
X723869Y115324D02*
X728849Y115324D01*
X728849Y116293D02*
X723869Y116293D01*
X723869Y117262D02*
X728849Y117262D01*
X728849Y118231D02*
X723869Y118231D01*
X723869Y119200D02*
X728849Y119200D01*
X728849Y120169D02*
X723869Y120169D01*
X716149Y109510D02*
X711169Y109510D01*
X711169Y120490D01*
X716149Y120490D01*
X716149Y109510D01*
X716149Y110479D02*
X711169Y110479D01*
X711169Y111448D02*
X716149Y111448D01*
X716149Y112417D02*
X711169Y112417D01*
X711169Y113386D02*
X716149Y113386D01*
X716149Y114355D02*
X711169Y114355D01*
X711169Y115324D02*
X716149Y115324D01*
X716149Y116293D02*
X711169Y116293D01*
X711169Y117262D02*
X716149Y117262D01*
X716149Y118231D02*
X711169Y118231D01*
X711169Y119200D02*
X716149Y119200D01*
X716149Y120169D02*
X711169Y120169D01*
X703449Y109510D02*
X698469Y109510D01*
X698469Y120490D01*
X703449Y120490D01*
X703449Y109510D01*
X703449Y110479D02*
X698469Y110479D01*
X698469Y111448D02*
X703449Y111448D01*
X703449Y112417D02*
X698469Y112417D01*
X698469Y113386D02*
X703449Y113386D01*
X703449Y114355D02*
X698469Y114355D01*
X698469Y115324D02*
X703449Y115324D01*
X703449Y116293D02*
X698469Y116293D01*
X698469Y117262D02*
X703449Y117262D01*
X703449Y118231D02*
X698469Y118231D01*
X698469Y119200D02*
X703449Y119200D01*
X703449Y120169D02*
X698469Y120169D01*
X698519Y132510D02*
X703499Y132510D01*
X698519Y132510D02*
X698519Y137490D01*
X703499Y137490D01*
X703499Y132510D01*
X703499Y133479D02*
X698519Y133479D01*
X698519Y134448D02*
X703499Y134448D01*
X703499Y135417D02*
X698519Y135417D01*
X698519Y136386D02*
X703499Y136386D01*
X703499Y137355D02*
X698519Y137355D01*
X708519Y132510D02*
X713499Y132510D01*
X708519Y132510D02*
X708519Y137490D01*
X713499Y137490D01*
X713499Y132510D01*
X713499Y133479D02*
X708519Y133479D01*
X708519Y134448D02*
X713499Y134448D01*
X713499Y135417D02*
X708519Y135417D01*
X708519Y136386D02*
X713499Y136386D01*
X713499Y137355D02*
X708519Y137355D01*
X682519Y113490D02*
X682519Y108510D01*
X682519Y113490D02*
X687499Y113490D01*
X687499Y108510D01*
X682519Y108510D01*
X682519Y109479D02*
X687499Y109479D01*
X687499Y110448D02*
X682519Y110448D01*
X682519Y111417D02*
X687499Y111417D01*
X687499Y112386D02*
X682519Y112386D01*
X682519Y113355D02*
X687499Y113355D01*
X682519Y103490D02*
X682519Y98510D01*
X682519Y103490D02*
X687499Y103490D01*
X687499Y98510D01*
X682519Y98510D01*
X682519Y99479D02*
X687499Y99479D01*
X687499Y100448D02*
X682519Y100448D01*
X682519Y101417D02*
X687499Y101417D01*
X687499Y102386D02*
X682519Y102386D01*
X682519Y103355D02*
X687499Y103355D01*
X663519Y92990D02*
X663519Y88010D01*
X663519Y92990D02*
X668499Y92990D01*
X668499Y88010D01*
X663519Y88010D01*
X663519Y88979D02*
X668499Y88979D01*
X668499Y89948D02*
X663519Y89948D01*
X663519Y90917D02*
X668499Y90917D01*
X668499Y91886D02*
X663519Y91886D01*
X663519Y92855D02*
X668499Y92855D01*
X663519Y82990D02*
X663519Y78010D01*
X663519Y82990D02*
X668499Y82990D01*
X668499Y78010D01*
X663519Y78010D01*
X663519Y78979D02*
X668499Y78979D01*
X668499Y79948D02*
X663519Y79948D01*
X663519Y80917D02*
X668499Y80917D01*
X668499Y81886D02*
X663519Y81886D01*
X663519Y82855D02*
X668499Y82855D01*
X654499Y82990D02*
X654499Y78010D01*
X649519Y78010D01*
X649519Y82990D01*
X654499Y82990D01*
X654499Y78979D02*
X649519Y78979D01*
X649519Y79948D02*
X654499Y79948D01*
X654499Y80917D02*
X649519Y80917D01*
X649519Y81886D02*
X654499Y81886D01*
X654499Y82855D02*
X649519Y82855D01*
X654499Y88010D02*
X654499Y92990D01*
X654499Y88010D02*
X649519Y88010D01*
X649519Y92990D01*
X654499Y92990D01*
X654499Y88979D02*
X649519Y88979D01*
X649519Y89948D02*
X654499Y89948D01*
X654499Y90917D02*
X649519Y90917D01*
X649519Y91886D02*
X654499Y91886D01*
X654499Y92855D02*
X649519Y92855D01*
D11*
X579029Y93980D02*
X579029Y87020D01*
X579029Y93980D02*
X586989Y93980D01*
X586989Y87020D01*
X579029Y87020D01*
X579029Y88008D02*
X586989Y88008D01*
X586989Y88996D02*
X579029Y88996D01*
X579029Y89984D02*
X586989Y89984D01*
X586989Y90972D02*
X579029Y90972D01*
X579029Y91960D02*
X586989Y91960D01*
X586989Y92948D02*
X579029Y92948D01*
X579029Y93936D02*
X586989Y93936D01*
X579029Y74980D02*
X579029Y68020D01*
X579029Y74980D02*
X586989Y74980D01*
X586989Y68020D01*
X579029Y68020D01*
X579029Y69008D02*
X586989Y69008D01*
X586989Y69996D02*
X579029Y69996D01*
X579029Y70984D02*
X586989Y70984D01*
X586989Y71972D02*
X579029Y71972D01*
X579029Y72960D02*
X586989Y72960D01*
X586989Y73948D02*
X579029Y73948D01*
X579029Y74936D02*
X586989Y74936D01*
X600029Y77520D02*
X600029Y84480D01*
X607989Y84480D01*
X607989Y77520D01*
X600029Y77520D01*
X600029Y78508D02*
X607989Y78508D01*
X607989Y79496D02*
X600029Y79496D01*
X600029Y80484D02*
X607989Y80484D01*
X607989Y81472D02*
X600029Y81472D01*
X600029Y82460D02*
X607989Y82460D01*
X607989Y83448D02*
X600029Y83448D01*
X600029Y84436D02*
X607989Y84436D01*
X509029Y87020D02*
X509029Y93980D01*
X516989Y93980D01*
X516989Y87020D01*
X509029Y87020D01*
X509029Y88008D02*
X516989Y88008D01*
X516989Y88996D02*
X509029Y88996D01*
X509029Y89984D02*
X516989Y89984D01*
X516989Y90972D02*
X509029Y90972D01*
X509029Y91960D02*
X516989Y91960D01*
X516989Y92948D02*
X509029Y92948D01*
X509029Y93936D02*
X516989Y93936D01*
X509029Y74980D02*
X509029Y68020D01*
X509029Y74980D02*
X516989Y74980D01*
X516989Y68020D01*
X509029Y68020D01*
X509029Y69008D02*
X516989Y69008D01*
X516989Y69996D02*
X509029Y69996D01*
X509029Y70984D02*
X516989Y70984D01*
X516989Y71972D02*
X509029Y71972D01*
X509029Y72960D02*
X516989Y72960D01*
X516989Y73948D02*
X509029Y73948D01*
X509029Y74936D02*
X516989Y74936D01*
X530029Y77520D02*
X530029Y84480D01*
X537989Y84480D01*
X537989Y77520D01*
X530029Y77520D01*
X530029Y78508D02*
X537989Y78508D01*
X537989Y79496D02*
X530029Y79496D01*
X530029Y80484D02*
X537989Y80484D01*
X537989Y81472D02*
X530029Y81472D01*
X530029Y82460D02*
X537989Y82460D01*
X537989Y83448D02*
X530029Y83448D01*
X530029Y84436D02*
X537989Y84436D01*
X614029Y77020D02*
X620989Y77020D01*
X614029Y77020D02*
X614029Y84980D01*
X620989Y84980D01*
X620989Y77020D01*
X620989Y78008D02*
X614029Y78008D01*
X614029Y78996D02*
X620989Y78996D01*
X620989Y79984D02*
X614029Y79984D01*
X614029Y80972D02*
X620989Y80972D01*
X620989Y81960D02*
X614029Y81960D01*
X614029Y82948D02*
X620989Y82948D01*
X620989Y83936D02*
X614029Y83936D01*
X614029Y84924D02*
X620989Y84924D01*
X633029Y77020D02*
X639989Y77020D01*
X633029Y77020D02*
X633029Y84980D01*
X639989Y84980D01*
X639989Y77020D01*
X639989Y78008D02*
X633029Y78008D01*
X633029Y78996D02*
X639989Y78996D01*
X639989Y79984D02*
X633029Y79984D01*
X633029Y80972D02*
X639989Y80972D01*
X639989Y81960D02*
X633029Y81960D01*
X633029Y82948D02*
X639989Y82948D01*
X639989Y83936D02*
X633029Y83936D01*
X633029Y84924D02*
X639989Y84924D01*
X630489Y98020D02*
X623529Y98020D01*
X623529Y105980D01*
X630489Y105980D01*
X630489Y98020D01*
X630489Y99008D02*
X623529Y99008D01*
X623529Y99996D02*
X630489Y99996D01*
X630489Y100984D02*
X623529Y100984D01*
X623529Y101972D02*
X630489Y101972D01*
X630489Y102960D02*
X623529Y102960D01*
X623529Y103948D02*
X630489Y103948D01*
X630489Y104936D02*
X623529Y104936D01*
X623529Y105924D02*
X630489Y105924D01*
X550989Y77020D02*
X544029Y77020D01*
X544029Y84980D01*
X550989Y84980D01*
X550989Y77020D01*
X550989Y78008D02*
X544029Y78008D01*
X544029Y78996D02*
X550989Y78996D01*
X550989Y79984D02*
X544029Y79984D01*
X544029Y80972D02*
X550989Y80972D01*
X550989Y81960D02*
X544029Y81960D01*
X544029Y82948D02*
X550989Y82948D01*
X550989Y83936D02*
X544029Y83936D01*
X544029Y84924D02*
X550989Y84924D01*
X563029Y77020D02*
X569989Y77020D01*
X563029Y77020D02*
X563029Y84980D01*
X569989Y84980D01*
X569989Y77020D01*
X569989Y78008D02*
X563029Y78008D01*
X563029Y78996D02*
X569989Y78996D01*
X569989Y79984D02*
X563029Y79984D01*
X563029Y80972D02*
X569989Y80972D01*
X569989Y81960D02*
X563029Y81960D01*
X563029Y82948D02*
X569989Y82948D01*
X569989Y83936D02*
X563029Y83936D01*
X563029Y84924D02*
X569989Y84924D01*
X560489Y98020D02*
X553529Y98020D01*
X553529Y105980D01*
X560489Y105980D01*
X560489Y98020D01*
X560489Y99008D02*
X553529Y99008D01*
X553529Y99996D02*
X560489Y99996D01*
X560489Y100984D02*
X553529Y100984D01*
X553529Y101972D02*
X560489Y101972D01*
X560489Y102960D02*
X553529Y102960D01*
X553529Y103948D02*
X560489Y103948D01*
X560489Y104936D02*
X553529Y104936D01*
X553529Y105924D02*
X560489Y105924D01*
D10*
X615019Y67010D02*
X619999Y67010D01*
X615019Y67010D02*
X615019Y71990D01*
X619999Y71990D01*
X619999Y67010D01*
X619999Y67979D02*
X615019Y67979D01*
X615019Y68948D02*
X619999Y68948D01*
X619999Y69917D02*
X615019Y69917D01*
X615019Y70886D02*
X619999Y70886D01*
X619999Y71855D02*
X615019Y71855D01*
X625019Y67010D02*
X629999Y67010D01*
X625019Y67010D02*
X625019Y71990D01*
X629999Y71990D01*
X629999Y67010D01*
X629999Y67979D02*
X625019Y67979D01*
X625019Y68948D02*
X629999Y68948D01*
X629999Y69917D02*
X625019Y69917D01*
X625019Y70886D02*
X629999Y70886D01*
X629999Y71855D02*
X625019Y71855D01*
X549999Y67010D02*
X545019Y67010D01*
X545019Y71990D01*
X549999Y71990D01*
X549999Y67010D01*
X549999Y67979D02*
X545019Y67979D01*
X545019Y68948D02*
X549999Y68948D01*
X549999Y69917D02*
X545019Y69917D01*
X545019Y70886D02*
X549999Y70886D01*
X549999Y71855D02*
X545019Y71855D01*
X555019Y67010D02*
X559999Y67010D01*
X555019Y67010D02*
X555019Y71990D01*
X559999Y71990D01*
X559999Y67010D01*
X559999Y67979D02*
X555019Y67979D01*
X555019Y68948D02*
X559999Y68948D01*
X559999Y69917D02*
X555019Y69917D01*
X555019Y70886D02*
X559999Y70886D01*
X559999Y71855D02*
X555019Y71855D01*
X671519Y596890D02*
X673499Y596890D01*
X673499Y587910D01*
X671519Y587910D01*
X671519Y596890D01*
X671519Y588879D02*
X673499Y588879D01*
X673499Y589848D02*
X671519Y589848D01*
X671519Y590817D02*
X673499Y590817D01*
X673499Y591786D02*
X671519Y591786D01*
X671519Y592755D02*
X673499Y592755D01*
X673499Y593724D02*
X671519Y593724D01*
X671519Y594693D02*
X673499Y594693D01*
X673499Y595662D02*
X671519Y595662D01*
X671519Y596631D02*
X673499Y596631D01*
X676519Y596890D02*
X678499Y596890D01*
X678499Y587910D01*
X676519Y587910D01*
X676519Y596890D01*
X676519Y588879D02*
X678499Y588879D01*
X678499Y589848D02*
X676519Y589848D01*
X676519Y590817D02*
X678499Y590817D01*
X678499Y591786D02*
X676519Y591786D01*
X676519Y592755D02*
X678499Y592755D01*
X678499Y593724D02*
X676519Y593724D01*
X676519Y594693D02*
X678499Y594693D01*
X678499Y595662D02*
X676519Y595662D01*
X676519Y596631D02*
X678499Y596631D01*
X650249Y596890D02*
X645269Y596890D01*
X650249Y596890D02*
X650249Y587910D01*
X645269Y587910D01*
X645269Y596890D01*
X645269Y588879D02*
X650249Y588879D01*
X650249Y589848D02*
X645269Y589848D01*
X645269Y590817D02*
X650249Y590817D01*
X650249Y591786D02*
X645269Y591786D01*
X645269Y592755D02*
X650249Y592755D01*
X650249Y593724D02*
X645269Y593724D01*
X645269Y594693D02*
X650249Y594693D01*
X650249Y595662D02*
X645269Y595662D01*
X645269Y596631D02*
X650249Y596631D01*
X653019Y596890D02*
X657999Y596890D01*
X657999Y587910D01*
X653019Y587910D01*
X653019Y596890D01*
X653019Y588879D02*
X657999Y588879D01*
X657999Y589848D02*
X653019Y589848D01*
X653019Y590817D02*
X657999Y590817D01*
X657999Y591786D02*
X653019Y591786D01*
X653019Y592755D02*
X657999Y592755D01*
X657999Y593724D02*
X653019Y593724D01*
X653019Y594693D02*
X657999Y594693D01*
X657999Y595662D02*
X653019Y595662D01*
X653019Y596631D02*
X657999Y596631D01*
X661519Y596890D02*
X663499Y596890D01*
X663499Y587910D01*
X661519Y587910D01*
X661519Y596890D01*
X661519Y588879D02*
X663499Y588879D01*
X663499Y589848D02*
X661519Y589848D01*
X661519Y590817D02*
X663499Y590817D01*
X663499Y591786D02*
X661519Y591786D01*
X661519Y592755D02*
X663499Y592755D01*
X663499Y593724D02*
X661519Y593724D01*
X661519Y594693D02*
X663499Y594693D01*
X663499Y595662D02*
X661519Y595662D01*
X661519Y596631D02*
X663499Y596631D01*
X666519Y596890D02*
X668499Y596890D01*
X668499Y587910D01*
X666519Y587910D01*
X666519Y596890D01*
X666519Y588879D02*
X668499Y588879D01*
X668499Y589848D02*
X666519Y589848D01*
X666519Y590817D02*
X668499Y590817D01*
X668499Y591786D02*
X666519Y591786D01*
X666519Y592755D02*
X668499Y592755D01*
X668499Y593724D02*
X666519Y593724D01*
X666519Y594693D02*
X668499Y594693D01*
X668499Y595662D02*
X666519Y595662D01*
X666519Y596631D02*
X668499Y596631D01*
X686519Y587910D02*
X688499Y587910D01*
X686519Y587910D02*
X686519Y596890D01*
X688499Y596890D01*
X688499Y587910D01*
X688499Y588879D02*
X686519Y588879D01*
X686519Y589848D02*
X688499Y589848D01*
X688499Y590817D02*
X686519Y590817D01*
X686519Y591786D02*
X688499Y591786D01*
X688499Y592755D02*
X686519Y592755D01*
X686519Y593724D02*
X688499Y593724D01*
X688499Y594693D02*
X686519Y594693D01*
X686519Y595662D02*
X688499Y595662D01*
X688499Y596631D02*
X686519Y596631D01*
X683499Y587910D02*
X681519Y587910D01*
X681519Y596890D01*
X683499Y596890D01*
X683499Y587910D01*
X683499Y588879D02*
X681519Y588879D01*
X681519Y589848D02*
X683499Y589848D01*
X683499Y590817D02*
X681519Y590817D01*
X681519Y591786D02*
X683499Y591786D01*
X683499Y592755D02*
X681519Y592755D01*
X681519Y593724D02*
X683499Y593724D01*
X683499Y594693D02*
X681519Y594693D01*
X681519Y595662D02*
X683499Y595662D01*
X683499Y596631D02*
X681519Y596631D01*
X709769Y587910D02*
X714749Y587910D01*
X709769Y587910D02*
X709769Y596890D01*
X714749Y596890D01*
X714749Y587910D01*
X714749Y588879D02*
X709769Y588879D01*
X709769Y589848D02*
X714749Y589848D01*
X714749Y590817D02*
X709769Y590817D01*
X709769Y591786D02*
X714749Y591786D01*
X714749Y592755D02*
X709769Y592755D01*
X709769Y593724D02*
X714749Y593724D01*
X714749Y594693D02*
X709769Y594693D01*
X709769Y595662D02*
X714749Y595662D01*
X714749Y596631D02*
X709769Y596631D01*
X706999Y587910D02*
X702019Y587910D01*
X702019Y596890D01*
X706999Y596890D01*
X706999Y587910D01*
X706999Y588879D02*
X702019Y588879D01*
X702019Y589848D02*
X706999Y589848D01*
X706999Y590817D02*
X702019Y590817D01*
X702019Y591786D02*
X706999Y591786D01*
X706999Y592755D02*
X702019Y592755D01*
X702019Y593724D02*
X706999Y593724D01*
X706999Y594693D02*
X702019Y594693D01*
X702019Y595662D02*
X706999Y595662D01*
X706999Y596631D02*
X702019Y596631D01*
X698499Y587910D02*
X696519Y587910D01*
X696519Y596890D01*
X698499Y596890D01*
X698499Y587910D01*
X698499Y588879D02*
X696519Y588879D01*
X696519Y589848D02*
X698499Y589848D01*
X698499Y590817D02*
X696519Y590817D01*
X696519Y591786D02*
X698499Y591786D01*
X698499Y592755D02*
X696519Y592755D01*
X696519Y593724D02*
X698499Y593724D01*
X698499Y594693D02*
X696519Y594693D01*
X696519Y595662D02*
X698499Y595662D01*
X698499Y596631D02*
X696519Y596631D01*
X693499Y587910D02*
X691519Y587910D01*
X691519Y596890D01*
X693499Y596890D01*
X693499Y587910D01*
X693499Y588879D02*
X691519Y588879D01*
X691519Y589848D02*
X693499Y589848D01*
X693499Y590817D02*
X691519Y590817D01*
X691519Y591786D02*
X693499Y591786D01*
X693499Y592755D02*
X691519Y592755D01*
X691519Y593724D02*
X693499Y593724D01*
X693499Y594693D02*
X691519Y594693D01*
X691519Y595662D02*
X693499Y595662D01*
X693499Y596631D02*
X691519Y596631D01*
D12*
X684271Y572588D02*
X684271Y567512D01*
X684271Y572588D02*
X685747Y572588D01*
X685747Y567512D01*
X684271Y567512D01*
X684271Y568486D02*
X685747Y568486D01*
X685747Y569460D02*
X684271Y569460D01*
X684271Y570434D02*
X685747Y570434D01*
X685747Y571408D02*
X684271Y571408D01*
X684271Y572382D02*
X685747Y572382D01*
X679271Y572588D02*
X679271Y568012D01*
X679271Y572588D02*
X680747Y572588D01*
X680747Y568012D01*
X679271Y568012D01*
X679271Y568986D02*
X680747Y568986D01*
X680747Y569960D02*
X679271Y569960D01*
X679271Y570934D02*
X680747Y570934D01*
X680747Y571908D02*
X679271Y571908D01*
X674271Y572588D02*
X674271Y568012D01*
X674271Y572588D02*
X675747Y572588D01*
X675747Y568012D01*
X674271Y568012D01*
X674271Y568986D02*
X675747Y568986D01*
X675747Y569960D02*
X674271Y569960D01*
X674271Y570934D02*
X675747Y570934D01*
X675747Y571908D02*
X674271Y571908D01*
X675747Y563988D02*
X675747Y559412D01*
X674271Y559412D01*
X674271Y563988D01*
X675747Y563988D01*
X675747Y560386D02*
X674271Y560386D01*
X674271Y561360D02*
X675747Y561360D01*
X675747Y562334D02*
X674271Y562334D01*
X674271Y563308D02*
X675747Y563308D01*
X680747Y563988D02*
X680747Y559412D01*
X679271Y559412D01*
X679271Y563988D01*
X680747Y563988D01*
X680747Y560386D02*
X679271Y560386D01*
X679271Y561360D02*
X680747Y561360D01*
X680747Y562334D02*
X679271Y562334D01*
X679271Y563308D02*
X680747Y563308D01*
X685747Y563988D02*
X685747Y559412D01*
X684271Y559412D01*
X684271Y563988D01*
X685747Y563988D01*
X685747Y560386D02*
X684271Y560386D01*
X684271Y561360D02*
X685747Y561360D01*
X685747Y562334D02*
X684271Y562334D01*
X684271Y563308D02*
X685747Y563308D01*
D10*
X650499Y570510D02*
X645519Y570510D01*
X645519Y575490D01*
X650499Y575490D01*
X650499Y570510D01*
X650499Y571479D02*
X645519Y571479D01*
X645519Y572448D02*
X650499Y572448D01*
X650499Y573417D02*
X645519Y573417D01*
X645519Y574386D02*
X650499Y574386D01*
X650499Y575355D02*
X645519Y575355D01*
X655519Y570510D02*
X660499Y570510D01*
X655519Y570510D02*
X655519Y575490D01*
X660499Y575490D01*
X660499Y570510D01*
X660499Y571479D02*
X655519Y571479D01*
X655519Y572448D02*
X660499Y572448D01*
X660499Y573417D02*
X655519Y573417D01*
X655519Y574386D02*
X660499Y574386D01*
X660499Y575355D02*
X655519Y575355D01*
X709519Y575490D02*
X714499Y575490D01*
X714499Y570510D01*
X709519Y570510D01*
X709519Y575490D01*
X709519Y571479D02*
X714499Y571479D01*
X714499Y572448D02*
X709519Y572448D01*
X709519Y573417D02*
X714499Y573417D01*
X714499Y574386D02*
X709519Y574386D01*
X709519Y575355D02*
X714499Y575355D01*
X704499Y575490D02*
X699519Y575490D01*
X704499Y575490D02*
X704499Y570510D01*
X699519Y570510D01*
X699519Y575490D01*
X699519Y571479D02*
X704499Y571479D01*
X704499Y572448D02*
X699519Y572448D01*
X699519Y573417D02*
X704499Y573417D01*
X704499Y574386D02*
X699519Y574386D01*
X699519Y575355D02*
X704499Y575355D01*
D13*
X567504Y583495D02*
X567504Y591505D01*
X576514Y591505D01*
X576514Y583495D01*
X567504Y583495D01*
X567504Y584435D02*
X576514Y584435D01*
X576514Y585375D02*
X567504Y585375D01*
X567504Y586315D02*
X576514Y586315D01*
X576514Y587255D02*
X567504Y587255D01*
X567504Y588195D02*
X576514Y588195D01*
X576514Y589135D02*
X567504Y589135D01*
X567504Y590075D02*
X576514Y590075D01*
X576514Y591015D02*
X567504Y591015D01*
X551504Y591505D02*
X551504Y583495D01*
X551504Y591505D02*
X560514Y591505D01*
X560514Y583495D01*
X551504Y583495D01*
X551504Y584435D02*
X560514Y584435D01*
X560514Y585375D02*
X551504Y585375D01*
X551504Y586315D02*
X560514Y586315D01*
X560514Y587255D02*
X551504Y587255D01*
X551504Y588195D02*
X560514Y588195D01*
X560514Y589135D02*
X551504Y589135D01*
X551504Y590075D02*
X560514Y590075D01*
X560514Y591015D02*
X551504Y591015D01*
X551504Y624495D02*
X551504Y632505D01*
X560514Y632505D01*
X560514Y624495D01*
X551504Y624495D01*
X551504Y625435D02*
X560514Y625435D01*
X560514Y626375D02*
X551504Y626375D01*
X551504Y627315D02*
X560514Y627315D01*
X560514Y628255D02*
X551504Y628255D01*
X551504Y629195D02*
X560514Y629195D01*
X560514Y630135D02*
X551504Y630135D01*
X551504Y631075D02*
X560514Y631075D01*
X560514Y632015D02*
X551504Y632015D01*
X567504Y632505D02*
X567504Y624495D01*
X567504Y632505D02*
X576514Y632505D01*
X576514Y624495D01*
X567504Y624495D01*
X567504Y625435D02*
X576514Y625435D01*
X576514Y626375D02*
X567504Y626375D01*
X567504Y627315D02*
X576514Y627315D01*
X576514Y628255D02*
X567504Y628255D01*
X567504Y629195D02*
X576514Y629195D01*
X576514Y630135D02*
X567504Y630135D01*
X567504Y631075D02*
X576514Y631075D01*
X576514Y632015D02*
X567504Y632015D01*
D14*
X628863Y543354D02*
X634155Y543354D01*
X628863Y543354D02*
X628863Y550646D01*
X634155Y550646D01*
X634155Y543354D01*
X634155Y544312D02*
X628863Y544312D01*
X628863Y545270D02*
X634155Y545270D01*
X634155Y546228D02*
X628863Y546228D01*
X628863Y547186D02*
X634155Y547186D01*
X634155Y548144D02*
X628863Y548144D01*
X628863Y549102D02*
X634155Y549102D01*
X634155Y550060D02*
X628863Y550060D01*
X651863Y543354D02*
X657155Y543354D01*
X651863Y543354D02*
X651863Y550646D01*
X657155Y550646D01*
X657155Y543354D01*
X657155Y544312D02*
X651863Y544312D01*
X651863Y545270D02*
X657155Y545270D01*
X657155Y546228D02*
X651863Y546228D01*
X651863Y547186D02*
X657155Y547186D01*
X657155Y548144D02*
X651863Y548144D01*
X651863Y549102D02*
X657155Y549102D01*
X657155Y550060D02*
X651863Y550060D01*
X514155Y102054D02*
X508863Y102054D01*
X508863Y109346D01*
X514155Y109346D01*
X514155Y102054D01*
X514155Y103012D02*
X508863Y103012D01*
X508863Y103970D02*
X514155Y103970D01*
X514155Y104928D02*
X508863Y104928D01*
X508863Y105886D02*
X514155Y105886D01*
X514155Y106844D02*
X508863Y106844D01*
X508863Y107802D02*
X514155Y107802D01*
X514155Y108760D02*
X508863Y108760D01*
X531863Y102054D02*
X537155Y102054D01*
X531863Y102054D02*
X531863Y109346D01*
X537155Y109346D01*
X537155Y102054D01*
X537155Y103012D02*
X531863Y103012D01*
X531863Y103970D02*
X537155Y103970D01*
X537155Y104928D02*
X531863Y104928D01*
X531863Y105886D02*
X537155Y105886D01*
X537155Y106844D02*
X531863Y106844D01*
X531863Y107802D02*
X537155Y107802D01*
X537155Y108760D02*
X531863Y108760D01*
D15*
X463519Y78490D02*
X434499Y78490D01*
X434499Y91510D01*
X463519Y91510D01*
X463519Y78490D01*
X463519Y79421D02*
X434499Y79421D01*
X434499Y80352D02*
X463519Y80352D01*
X463519Y81283D02*
X434499Y81283D01*
X434499Y82214D02*
X463519Y82214D01*
X463519Y83145D02*
X434499Y83145D01*
X434499Y84076D02*
X463519Y84076D01*
X463519Y85007D02*
X434499Y85007D01*
X434499Y85938D02*
X463519Y85938D01*
X463519Y86869D02*
X434499Y86869D01*
X434499Y87800D02*
X463519Y87800D01*
X463519Y88731D02*
X434499Y88731D01*
X434499Y89662D02*
X463519Y89662D01*
X463519Y90593D02*
X434499Y90593D01*
X415519Y78490D02*
X386499Y78490D01*
X386499Y91510D01*
X415519Y91510D01*
X415519Y78490D01*
X415519Y79421D02*
X386499Y79421D01*
X386499Y80352D02*
X415519Y80352D01*
X415519Y81283D02*
X386499Y81283D01*
X386499Y82214D02*
X415519Y82214D01*
X415519Y83145D02*
X386499Y83145D01*
X386499Y84076D02*
X415519Y84076D01*
X415519Y85007D02*
X386499Y85007D01*
X386499Y85938D02*
X415519Y85938D01*
X415519Y86869D02*
X386499Y86869D01*
X386499Y87800D02*
X415519Y87800D01*
X415519Y88731D02*
X386499Y88731D01*
X386499Y89662D02*
X415519Y89662D01*
X415519Y90593D02*
X386499Y90593D01*
X434499Y153490D02*
X463519Y153490D01*
X434499Y153490D02*
X434499Y166510D01*
X463519Y166510D01*
X463519Y153490D01*
X463519Y154421D02*
X434499Y154421D01*
X434499Y155352D02*
X463519Y155352D01*
X463519Y156283D02*
X434499Y156283D01*
X434499Y157214D02*
X463519Y157214D01*
X463519Y158145D02*
X434499Y158145D01*
X434499Y159076D02*
X463519Y159076D01*
X463519Y160007D02*
X434499Y160007D01*
X434499Y160938D02*
X463519Y160938D01*
X463519Y161869D02*
X434499Y161869D01*
X434499Y162800D02*
X463519Y162800D01*
X463519Y163731D02*
X434499Y163731D01*
X434499Y164662D02*
X463519Y164662D01*
X463519Y165593D02*
X434499Y165593D01*
X415519Y153490D02*
X386499Y153490D01*
X386499Y166510D01*
X415519Y166510D01*
X415519Y153490D01*
X415519Y154421D02*
X386499Y154421D01*
X386499Y155352D02*
X415519Y155352D01*
X415519Y156283D02*
X386499Y156283D01*
X386499Y157214D02*
X415519Y157214D01*
X415519Y158145D02*
X386499Y158145D01*
X386499Y159076D02*
X415519Y159076D01*
X415519Y160007D02*
X386499Y160007D01*
X386499Y160938D02*
X415519Y160938D01*
X415519Y161869D02*
X386499Y161869D01*
X386499Y162800D02*
X415519Y162800D01*
X415519Y163731D02*
X386499Y163731D01*
X386499Y164662D02*
X415519Y164662D01*
X415519Y165593D02*
X386499Y165593D01*
D10*
X698519Y176510D02*
X703499Y176510D01*
X698519Y176510D02*
X698519Y181490D01*
X703499Y181490D01*
X703499Y176510D01*
X703499Y177479D02*
X698519Y177479D01*
X698519Y178448D02*
X703499Y178448D01*
X703499Y179417D02*
X698519Y179417D01*
X698519Y180386D02*
X703499Y180386D01*
X703499Y181355D02*
X698519Y181355D01*
X708519Y176510D02*
X713499Y176510D01*
X708519Y176510D02*
X708519Y181490D01*
X713499Y181490D01*
X713499Y176510D01*
X713499Y177479D02*
X708519Y177479D01*
X708519Y178448D02*
X713499Y178448D01*
X713499Y179417D02*
X708519Y179417D01*
X708519Y180386D02*
X713499Y180386D01*
X713499Y181355D02*
X708519Y181355D01*
D16*
X505509Y644000D02*
X496509Y644000D01*
X505509Y644000D02*
X505509Y622000D01*
X496509Y622000D01*
X496509Y644000D01*
X496509Y622950D02*
X505509Y622950D01*
X505509Y623900D02*
X496509Y623900D01*
X496509Y624850D02*
X505509Y624850D01*
X505509Y625800D02*
X496509Y625800D01*
X496509Y626750D02*
X505509Y626750D01*
X505509Y627700D02*
X496509Y627700D01*
X496509Y628650D02*
X505509Y628650D01*
X505509Y629600D02*
X496509Y629600D01*
X496509Y630550D02*
X505509Y630550D01*
X505509Y631500D02*
X496509Y631500D01*
X496509Y632450D02*
X505509Y632450D01*
X505509Y633400D02*
X496509Y633400D01*
X496509Y634350D02*
X505509Y634350D01*
X505509Y635300D02*
X496509Y635300D01*
X496509Y636250D02*
X505509Y636250D01*
X505509Y637200D02*
X496509Y637200D01*
X496509Y638150D02*
X505509Y638150D01*
X505509Y639100D02*
X496509Y639100D01*
X496509Y640050D02*
X505509Y640050D01*
X505509Y641000D02*
X496509Y641000D01*
X496509Y641950D02*
X505509Y641950D01*
X505509Y642900D02*
X496509Y642900D01*
X496509Y643850D02*
X505509Y643850D01*
X505509Y572000D02*
X496509Y572000D01*
X505509Y572000D02*
X505509Y550000D01*
X496509Y550000D01*
X496509Y572000D01*
X496509Y550950D02*
X505509Y550950D01*
X505509Y551900D02*
X496509Y551900D01*
X496509Y552850D02*
X505509Y552850D01*
X505509Y553800D02*
X496509Y553800D01*
X496509Y554750D02*
X505509Y554750D01*
X505509Y555700D02*
X496509Y555700D01*
X496509Y556650D02*
X505509Y556650D01*
X505509Y557600D02*
X496509Y557600D01*
X496509Y558550D02*
X505509Y558550D01*
X505509Y559500D02*
X496509Y559500D01*
X496509Y560450D02*
X505509Y560450D01*
X505509Y561400D02*
X496509Y561400D01*
X496509Y562350D02*
X505509Y562350D01*
X505509Y563300D02*
X496509Y563300D01*
X496509Y564250D02*
X505509Y564250D01*
X505509Y565200D02*
X496509Y565200D01*
X496509Y566150D02*
X505509Y566150D01*
X505509Y567100D02*
X496509Y567100D01*
X496509Y568050D02*
X505509Y568050D01*
X505509Y569000D02*
X496509Y569000D01*
X496509Y569950D02*
X505509Y569950D01*
X505509Y570900D02*
X496509Y570900D01*
X496509Y571850D02*
X505509Y571850D01*
X403509Y572000D02*
X394509Y572000D01*
X403509Y572000D02*
X403509Y550000D01*
X394509Y550000D01*
X394509Y572000D01*
X394509Y550950D02*
X403509Y550950D01*
X403509Y551900D02*
X394509Y551900D01*
X394509Y552850D02*
X403509Y552850D01*
X403509Y553800D02*
X394509Y553800D01*
X394509Y554750D02*
X403509Y554750D01*
X403509Y555700D02*
X394509Y555700D01*
X394509Y556650D02*
X403509Y556650D01*
X403509Y557600D02*
X394509Y557600D01*
X394509Y558550D02*
X403509Y558550D01*
X403509Y559500D02*
X394509Y559500D01*
X394509Y560450D02*
X403509Y560450D01*
X403509Y561400D02*
X394509Y561400D01*
X394509Y562350D02*
X403509Y562350D01*
X403509Y563300D02*
X394509Y563300D01*
X394509Y564250D02*
X403509Y564250D01*
X403509Y565200D02*
X394509Y565200D01*
X394509Y566150D02*
X403509Y566150D01*
X403509Y567100D02*
X394509Y567100D01*
X394509Y568050D02*
X403509Y568050D01*
X403509Y569000D02*
X394509Y569000D01*
X394509Y569950D02*
X403509Y569950D01*
X403509Y570900D02*
X394509Y570900D01*
X394509Y571850D02*
X403509Y571850D01*
X403509Y644000D02*
X394509Y644000D01*
X403509Y644000D02*
X403509Y622000D01*
X394509Y622000D01*
X394509Y644000D01*
X394509Y622950D02*
X403509Y622950D01*
X403509Y623900D02*
X394509Y623900D01*
X394509Y624850D02*
X403509Y624850D01*
X403509Y625800D02*
X394509Y625800D01*
X394509Y626750D02*
X403509Y626750D01*
X403509Y627700D02*
X394509Y627700D01*
X394509Y628650D02*
X403509Y628650D01*
X403509Y629600D02*
X394509Y629600D01*
X394509Y630550D02*
X403509Y630550D01*
X403509Y631500D02*
X394509Y631500D01*
X394509Y632450D02*
X403509Y632450D01*
X403509Y633400D02*
X394509Y633400D01*
X394509Y634350D02*
X403509Y634350D01*
X403509Y635300D02*
X394509Y635300D01*
X394509Y636250D02*
X403509Y636250D01*
X403509Y637200D02*
X394509Y637200D01*
X394509Y638150D02*
X403509Y638150D01*
X403509Y639100D02*
X394509Y639100D01*
X394509Y640050D02*
X403509Y640050D01*
X403509Y641000D02*
X394509Y641000D01*
X394509Y641950D02*
X403509Y641950D01*
X403509Y642900D02*
X394509Y642900D01*
X394509Y643850D02*
X403509Y643850D01*
D11*
X494529Y607980D02*
X503489Y607980D01*
X503489Y601020D01*
X494529Y601020D01*
X494529Y607980D01*
X494529Y602008D02*
X503489Y602008D01*
X503489Y602996D02*
X494529Y602996D01*
X494529Y603984D02*
X503489Y603984D01*
X503489Y604972D02*
X494529Y604972D01*
X494529Y605960D02*
X503489Y605960D01*
X503489Y606948D02*
X494529Y606948D01*
X494529Y607936D02*
X503489Y607936D01*
X405489Y607980D02*
X396529Y607980D01*
X405489Y607980D02*
X405489Y601020D01*
X396529Y601020D01*
X396529Y607980D01*
X396529Y602008D02*
X405489Y602008D01*
X405489Y602996D02*
X396529Y602996D01*
X396529Y603984D02*
X405489Y603984D01*
X405489Y604972D02*
X396529Y604972D01*
X396529Y605960D02*
X405489Y605960D01*
X405489Y606948D02*
X396529Y606948D01*
X396529Y607936D02*
X405489Y607936D01*
X405489Y595980D02*
X396529Y595980D01*
X405489Y595980D02*
X405489Y589020D01*
X396529Y589020D01*
X396529Y595980D01*
X396529Y590008D02*
X405489Y590008D01*
X405489Y590996D02*
X396529Y590996D01*
X396529Y591984D02*
X405489Y591984D01*
X405489Y592972D02*
X396529Y592972D01*
X396529Y593960D02*
X405489Y593960D01*
X405489Y594948D02*
X396529Y594948D01*
X396529Y595936D02*
X405489Y595936D01*
X405489Y583980D02*
X396529Y583980D01*
X405489Y583980D02*
X405489Y577020D01*
X396529Y577020D01*
X396529Y583980D01*
X396529Y578008D02*
X405489Y578008D01*
X405489Y578996D02*
X396529Y578996D01*
X396529Y579984D02*
X405489Y579984D01*
X405489Y580972D02*
X396529Y580972D01*
X396529Y581960D02*
X405489Y581960D01*
X405489Y582948D02*
X396529Y582948D01*
X396529Y583936D02*
X405489Y583936D01*
X494529Y595980D02*
X503489Y595980D01*
X503489Y589020D01*
X494529Y589020D01*
X494529Y595980D01*
X494529Y590008D02*
X503489Y590008D01*
X503489Y590996D02*
X494529Y590996D01*
X494529Y591984D02*
X503489Y591984D01*
X503489Y592972D02*
X494529Y592972D01*
X494529Y593960D02*
X503489Y593960D01*
X503489Y594948D02*
X494529Y594948D01*
X494529Y595936D02*
X503489Y595936D01*
X503489Y583980D02*
X494529Y583980D01*
X503489Y583980D02*
X503489Y577020D01*
X494529Y577020D01*
X494529Y583980D01*
X494529Y578008D02*
X503489Y578008D01*
X503489Y578996D02*
X494529Y578996D01*
X494529Y579984D02*
X503489Y579984D01*
X503489Y580972D02*
X494529Y580972D01*
X494529Y581960D02*
X503489Y581960D01*
X503489Y582948D02*
X494529Y582948D01*
X494529Y583936D02*
X503489Y583936D01*
D16*
X473209Y526250D02*
X463209Y526250D01*
X473209Y526250D02*
X473209Y517250D01*
X463209Y517250D01*
X463209Y526250D01*
X463209Y518200D02*
X473209Y518200D01*
X473209Y519150D02*
X463209Y519150D01*
X463209Y520100D02*
X473209Y520100D01*
X473209Y521050D02*
X463209Y521050D01*
X463209Y522000D02*
X473209Y522000D01*
X473209Y522950D02*
X463209Y522950D01*
X463209Y523900D02*
X473209Y523900D01*
X473209Y524850D02*
X463209Y524850D01*
X463209Y525800D02*
X473209Y525800D01*
X436809Y526250D02*
X426809Y526250D01*
X436809Y526250D02*
X436809Y517250D01*
X426809Y517250D01*
X426809Y526250D01*
X426809Y518200D02*
X436809Y518200D01*
X436809Y519150D02*
X426809Y519150D01*
X426809Y520100D02*
X436809Y520100D01*
X436809Y521050D02*
X426809Y521050D01*
X426809Y522000D02*
X436809Y522000D01*
X436809Y522950D02*
X426809Y522950D01*
X426809Y523900D02*
X436809Y523900D01*
X436809Y524850D02*
X426809Y524850D01*
X426809Y525800D02*
X436809Y525800D01*
D10*
X426499Y222490D02*
X421519Y222490D01*
X426499Y222490D02*
X426499Y217510D01*
X421519Y217510D01*
X421519Y222490D01*
X421519Y218479D02*
X426499Y218479D01*
X426499Y219448D02*
X421519Y219448D01*
X421519Y220417D02*
X426499Y220417D01*
X426499Y221386D02*
X421519Y221386D01*
X421519Y222355D02*
X426499Y222355D01*
X416499Y222490D02*
X411519Y222490D01*
X416499Y222490D02*
X416499Y217510D01*
X411519Y217510D01*
X411519Y222490D01*
X411519Y218479D02*
X416499Y218479D01*
X416499Y219448D02*
X411519Y219448D01*
X411519Y220417D02*
X416499Y220417D01*
X416499Y221386D02*
X411519Y221386D01*
X411519Y222355D02*
X416499Y222355D01*
D17*
X531279Y627500D02*
X531279Y634500D01*
X538279Y634500D01*
X538279Y627500D01*
X531279Y627500D01*
X531279Y630350D02*
X538279Y630350D01*
X538279Y633200D02*
X531279Y633200D01*
X513739Y634500D02*
X513739Y627500D01*
X513739Y634500D02*
X520739Y634500D01*
X520739Y627500D01*
X513739Y627500D01*
X513739Y630350D02*
X520739Y630350D01*
X520739Y633200D02*
X513739Y633200D01*
X531279Y599500D02*
X531279Y592500D01*
X531279Y599500D02*
X538279Y599500D01*
X538279Y592500D01*
X531279Y592500D01*
X531279Y595350D02*
X538279Y595350D01*
X538279Y598200D02*
X531279Y598200D01*
X513739Y599500D02*
X513739Y592500D01*
X513739Y599500D02*
X520739Y599500D01*
X520739Y592500D01*
X513739Y592500D01*
X513739Y595350D02*
X520739Y595350D01*
X520739Y598200D02*
X513739Y598200D01*
D10*
X518519Y615510D02*
X523499Y615510D01*
X518519Y615510D02*
X518519Y620490D01*
X523499Y620490D01*
X523499Y615510D01*
X523499Y616479D02*
X518519Y616479D01*
X518519Y617448D02*
X523499Y617448D01*
X523499Y618417D02*
X518519Y618417D01*
X518519Y619386D02*
X523499Y619386D01*
X523499Y620355D02*
X518519Y620355D01*
X528519Y615510D02*
X533499Y615510D01*
X528519Y615510D02*
X528519Y620490D01*
X533499Y620490D01*
X533499Y615510D01*
X533499Y616479D02*
X528519Y616479D01*
X528519Y617448D02*
X533499Y617448D01*
X533499Y618417D02*
X528519Y618417D01*
X528519Y619386D02*
X533499Y619386D01*
X533499Y620355D02*
X528519Y620355D01*
X523499Y580510D02*
X518519Y580510D01*
X518519Y585490D01*
X523499Y585490D01*
X523499Y580510D01*
X523499Y581479D02*
X518519Y581479D01*
X518519Y582448D02*
X523499Y582448D01*
X523499Y583417D02*
X518519Y583417D01*
X518519Y584386D02*
X523499Y584386D01*
X523499Y585355D02*
X518519Y585355D01*
X528519Y580510D02*
X533499Y580510D01*
X528519Y580510D02*
X528519Y585490D01*
X533499Y585490D01*
X533499Y580510D01*
X533499Y581479D02*
X528519Y581479D01*
X528519Y582448D02*
X533499Y582448D01*
X533499Y583417D02*
X528519Y583417D01*
X528519Y584386D02*
X533499Y584386D01*
X533499Y585355D02*
X528519Y585355D01*
D17*
X531279Y564500D02*
X531279Y557500D01*
X531279Y564500D02*
X538279Y564500D01*
X538279Y557500D01*
X531279Y557500D01*
X531279Y560350D02*
X538279Y560350D01*
X538279Y563200D02*
X531279Y563200D01*
X513739Y564500D02*
X513739Y557500D01*
X513739Y564500D02*
X520739Y564500D01*
X520739Y557500D01*
X513739Y557500D01*
X513739Y560350D02*
X520739Y560350D01*
X520739Y563200D02*
X513739Y563200D01*
D10*
X518519Y545510D02*
X523499Y545510D01*
X518519Y545510D02*
X518519Y550490D01*
X523499Y550490D01*
X523499Y545510D01*
X523499Y546479D02*
X518519Y546479D01*
X518519Y547448D02*
X523499Y547448D01*
X523499Y548417D02*
X518519Y548417D01*
X518519Y549386D02*
X523499Y549386D01*
X523499Y550355D02*
X518519Y550355D01*
X528519Y545510D02*
X533499Y545510D01*
X528519Y545510D02*
X528519Y550490D01*
X533499Y550490D01*
X533499Y545510D01*
X533499Y546479D02*
X528519Y546479D01*
X528519Y547448D02*
X533499Y547448D01*
X533499Y548417D02*
X528519Y548417D01*
X528519Y549386D02*
X533499Y549386D01*
X533499Y550355D02*
X528519Y550355D01*
X416499Y202510D02*
X411519Y202510D01*
X411519Y207490D01*
X416499Y207490D01*
X416499Y202510D01*
X416499Y203479D02*
X411519Y203479D01*
X411519Y204448D02*
X416499Y204448D01*
X416499Y205417D02*
X411519Y205417D01*
X411519Y206386D02*
X416499Y206386D01*
X416499Y207355D02*
X411519Y207355D01*
X421519Y202510D02*
X426499Y202510D01*
X421519Y202510D02*
X421519Y207490D01*
X426499Y207490D01*
X426499Y202510D01*
X426499Y203479D02*
X421519Y203479D01*
X421519Y204448D02*
X426499Y204448D01*
X426499Y205417D02*
X421519Y205417D01*
X421519Y206386D02*
X426499Y206386D01*
X426499Y207355D02*
X421519Y207355D01*
D11*
X415489Y499480D02*
X408529Y499480D01*
X415489Y499480D02*
X415489Y488520D01*
X408529Y488520D01*
X408529Y499480D01*
X408529Y489508D02*
X415489Y489508D01*
X415489Y490496D02*
X408529Y490496D01*
X408529Y491484D02*
X415489Y491484D01*
X415489Y492472D02*
X408529Y492472D01*
X408529Y493460D02*
X415489Y493460D01*
X415489Y494448D02*
X408529Y494448D01*
X408529Y495436D02*
X415489Y495436D01*
X415489Y496424D02*
X408529Y496424D01*
X408529Y497412D02*
X415489Y497412D01*
X415489Y498400D02*
X408529Y498400D01*
X408529Y499388D02*
X415489Y499388D01*
X397489Y499480D02*
X390529Y499480D01*
X397489Y499480D02*
X397489Y488520D01*
X390529Y488520D01*
X390529Y499480D01*
X390529Y489508D02*
X397489Y489508D01*
X397489Y490496D02*
X390529Y490496D01*
X390529Y491484D02*
X397489Y491484D01*
X397489Y492472D02*
X390529Y492472D01*
X390529Y493460D02*
X397489Y493460D01*
X397489Y494448D02*
X390529Y494448D01*
X390529Y495436D02*
X397489Y495436D01*
X397489Y496424D02*
X390529Y496424D01*
X390529Y497412D02*
X397489Y497412D01*
X397489Y498400D02*
X390529Y498400D01*
X390529Y499388D02*
X397489Y499388D01*
D18*
X490009Y200250D03*
X500009Y200250D03*
X505009Y200250D03*
X495009Y200250D03*
X510009Y200250D03*
X520009Y200250D03*
X525009Y200250D03*
X515009Y200250D03*
X530009Y200250D03*
X540009Y200250D03*
X545009Y200250D03*
X535009Y200250D03*
X550009Y200250D03*
X560009Y200250D03*
X565009Y200250D03*
X555009Y200250D03*
X570009Y200250D03*
X580009Y200250D03*
X585009Y200250D03*
X575009Y200250D03*
X590009Y200250D03*
X595009Y200250D03*
X620009Y200250D03*
X625009Y200250D03*
X630009Y200250D03*
X640009Y200250D03*
X645009Y200250D03*
X635009Y200250D03*
X650009Y200250D03*
X660009Y200250D03*
X665009Y200250D03*
X655009Y200250D03*
X670009Y200250D03*
X487509Y124750D03*
X497509Y124750D03*
X502509Y124750D03*
X492509Y124750D03*
X507509Y124750D03*
X517509Y124750D03*
X522509Y124750D03*
X512509Y124750D03*
X527509Y124750D03*
X537509Y124750D03*
X542509Y124750D03*
X532509Y124750D03*
X547509Y124750D03*
X557509Y124750D03*
X562509Y124750D03*
X552509Y124750D03*
X567509Y124750D03*
X577509Y124750D03*
X582509Y124750D03*
X572509Y124750D03*
X587509Y124750D03*
X592509Y124750D03*
X617509Y124750D03*
X622509Y124750D03*
X627509Y124750D03*
X637509Y124750D03*
X642509Y124750D03*
X632509Y124750D03*
X647509Y124750D03*
X657509Y124750D03*
X662509Y124750D03*
X652509Y124750D03*
X667509Y124750D03*
X672509Y124750D03*
D19*
X677989Y145770D02*
X689029Y145770D01*
X689029Y119230D01*
X677989Y119230D01*
X677989Y145770D01*
X677989Y120142D02*
X689029Y120142D01*
X689029Y121054D02*
X677989Y121054D01*
X677989Y121966D02*
X689029Y121966D01*
X689029Y122878D02*
X677989Y122878D01*
X677989Y123790D02*
X689029Y123790D01*
X689029Y124702D02*
X677989Y124702D01*
X677989Y125614D02*
X689029Y125614D01*
X689029Y126526D02*
X677989Y126526D01*
X677989Y127438D02*
X689029Y127438D01*
X689029Y128350D02*
X677989Y128350D01*
X677989Y129262D02*
X689029Y129262D01*
X689029Y130174D02*
X677989Y130174D01*
X677989Y131086D02*
X689029Y131086D01*
X689029Y131998D02*
X677989Y131998D01*
X677989Y132910D02*
X689029Y132910D01*
X689029Y133822D02*
X677989Y133822D01*
X677989Y134734D02*
X689029Y134734D01*
X689029Y135646D02*
X677989Y135646D01*
X677989Y136558D02*
X689029Y136558D01*
X689029Y137470D02*
X677989Y137470D01*
X677989Y138382D02*
X689029Y138382D01*
X689029Y139294D02*
X677989Y139294D01*
X677989Y140206D02*
X689029Y140206D01*
X689029Y141118D02*
X677989Y141118D01*
X677989Y142030D02*
X689029Y142030D01*
X689029Y142942D02*
X677989Y142942D01*
X677989Y143854D02*
X689029Y143854D01*
X689029Y144766D02*
X677989Y144766D01*
X677989Y145678D02*
X689029Y145678D01*
X482029Y145770D02*
X470989Y145770D01*
X482029Y145770D02*
X482029Y119230D01*
X470989Y119230D01*
X470989Y145770D01*
X470989Y120142D02*
X482029Y120142D01*
X482029Y121054D02*
X470989Y121054D01*
X470989Y121966D02*
X482029Y121966D01*
X482029Y122878D02*
X470989Y122878D01*
X470989Y123790D02*
X482029Y123790D01*
X482029Y124702D02*
X470989Y124702D01*
X470989Y125614D02*
X482029Y125614D01*
X482029Y126526D02*
X470989Y126526D01*
X470989Y127438D02*
X482029Y127438D01*
X482029Y128350D02*
X470989Y128350D01*
X470989Y129262D02*
X482029Y129262D01*
X482029Y130174D02*
X470989Y130174D01*
X470989Y131086D02*
X482029Y131086D01*
X482029Y131998D02*
X470989Y131998D01*
X470989Y132910D02*
X482029Y132910D01*
X482029Y133822D02*
X470989Y133822D01*
X470989Y134734D02*
X482029Y134734D01*
X482029Y135646D02*
X470989Y135646D01*
X470989Y136558D02*
X482029Y136558D01*
X482029Y137470D02*
X470989Y137470D01*
X470989Y138382D02*
X482029Y138382D01*
X482029Y139294D02*
X470989Y139294D01*
X470989Y140206D02*
X482029Y140206D01*
X482029Y141118D02*
X470989Y141118D01*
X470989Y142030D02*
X482029Y142030D01*
X482029Y142942D02*
X470989Y142942D01*
X470989Y143854D02*
X482029Y143854D01*
X482029Y144766D02*
X470989Y144766D01*
X470989Y145678D02*
X482029Y145678D01*
D13*
X740254Y197506D02*
X744764Y197506D01*
X744764Y186496D01*
X740254Y186496D01*
X740254Y197506D01*
X740254Y187436D02*
X744764Y187436D01*
X744764Y188376D02*
X740254Y188376D01*
X740254Y189316D02*
X744764Y189316D01*
X744764Y190256D02*
X740254Y190256D01*
X740254Y191196D02*
X744764Y191196D01*
X744764Y192136D02*
X740254Y192136D01*
X740254Y193076D02*
X744764Y193076D01*
X744764Y194016D02*
X740254Y194016D01*
X740254Y194956D02*
X744764Y194956D01*
X744764Y195896D02*
X740254Y195896D01*
X740254Y196836D02*
X744764Y196836D01*
X735264Y197506D02*
X730754Y197506D01*
X735264Y197506D02*
X735264Y186496D01*
X730754Y186496D01*
X730754Y197506D01*
X730754Y187436D02*
X735264Y187436D01*
X735264Y188376D02*
X730754Y188376D01*
X730754Y189316D02*
X735264Y189316D01*
X735264Y190256D02*
X730754Y190256D01*
X730754Y191196D02*
X735264Y191196D01*
X735264Y192136D02*
X730754Y192136D01*
X730754Y193076D02*
X735264Y193076D01*
X735264Y194016D02*
X730754Y194016D01*
X730754Y194956D02*
X735264Y194956D01*
X735264Y195896D02*
X730754Y195896D01*
X730754Y196836D02*
X735264Y196836D01*
X725764Y197506D02*
X721254Y197506D01*
X725764Y197506D02*
X725764Y186496D01*
X721254Y186496D01*
X721254Y197506D01*
X721254Y187436D02*
X725764Y187436D01*
X725764Y188376D02*
X721254Y188376D01*
X721254Y189316D02*
X725764Y189316D01*
X725764Y190256D02*
X721254Y190256D01*
X721254Y191196D02*
X725764Y191196D01*
X725764Y192136D02*
X721254Y192136D01*
X721254Y193076D02*
X725764Y193076D01*
X725764Y194016D02*
X721254Y194016D01*
X721254Y194956D02*
X725764Y194956D01*
X725764Y195896D02*
X721254Y195896D01*
X721254Y196836D02*
X725764Y196836D01*
X725764Y171504D02*
X721254Y171504D01*
X725764Y171504D02*
X725764Y160494D01*
X721254Y160494D01*
X721254Y171504D01*
X721254Y161434D02*
X725764Y161434D01*
X725764Y162374D02*
X721254Y162374D01*
X721254Y163314D02*
X725764Y163314D01*
X725764Y164254D02*
X721254Y164254D01*
X721254Y165194D02*
X725764Y165194D01*
X725764Y166134D02*
X721254Y166134D01*
X721254Y167074D02*
X725764Y167074D01*
X725764Y168014D02*
X721254Y168014D01*
X721254Y168954D02*
X725764Y168954D01*
X725764Y169894D02*
X721254Y169894D01*
X721254Y170834D02*
X725764Y170834D01*
X740254Y171504D02*
X744764Y171504D01*
X744764Y160494D01*
X740254Y160494D01*
X740254Y171504D01*
X740254Y161434D02*
X744764Y161434D01*
X744764Y162374D02*
X740254Y162374D01*
X740254Y163314D02*
X744764Y163314D01*
X744764Y164254D02*
X740254Y164254D01*
X740254Y165194D02*
X744764Y165194D01*
X744764Y166134D02*
X740254Y166134D01*
X740254Y167074D02*
X744764Y167074D01*
X744764Y168014D02*
X740254Y168014D01*
X740254Y168954D02*
X744764Y168954D01*
X744764Y169894D02*
X740254Y169894D01*
X740254Y170834D02*
X744764Y170834D01*
D10*
X739499Y224510D02*
X734519Y224510D01*
X734519Y229490D01*
X739499Y229490D01*
X739499Y224510D01*
X739499Y225479D02*
X734519Y225479D01*
X734519Y226448D02*
X739499Y226448D01*
X739499Y227417D02*
X734519Y227417D01*
X734519Y228386D02*
X739499Y228386D01*
X739499Y229355D02*
X734519Y229355D01*
X744519Y224510D02*
X749499Y224510D01*
X744519Y224510D02*
X744519Y229490D01*
X749499Y229490D01*
X749499Y224510D01*
X749499Y225479D02*
X744519Y225479D01*
X744519Y226448D02*
X749499Y226448D01*
X749499Y227417D02*
X744519Y227417D01*
X744519Y228386D02*
X749499Y228386D01*
X749499Y229355D02*
X744519Y229355D01*
D14*
X703655Y145354D02*
X698363Y145354D01*
X698363Y152646D01*
X703655Y152646D01*
X703655Y145354D01*
X703655Y146312D02*
X698363Y146312D01*
X698363Y147270D02*
X703655Y147270D01*
X703655Y148228D02*
X698363Y148228D01*
X698363Y149186D02*
X703655Y149186D01*
X703655Y150144D02*
X698363Y150144D01*
X698363Y151102D02*
X703655Y151102D01*
X703655Y152060D02*
X698363Y152060D01*
X721363Y145354D02*
X726655Y145354D01*
X721363Y145354D02*
X721363Y152646D01*
X726655Y152646D01*
X726655Y145354D01*
X726655Y146312D02*
X721363Y146312D01*
X721363Y147270D02*
X726655Y147270D01*
X726655Y148228D02*
X721363Y148228D01*
X721363Y149186D02*
X726655Y149186D01*
X726655Y150144D02*
X721363Y150144D01*
X721363Y151102D02*
X726655Y151102D01*
X726655Y152060D02*
X721363Y152060D01*
D10*
X744519Y215490D02*
X749499Y215490D01*
X749499Y210510D01*
X744519Y210510D01*
X744519Y215490D01*
X744519Y211479D02*
X749499Y211479D01*
X749499Y212448D02*
X744519Y212448D01*
X744519Y213417D02*
X749499Y213417D01*
X749499Y214386D02*
X744519Y214386D01*
X744519Y215355D02*
X749499Y215355D01*
X739499Y215490D02*
X734519Y215490D01*
X739499Y215490D02*
X739499Y210510D01*
X734519Y210510D01*
X734519Y215490D01*
X734519Y211479D02*
X739499Y211479D01*
X739499Y212448D02*
X734519Y212448D01*
X734519Y213417D02*
X739499Y213417D01*
X739499Y214386D02*
X734519Y214386D01*
X734519Y215355D02*
X739499Y215355D01*
X740019Y151490D02*
X740019Y146510D01*
X740019Y151490D02*
X744999Y151490D01*
X744999Y146510D01*
X740019Y146510D01*
X740019Y147479D02*
X744999Y147479D01*
X744999Y148448D02*
X740019Y148448D01*
X740019Y149417D02*
X744999Y149417D01*
X744999Y150386D02*
X740019Y150386D01*
X740019Y151355D02*
X744999Y151355D01*
X740019Y141490D02*
X740019Y136510D01*
X740019Y141490D02*
X744999Y141490D01*
X744999Y136510D01*
X740019Y136510D01*
X740019Y137479D02*
X744999Y137479D01*
X744999Y138448D02*
X740019Y138448D01*
X740019Y139417D02*
X744999Y139417D01*
X744999Y140386D02*
X740019Y140386D01*
X740019Y141355D02*
X744999Y141355D01*
D14*
X668155Y109646D02*
X662863Y109646D01*
X668155Y109646D02*
X668155Y102354D01*
X662863Y102354D01*
X662863Y109646D01*
X662863Y103312D02*
X668155Y103312D01*
X668155Y104270D02*
X662863Y104270D01*
X662863Y105228D02*
X668155Y105228D01*
X668155Y106186D02*
X662863Y106186D01*
X662863Y107144D02*
X668155Y107144D01*
X668155Y108102D02*
X662863Y108102D01*
X662863Y109060D02*
X668155Y109060D01*
X645155Y109646D02*
X639863Y109646D01*
X645155Y109646D02*
X645155Y102354D01*
X639863Y102354D01*
X639863Y109646D01*
X639863Y103312D02*
X645155Y103312D01*
X645155Y104270D02*
X639863Y104270D01*
X639863Y105228D02*
X645155Y105228D01*
X645155Y106186D02*
X639863Y106186D01*
X639863Y107144D02*
X645155Y107144D01*
X645155Y108102D02*
X639863Y108102D01*
X639863Y109060D02*
X645155Y109060D01*
D10*
X609999Y57510D02*
X605019Y57510D01*
X605019Y62490D01*
X609999Y62490D01*
X609999Y57510D01*
X609999Y58479D02*
X605019Y58479D01*
X605019Y59448D02*
X609999Y59448D01*
X609999Y60417D02*
X605019Y60417D01*
X605019Y61386D02*
X609999Y61386D01*
X609999Y62355D02*
X605019Y62355D01*
X615019Y57510D02*
X619999Y57510D01*
X615019Y57510D02*
X615019Y62490D01*
X619999Y62490D01*
X619999Y57510D01*
X619999Y58479D02*
X615019Y58479D01*
X615019Y59448D02*
X619999Y59448D01*
X619999Y60417D02*
X615019Y60417D01*
X615019Y61386D02*
X619999Y61386D01*
X619999Y62355D02*
X615019Y62355D01*
X539999Y57510D02*
X535019Y57510D01*
X535019Y62490D01*
X539999Y62490D01*
X539999Y57510D01*
X539999Y58479D02*
X535019Y58479D01*
X535019Y59448D02*
X539999Y59448D01*
X539999Y60417D02*
X535019Y60417D01*
X535019Y61386D02*
X539999Y61386D01*
X539999Y62355D02*
X535019Y62355D01*
X545019Y57510D02*
X549999Y57510D01*
X545019Y57510D02*
X545019Y62490D01*
X549999Y62490D01*
X549999Y57510D01*
X549999Y58479D02*
X545019Y58479D01*
X545019Y59448D02*
X549999Y59448D01*
X549999Y60417D02*
X545019Y60417D01*
X545019Y61386D02*
X549999Y61386D01*
X549999Y62355D02*
X545019Y62355D01*
D16*
X482009Y55500D02*
X472009Y55500D01*
X482009Y55500D02*
X482009Y46500D01*
X472009Y46500D01*
X472009Y55500D01*
X472009Y47450D02*
X482009Y47450D01*
X482009Y48400D02*
X472009Y48400D01*
X472009Y49350D02*
X482009Y49350D01*
X482009Y50300D02*
X472009Y50300D01*
X472009Y51250D02*
X482009Y51250D01*
X482009Y52200D02*
X472009Y52200D01*
X472009Y53150D02*
X482009Y53150D01*
X482009Y54100D02*
X472009Y54100D01*
X472009Y55050D02*
X482009Y55050D01*
X465009Y55500D02*
X455009Y55500D01*
X465009Y55500D02*
X465009Y46500D01*
X455009Y46500D01*
X455009Y55500D01*
X455009Y47450D02*
X465009Y47450D01*
X465009Y48400D02*
X455009Y48400D01*
X455009Y49350D02*
X465009Y49350D01*
X465009Y50300D02*
X455009Y50300D01*
X455009Y51250D02*
X465009Y51250D01*
X465009Y52200D02*
X455009Y52200D01*
X455009Y53150D02*
X465009Y53150D01*
X465009Y54100D02*
X455009Y54100D01*
X455009Y55050D02*
X465009Y55050D01*
D10*
X569519Y642490D02*
X574499Y642490D01*
X574499Y637510D01*
X569519Y637510D01*
X569519Y642490D01*
X569519Y638479D02*
X574499Y638479D01*
X574499Y639448D02*
X569519Y639448D01*
X569519Y640417D02*
X574499Y640417D01*
X574499Y641386D02*
X569519Y641386D01*
X569519Y642355D02*
X574499Y642355D01*
X564499Y642490D02*
X559519Y642490D01*
X564499Y642490D02*
X564499Y637510D01*
X559519Y637510D01*
X559519Y642490D01*
X559519Y638479D02*
X564499Y638479D01*
X564499Y639448D02*
X559519Y639448D01*
X559519Y640417D02*
X564499Y640417D01*
X564499Y641386D02*
X559519Y641386D01*
X559519Y642355D02*
X564499Y642355D01*
D20*
X570484Y551025D02*
X550534Y551025D01*
X550534Y572975D01*
X570484Y572975D01*
X570484Y551025D01*
X570484Y552022D02*
X550534Y552022D01*
X550534Y553019D02*
X570484Y553019D01*
X570484Y554016D02*
X550534Y554016D01*
X550534Y555013D02*
X570484Y555013D01*
X570484Y556010D02*
X550534Y556010D01*
X550534Y557007D02*
X570484Y557007D01*
X570484Y558004D02*
X550534Y558004D01*
X550534Y559001D02*
X570484Y559001D01*
X570484Y559998D02*
X550534Y559998D01*
X550534Y560995D02*
X570484Y560995D01*
X570484Y561992D02*
X550534Y561992D01*
X550534Y562989D02*
X570484Y562989D01*
X570484Y563986D02*
X550534Y563986D01*
X550534Y564983D02*
X570484Y564983D01*
X570484Y565980D02*
X550534Y565980D01*
X550534Y566977D02*
X570484Y566977D01*
X570484Y567974D02*
X550534Y567974D01*
X550534Y568971D02*
X570484Y568971D01*
X570484Y569968D02*
X550534Y569968D01*
X550534Y570965D02*
X570484Y570965D01*
X570484Y571962D02*
X550534Y571962D01*
X550534Y572959D02*
X570484Y572959D01*
X589534Y551025D02*
X609484Y551025D01*
X589534Y551025D02*
X589534Y572975D01*
X609484Y572975D01*
X609484Y551025D01*
X609484Y552022D02*
X589534Y552022D01*
X589534Y553019D02*
X609484Y553019D01*
X609484Y554016D02*
X589534Y554016D01*
X589534Y555013D02*
X609484Y555013D01*
X609484Y556010D02*
X589534Y556010D01*
X589534Y557007D02*
X609484Y557007D01*
X609484Y558004D02*
X589534Y558004D01*
X589534Y559001D02*
X609484Y559001D01*
X609484Y559998D02*
X589534Y559998D01*
X589534Y560995D02*
X609484Y560995D01*
X609484Y561992D02*
X589534Y561992D01*
X589534Y562989D02*
X609484Y562989D01*
X609484Y563986D02*
X589534Y563986D01*
X589534Y564983D02*
X609484Y564983D01*
X609484Y565980D02*
X589534Y565980D01*
X589534Y566977D02*
X609484Y566977D01*
X609484Y567974D02*
X589534Y567974D01*
X589534Y568971D02*
X609484Y568971D01*
X609484Y569968D02*
X589534Y569968D01*
X589534Y570965D02*
X609484Y570965D01*
X609484Y571962D02*
X589534Y571962D01*
X589534Y572959D02*
X609484Y572959D01*
X603834Y606475D02*
X597884Y606475D01*
X603834Y606475D02*
X603834Y600525D01*
X597884Y600525D01*
X597884Y606475D01*
X597884Y601522D02*
X603834Y601522D01*
X603834Y602519D02*
X597884Y602519D01*
X597884Y603516D02*
X603834Y603516D01*
X603834Y604513D02*
X597884Y604513D01*
X597884Y605510D02*
X603834Y605510D01*
X603834Y617475D02*
X597884Y617475D01*
X603834Y617475D02*
X603834Y611525D01*
X597884Y611525D01*
X597884Y617475D01*
X597884Y612522D02*
X603834Y612522D01*
X603834Y613519D02*
X597884Y613519D01*
X597884Y614516D02*
X603834Y614516D01*
X603834Y615513D02*
X597884Y615513D01*
X597884Y616510D02*
X603834Y616510D01*
X616184Y617475D02*
X622134Y617475D01*
X622134Y611525D01*
X616184Y611525D01*
X616184Y617475D01*
X616184Y612522D02*
X622134Y612522D01*
X622134Y613519D02*
X616184Y613519D01*
X616184Y614516D02*
X622134Y614516D01*
X622134Y615513D02*
X616184Y615513D01*
X616184Y616510D02*
X622134Y616510D01*
X622134Y606475D02*
X616184Y606475D01*
X622134Y606475D02*
X622134Y600525D01*
X616184Y600525D01*
X616184Y606475D01*
X616184Y601522D02*
X622134Y601522D01*
X622134Y602519D02*
X616184Y602519D01*
X616184Y603516D02*
X622134Y603516D01*
X622134Y604513D02*
X616184Y604513D01*
X616184Y605510D02*
X622134Y605510D01*
D10*
X621499Y631490D02*
X616519Y631490D01*
X621499Y631490D02*
X621499Y626510D01*
X616519Y626510D01*
X616519Y631490D01*
X616519Y627479D02*
X621499Y627479D01*
X621499Y628448D02*
X616519Y628448D01*
X616519Y629417D02*
X621499Y629417D01*
X621499Y630386D02*
X616519Y630386D01*
X616519Y631355D02*
X621499Y631355D01*
X611499Y631490D02*
X606519Y631490D01*
X611499Y631490D02*
X611499Y626510D01*
X606519Y626510D01*
X606519Y631490D01*
X606519Y627479D02*
X611499Y627479D01*
X611499Y628448D02*
X606519Y628448D01*
X606519Y629417D02*
X611499Y629417D01*
X611499Y630386D02*
X606519Y630386D01*
X606519Y631355D02*
X611499Y631355D01*
D11*
X416989Y340980D02*
X416989Y334020D01*
X409029Y334020D01*
X409029Y340980D01*
X416989Y340980D01*
X416989Y335008D02*
X409029Y335008D01*
X409029Y335996D02*
X416989Y335996D01*
X416989Y336984D02*
X409029Y336984D01*
X409029Y337972D02*
X416989Y337972D01*
X416989Y338960D02*
X409029Y338960D01*
X409029Y339948D02*
X416989Y339948D01*
X416989Y340936D02*
X409029Y340936D01*
X416989Y353020D02*
X416989Y359980D01*
X416989Y353020D02*
X409029Y353020D01*
X409029Y359980D01*
X416989Y359980D01*
X416989Y354008D02*
X409029Y354008D01*
X409029Y354996D02*
X416989Y354996D01*
X416989Y355984D02*
X409029Y355984D01*
X409029Y356972D02*
X416989Y356972D01*
X416989Y357960D02*
X409029Y357960D01*
X409029Y358948D02*
X416989Y358948D01*
X416989Y359936D02*
X409029Y359936D01*
X395989Y350480D02*
X395989Y343520D01*
X388029Y343520D01*
X388029Y350480D01*
X395989Y350480D01*
X395989Y344508D02*
X388029Y344508D01*
X388029Y345496D02*
X395989Y345496D01*
X395989Y346484D02*
X388029Y346484D01*
X388029Y347472D02*
X395989Y347472D01*
X395989Y348460D02*
X388029Y348460D01*
X388029Y349448D02*
X395989Y349448D01*
X395989Y350436D02*
X388029Y350436D01*
X416989Y380020D02*
X416989Y386980D01*
X416989Y380020D02*
X409029Y380020D01*
X409029Y386980D01*
X416989Y386980D01*
X416989Y381008D02*
X409029Y381008D01*
X409029Y381996D02*
X416989Y381996D01*
X416989Y382984D02*
X409029Y382984D01*
X409029Y383972D02*
X416989Y383972D01*
X416989Y384960D02*
X409029Y384960D01*
X409029Y385948D02*
X416989Y385948D01*
X416989Y386936D02*
X409029Y386936D01*
X416989Y399020D02*
X416989Y405980D01*
X416989Y399020D02*
X409029Y399020D01*
X409029Y405980D01*
X416989Y405980D01*
X416989Y400008D02*
X409029Y400008D01*
X409029Y400996D02*
X416989Y400996D01*
X416989Y401984D02*
X409029Y401984D01*
X409029Y402972D02*
X416989Y402972D01*
X416989Y403960D02*
X409029Y403960D01*
X409029Y404948D02*
X416989Y404948D01*
X416989Y405936D02*
X409029Y405936D01*
X395989Y396480D02*
X395989Y389520D01*
X388029Y389520D01*
X388029Y396480D01*
X395989Y396480D01*
X395989Y390508D02*
X388029Y390508D01*
X388029Y391496D02*
X395989Y391496D01*
X395989Y392484D02*
X388029Y392484D01*
X388029Y393472D02*
X395989Y393472D01*
X395989Y394460D02*
X388029Y394460D01*
X388029Y395448D02*
X395989Y395448D01*
X395989Y396436D02*
X388029Y396436D01*
D10*
X411519Y367510D02*
X416499Y367510D01*
X411519Y367510D02*
X411519Y372490D01*
X416499Y372490D01*
X416499Y367510D01*
X416499Y368479D02*
X411519Y368479D01*
X411519Y369448D02*
X416499Y369448D01*
X416499Y370417D02*
X411519Y370417D01*
X411519Y371386D02*
X416499Y371386D01*
X416499Y372355D02*
X411519Y372355D01*
X421519Y367510D02*
X426499Y367510D01*
X421519Y367510D02*
X421519Y372490D01*
X426499Y372490D01*
X426499Y367510D01*
X426499Y368479D02*
X421519Y368479D01*
X421519Y369448D02*
X426499Y369448D01*
X426499Y370417D02*
X421519Y370417D01*
X421519Y371386D02*
X426499Y371386D01*
X426499Y372355D02*
X421519Y372355D01*
X394499Y367510D02*
X389519Y367510D01*
X389519Y372490D01*
X394499Y372490D01*
X394499Y367510D01*
X394499Y368479D02*
X389519Y368479D01*
X389519Y369448D02*
X394499Y369448D01*
X394499Y370417D02*
X389519Y370417D01*
X389519Y371386D02*
X394499Y371386D01*
X394499Y372355D02*
X389519Y372355D01*
X399519Y367510D02*
X404499Y367510D01*
X399519Y367510D02*
X399519Y372490D01*
X404499Y372490D01*
X404499Y367510D01*
X404499Y368479D02*
X399519Y368479D01*
X399519Y369448D02*
X404499Y369448D01*
X404499Y370417D02*
X399519Y370417D01*
X399519Y371386D02*
X404499Y371386D01*
X404499Y372355D02*
X399519Y372355D01*
M02*
